mtllib SM_BridgeBigSign_LOD5.mtl
g SM_BridgeBigSign_LOD5
#Vertices 57
#Indices 66
#Section 0 Offset 0 NumIndices 66 MaterialIndex 0 MI_Rubber08
v 6.144864 11.231556 0.294013
v -6.172292 10.998441 -0.130802
v -6.077543 11.410198 0.185192
v 6.086726 11.247895 -0.656505
v -6.172292 10.998441 -0.130802
v 6.144864 11.231556 0.294013
v -5.994095 8.050108 0.198718
v -6.305010 4.292568 1.752740
v -6.443996 9.321325 -0.401474
v -6.249325 4.028630 0.759643
v -5.994095 8.050108 0.198718
v -6.443996 9.321325 -0.401474
v -6.443996 9.321325 -0.401474
v -6.305010 4.292568 1.752740
v -6.249325 4.028630 0.759643
v -6.443996 9.321325 -0.401474
v -6.520109 4.088632 -1.103032
v -5.727257 4.140162 -1.478487
v 6.266959 10.258932 0.028604
v 5.742599 4.008831 -1.246634
v 6.679929 4.232447 -1.236264
v 6.296144 7.795902 0.519813
v 6.679929 4.232447 -1.236264
v 5.742599 4.008831 -1.246634
v 6.679929 4.232447 -1.236264
v 6.296144 7.795902 0.519813
v 6.266959 10.258932 0.028604
v 6.266959 10.258932 0.028604
v 6.296144 7.795902 0.519813
v 5.742599 4.008831 -1.246634
v 6.144864 9.251271 0.294014
v -6.172292 9.018157 -0.130801
v -6.077543 9.429913 0.185192
v 6.086727 9.267611 -0.656506
v -6.172292 9.018157 -0.130801
v 6.144864 9.251271 0.294014
v -5.994095 8.050108 0.198718
v -6.249325 4.028630 0.759643
v -6.305010 4.292568 1.752740
v -6.443996 9.321325 -0.401474
v -5.727257 4.140162 -1.478487
v -6.172292 10.998441 -0.130802
v 6.086726 11.247895 -0.656505
v -6.077543 11.410198 0.185192
v 6.144864 11.231556 0.294013
v -6.660718 11.705722 0.052184
v -5.994095 8.050108 0.198718
v -6.443996 9.321325 -0.401474
v -6.443996 9.321325 -0.401474
v -6.520109 4.088632 -1.103032
v -5.994095 8.050108 0.198718
v -5.727257 4.140162 -1.478487
v -6.443996 9.321325 -0.401474
v -6.172292 9.018157 -0.130801
v 6.086727 9.267611 -0.656506
v -6.077543 9.429913 0.185192
v 6.144864 9.251271 0.294014
vt 0.918945 -0.197266
vt -0.071655 -0.177734
vt -0.063782 -0.211914
vt 0.914551 0.180664
vt -0.071350 -0.060547
vt 0.918945 -0.240234
vt 1.153320 0.088379
vt 1.190430 -0.320312
vt 1.192383 0.229492
vt 1.499023 0.464844
vt 1.513672 0.017578
vt 1.573242 -0.125000
vt -0.382080 0.649414
vt 0.187988 0.384766
vt 0.222900 0.484863
vt 1.183594 0.791016
vt 1.218750 1.321289
vt 1.139648 1.325439
vt 1.334961 0.310059
vt 1.304688 -0.333984
vt 1.392578 -0.308594
vt 0.935059 0.484375
vt 0.919922 0.046875
vt 1.021484 0.028320
vt 0.663574 -0.623047
vt 0.250488 -0.418945
vt -0.024597 -0.458984
vt -0.447998 1.286133
vt -0.142822 1.233032
vt 0.332031 1.437500
vt -0.042206 -0.163086
vt -0.026169 0.631104
vt -0.053497 0.624756
vt 0.261230 -0.159180
vt 0.067444 0.630859
vt -0.076111 -0.163086
vt -0.173828 0.988579
vt 0.326904 1.071045
vt 0.296143 1.182129
vt -0.330566 0.914856
vt 0.322998 0.801147
vt -0.071350 0.002930
vt 0.914551 -0.173828
vt -0.063477 0.194336
vt 0.919434 0.246582
vt 1.208984 0.491699
vt 1.149414 0.082031
vt 1.203125 0.226562
vt 1.188477 0.229004
vt 1.538086 -0.357422
vt 1.504883 0.104980
vt 1.443359 -0.365234
vt 1.597656 0.217285
vt 0.118774 0.630859
vt -0.023148 -0.160156
vt 0.272461 0.624512
vt 0.314209 -0.163086
vt1 0.853027 0.503418
vt1 0.180298 0.507080
vt1 0.185669 0.500732
vt1 0.849609 0.571777
vt1 0.180420 0.528076
vt1 0.853027 0.495605
vt1 0.675781 0.278320
vt1 0.850586 0.293945
vt1 0.615234 0.294922
vt1 0.140381 0.066406
vt1 0.338867 0.072754
vt1 0.402588 0.098633
vt1 0.109314 0.929504
vt1 0.360840 0.814087
vt1 0.376221 0.857544
vt1 0.375732 0.291016
vt1 0.149292 0.306152
vt1 0.147461 0.272461
vt1 0.581055 0.204102
vt1 0.855957 0.190918
vt1 0.845215 0.228516
vt1 0.339355 0.160645
vt1 0.533691 0.167480
vt1 0.541992 0.122559
vt1 0.157104 0.521729
vt1 0.068054 0.703857
vt1 0.085571 0.825195
vt1 0.450439 0.910461
vt1 0.583496 0.933655
vt1 0.791016 0.844360
vt1 0.853027 0.406738
vt1 0.180298 0.410156
vt1 0.185669 0.404297
vt1 0.849609 0.475098
vt1 0.180420 0.431641
vt1 0.853027 0.398926
vt1 0.469727 0.760864
vt1 0.250977 0.796875
vt1 0.264404 0.845337
vt1 0.538086 0.728760
vt1 0.252686 0.678955
vt1 0.180542 0.539551
vt1 0.850098 0.507568
vt1 0.185791 0.574463
vt1 0.853027 0.583740
vt1 0.503418 0.301758
vt1 0.678223 0.276367
vt1 0.616699 0.299316
vt1 0.615723 0.292969
vt1 0.505371 0.083496
vt1 0.300049 0.068848
vt1 0.508789 0.041992
vt1 0.250244 0.109375
vt1 0.180542 0.442871
vt1 0.850098 0.411133
vt1 0.185791 0.477539
vt1 0.853027 0.487305
vn 0.000000 0.000000 1.000000
vn 0.000000 0.000000 1.000000
vn 0.000000 0.000000 1.000000
vn 0.000000 -1.000000 0.000000
vn 0.000000 -1.000000 0.000000
vn 0.000000 -1.000000 0.000000
vn 0.000000 0.267717 0.960630
vn 0.000000 0.267717 0.960630
vn 0.000000 0.267717 0.960630
vn -0.015748 -0.267717 -0.960630
vn -0.015748 -0.267717 -0.960630
vn -0.015748 -0.267717 -0.960630
vn -1.000000 0.000000 0.000000
vn -1.000000 0.000000 0.000000
vn -1.000000 0.000000 0.000000
vn 0.000000 0.267716 -0.960630
vn 0.000000 0.267716 -0.960630
vn 0.000000 0.267716 -0.960630
vn 0.000000 0.267716 -0.960630
vn 0.000000 0.267716 -0.960630
vn 0.000000 0.267716 -0.960630
vn 0.015748 -0.267716 0.960630
vn 0.015748 -0.267716 0.960630
vn 0.015748 -0.267716 0.960630
vn 1.000000 0.000000 0.000000
vn 1.000000 0.000000 0.000000
vn 1.000000 0.000000 0.000000
vn -1.000000 0.000000 0.000000
vn -1.000000 0.000000 0.000000
vn -1.000000 0.000000 0.000000
vn 0.000000 0.000000 1.000000
vn 0.000000 0.000000 1.000000
vn 0.000000 0.000000 1.000000
vn 0.000000 -1.000000 0.000000
vn 0.000000 -1.000000 0.000000
vn 0.000000 -1.000000 0.000000
vn 1.000000 0.000000 0.000000
vn 1.000000 0.000000 0.000000
vn 1.000000 0.000000 0.000000
vn 1.000000 0.000000 0.000000
vn 1.000000 0.000000 0.000000
vn 0.000000 1.000000 -0.000000
vn 0.000000 1.000000 -0.000000
vn 0.000000 1.000000 -0.000000
vn 0.000000 1.000000 -0.000000
vn 0.000000 0.000000 1.000000
vn 0.000000 0.000000 1.000000
vn 0.000000 0.000000 1.000000
vn 0.000000 0.000000 1.000000
vn -0.015748 -0.267716 0.960630
vn -0.015748 -0.267716 0.960630
vn -0.015748 -0.267716 0.960630
vn -0.015748 -0.267716 0.960630
vn 0.000000 1.000000 -0.000000
vn 0.000000 1.000000 -0.000000
vn 0.000000 1.000000 -0.000000
vn 0.000000 1.000000 -0.000000
tan 0.000000 1.000000 -0.000000 1.000000
tan 0.000000 1.000000 -0.000000 1.000000
tan 0.000000 1.000000 -0.000000 1.000000
tan 0.000000 0.000000 1.000000 1.000000
tan 0.000000 0.000000 1.000000 1.000000
tan 0.000000 0.000000 1.000000 1.000000
tan 0.030256 -0.960630 0.267717 1.000000
tan 0.022692 -0.960630 0.267717 1.000000
tan 0.030256 -0.960630 0.267717 1.000000
tan 0.000000 0.960630 -0.267717 1.000000
tan 0.045384 0.960630 -0.268461 1.000000
tan 0.060512 0.960630 -0.268709 1.000000
tan 0.000000 0.007874 1.000000 1.000000
tan 0.000000 -0.055118 1.000000 1.000000
tan 0.000000 -0.055118 1.000000 1.000000
tan -0.030256 0.960630 0.267716 1.000000
tan -0.022692 0.960630 0.267716 1.000000
tan -0.022692 0.960630 0.267716 1.000000
tan -0.030256 -0.960630 -0.267716 1.000000
tan -0.022692 -0.960630 -0.267716 1.000000
tan -0.022692 -0.960630 -0.267716 1.000000
tan 0.045384 -0.960630 -0.268460 1.000000
tan 0.000000 -0.960630 -0.267716 1.000000
tan -0.007564 -0.960630 -0.267592 1.000000
tan 0.000000 -0.047244 -1.000000 1.000000
tan 0.000000 0.015748 -1.000000 1.000000
tan 0.000000 -0.000000 -1.000000 1.000000
tan 0.000000 0.000000 1.000000 1.000000
tan 0.000000 0.000000 1.000000 1.000000
tan 0.000000 0.000000 1.000000 1.000000
tan 1.000000 0.000000 0.000000 1.000000
tan 1.000000 0.000000 0.000000 1.000000
tan 1.000000 0.000000 0.000000 1.000000
tan 1.000000 0.000000 0.000000 1.000000
tan 1.000000 0.000000 0.000000 1.000000
tan 1.000000 0.000000 0.000000 1.000000
tan 0.000000 -0.000000 -1.000000 1.000000
tan 0.000000 -0.000000 -1.000000 1.000000
tan 0.000000 -0.000000 -1.000000 1.000000
tan 0.000000 -0.000000 -1.000000 1.000000
tan 0.000000 -0.000000 -1.000000 1.000000
tan 0.000000 -0.000000 -1.000000 1.000000
tan 0.000000 -0.000000 -1.000000 1.000000
tan 0.000000 -0.000000 -1.000000 1.000000
tan 0.000000 -0.000000 -1.000000 1.000000
tan 0.055118 -1.000000 0.000000 1.000000
tan 0.039370 -1.000000 0.000000 1.000000
tan 0.039370 -1.000000 0.000000 1.000000
tan 0.039370 -1.000000 0.000000 1.000000
tan 0.000000 -0.960630 -0.267716 1.000000
tan -0.045384 -0.960630 -0.268460 1.000000
tan 0.007564 -0.960630 -0.267592 1.000000
tan -0.052948 -0.960630 -0.268584 1.000000
tan 1.000000 0.000000 0.000000 1.000000
tan 1.000000 0.000000 0.000000 1.000000
tan 1.000000 0.000000 0.000000 1.000000
tan 1.000000 0.000000 0.000000 1.000000
f 3/3/3 2/2/2 1/1/1
f 6/6/6 5/5/5 4/4/4
f 9/9/9 8/8/8 7/7/7
f 12/12/12 11/11/11 10/10/10
f 15/15/15 14/14/14 13/13/13
f 18/18/18 17/17/17 16/16/16
f 21/21/21 20/20/20 19/19/19
f 24/24/24 23/23/23 22/22/22
f 27/27/27 26/26/26 25/25/25
f 30/30/30 29/29/29 28/28/28
f 33/33/33 32/32/32 31/31/31
f 36/36/36 35/35/35 34/34/34
f 39/39/39 38/38/38 37/37/37
f 41/41/41 40/40/40 37/37/37
f 44/44/44 43/43/43 42/42/42
f 45/45/45 43/43/43 44/44/44
f 48/48/48 47/47/47 46/46/46
f 49/49/49 46/46/46 47/47/47
f 52/52/52 51/51/51 50/50/50
f 53/53/53 50/50/50 51/51/51
f 56/56/56 55/55/55 54/54/54
f 57/57/57 55/55/55 56/56/56
