mtllib SM_BridgeColumn_LOD3.mtl
g SM_BridgeColumn_LOD3
#Vertices 92
#Indices 252
#Section 0 Offset 0 NumIndices 150 MaterialIndex 1 MI_Metal_Darkgrey
#Section 1 Offset 150 NumIndices 51 MaterialIndex 2 MI_WhiteFillBasic
#Section 2 Offset 201 NumIndices 51 MaterialIndex 0 MM_BrickConcrete
v -0.698270 -2.591426 -1.000265
v -1.074785 -2.310544 -0.648903
v -1.005864 -2.605949 -0.549633
v -0.687961 -2.255797 -1.009405
v 0.726636 -2.254660 -1.011740
v 0.709025 -2.600132 -1.000191
v 1.002415 -2.592910 -0.675951
v 0.997298 -2.257129 -0.666081
v 1.020085 -2.260235 0.696286
v 0.997841 -2.604512 0.678020
v 0.715704 -2.592710 0.998859
v 0.707903 -2.258673 1.008190
v -0.730797 -2.262038 1.010687
v -0.708139 -2.605098 0.999861
v -0.996126 -2.603776 0.685729
v -1.024435 -2.261505 0.688599
v -1.074785 -2.310544 -0.648903
v -1.005864 -2.605949 -0.549633
v -1.000626 -2.260131 -0.531606
v -1.260768 -11.748689 -0.756564
v -0.794680 -11.266868 -1.127925
v -1.179379 -11.267844 -0.741308
v -0.997890 -11.748882 -1.233996
v 1.177235 -11.752931 -1.227823
v 0.788519 -11.265925 -1.122821
v 1.133876 -11.265504 -0.772869
v 1.219731 -11.755371 1.239869
v 1.179539 -11.306183 1.217862
v 1.121246 -11.263435 0.771520
v 0.785374 -11.262260 1.119117
v -0.783890 -11.267316 1.115509
v -1.233233 -11.368037 1.222550
v -1.192071 -11.752501 1.183267
v -1.260768 -11.748689 -0.756564
v -1.121192 -11.265982 0.769951
v -1.179379 -11.267844 -0.741308
v -1.124571 -11.261754 -0.614041
v -1.123095 -0.385316 -2.096503
v -1.015119 -0.452258 2.127407
v -1.000195 -0.453126 -1.972137
v -1.107451 0.004078 2.528889
v -1.121109 0.000000 -2.101025
v -0.719674 -0.458534 2.448494
v 0.704447 -0.458129 2.454996
v 1.109087 0.005374 2.495623
v 1.015419 -0.454289 2.130276
v 1.031991 -0.459873 -2.121041
v 1.094211 0.002599 -2.525035
v 0.719811 -0.459062 -2.449612
v -0.794907 -0.458122 -2.449772
v -0.881125 -0.000284 -2.540681
v -1.121109 0.000000 -2.101025
v -1.123095 -0.385316 -2.096503
v -1.000195 -0.453126 -1.972137
v -1.000195 -0.453126 -1.972137
v -1.000626 -2.260131 -0.531606
v -1.074785 -2.310544 -0.648903
v -0.794907 -0.458122 -2.449772
v -0.687961 -2.255797 -1.009405
v 0.726636 -2.254660 -1.011740
v 0.719811 -0.459062 -2.449612
v 1.031991 -0.459873 -2.121041
v 0.997298 -2.257129 -0.666081
v 1.015419 -0.454289 2.130276
v 1.020085 -2.260235 0.696286
v 0.707903 -2.258673 1.008190
v 0.704447 -0.458129 2.454996
v -0.730797 -2.262038 1.010687
v -0.719674 -0.458534 2.448494
v -1.015119 -0.452258 2.127407
v -1.024435 -2.261505 0.688599
v -1.000626 -2.260131 -0.531606
v -1.000195 -0.453126 -1.972137
v -1.005864 -2.605949 -0.549633
v -1.124571 -11.261754 -0.614041
v -1.179379 -11.267844 -0.741308
v -0.698270 -2.591426 -1.000265
v -0.794680 -11.266868 -1.127925
v 0.709025 -2.600132 -1.000191
v 0.788519 -11.265925 -1.122821
v 1.133876 -11.265504 -0.772869
v 1.002415 -2.592910 -0.675951
v 1.121246 -11.263435 0.771520
v 0.997841 -2.604512 0.678020
v 0.715704 -2.592710 0.998859
v 0.785374 -11.262260 1.119117
v -0.708139 -2.605098 0.999861
v -0.783890 -11.267316 1.115509
v -1.121192 -11.265982 0.769951
v -0.996126 -2.603776 0.685729
v -1.005864 -2.605949 -0.549633
v -1.124571 -11.261754 -0.614041
vt 1.036133 1.271973
vt 1.108398 1.232544
vt 1.117188 1.294922
vt 1.037109 1.216187
vt 0.850098 1.220947
vt 0.851562 1.273193
vt 0.788086 1.270020
vt 0.787598 1.213623
vt 0.611328 1.224121
vt 0.613281 1.274902
vt 0.551758 1.269287
vt 0.552246 1.212769
vt 0.360107 1.222168
vt 0.363281 1.273193
vt 0.302734 1.271240
vt 0.300781 1.221680
vt 0.121216 1.228394
vt 0.135132 1.280762
vt 0.138672 1.205444
vt 0.531738 1.186279
vt 0.450684 1.115234
vt 0.521973 1.114868
vt 0.451416 1.187500
vt 0.193481 1.052765
vt 0.276855 1.022476
vt 0.233154 0.971375
vt 0.107910 0.741455
vt 0.166626 0.748535
vt 0.192993 0.786377
vt 0.201538 0.728271
vt 0.302979 0.568115
vt 0.305908 0.516602
vt 0.281250 0.481934
vt 0.524414 0.432617
vt 0.352539 0.535645
vt 0.532227 0.495605
vt 0.519531 0.507568
vt 1.211914 0.546875
vt 0.820801 0.301758
vt 1.207031 0.517578
vt 0.742188 0.330078
vt 1.191406 0.584473
vt 0.778320 0.256836
vt 0.721680 0.085449
vt 0.651367 0.041992
vt 0.729492 0.022461
vt 0.918457 -0.402344
vt 0.884277 -0.478516
vt 0.961426 -0.449219
vt 1.139648 -0.528320
vt 1.133789 -0.593750
vt 1.211914 -0.586914
vt 1.203125 -0.530273
vt 1.206055 -0.504883
vt -0.061829 0.433594
vt 0.105774 0.668457
vt 0.096130 0.670166
vt -0.124023 0.432617
vt 0.032562 0.674561
vt -0.111084 0.776245
vt -0.276855 0.541504
vt -0.298340 0.588379
vt -0.132080 0.824463
vt -0.444824 1.097839
vt -0.178955 0.987175
vt -0.183960 1.038788
vt -0.450439 1.149536
vt -0.115356 1.203979
vt -0.382080 1.312988
vt -0.342529 1.344727
vt -0.075684 1.234253
vt 0.057281 1.306885
vt 0.105774 1.591309
vt 0.059814 0.998690
vt -0.000141 -0.078125
vt 0.011635 -0.079102
vt 0.125610 1.000464
vt 0.076721 -0.079102
vt 0.300049 0.999393
vt 0.273438 -0.078125
vt 0.332275 -0.078125
vt 0.352295 1.000286
vt 0.523926 -0.078125
vt 0.520996 0.998842
vt 0.572266 1.000304
vt 0.582520 -0.078125
vt 0.749023 0.998775
vt 0.778320 -0.079102
vt 0.836914 -0.078125
vt 0.799805 0.998934
vt 0.953613 0.998668
vt 1.009766 -0.078125
vt1 0.914062 0.059570
vt1 0.953613 0.037598
vt1 0.958008 0.072266
vt1 0.914551 0.028320
vt1 0.812012 0.031250
vt1 0.812500 0.060059
vt1 0.777832 0.058594
vt1 0.777344 0.026855
vt1 0.681152 0.032715
vt1 0.682129 0.061035
vt1 0.647949 0.058105
vt1 0.648438 0.026367
vt1 0.542969 0.031738
vt1 0.544434 0.060059
vt1 0.511719 0.059082
vt1 0.510254 0.031250
vt1 0.411865 0.035156
vt1 0.419678 0.064453
vt1 0.421631 0.022461
vt1 0.913086 0.878174
vt1 0.868164 0.838745
vt1 0.907715 0.838623
vt1 0.868652 0.878845
vt1 0.726074 0.804199
vt1 0.771973 0.787354
vt1 0.748047 0.759033
vt1 0.678711 0.631592
vt1 0.710938 0.635498
vt1 0.725586 0.656494
vt1 0.730469 0.624268
vt1 0.786621 0.535400
vt1 0.788086 0.506836
vt1 0.774414 0.487793
vt1 0.908691 0.460449
vt1 0.813965 0.517578
vt1 0.913086 0.495605
vt1 0.906250 0.501953
vt1 0.879395 0.970779
vt1 0.662598 0.833008
vt1 0.876465 0.954407
vt1 0.619141 0.848877
vt1 0.867676 0.991936
vt1 0.639160 0.807617
vt1 0.607422 0.711426
vt1 0.568848 0.687012
vt1 0.612305 0.675781
vt1 0.716797 0.437012
vt1 0.697754 0.393555
vt1 0.740234 0.410645
vt1 0.839355 0.366211
vt1 0.835938 0.329590
vt1 0.878906 0.333008
vt1 0.874023 0.364746
vt1 0.875488 0.379395
vt1 0.647461 0.270508
vt1 0.517578 0.363281
vt1 0.516602 0.357910
vt1 0.647949 0.236328
vt1 0.514160 0.322754
vt1 0.458252 0.243652
vt1 0.587402 0.151855
vt1 0.561523 0.140137
vt1 0.431396 0.231934
vt1 0.280518 0.059082
vt1 0.341553 0.206055
vt1 0.313232 0.203125
vt1 0.251953 0.056152
vt1 0.222046 0.241211
vt1 0.161743 0.093750
vt1 0.144287 0.115723
vt1 0.205322 0.263184
vt1 0.165161 0.336426
vt1 0.008026 0.363281
vt1 0.041168 0.992043
vt1 0.008064 0.395020
vt1 0.014565 0.394531
vt1 0.077515 0.993023
vt1 0.050507 0.394531
vt1 0.173950 0.992428
vt1 0.159180 0.394531
vt1 0.191650 0.394531
vt1 0.202637 0.992924
vt1 0.297607 0.394531
vt1 0.295898 0.992126
vt1 0.324219 0.992935
vt1 0.329834 0.395020
vt1 0.421631 0.992088
vt1 0.437988 0.394531
vt1 0.470459 0.394531
vt1 0.449951 0.992172
vt1 0.534668 0.992027
vt1 0.565430 0.395020
vn -0.133858 -0.803150 -0.582677
vn -0.858268 0.503937 -0.125984
vn 0.015748 -0.992126 0.133858
vn 0.023622 1.000000 0.078740
vn 0.157480 0.818897 -0.543307
vn 0.141732 -0.795276 -0.590551
vn 0.590551 -0.787401 -0.149606
vn 0.007874 1.000000 -0.015748
vn 0.645669 0.755905 0.102362
vn 0.559055 -0.818897 0.086614
vn 0.181102 -0.771653 0.614173
vn -0.007874 1.000000 0.039370
vn -0.188976 0.724409 0.669291
vn -0.133858 -0.842520 0.527559
vn -0.488189 -0.866142 0.125984
vn -0.708661 0.692913 0.149606
vn -0.905512 0.409449 -0.094488
vn -0.007874 -1.000000 0.000000
vn 0.133858 0.992126 0.007874
vn -0.992126 -0.000000 -0.133858
vn -0.251969 0.574803 -0.779527
vn -0.598425 0.803149 -0.047244
vn -0.354331 0.007874 -0.937008
vn 0.574803 0.007874 -0.818897
vn 0.149606 0.811023 -0.574803
vn 0.779528 0.606299 -0.165354
vn 0.700787 0.015748 0.716535
vn 0.598425 0.393701 0.700787
vn 0.007874 1.000000 -0.023622
vn 0.000000 1.000000 0.015748
vn -0.007874 1.000000 -0.015748
vn -0.700787 0.118110 0.700787
vn -0.716535 0.007874 0.700787
vn -0.992126 -0.000000 -0.133858
vn 0.007874 1.000000 -0.000000
vn -0.779528 0.606299 -0.165354
vn 0.000000 1.000000 -0.000000
vn -0.952756 -0.267716 -0.110236
vn -0.614173 -0.787401 0.062992
vn -0.007874 -1.000000 0.000000
vn -0.858268 0.000000 0.519685
vn -0.992126 -0.000000 -0.125984
vn -0.157480 -0.803149 0.574803
vn 0.149606 -0.629921 0.763779
vn 0.921260 0.000000 0.393701
vn 0.606299 -0.787401 0.110236
vn 0.826772 -0.559055 -0.110236
vn 0.763780 -0.007874 -0.637795
vn 0.165354 -0.795276 -0.582677
vn -0.244094 -0.598425 -0.763779
vn -0.346457 -0.000000 -0.937008
vn -0.992126 -0.000000 -0.125984
vn -0.937008 -0.307087 -0.157480
vn 0.000000 -1.000000 0.007874
vn -0.976378 -0.133858 -0.173228
vn -0.992126 -0.055118 -0.070866
vn -0.976378 -0.141732 -0.173228
vn -0.244094 -0.606299 -0.763779
vn -0.228346 -0.606299 -0.763779
vn 0.212598 -0.606299 -0.763779
vn 0.188976 -0.614173 -0.763779
vn 0.960630 -0.165354 -0.220472
vn 0.992126 -0.070866 -0.110236
vn 0.960630 -0.165354 0.220472
vn 0.984252 -0.118110 0.157480
vn 0.236220 -0.606299 0.763779
vn 0.173228 -0.614173 0.771653
vn -0.212598 -0.606299 0.763779
vn -0.188976 -0.614173 0.763779
vn -0.960630 -0.173228 0.220472
vn -0.984252 -0.118110 0.157480
vn -1.000000 -0.055118 -0.070866
vn -0.976378 -0.133858 -0.173228
vn -0.984252 0.015748 -0.181102
vn -0.992126 0.015748 -0.133858
vn -0.968504 0.015748 -0.236220
vn -0.267717 0.015748 -0.960630
vn -0.220472 0.015748 -0.976378
vn 0.236220 0.015748 -0.968504
vn 0.259843 0.015748 -0.968504
vn 0.968504 0.015748 -0.236220
vn 0.976378 0.015748 -0.204724
vn 0.976378 0.015748 0.220472
vn 0.968504 0.015748 0.244094
vn 0.291339 0.015748 0.952756
vn 0.228346 0.015748 0.976378
vn -0.236220 0.015748 0.968504
vn -0.259843 0.015748 0.968504
vn -0.976378 0.015748 0.220472
vn -0.968504 0.015748 0.244094
vn -0.992126 0.015748 -0.133858
vn -0.992126 0.015748 -0.133858
tan -0.027032 0.587947 -0.804204 1.000000
tan 0.504929 0.860252 0.001178 1.000000
tan -0.914006 -0.067208 -0.390601 1.000000
tan 0.196850 -0.082150 0.984252 1.000000
tan -0.042966 0.550747 0.817657 1.000000
tan 0.042222 0.597247 -0.794160 1.000000
tan 0.787402 0.596441 -0.031000 1.000000
tan -0.992126 0.009672 0.118110 1.000000
tan -0.755906 0.647281 -0.011904 1.000000
tan 0.818898 0.562465 0.032240 1.000000
tan 0.031620 0.622729 0.773079 1.000000
tan -0.181102 0.037324 -0.984252 1.000000
tan 0.033790 0.676731 -0.722921 1.000000
tan -0.050592 0.534937 0.841466 1.000000
tan -0.866142 0.496125 0.054560 1.000000
tan 0.691735 0.713373 -0.027404 1.000000
tan 0.410193 0.905512 -0.007130 1.000000
tan -1.000000 0.007874 0.015748 1.000000
tan 0.992126 -0.133734 -0.015624 1.000000
tan -0.013702 0.984314 0.101556 1.000000
tan 0.210986 0.780954 0.507657 1.000000
tan 0.789014 0.596069 0.139004 1.000000
tan 0.406039 0.852254 -0.146382 1.000000
tan 0.753983 0.347635 0.532581 1.000000
tan 0.155682 0.544547 0.808853 1.000000
tan -0.393205 0.654721 0.546965 1.000000
tan -0.716411 -0.067580 0.702151 1.000000
tan -0.674189 -0.224068 0.701593 1.000000
tan -0.346457 0.024862 0.937008 1.000000
tan -0.779528 -0.009920 0.629921 1.000000
tan -0.905512 -0.000434 0.425197 1.000000
tan -0.695641 -0.325563 -0.640771 1.000000
tan -0.653481 -0.357865 -0.664145 1.000000
tan 0.023188 -0.976502 -0.171864 1.000000
tan -0.992126 0.007812 -0.102362 1.000000
tan -0.607601 -0.782131 -0.003410 1.000000
tan -0.984252 -0.000000 -0.173228 1.000000
tan 0.216504 -0.900242 0.315085 1.000000
tan 0.785666 -0.602393 0.130324 1.000000
tan 0.976378 -0.007688 0.228346 1.000000
tan 0.462397 -0.416517 0.763655 1.000000
tan -0.063488 -0.859322 0.499969 1.000000
tan 0.571207 -0.549693 -0.611569 1.000000
tan 0.601959 -0.550375 -0.571827 1.000000
tan 0.387501 0.145080 -0.906752 1.000000
tan 0.729369 0.500837 -0.434125 1.000000
tan 0.447951 0.745179 -0.419493 1.000000
tan -0.611011 0.267840 -0.735011 1.000000
tan -0.144398 0.558559 -0.803336 1.000000
tan -0.101246 0.776985 -0.576415 1.000000
tan -0.250852 0.913758 0.092752 1.000000
tan 0.022816 0.976502 -0.179676 1.000000
tan -0.272491 0.922252 -0.177072 1.000000
tan -0.795276 -0.004774 -0.606299 1.000000
tan -0.127038 0.976378 -0.038440 1.000000
tan -0.052328 0.992126 -0.039060 1.000000
tan -0.134912 0.976378 -0.038440 1.000000
tan -0.077996 0.773389 -0.589001 1.000000
tan -0.209932 0.772707 -0.550623 1.000000
tan -0.170686 0.740715 -0.635501 1.000000
tan -0.117924 0.754789 -0.636121 1.000000
tan -0.178808 0.211792 -0.937938 1.000000
tan -0.088350 0.257796 -0.960878 1.000000
tan 0.257363 0.264740 -0.922810 1.000000
tan 0.184760 0.279000 -0.945502 1.000000
tan 0.642569 -0.488747 -0.586707 1.000000
tan 0.285449 -0.716225 -0.634137 1.000000
tan 0.425197 -0.700353 -0.437597 1.000000
tan 0.302127 -0.729059 -0.511501 1.000000
tan 0.263997 -0.809349 0.514353 1.000000
tan 0.180420 -0.852502 0.488251 1.000000
tan 0.014136 -0.874016 0.480315 1.000000
tan 0.033790 -0.853370 0.468969 1.000000
tan -0.015748 -0.984252 0.000000 1.000000
tan -0.015748 -0.992126 0.000000 1.000000
tan -0.015748 -0.966644 0.000124 1.000000
tan 0.000000 -0.960630 -0.015748 1.000000
tan 0.000000 -0.976378 -0.015748 1.000000
tan 0.000000 -0.968504 -0.015748 1.000000
tan 0.000000 -0.968504 -0.015748 1.000000
tan 0.015748 -0.968504 0.000000 1.000000
tan 0.015748 -0.976378 0.000000 1.000000
tan 0.015748 -0.976378 0.000000 1.000000
tan 0.015748 -0.968504 0.000000 1.000000
tan 0.000000 -0.952756 0.015748 1.000000
tan 0.000000 -0.976378 0.015748 1.000000
tan 0.000000 -0.968504 0.015748 1.000000
tan 0.000000 -0.968504 0.015748 1.000000
tan -0.015748 -0.976378 0.000000 1.000000
tan -0.015748 -0.968504 0.000000 1.000000
tan -0.015748 -0.992126 0.000000 1.000000
tan -0.015748 -0.992126 0.000000 1.000000
f 3/3/3 2/2/2 1/1/1
f 4/4/4 1/1/1 2/2/2
f 1/1/1 4/4/4 5/5/5
f 5/5/5 6/6/6 1/1/1
f 7/7/7 6/6/6 5/5/5
f 8/8/8 7/7/7 5/5/5
f 7/7/7 8/8/8 9/9/9
f 9/9/9 10/10/10 7/7/7
f 11/11/11 10/10/10 9/9/9
f 11/11/11 9/9/9 12/12/12
f 11/11/11 12/12/12 13/13/13
f 13/13/13 14/14/14 11/11/11
f 15/15/15 14/14/14 13/13/13
f 15/15/15 13/13/13 16/16/16
f 15/15/15 16/16/16 17/17/17
f 17/17/17 18/18/18 15/15/15
f 19/19/19 17/17/17 16/16/16
f 22/22/22 21/21/21 20/20/20
f 23/23/23 20/20/20 21/21/21
f 23/23/23 21/21/21 24/24/24
f 25/25/25 24/24/24 21/21/21
f 25/25/25 26/26/26 24/24/24
f 24/24/24 26/26/26 27/27/27
f 28/28/28 27/27/27 26/26/26
f 29/29/29 28/28/28 26/26/26
f 28/28/28 29/29/29 30/30/30
f 30/30/30 31/31/31 28/28/28
f 28/28/28 32/32/32 27/27/27
f 31/31/31 32/32/32 28/28/28
f 33/33/33 27/27/27 32/32/32
f 33/33/33 32/32/32 34/34/34
f 35/35/35 32/32/32 31/31/31
f 36/36/36 34/34/34 32/32/32
f 35/35/35 36/36/36 32/32/32
f 37/37/37 36/36/36 35/35/35
f 40/40/40 39/39/39 38/38/38
f 39/39/39 41/41/41 38/38/38
f 42/42/42 38/38/38 41/41/41
f 39/39/39 43/43/43 41/41/41
f 43/43/43 44/44/44 41/41/41
f 44/44/44 45/45/45 41/41/41
f 46/46/46 45/45/45 44/44/44
f 46/46/46 47/47/47 45/45/45
f 47/47/47 48/48/48 45/45/45
f 47/47/47 49/49/49 48/48/48
f 49/49/49 50/50/50 48/48/48
f 50/50/50 51/51/51 48/48/48
f 51/51/51 50/50/50 52/52/52
f 53/53/53 52/52/52 50/50/50
f 54/54/54 53/53/53 50/50/50
f 57/57/57 56/56/56 55/55/55
f 55/55/55 58/58/58 57/57/57
f 59/59/59 57/57/57 58/58/58
f 59/59/59 58/58/58 60/60/60
f 61/61/61 60/60/60 58/58/58
f 61/61/61 62/62/62 60/60/60
f 63/63/63 60/60/60 62/62/62
f 63/63/63 62/62/62 64/64/64
f 65/65/65 63/63/63 64/64/64
f 66/66/66 65/65/65 64/64/64
f 64/64/64 67/67/67 66/66/66
f 66/66/66 67/67/67 68/68/68
f 69/69/69 68/68/68 67/67/67
f 69/69/69 70/70/70 68/68/68
f 71/71/71 68/68/68 70/70/70
f 71/71/71 70/70/70 72/72/72
f 73/73/73 72/72/72 70/70/70
f 76/76/76 75/75/75 74/74/74
f 74/74/74 77/77/77 76/76/76
f 78/78/78 76/76/76 77/77/77
f 77/77/77 79/79/79 78/78/78
f 80/80/80 78/78/78 79/79/79
f 81/81/81 80/80/80 79/79/79
f 79/79/79 82/82/82 81/81/81
f 81/81/81 82/82/82 83/83/83
f 84/84/84 83/83/83 82/82/82
f 84/84/84 85/85/85 83/83/83
f 86/86/86 83/83/83 85/85/85
f 85/85/85 87/87/87 86/86/86
f 88/88/88 86/86/86 87/87/87
f 89/89/89 88/88/88 87/87/87
f 87/87/87 90/90/90 89/89/89
f 90/90/90 91/91/91 89/89/89
f 92/92/92 89/89/89 91/91/91
