mtllib SM_BridgeSegment_LOD5.mtl
g SM_BridgeSegment_LOD5
#Vertices 96
#Indices 120
#Section 0 Offset 0 NumIndices 78 MaterialIndex 0 MM_BasicFill
#Section 1 Offset 78 NumIndices 6 MaterialIndex 2 MI_Metal_Darkgrey
#Section 2 Offset 84 NumIndices 18 MaterialIndex 3 MI_Brushed_Metal
#Section 3 Offset 102 NumIndices 18 MaterialIndex 4 MI_Metal02
v -6.044870 2.604742 -0.048025
v -5.337983 2.153136 3.526090
v -5.749587 1.610508 0.005043
v -5.518729 0.896005 2.976048
v -4.525695 0.005626 0.570857
v -5.749587 1.610508 0.005043
v -4.358038 -0.016136 5.389477
v -5.518729 0.896005 2.976048
v -5.777445 1.598216 6.005974
v -4.358038 -0.016136 5.389477
v -4.525695 0.005626 0.570857
v -5.518729 0.896005 2.976048
v -0.443334 0.110531 6.004680
v 0.456145 0.204141 -0.059301
v -0.838191 0.395987 0.037991
v -5.337983 2.153136 3.526090
v -6.220985 2.807194 5.889389
v -5.777445 1.598216 6.005974
v -5.749587 1.610508 0.005043
v -5.777445 1.598216 6.005974
v -5.518729 0.896005 2.976048
v 5.337945 2.153287 3.525745
v 6.044885 2.604793 -0.047989
v 5.750094 1.610618 0.005040
v 4.523960 -0.001481 0.571985
v 5.518872 0.895824 2.976446
v 5.750094 1.610618 0.005040
v 5.518872 0.895824 2.976446
v 4.363514 -0.037842 5.396874
v 5.777447 1.598217 6.005972
v 4.523960 -0.001481 0.571985
v 4.363514 -0.037842 5.396874
v 5.518872 0.895824 2.976446
v 0.856781 0.250001 6.001509
v 0.456145 0.204141 -0.059301
v -0.443334 0.110531 6.004680
v 6.220987 2.807241 5.889341
v 5.337945 2.153287 3.525745
v 5.777447 1.598217 6.005972
v 5.750094 1.610618 0.005040
v 5.518872 0.895824 2.976446
v 5.777447 1.598217 6.005972
v -4.943499 2.864340 5.998772
v -0.000000 2.850000 0.000000
v 0.000001 2.850000 6.001509
v -4.943398 2.894951 0.000010
v -0.838191 0.395987 0.037991
v -2.563013 0.290002 5.967527
v -0.443334 0.110531 6.004680
v -2.552105 0.179904 0.000131
v -2.552105 0.179904 0.000131
v -4.358038 -0.016136 5.389477
v -2.563013 0.290002 5.967527
v -4.525695 0.005626 0.570857
v 4.523960 -0.001481 0.571985
v 2.567283 0.240640 -0.000000
v 2.565764 0.238455 5.965765
v 4.363514 -0.037842 5.396874
v -0.000000 2.850000 0.000000
v 4.943501 2.864341 5.998770
v 0.000001 2.850000 6.001509
v 4.943398 2.894951 0.000007
v 0.456145 0.204141 -0.059301
v 2.565764 0.238455 5.965765
v 2.567283 0.240640 -0.000000
v 0.856781 0.250001 6.001509
v -5.337983 2.153136 3.526090
v -6.044870 2.604742 -0.048025
v -6.220985 2.807194 5.889389
v 6.220987 2.807241 5.889341
v 6.044885 2.604793 -0.047989
v 5.337945 2.153287 3.525745
v -5.777445 1.598216 6.005974
v -5.749587 1.610508 0.005043
v -5.337983 2.153136 3.526090
v 5.337945 2.153287 3.525745
v 5.750094 1.610618 0.005040
v 5.777447 1.598217 6.005972
v -6.220985 2.807194 5.889389
v -6.044870 2.604742 -0.048025
v -4.943398 2.894951 0.000010
v -4.943499 2.864340 5.998772
v 6.044885 2.604793 -0.047989
v 6.220987 2.807241 5.889341
v 4.943398 2.894951 0.000007
v 4.943501 2.864341 5.998770
v -3.981044 -1.160684 -0.010479
v -4.113472 -1.353118 5.807846
v -2.839220 -2.141077 -0.103001
v -2.062675 -1.491835 5.837005
v -2.122233 -0.837509 -0.152398
v -3.981044 -1.160684 -0.010479
v -3.070428 -0.060231 5.796552
v -4.113472 -1.353118 5.807846
v -2.122233 -0.837509 -0.152398
v -2.062675 -1.491835 5.837005
vt 0.593750 0.433594
vt 0.528809 0.886108
vt 0.481689 0.441406
vt 0.334717 0.815430
vt 0.169067 0.512451
vt 0.419922 0.441895
vt 0.153442 1.118713
vt 0.334961 0.813721
vt 0.422607 1.194214
vt 0.152222 1.116882
vt 0.168335 0.513916
vt 0.334961 0.814209
vt 1.270508 0.440430
vt 1.362305 1.198975
vt 1.221680 1.183350
vt 0.529297 0.877563
vt 0.618164 1.185913
vt 0.482178 1.196289
vt 0.431885 0.442383
vt 0.429443 1.193359
vt 0.337158 0.815186
vt 0.528809 0.886047
vt 0.593750 0.433594
vt 0.481689 0.441406
vt 0.168213 0.512695
vt 0.334717 0.815430
vt 0.419922 0.441895
vt 0.334961 0.813721
vt 0.151978 1.119507
vt 0.422607 1.194214
vt 0.167603 0.513916
vt 0.151001 1.117737
vt 0.334961 0.814331
vt 1.218750 0.440430
vt 1.269531 1.196655
vt 1.373047 0.439941
vt 0.618164 1.185913
vt 0.529297 0.877563
vt 0.482178 1.196289
vt 0.431885 0.442383
vt 0.337158 0.815186
vt 0.429443 1.193359
vt 0.526367 0.179199
vt -0.223022 -0.438477
vt 0.526367 -0.438477
vt -0.223022 0.179199
vt 1.157227 1.185181
vt 0.942871 0.444824
vt 1.208984 0.439941
vt 0.944824 1.190063
vt -0.075378 0.440918
vt 0.152954 1.117493
vt -0.073669 1.190308
vt 0.172852 0.512695
vt 0.172241 0.512939
vt -0.073303 0.440430
vt -0.074646 1.190186
vt 0.153809 1.118469
vt -0.223022 -0.438477
vt 0.526367 0.179199
vt 0.526367 -0.438477
vt -0.223022 0.179199
vt 1.205078 1.197266
vt 0.943848 0.445312
vt 0.942871 1.190063
vt 1.156250 0.440430
vt 0.543945 0.882568
vt 0.632324 0.438477
vt 0.659668 1.175049
vt 0.659668 1.175049
vt 0.632324 0.438477
vt 0.543945 0.882507
vt 0.468750 1.184204
vt 0.468018 0.441895
vt 0.471680 0.893372
vt 0.471680 0.893311
vt 0.468018 0.441895
vt 0.468750 1.184204
vt 0.668945 1.172852
vt 0.699219 0.440430
vt 0.828125 0.449219
vt 0.829102 1.185303
vt 0.699219 0.440430
vt 0.668945 1.172852
vt 0.828125 0.449219
vt 0.829102 1.185303
vt -0.165161 0.616455
vt -0.150024 -0.111328
vt 0.017563 0.623535
vt 0.118591 -0.127930
vt 0.198853 0.658936
vt 0.902344 0.612061
vt 0.735352 -0.111328
vt 0.930664 -0.129883
vt 0.626465 0.632568
vt 0.538574 -0.142578
vt1 0.299805 0.313965
vt1 0.126465 0.289062
vt1 0.296631 0.270996
vt1 0.153564 0.214844
vt1 0.269287 0.151367
vt1 0.296387 0.247559
vt1 0.037476 0.145508
vt1 0.154175 0.214844
vt1 0.008553 0.248535
vt1 0.038177 0.145020
vt1 0.268799 0.151367
vt1 0.153931 0.214844
vt1 0.956055 0.664307
vt1 0.665527 0.699707
vt1 0.671875 0.645508
vt1 0.129761 0.289551
vt1 0.011711 0.323242
vt1 0.007763 0.271484
vt1 0.296387 0.251953
vt1 0.008881 0.250977
vt1 0.153564 0.215820
vt1 0.867188 0.873535
vt1 0.892090 0.700195
vt1 0.849121 0.703369
vt1 0.729004 0.730713
vt1 0.792969 0.846558
vt1 0.825684 0.703613
vt1 0.792969 0.845825
vt1 0.723145 0.962860
vt1 0.826660 0.991447
vt1 0.729004 0.731201
vt1 0.722656 0.962189
vt1 0.792969 0.846069
vt1 0.137817 0.705078
vt1 0.157104 0.994442
vt1 0.196899 0.704834
vt1 0.901367 0.988281
vt1 0.867676 0.870239
vt1 0.849609 0.992237
vt1 0.830078 0.703613
vt1 0.793945 0.846436
vt1 0.829102 0.991119
vt1 0.314209 0.427734
vt1 0.550781 0.140625
vt1 0.550781 0.427734
vt1 0.314209 0.140625
vt1 0.670898 0.621094
vt1 0.954590 0.539062
vt1 0.956543 0.640625
vt1 0.668945 0.539551
vt1 0.296875 0.058105
vt1 0.037933 0.145508
vt1 0.010048 0.058594
vt1 0.269287 0.152832
vt1 0.730957 0.730713
vt1 0.636719 0.703125
vt1 0.636230 0.989906
vt1 0.723633 0.962433
vt1 0.362793 0.449219
vt1 0.649414 0.685791
vt1 0.649414 0.449219
vt1 0.362793 0.685791
vt1 0.132446 0.994659
vt1 0.032532 0.707031
vt1 0.032104 0.991936
vt1 0.113892 0.705078
vt1 0.127808 0.294922
vt1 0.297852 0.328613
vt1 0.015900 0.339355
vt1 0.917480 0.984100
vt1 0.906738 0.702148
vt1 0.873047 0.872192
vt1 0.012398 0.266113
vt1 0.296387 0.266113
vt1 0.123718 0.267090
vt1 0.845215 0.876282
vt1 0.843750 0.703613
vt1 0.844238 0.987602
vt1 0.016724 0.342773
vt1 0.296875 0.354492
vt1 0.293701 0.403809
vt1 0.011955 0.404297
vt1 0.932617 0.703125
vt1 0.920898 0.983276
vt1 0.981934 0.706299
vt1 0.982422 0.988045
vt1 0.604004 0.417480
vt1 0.609375 0.135742
vt1 0.673340 0.420410
vt1 0.711914 0.129395
vt1 0.742676 0.434082
vt1 0.873535 0.485840
vt1 0.809082 0.208496
vt1 0.884277 0.201660
vt1 0.767090 0.493652
vt1 0.733398 0.196777
vn -1.000000 0.000000 0.000000
vn -1.000000 0.000000 0.000000
vn -1.000000 0.000000 0.000000
vn -0.708661 -0.708661 0.000000
vn -0.708661 -0.708661 0.000000
vn -0.708661 -0.708661 0.000000
vn -0.708661 -0.708661 0.000000
vn -0.708661 -0.708661 0.000000
vn -0.708661 -0.708661 0.000000
vn -0.708661 -0.708661 0.000000
vn -0.708661 -0.708661 0.000000
vn -0.708661 -0.708661 0.000000
vn 0.000000 -1.000000 0.000000
vn 0.000000 -1.000000 0.000000
vn 0.000000 -1.000000 0.000000
vn -1.000000 0.000000 0.000000
vn -1.000000 0.000000 0.000000
vn -1.000000 0.000000 0.000000
vn -1.000000 0.000000 0.000000
vn -1.000000 0.000000 0.000000
vn -1.000000 0.000000 0.000000
vn 1.000000 0.000000 0.000000
vn 1.000000 0.000000 0.000000
vn 1.000000 0.000000 0.000000
vn 0.708661 -0.708661 0.000000
vn 0.708661 -0.708661 0.000000
vn 0.708661 -0.708661 0.000000
vn 0.708661 -0.708661 0.000000
vn 0.708661 -0.708661 0.000000
vn 0.708661 -0.708661 0.000000
vn 0.708661 -0.708661 0.000000
vn 0.708661 -0.708661 0.000000
vn 0.708661 -0.708661 0.000000
vn 0.000000 -1.000000 0.000000
vn 0.000000 -1.000000 0.000000
vn 0.000000 -1.000000 0.000000
vn 1.000000 0.000000 0.000000
vn 1.000000 0.000000 0.000000
vn 1.000000 0.000000 0.000000
vn 1.000000 0.000000 0.000000
vn 1.000000 0.000000 0.000000
vn 1.000000 0.000000 0.000000
vn 0.000000 1.000000 -0.000000
vn 0.000000 1.000000 -0.000000
vn 0.000000 1.000000 -0.000000
vn 0.000000 1.000000 -0.000000
vn 0.000000 -1.000000 0.000000
vn 0.000000 -1.000000 0.000000
vn 0.000000 -1.000000 0.000000
vn 0.000000 -1.000000 0.000000
vn 0.000000 -1.000000 0.000000
vn 0.000000 -1.000000 0.000000
vn 0.000000 -1.000000 0.000000
vn 0.000000 -1.000000 0.000000
vn 0.000000 -1.000000 0.000000
vn 0.000000 -1.000000 0.000000
vn 0.000000 -1.000000 0.000000
vn 0.000000 -1.000000 0.000000
vn 0.000000 1.000000 -0.000000
vn 0.000000 1.000000 -0.000000
vn 0.000000 1.000000 -0.000000
vn 0.000000 1.000000 -0.000000
vn 0.000000 -1.000000 0.000000
vn 0.000000 -1.000000 0.000000
vn 0.000000 -1.000000 0.000000
vn 0.000000 -1.000000 0.000000
vn 0.000000 -1.000000 0.000000
vn 0.000000 -1.000000 0.000000
vn 0.000000 -1.000000 0.000000
vn 0.000000 -1.000000 0.000000
vn 0.000000 -1.000000 0.000000
vn 0.000000 -1.000000 0.000000
vn 0.000000 -1.000000 0.000000
vn 0.000000 -1.000000 0.000000
vn 0.000000 -1.000000 0.000000
vn 0.000000 -1.000000 0.000000
vn 0.000000 -1.000000 0.000000
vn 0.000000 -1.000000 0.000000
vn 0.000000 1.000000 -0.000000
vn 0.000000 1.000000 -0.000000
vn 0.000000 1.000000 -0.000000
vn 0.000000 1.000000 -0.000000
vn 0.000000 1.000000 -0.000000
vn 0.000000 1.000000 -0.000000
vn 0.000000 1.000000 -0.000000
vn 0.000000 1.000000 -0.000000
vn -0.976378 -0.157480 -0.133858
vn -0.937008 -0.330709 0.118110
vn 0.244094 -0.960630 -0.110236
vn 0.866142 -0.472441 0.133858
vn 0.952756 0.251968 -0.181102
vn -0.984252 0.133858 -0.102362
vn -0.023622 0.992126 0.094488
vn -0.984252 -0.007874 0.173228
vn 0.881890 0.440945 -0.181102
vn 0.960630 -0.228346 0.149606
tan 0.000000 -0.023622 -1.000000 1.000000
tan 0.000000 0.062992 -1.000000 1.000000
tan 0.000000 -0.039370 -1.000000 1.000000
tan 0.016740 -0.016740 -1.004402 1.000000
tan 0.022320 -0.022320 -1.004402 1.000000
tan 0.005580 -0.005580 -1.004402 1.000000
tan -0.033480 0.033480 -1.004402 1.000000
tan -0.039060 0.039060 -1.004402 1.000000
tan -0.011160 0.011160 -1.004402 1.000000
tan 0.027900 -0.027900 -1.004402 1.000000
tan 0.022320 -0.022320 -1.004402 1.000000
tan -0.072540 0.072540 -0.993242 1.000000
tan 0.000000 0.000000 1.000000 1.000000
tan 0.000000 0.000000 1.000000 1.000000
tan 0.000000 0.000000 1.000000 1.000000
tan 0.000000 -0.039370 -1.000000 1.000000
tan 0.000000 0.015748 -1.000000 1.000000
tan 0.000000 0.039370 -1.000000 1.000000
tan 0.000000 -0.007874 -1.000000 1.000000
tan 0.000000 0.015748 -1.000000 1.000000
tan 0.000000 -0.007874 -1.000000 1.000000
tan 0.000000 0.062992 -1.000000 1.000000
tan 0.000000 -0.023622 -1.000000 1.000000
tan 0.000000 -0.039370 -1.000000 1.000000
tan -0.022320 -0.022320 -1.004402 1.000000
tan -0.016740 -0.016740 -1.004402 1.000000
tan -0.005580 -0.005580 -1.004402 1.000000
tan 0.039060 0.039060 -1.004402 1.000000
tan 0.033480 0.033480 -1.004402 1.000000
tan 0.011160 0.011160 -1.004402 1.000000
tan -0.022320 -0.022320 -1.004402 1.000000
tan -0.027900 -0.027900 -1.004402 1.000000
tan 0.072540 0.072540 -0.993242 1.000000
tan 0.000000 0.000000 1.000000 1.000000
tan 0.000000 0.000000 1.000000 1.000000
tan 0.000000 0.000000 1.000000 1.000000
tan 0.000000 0.015748 -1.000000 1.000000
tan 0.000000 -0.039370 -1.000000 1.000000
tan 0.000000 0.039370 -1.000000 1.000000
tan 0.000000 -0.007874 -1.000000 1.000000
tan 0.000000 -0.007874 -1.000000 1.000000
tan 0.000000 0.015748 -1.000000 1.000000
tan 1.000000 0.000000 0.000000 1.000000
tan 1.000000 0.000000 0.000000 1.000000
tan 1.000000 0.000000 0.000000 1.000000
tan 1.000000 0.000000 0.000000 1.000000
tan 0.000000 0.000000 1.000000 1.000000
tan 0.000000 0.000000 1.000000 1.000000
tan 0.000000 0.000000 1.000000 1.000000
tan 0.000000 0.000000 1.000000 1.000000
tan 0.000000 -0.000000 -1.000000 1.000000
tan 0.000000 -0.000000 -1.000000 1.000000
tan 0.000000 -0.000000 -1.000000 1.000000
tan 0.000000 -0.000000 -1.000000 1.000000
tan 0.000000 -0.000000 -1.000000 1.000000
tan 0.000000 -0.000000 -1.000000 1.000000
tan 0.000000 -0.000000 -1.000000 1.000000
tan 0.000000 -0.000000 -1.000000 1.000000
tan -1.000000 0.000000 0.000000 1.000000
tan -1.000000 0.000000 0.000000 1.000000
tan -1.000000 0.000000 0.000000 1.000000
tan -1.000000 0.000000 0.000000 1.000000
tan 0.000000 0.000000 1.000000 1.000000
tan 0.000000 0.000000 1.000000 1.000000
tan 0.000000 0.000000 1.000000 1.000000
tan 0.000000 0.000000 1.000000 1.000000
tan 0.000000 -0.000000 -1.000000 1.000000
tan 0.023622 -0.000000 -1.000000 1.000000
tan -0.015748 -0.000000 -1.000000 1.000000
tan 0.015748 -0.000000 -1.000000 1.000000
tan -0.023622 -0.000000 -1.000000 1.000000
tan 0.000000 -0.000000 -1.000000 1.000000
tan -0.039370 -0.000000 -1.000000 1.000000
tan 0.007874 -0.000000 -1.000000 1.000000
tan 0.023622 -0.000000 -1.000000 1.000000
tan -0.023622 -0.000000 -1.000000 1.000000
tan -0.007874 -0.000000 -1.000000 1.000000
tan 0.039370 -0.000000 -1.000000 1.000000
tan 0.007874 -0.000000 -1.000000 1.000000
tan -0.015748 -0.000000 -1.000000 1.000000
tan -0.015748 -0.000000 -1.000000 1.000000
tan 0.015748 -0.000000 -1.000000 1.000000
tan 0.015748 -0.000000 -1.000000 1.000000
tan -0.007874 -0.000000 -1.000000 1.000000
tan 0.015748 -0.000000 -1.000000 1.000000
tan -0.015748 -0.000000 -1.000000 1.000000
tan -0.066092 -0.361337 0.907186 1.000000
tan -0.206460 0.774691 0.531217 1.000000
tan -0.157108 -0.148862 0.949346 1.000000
tan 0.302499 0.712505 0.557381 1.000000
tan 0.232376 -0.205778 0.936202 1.000000
tan -0.072540 0.201500 0.961002 1.000000
tan -0.054684 -0.095790 0.992126 1.000000
tan 0.172670 0.071114 0.984314 1.000000
tan 0.088598 0.199268 0.916610 1.000000
tan -0.202430 -0.239692 0.933970 1.000000
f 3/3/3 2/2/2 1/1/1
f 6/6/6 5/5/5 4/4/4
f 9/9/9 8/8/8 7/7/7
f 12/12/12 11/11/11 10/10/10
f 15/15/15 14/14/14 13/13/13
f 18/18/18 17/17/17 16/16/16
f 21/21/21 20/20/20 19/19/19
f 24/24/24 23/23/23 22/22/22
f 27/27/27 26/26/26 25/25/25
f 30/30/30 29/29/29 28/28/28
f 33/33/33 32/32/32 31/31/31
f 36/36/36 35/35/35 34/34/34
f 39/39/39 38/38/38 37/37/37
f 42/42/42 41/41/41 40/40/40
f 45/45/45 44/44/44 43/43/43
f 43/43/43 44/44/44 46/46/46
f 49/49/49 48/48/48 47/47/47
f 50/50/50 47/47/47 48/48/48
f 53/53/53 52/52/52 51/51/51
f 54/54/54 51/51/51 52/52/52
f 57/57/57 56/56/56 55/55/55
f 55/55/55 58/58/58 57/57/57
f 61/61/61 60/60/60 59/59/59
f 62/62/62 59/59/59 60/60/60
f 65/65/65 64/64/64 63/63/63
f 66/66/66 63/63/63 64/64/64
f 69/69/69 68/68/68 67/67/67
f 72/72/72 71/71/71 70/70/70
f 75/75/75 74/74/74 73/73/73
f 78/78/78 77/77/77 76/76/76
f 81/81/81 80/80/80 79/79/79
f 82/82/82 81/81/81 79/79/79
f 85/85/85 84/84/84 83/83/83
f 84/84/84 85/85/85 86/86/86
f 89/89/89 88/88/88 87/87/87
f 88/88/88 89/89/89 90/90/90
f 91/91/91 90/90/90 89/89/89
f 94/94/94 93/93/93 92/92/92
f 95/95/95 92/92/92 93/93/93
f 96/96/96 95/95/95 93/93/93
