mtllib SM_BasicShape.mtl
g SM_BasicShape
#Vertices 25
#Indices 96
#Section 0 Offset 0 NumIndices 96 MaterialIndex 0 MI_LightBeamEmissive01
v 0.500000 -0.000000 -0.500000
v 0.500000 -0.000000 -0.250000
v 0.250000 -0.000000 -0.500000
v 0.250000 -0.000000 -0.250000
v 0.000000 -0.000000 -0.500000
v 0.500000 0.000000 0.000000
v 0.000000 -0.000000 -0.250000
v -0.250000 -0.000000 -0.500000
v 0.250000 0.000000 0.000000
v 0.500000 0.000000 0.250000
v -0.250000 -0.000000 -0.250000
v -0.500000 -0.000000 -0.500000
v -0.500000 -0.000000 -0.250000
v 0.000000 0.000000 0.000000
v 0.250000 0.000000 0.250000
v 0.500000 0.000000 0.500000
v 0.250000 0.000000 0.500000
v -0.250000 0.000000 0.000000
v -0.500000 0.000000 0.000000
v 0.000000 0.000000 0.250000
v 0.000000 0.000000 0.500000
v -0.250000 0.000000 0.250000
v -0.500000 0.000000 0.250000
v -0.250000 0.000000 0.500000
v -0.500000 0.000000 0.500000
vt 1.000000 0.000000
vt 1.000000 0.250000
vt 0.750000 0.000000
vt 0.750000 0.250000
vt 0.500000 0.000000
vt 1.000000 0.500000
vt 0.500000 0.250000
vt 0.250000 0.000000
vt 0.750000 0.500000
vt 1.000000 0.750000
vt 0.250000 0.250000
vt 0.000000 0.000000
vt 0.000000 0.250000
vt 0.500000 0.500000
vt 0.750000 0.750000
vt 1.000000 1.000000
vt 0.750000 1.000000
vt 0.250000 0.500000
vt 0.000000 0.500000
vt 0.500000 0.750000
vt 0.500000 1.000000
vt 0.250000 0.750000
vt 0.000000 0.750000
vt 0.250000 1.000000
vt 0.000000 1.000000
vt1 0.000512 0.000977
vt1 0.000512 0.250488
vt1 0.250244 0.000977
vt1 0.250244 0.250488
vt1 0.500000 0.000977
vt1 0.000512 0.500244
vt1 0.500000 0.250488
vt1 0.749512 0.000977
vt1 0.250244 0.500244
vt1 0.000512 0.749756
vt1 0.749512 0.250488
vt1 0.999023 0.000977
vt1 0.999023 0.250488
vt1 0.500000 0.500244
vt1 0.250244 0.749756
vt1 0.000512 0.999488
vt1 0.250244 0.999488
vt1 0.749512 0.500244
vt1 0.999023 0.500244
vt1 0.500000 0.749756
vt1 0.500000 0.999488
vt1 0.749512 0.749756
vt1 0.999023 0.749756
vt1 0.749512 0.999488
vt1 0.999023 0.999488
vn 0.000000 1.000000 -0.000000
vn 0.000000 1.000000 -0.000000
vn 0.000000 1.000000 -0.000000
vn 0.000000 1.000000 -0.000000
vn 0.000000 1.000000 -0.000000
vn 0.000000 1.000000 -0.000000
vn 0.000000 1.000000 -0.000000
vn 0.000000 1.000000 -0.000000
vn 0.000000 1.000000 -0.000000
vn 0.000000 1.000000 -0.000000
vn 0.000000 1.000000 -0.000000
vn 0.000000 1.000000 -0.000000
vn 0.000000 1.000000 -0.000000
vn 0.000000 1.000000 -0.000000
vn 0.000000 1.000000 -0.000000
vn 0.000000 1.000000 -0.000000
vn 0.000000 1.000000 -0.000000
vn 0.000000 1.000000 -0.000000
vn 0.000000 1.000000 -0.000000
vn 0.000000 1.000000 -0.000000
vn 0.000000 1.000000 -0.000000
vn 0.000000 1.000000 -0.000000
vn 0.000000 1.000000 -0.000000
vn 0.000000 1.000000 -0.000000
vn 0.000000 1.000000 -0.000000
tan 0.000000 -0.000000 -1.000000 1.000000
tan 0.000000 -0.000000 -1.000000 1.000000
tan 0.000000 -0.000000 -1.000000 1.000000
tan 0.000000 -0.000000 -1.000000 1.000000
tan 0.000000 -0.000000 -1.000000 1.000000
tan 0.000000 -0.000000 -1.000000 1.000000
tan 0.000000 -0.000000 -1.000000 1.000000
tan 0.000000 -0.000000 -1.000000 1.000000
tan 0.000000 -0.000000 -1.000000 1.000000
tan 0.000000 -0.000000 -1.000000 1.000000
tan 0.000000 -0.000000 -1.000000 1.000000
tan 0.000000 -0.000000 -1.000000 1.000000
tan 0.000000 -0.000000 -1.000000 1.000000
tan 0.000000 -0.000000 -1.000000 1.000000
tan 0.000000 -0.000000 -1.000000 1.000000
tan 0.000000 -0.000000 -1.000000 1.000000
tan 0.000000 -0.000000 -1.000000 1.000000
tan 0.000000 -0.000000 -1.000000 1.000000
tan 0.000000 -0.000000 -1.000000 1.000000
tan 0.000000 -0.000000 -1.000000 1.000000
tan 0.000000 -0.000000 -1.000000 1.000000
tan 0.000000 -0.000000 -1.000000 1.000000
tan 0.000000 -0.000000 -1.000000 1.000000
tan 0.000000 -0.000000 -1.000000 1.000000
tan 0.000000 -0.000000 -1.000000 1.000000
f 3/3/3 2/2/2 1/1/1
f 2/2/2 3/3/3 4/4/4
f 5/5/5 4/4/4 3/3/3
f 4/4/4 6/6/6 2/2/2
f 4/4/4 5/5/5 7/7/7
f 8/8/8 7/7/7 5/5/5
f 6/6/6 4/4/4 9/9/9
f 7/7/7 9/9/9 4/4/4
f 9/9/9 10/10/10 6/6/6
f 7/7/7 8/8/8 11/11/11
f 12/12/12 11/11/11 8/8/8
f 11/11/11 12/12/12 13/13/13
f 9/9/9 7/7/7 14/14/14
f 11/11/11 14/14/14 7/7/7
f 10/10/10 9/9/9 15/15/15
f 14/14/14 15/15/15 9/9/9
f 15/15/15 16/16/16 10/10/10
f 16/16/16 15/15/15 17/17/17
f 13/13/13 18/18/18 11/11/11
f 14/14/14 11/11/11 18/18/18
f 18/18/18 13/13/13 19/19/19
f 15/15/15 14/14/14 20/20/20
f 20/20/20 17/17/17 15/15/15
f 18/18/18 20/20/20 14/14/14
f 17/17/17 20/20/20 21/21/21
f 19/19/19 22/22/22 18/18/18
f 20/20/20 18/18/18 22/22/22
f 22/22/22 21/21/21 20/20/20
f 22/22/22 19/19/19 23/23/23
f 21/21/21 22/22/22 24/24/24
f 23/23/23 24/24/24 22/22/22
f 24/24/24 23/23/23 25/25/25
