mtllib SM_Bottle_LOD3.mtl
g SM_Bottle_LOD3
#Vertices 100
#Indices 267
#Section 0 Offset 0 NumIndices 219 MaterialIndex 1 MI_Bottle
#Section 1 Offset 219 NumIndices 48 MaterialIndex 0 MM_ButtonsRandom
v -0.002947 0.360850 0.023813
v 0.015381 0.361973 0.009787
v 0.018064 0.358010 0.013896
v 0.021918 0.361985 -0.011893
v 0.000693 0.362255 -0.018052
v -0.010055 0.357871 -0.022607
v -0.016007 0.360220 -0.004883
v -0.023260 0.358049 0.005808
v -0.002947 0.360850 0.023813
v -0.002947 0.360850 0.023813
v -0.003690 0.351219 0.020237
v 0.015381 0.361973 0.009787
v 0.016458 0.351017 -0.008227
v 0.021918 0.361985 -0.011893
v 0.000693 0.362255 -0.018052
v -0.010403 0.351828 -0.013366
v -0.016007 0.360220 -0.004883
v -0.003690 0.351219 0.020237
v -0.002947 0.360850 0.023813
v 0.000716 0.064805 0.053386
v -0.000131 -0.000561 0.050738
v -0.027937 0.064885 0.044026
v -0.031813 -0.000781 0.040040
v -0.052271 0.064876 0.009641
v -0.049306 0.000017 0.014452
v -0.050624 0.001285 -0.012239
v -0.042072 0.064819 -0.030894
v -0.034575 0.000526 -0.038759
v -0.008060 0.064883 -0.052001
v -0.000310 -0.000826 -0.049678
v 0.025080 0.000481 -0.045088
v 0.029048 0.064881 -0.043826
v 0.046851 0.000366 -0.020925
v 0.051316 0.064857 -0.012147
v 0.051600 0.001356 0.006778
v 0.043995 0.064797 0.027796
v 0.035776 -0.001217 0.038019
v 0.000716 0.064805 0.053386
v -0.000131 -0.000561 0.050738
v -0.049306 0.000017 0.014452
v -0.034575 0.000526 -0.038759
v -0.050624 0.001285 -0.012239
v -0.000310 -0.000826 -0.049678
v -0.031813 -0.000781 0.040040
v -0.000131 -0.000561 0.050738
v 0.046851 0.000366 -0.020925
v 0.025080 0.000481 -0.045088
v 0.035776 -0.001217 0.038019
v -0.000131 -0.000561 0.050738
v 0.051600 0.001356 0.006778
v -0.002947 0.360850 0.023813
v 0.018064 0.358010 0.013896
v 0.000517 0.343253 0.014357
v 0.017474 0.343289 -0.001237
v 0.021918 0.361985 -0.011893
v 0.000519 0.342925 -0.016989
v -0.010055 0.357871 -0.022607
v -0.018918 0.344214 0.000785
v -0.023260 0.358049 0.005808
v -0.002947 0.360850 0.023813
v 0.000517 0.343253 0.014357
v -0.000369 0.315548 0.017200
v 0.000302 0.188656 0.055242
v -0.024935 0.188132 0.048019
v -0.050991 0.188044 0.021117
v -0.024381 0.299568 -0.001184
v -0.045064 0.188061 -0.030754
v -0.018918 0.344214 0.000785
v 0.000517 0.343253 0.014357
v -0.009737 0.305562 -0.014612
v -0.007028 0.188134 -0.054782
v 0.000519 0.342925 -0.016989
v 0.011336 0.306816 -0.015282
v 0.040371 0.188159 -0.038637
v 0.017474 0.343289 -0.001237
v 0.045749 0.238190 -0.004813
v 0.050581 0.187738 0.012136
v 0.035602 0.188524 0.042229
v 0.014101 0.306353 0.011556
v 0.000517 0.343253 0.014357
v 0.000302 0.188656 0.055242
v -0.000369 0.315548 0.017200
v 0.000302 0.188656 0.055242
v 0.000716 0.064805 0.053386
v -0.024935 0.188132 0.048019
v -0.027937 0.064885 0.044026
v -0.050991 0.188044 0.021117
v -0.052271 0.064876 0.009641
v -0.045064 0.188061 -0.030754
v -0.042072 0.064819 -0.030894
v -0.007028 0.188134 -0.054782
v -0.008060 0.064883 -0.052001
v 0.029048 0.064881 -0.043826
v 0.040371 0.188159 -0.038637
v 0.051316 0.064857 -0.012147
v 0.050581 0.187738 0.012136
v 0.043995 0.064797 0.027796
v 0.035602 0.188524 0.042229
v 0.000716 0.064805 0.053386
v 0.000302 0.188656 0.055242
vt 0.492676 0.517578
vt 0.489990 0.515381
vt 0.490479 0.514648
vt 0.486572 0.514404
vt 0.484863 0.517578
vt 0.483154 0.518799
vt 0.485352 0.521973
vt 0.485840 0.524902
vt 0.492188 0.525879
vt 0.521484 0.486328
vt 0.522949 0.486328
vt 0.520996 0.490234
vt 0.522461 0.493164
vt 0.520996 0.493164
vt 0.520508 0.496582
vt 0.522461 0.498535
vt 0.520996 0.500244
vt 0.522949 0.505127
vt 0.520996 0.506104
vt 0.511719 0.466309
vt 0.520508 0.466797
vt 0.511719 0.472168
vt 0.520508 0.473145
vt 0.511719 0.480469
vt 0.520508 0.479492
vt 0.520020 0.484375
vt 0.511719 0.488281
vt 0.520020 0.490723
vt 0.511719 0.496094
vt 0.520508 0.497559
vt 0.520020 0.502686
vt 0.511719 0.503662
vt 0.520508 0.509277
vt 0.511719 0.510986
vt 0.520020 0.514648
vt 0.511719 0.519043
vt 0.520508 0.521484
vt 0.511719 0.529053
vt 0.520508 0.529053
vt 0.463135 0.526855
vt 0.471436 0.533936
vt 0.465820 0.531494
vt 0.478027 0.531982
vt 0.463135 0.520996
vt 0.467285 0.515625
vt 0.482666 0.522217
vt 0.481689 0.528564
vt 0.474365 0.513916
vt 0.467285 0.515625
vt 0.480469 0.517090
vt 0.530273 0.487305
vt 0.527344 0.486816
vt 0.528809 0.484863
vt 0.526367 0.484375
vt 0.523438 0.485840
vt 0.523926 0.481445
vt 0.520996 0.480469
vt 0.523926 0.475098
vt 0.521484 0.473145
vt 0.525391 0.466309
vt 0.529297 0.471191
vt 0.486328 0.498535
vt 0.470459 0.512695
vt 0.466309 0.506104
vt 0.464844 0.497070
vt 0.482666 0.492188
vt 0.466309 0.485352
vt 0.492188 0.491699
vt 0.494141 0.495605
vt 0.482910 0.487305
vt 0.470459 0.478027
vt 0.492188 0.485840
vt 0.485107 0.481934
vt 0.476562 0.472168
vt 0.492188 0.481934
vt 0.483887 0.475098
vt 0.483398 0.467285
vt 0.488281 0.467773
vt 0.488770 0.478516
vt 0.492188 0.479980
vt 0.493652 0.468750
vt 0.490479 0.479004
vt 0.511230 0.529297
vt 0.493896 0.529297
vt 0.511230 0.524414
vt 0.493896 0.523438
vt 0.511230 0.517334
vt 0.493896 0.515381
vt 0.511230 0.507324
vt 0.493896 0.507080
vt 0.511230 0.499023
vt 0.493896 0.499512
vt 0.493896 0.492188
vt 0.511230 0.489746
vt 0.493896 0.484375
vt 0.511230 0.479980
vt 0.493896 0.476562
vt 0.511230 0.473633
vt 0.493896 0.466797
vt 0.511230 0.466309
vt1 0.412354 0.992905
vt1 0.440186 0.957794
vt1 0.448975 0.966003
vt1 0.451660 0.916382
vt1 0.412109 0.891968
vt1 0.395020 0.869995
vt1 0.353027 0.900818
vt1 0.315186 0.904602
vt1 0.303467 0.986244
vt1 0.419922 0.059082
vt1 0.440430 0.060547
vt1 0.411865 0.111328
vt1 0.435059 0.150391
vt1 0.410400 0.152832
vt1 0.407715 0.192383
vt1 0.434326 0.219727
vt1 0.412109 0.244629
vt1 0.438965 0.307617
vt1 0.416016 0.320801
vt1 0.833008 0.168945
vt1 0.996094 0.173340
vt1 0.832031 0.245605
vt1 0.996094 0.259766
vt1 0.831055 0.352539
vt1 0.993652 0.339355
vt1 0.989746 0.407715
vt1 0.831055 0.458984
vt1 0.991699 0.486816
vt1 0.830566 0.561035
vt1 0.995117 0.580078
vt1 0.991699 0.647461
vt1 0.830566 0.657471
vt1 0.992188 0.731445
vt1 0.830566 0.756104
vt1 0.989746 0.803345
vt1 0.831055 0.860229
vt1 0.996582 0.892944
vt1 0.832031 0.990356
vt1 0.996582 0.991165
vt1 0.097656 0.375000
vt1 0.005569 0.268066
vt1 0.038422 0.340332
vt1 0.031433 0.179688
vt1 0.176880 0.374512
vt1 0.244995 0.322754
vt1 0.159668 0.120117
vt1 0.077209 0.132324
vt1 0.269043 0.227539
vt1 0.245483 0.322266
vt1 0.225342 0.149414
vt1 0.276611 0.319336
vt1 0.313721 0.314453
vt1 0.289551 0.291016
vt1 0.325684 0.285645
vt1 0.357910 0.301758
vt1 0.352295 0.247070
vt1 0.392334 0.238770
vt1 0.351074 0.169922
vt1 0.385742 0.144531
vt1 0.333008 0.058105
vt1 0.286621 0.118652
vt1 0.367676 0.781006
vt1 0.122620 0.979889
vt1 0.060150 0.890381
vt1 0.038239 0.762939
vt1 0.309326 0.693848
vt1 0.062500 0.601807
vt1 0.457764 0.684570
vt1 0.485352 0.742920
vt1 0.313721 0.626221
vt1 0.122864 0.499512
vt1 0.454590 0.602783
vt1 0.347412 0.554443
vt1 0.215942 0.416016
vt1 0.457031 0.551270
vt1 0.329346 0.453613
vt1 0.321045 0.350098
vt1 0.396973 0.353516
vt1 0.402832 0.504639
vt1 0.457275 0.524658
vt1 0.477783 0.365723
vt1 0.431885 0.510986
vt1 0.808594 0.993965
vt1 0.491699 0.994762
vt1 0.807617 0.929077
vt1 0.491699 0.918274
vt1 0.807129 0.837646
vt1 0.491699 0.810791
vt1 0.807129 0.708252
vt1 0.491699 0.704590
vt1 0.807617 0.599121
vt1 0.491699 0.602051
vt1 0.491699 0.505371
vt1 0.807617 0.477539
vt1 0.491699 0.407227
vt1 0.806641 0.346191
vt1 0.491455 0.303711
vt1 0.808594 0.264160
vt1 0.491455 0.173828
vt1 0.808594 0.170410
vn 0.031496 0.590551 0.803149
vn -0.141732 0.992126 -0.007874
vn 0.677165 0.464567 0.566929
vn 0.677165 0.614173 -0.393701
vn -0.031496 0.984252 0.165354
vn -0.433071 0.456693 -0.779527
vn 0.401575 0.913386 0.023622
vn -0.929134 0.275591 0.259842
vn -0.110236 0.818898 0.566929
vn 0.259843 0.464567 -0.850394
vn 0.181102 0.007874 -0.984252
vn -0.740157 0.433071 -0.519685
vn -0.913386 0.015748 0.409449
vn -0.779528 0.440945 0.440945
vn -0.047244 0.433071 0.897638
vn 0.622047 0.000000 0.779527
vn 0.881890 0.401575 0.259842
vn 0.346457 -0.007874 -0.937008
vn 0.055118 0.362205 -0.929134
vn 0.023622 0.000000 1.000000
vn 0.000000 -0.173228 0.984252
vn -0.535433 0.000000 0.842520
vn -0.606299 -0.181102 0.771653
vn -0.984252 0.000000 0.188976
vn -0.944882 -0.181102 0.283465
vn -0.952756 -0.181102 -0.228346
vn -0.803150 -0.000000 -0.590551
vn -0.645669 -0.173228 -0.740157
vn -0.149606 -0.007874 -0.984252
vn -0.007874 -0.181102 -0.984252
vn 0.480315 -0.173228 -0.858268
vn 0.551181 -0.000000 -0.834646
vn 0.897638 -0.173228 -0.401575
vn 0.976378 -0.000000 -0.228346
vn 0.976378 -0.173228 0.125984
vn 0.842520 0.000000 0.535433
vn 0.661417 -0.173228 0.724409
vn 0.031496 0.000000 1.000000
vn 0.000000 -0.196850 0.984252
vn -0.267717 -0.960630 0.078740
vn -0.322835 -0.874016 -0.370079
vn -0.858268 -0.456693 -0.251968
vn 0.000000 -0.976378 -0.204724
vn -0.173228 -0.960630 0.220473
vn -0.007874 -0.968504 0.244095
vn 0.307087 -0.937008 -0.165354
vn 0.275591 -0.787401 -0.551181
vn 0.173228 -0.968504 0.196850
vn 0.000000 -0.968504 0.244095
vn 0.897638 -0.440945 0.094488
vn -0.118110 0.307087 0.944882
vn 0.787402 0.228346 0.566929
vn 0.157480 -0.661417 0.732283
vn 0.771654 -0.629921 -0.062992
vn 0.803150 0.377953 -0.464567
vn 0.015748 -0.629921 -0.779527
vn -0.354331 0.188976 -0.921260
vn -0.818898 -0.559055 0.110236
vn -0.944882 0.220472 0.236220
vn -0.102362 0.377953 0.921260
vn -0.039370 -0.685039 0.724409
vn -0.275591 0.385827 0.881890
vn 0.039370 0.133858 0.992126
vn -0.456693 0.094488 0.881890
vn -0.921260 0.102362 0.370079
vn -0.897638 0.433071 -0.055118
vn -0.834646 0.078740 -0.551181
vn -0.842520 -0.535433 0.055118
vn 0.023622 -0.511811 0.858268
vn -0.527559 0.409449 -0.748031
vn -0.133858 0.118110 -0.984252
vn 0.007874 -0.535433 -0.842520
vn 0.559055 0.385827 -0.732283
vn 0.700787 0.102362 -0.708661
vn 0.850394 -0.527559 -0.055118
vn 0.937008 0.314961 -0.125984
vn 0.968504 0.031496 0.236220
vn 0.637795 0.078740 0.763779
vn 0.692913 0.401575 0.598425
vn 0.015748 -0.559055 0.834646
vn -0.047244 0.133858 0.992126
vn -0.055118 0.346457 0.937008
vn 0.015748 0.023622 1.000000
vn 0.023622 0.000000 1.000000
vn -0.456693 0.023622 0.889764
vn -0.535433 0.000000 0.842520
vn -0.929134 0.023622 0.370079
vn -0.984252 0.000000 0.181102
vn -0.826772 0.023622 -0.559055
vn -0.803150 -0.000000 -0.590551
vn -0.141732 0.023622 -0.992126
vn -0.157480 -0.000000 -0.984252
vn 0.551181 -0.000000 -0.834646
vn 0.724409 0.023622 -0.692913
vn 0.976378 -0.000000 -0.228346
vn 0.968504 0.023622 0.236220
vn 0.842520 0.000000 0.535433
vn 0.637795 0.023622 0.763779
vn 0.039370 0.000000 1.000000
vn -0.015748 0.023622 1.000000
tan 0.528055 -0.661913 0.465993 1.000000
tan 0.984314 0.141546 0.117180 1.000000
tan 0.695269 -0.645049 -0.301878 1.000000
tan 0.695393 -0.669105 0.152272 1.000000
tan 0.674251 0.141360 -0.713001 1.000000
tan 0.720441 -0.344411 -0.602021 1.000000
tan 0.870234 -0.375535 -0.273296 1.000000
tan 0.057412 0.733647 -0.572819 1.000000
tan 0.019344 0.569533 -0.818898 1.000000
tan -0.479075 0.705127 0.238824 1.000000
tan -0.968752 0.162750 -0.176948 1.000000
tan -0.542873 -0.001612 0.771839 1.000000
tan 0.410441 0.057536 0.913386 1.000000
tan 0.562465 0.239631 0.754727 1.000000
tan 0.907868 -0.076632 0.084754 1.000000
tan 0.779528 -0.004898 -0.622047 1.000000
tan 0.325315 -0.150722 -0.871164 1.000000
tan -0.922190 -0.166966 -0.339575 1.000000
tan -0.639345 -0.672639 -0.300142 1.000000
tan 1.000000 0.007874 -0.023622 1.000000
tan 0.984252 0.054250 0.009548 1.000000
tan 0.842520 0.000000 0.535433 1.000000
tan 0.773080 0.019530 0.612003 1.000000
tan 0.188976 -0.007750 0.984252 1.000000
tan 0.293447 -0.052080 0.944882 1.000000
tan -0.238328 0.052514 0.952756 1.000000
tan -0.590551 0.000000 0.803149 1.000000
tan -0.741521 -0.012400 0.649761 1.000000
tan -0.984252 0.000000 0.149606 1.000000
tan -0.984252 0.000000 0.007874 1.000000
tan -0.858268 0.033790 -0.487135 1.000000
tan -0.834646 -0.000000 -0.551181 1.000000
tan -0.409759 -0.042408 -0.897638 1.000000
tan -0.228346 -0.000000 -0.976378 1.000000
tan 0.131440 0.030752 -0.976378 1.000000
tan 0.535433 -0.000000 -0.842520 1.000000
tan 0.725773 -0.006200 -0.664145 1.000000
tan 1.000000 -0.000000 -0.031496 1.000000
tan 0.984252 -0.062000 -0.012400 1.000000
tan 0.658689 -0.126356 0.697997 1.000000
tan 0.396243 -0.476719 0.780209 1.000000
tan 0.315953 -0.783929 0.344659 1.000000
tan 0.492033 -0.177320 0.845682 1.000000
tan 0.478269 0.105028 0.833406 1.000000
tan 0.457561 0.211545 0.854114 1.000000
tan 0.616281 0.075702 0.715543 1.000000
tan 0.239320 -0.477401 0.801661 1.000000
tan 0.533821 0.259781 0.808357 1.000000
tan 0.449935 0.217187 0.861740 1.000000
tan 0.302561 0.730237 0.533449 1.000000
tan -0.047058 -0.945812 0.301507 1.000000
tan 0.505673 -0.749457 -0.400459 1.000000
tan -0.080352 -0.740157 -0.651249 1.000000
tan -0.631409 -0.765081 -0.083948 1.000000
tan -0.345093 -0.215016 -0.771529 1.000000
tan -0.505487 -0.652985 0.517453 1.000000
tan -0.902474 -0.194184 0.307273 1.000000
tan -0.394445 0.677537 0.505921 1.000000
tan 0.294501 0.295741 0.901978 1.000000
tan 0.623845 0.681877 -0.210428 1.000000
tan 0.056730 0.724099 0.687829 1.000000
tan -0.718271 0.511687 -0.448323 1.000000
tan -0.843698 0.523405 -0.037138 1.000000
tan -0.874946 0.111104 -0.465001 1.000000
tan -0.374915 -0.046438 -0.920454 1.000000
tan 0.122450 0.141360 -0.883502 1.000000
tan 0.546841 -0.046004 -0.834646 1.000000
tan -0.092194 0.050158 -0.922004 1.000000
tan -0.860872 0.147932 0.111910 1.000000
tan 0.740591 -0.161820 -0.610887 1.000000
tan 0.782752 -0.596751 -0.178064 1.000000
tan 0.863600 -0.066030 0.050034 1.000000
tan 0.772398 -0.178622 0.495567 1.000000
tan 0.715171 -0.149730 0.685597 1.000000
tan -0.135718 -0.306962 0.844132 1.000000
tan 0.338769 -0.832723 0.437783 1.000000
tan -0.036704 -0.930374 0.274537 1.000000
tan -0.457561 -0.738111 0.458181 1.000000
tan -0.286193 -0.548825 0.699671 1.000000
tan -0.744932 -0.414657 -0.263686 1.000000
tan 0.234360 -0.960878 0.140802 1.000000
tan 0.034162 -0.937442 0.348627 1.000000
tan -1.000000 0.000000 0.015748 1.000000
tan -1.000000 0.000000 0.023622 1.000000
tan -0.889764 0.007006 -0.456879 1.000000
tan -0.842520 -0.000000 -0.535433 1.000000
tan -0.370265 -0.007316 -0.929134 1.000000
tan -0.181102 -0.000000 -0.984252 1.000000
tan 0.559241 0.006510 -0.826772 1.000000
tan 0.590551 -0.000000 -0.803149 1.000000
tan 0.992126 -0.007812 -0.141918 1.000000
tan 0.984252 -0.000000 -0.157480 1.000000
tan 0.834646 0.000000 0.551181 1.000000
tan 0.692913 0.000000 0.724409 1.000000
tan 0.228346 0.000000 0.976378 1.000000
tan -0.236406 0.007626 0.968504 1.000000
tan -0.535433 0.000000 0.842520 1.000000
tan -0.763780 0.000000 0.637795 1.000000
tan -1.000000 0.000000 0.039370 1.000000
tan -1.000000 -0.000000 -0.015748 1.000000
f 3/3/3 2/2/2 1/1/1
f 3/3/3 4/4/4 2/2/2
f 6/6/6 5/5/5 4/4/4
f 7/7/7 5/5/5 6/6/6
f 8/8/8 7/7/7 6/6/6
f 7/7/7 8/8/8 9/9/9
f 12/12/12 11/11/11 10/10/10
f 13/13/13 11/11/11 12/12/12
f 14/14/14 13/13/13 12/12/12
f 15/15/15 13/13/13 14/14/14
f 13/13/13 15/15/15 16/16/16
f 17/17/17 16/16/16 15/15/15
f 18/18/18 16/16/16 17/17/17
f 17/17/17 19/19/19 18/18/18
f 22/22/22 21/21/21 20/20/20
f 23/23/23 21/21/21 22/22/22
f 24/24/24 23/23/23 22/22/22
f 25/25/25 23/23/23 24/24/24
f 26/26/26 25/25/25 24/24/24
f 24/24/24 27/27/27 26/26/26
f 28/28/28 26/26/26 27/27/27
f 27/27/27 29/29/29 28/28/28
f 28/28/28 29/29/29 30/30/30
f 30/30/30 29/29/29 31/31/31
f 32/32/32 31/31/31 29/29/29
f 31/31/31 32/32/32 33/33/33
f 34/34/34 33/33/33 32/32/32
f 33/33/33 34/34/34 35/35/35
f 36/36/36 35/35/35 34/34/34
f 35/35/35 36/36/36 37/37/37
f 38/38/38 37/37/37 36/36/36
f 39/39/39 37/37/37 38/38/38
f 42/42/42 41/41/41 40/40/40
f 40/40/40 41/41/41 43/43/43
f 44/44/44 40/40/40 43/43/43
f 45/45/45 44/44/44 43/43/43
f 47/47/47 46/46/46 43/43/43
f 46/46/46 48/48/48 43/43/43
f 48/48/48 49/49/49 43/43/43
f 46/46/46 50/50/50 48/48/48
f 53/53/53 52/52/52 51/51/51
f 54/54/54 52/52/52 53/53/53
f 52/52/52 54/54/54 55/55/55
f 56/56/56 55/55/55 54/54/54
f 56/56/56 57/57/57 55/55/55
f 56/56/56 58/58/58 57/57/57
f 58/58/58 59/59/59 57/57/57
f 58/58/58 60/60/60 59/59/59
f 58/58/58 61/61/61 60/60/60
f 64/64/64 63/63/63 62/62/62
f 65/65/65 64/64/64 62/62/62
f 62/62/62 66/66/66 65/65/65
f 67/67/67 65/65/65 66/66/66
f 62/62/62 69/69/69 68/68/68
f 66/66/66 62/62/62 68/68/68
f 67/67/67 66/66/66 70/70/70
f 70/70/70 66/66/66 68/68/68
f 67/67/67 70/70/70 71/71/71
f 72/72/72 70/70/70 68/68/68
f 73/73/73 71/71/71 70/70/70
f 73/73/73 70/70/70 72/72/72
f 74/74/74 71/71/71 73/73/73
f 75/75/75 73/73/73 72/72/72
f 74/74/74 73/73/73 76/76/76
f 74/74/74 76/76/76 77/77/77
f 76/76/76 78/78/78 77/77/77
f 73/73/73 75/75/75 79/79/79
f 73/73/73 79/79/79 76/76/76
f 78/78/78 76/76/76 79/79/79
f 80/80/80 79/79/79 75/75/75
f 81/81/81 78/78/78 79/79/79
f 80/80/80 82/82/82 79/79/79
f 79/79/79 82/82/82 81/81/81
f 85/85/85 84/84/84 83/83/83
f 86/86/86 84/84/84 85/85/85
f 87/87/87 86/86/86 85/85/85
f 88/88/88 86/86/86 87/87/87
f 87/87/87 89/89/89 88/88/88
f 90/90/90 88/88/88 89/89/89
f 89/89/89 91/91/91 90/90/90
f 92/92/92 90/90/90 91/91/91
f 92/92/92 91/91/91 93/93/93
f 94/94/94 93/93/93 91/91/91
f 93/93/93 94/94/94 95/95/95
f 96/96/96 95/95/95 94/94/94
f 95/95/95 96/96/96 97/97/97
f 98/98/98 97/97/97 96/96/96
f 99/99/99 97/97/97 98/98/98
f 100/100/100 99/99/99 98/98/98
