mtllib SM_ClipRoof_LOD2.mtl
g SM_ClipRoof_LOD2
#Vertices 117
#Indices 180
#Section 0 Offset 0 NumIndices 180 MaterialIndex 0 MI_Brushed_Metal
v -0.063878 -0.006996 0.087328
v -0.051224 -0.170213 0.087284
v -0.069559 -0.114960 0.086430
v 0.065539 -0.007571 0.087769
v 0.176601 -0.000043 0.086775
v 0.176598 -0.011750 0.086775
v -0.177539 -0.007367 0.086839
v -0.176604 -0.011663 -0.086775
v -0.176601 0.000043 -0.086775
v 0.107379 -0.035322 -0.022661
v 0.108767 -0.023979 0.020856
v 0.109453 -0.046150 0.018406
v 0.146218 -0.035335 0.023031
v 0.144847 -0.023988 -0.020509
v 0.144285 -0.046416 -0.018066
v 0.108767 -0.023979 0.020856
v 0.146218 -0.035335 0.023031
v 0.109453 -0.046150 0.018406
v 0.144847 -0.023988 -0.020509
v 0.107379 -0.035322 -0.022661
v 0.144285 -0.046416 -0.018066
v -0.146526 -0.035260 -0.022662
v -0.145139 -0.023917 0.020856
v -0.144452 -0.046088 0.018407
v -0.065544 -0.007539 -0.087769
v -0.176601 0.000043 -0.086775
v -0.176604 -0.011663 -0.086775
v -0.107686 -0.035271 0.023030
v -0.109059 -0.023926 -0.020509
v -0.109620 -0.046354 -0.018065
v -0.145139 -0.023917 0.020856
v -0.107686 -0.035271 0.023030
v -0.144452 -0.046088 0.018407
v -0.109059 -0.023926 -0.020509
v -0.146526 -0.035260 -0.022662
v -0.109620 -0.046354 -0.018065
v 0.063860 -0.007022 -0.087322
v 0.050972 -0.170616 -0.087193
v 0.069502 -0.115000 -0.086430
v 0.176600 -0.000043 -0.086428
v 0.176597 -0.011750 -0.086428
v -0.076439 -0.018326 -0.080137
v -0.169967 -0.018303 0.079790
v -0.076438 -0.018326 0.079790
v -0.169968 -0.018303 -0.080137
v 0.169958 -0.018386 -0.079790
v 0.076430 -0.018363 0.080137
v 0.169959 -0.018386 0.080137
v 0.076429 -0.018363 -0.079790
v 0.144285 -0.046416 -0.018066
v 0.109453 -0.046150 0.018406
v 0.146218 -0.035335 0.023031
v 0.107379 -0.035322 -0.022661
v -0.109620 -0.046354 -0.018065
v -0.144452 -0.046088 0.018407
v -0.107686 -0.035271 0.023030
v -0.146526 -0.035260 -0.022662
v 0.063860 -0.007022 -0.087322
v 0.169958 -0.018386 -0.079790
v 0.176597 -0.011750 -0.086428
v 0.076429 -0.018363 -0.079790
v -0.169968 -0.018303 -0.080137
v -0.065544 -0.007539 -0.087769
v -0.176604 -0.011663 -0.086775
v -0.076439 -0.018326 -0.080137
v -0.063878 -0.006996 0.087328
v -0.169967 -0.018303 0.079790
v -0.177539 -0.007367 0.086839
v -0.076438 -0.018326 0.079790
v -0.169967 -0.018303 0.079790
v -0.176604 -0.011663 -0.086775
v -0.177539 -0.007367 0.086839
v -0.169968 -0.018303 -0.080137
v 0.176598 -0.011750 0.086775
v 0.176597 -0.011750 -0.086428
v 0.169958 -0.018386 -0.079790
v 0.169959 -0.018386 0.080137
v 0.169959 -0.018386 0.080137
v 0.065539 -0.007571 0.087769
v 0.176598 -0.011750 0.086775
v 0.076430 -0.018363 0.080137
v 0.176600 -0.000043 -0.086428
v 0.176598 -0.011750 0.086775
v 0.176601 -0.000043 0.086775
v 0.176597 -0.011750 -0.086428
v 0.069502 -0.115000 -0.086430
v 0.076429 -0.018363 -0.079790
v 0.063860 -0.007022 -0.087322
v 0.074648 -0.141746 -0.080005
v 0.050972 -0.170616 -0.087193
v 0.012893 -0.196530 -0.079940
v -0.048173 -0.182179 -0.081654
v -0.076439 -0.018326 -0.080137
v -0.076019 -0.118772 -0.080090
v -0.065544 -0.007539 -0.087769
v 0.048414 -0.182832 0.080342
v 0.065539 -0.007571 0.087769
v 0.076430 -0.018363 0.080137
v 0.075959 -0.118823 0.080090
v -0.051224 -0.170213 0.087284
v -0.014022 -0.195554 0.079663
v -0.074788 -0.141974 0.080064
v -0.069559 -0.114960 0.086430
v -0.076438 -0.018326 0.079790
v -0.063878 -0.006996 0.087328
v -0.076439 -0.018326 -0.080137
v -0.076438 -0.018326 0.079790
v -0.074788 -0.141974 0.080064
v -0.076019 -0.118772 -0.080090
v -0.048173 -0.182179 -0.081654
v -0.014022 -0.195554 0.079663
v 0.012893 -0.196530 -0.079940
v 0.048414 -0.182832 0.080342
v 0.074648 -0.141746 -0.080005
v 0.075959 -0.118823 0.080090
v 0.076430 -0.018363 0.080137
v 0.076429 -0.018363 -0.079790
vt 0.206543 0.528076
vt 0.206177 0.508545
vt 0.207764 0.516113
vt 0.206543 0.471680
vt 0.207886 0.458496
vt 0.208496 0.459473
vt 0.207275 0.540283
vt 0.228638 0.541016
vt 0.229248 0.541992
vt 0.238525 0.471191
vt 0.242432 0.475098
vt 0.239868 0.476562
vt 0.233398 0.478516
vt 0.232422 0.474121
vt 0.234375 0.474609
vt 0.242432 0.480957
vt 0.235596 0.481445
vt 0.240601 0.477051
vt 0.232422 0.474121
vt 0.235474 0.471191
vt 0.234375 0.474609
vt 0.238525 0.458984
vt 0.242432 0.462891
vt 0.239990 0.463867
vt 0.230591 0.528564
vt 0.229248 0.541992
vt 0.228638 0.541016
vt 0.233521 0.466797
vt 0.232300 0.461426
vt 0.234497 0.462402
vt 0.242432 0.468262
vt 0.235962 0.468750
vt 0.240601 0.464844
vt 0.232300 0.461426
vt 0.235596 0.458984
vt 0.234375 0.462402
vt 0.230591 0.472168
vt 0.230957 0.491699
vt 0.229370 0.484375
vt 0.229858 0.459473
vt 0.229248 0.460449
vt 0.228638 0.528564
vt 0.208618 0.539307
vt 0.208496 0.528076
vt 0.227905 0.540039
vt 0.228516 0.460938
vt 0.208496 0.471680
vt 0.209229 0.460449
vt 0.228516 0.472168
vt 0.234131 0.474609
vt 0.239502 0.476562
vt 0.235229 0.479004
vt 0.237183 0.472168
vt 0.234131 0.462402
vt 0.239624 0.464355
vt 0.235474 0.466797
vt 0.237183 0.459473
vt 0.230469 0.472656
vt 0.228516 0.460938
vt 0.229248 0.460449
vt 0.228516 0.472168
vt 0.227905 0.540039
vt 0.230591 0.528320
vt 0.228638 0.541016
vt 0.228638 0.528564
vt 0.206665 0.527588
vt 0.208618 0.539307
vt 0.207520 0.540283
vt 0.208496 0.528076
vt 0.208618 0.539307
vt 0.228638 0.541016
vt 0.207764 0.540527
vt 0.227905 0.540039
vt 0.208496 0.459473
vt 0.229248 0.460449
vt 0.228516 0.460938
vt 0.209229 0.460449
vt 0.209229 0.460449
vt 0.206543 0.472168
vt 0.208496 0.459473
vt 0.208496 0.471680
vt 0.229858 0.459473
vt 0.208496 0.459473
vt 0.207886 0.458496
vt 0.229248 0.460449
vt 0.229492 0.484375
vt 0.228516 0.472168
vt 0.230713 0.472168
vt 0.228271 0.487793
vt 0.230225 0.492676
vt 0.228760 0.498535
vt 0.230225 0.506836
vt 0.228638 0.528564
vt 0.228760 0.515869
vt 0.230713 0.528809
vt 0.207031 0.493652
vt 0.206421 0.471680
vt 0.208496 0.471680
vt 0.208374 0.484375
vt 0.206909 0.507812
vt 0.208252 0.501953
vt 0.208862 0.512695
vt 0.207642 0.515869
vt 0.208496 0.528076
vt 0.206421 0.528320
vt 0.228638 0.528564
vt 0.208496 0.528076
vt 0.208740 0.512695
vt 0.228760 0.515869
vt 0.229126 0.506592
vt 0.208374 0.501953
vt 0.228760 0.498535
vt 0.208252 0.493652
vt 0.228394 0.487793
vt 0.208374 0.484375
vt 0.208496 0.471680
vt 0.228516 0.472168
vt1 0.025040 0.827026
vt1 0.019974 0.599609
vt1 0.038483 0.686523
vt1 0.024811 0.166016
vt1 0.040222 0.008301
vt1 0.047333 0.019043
vt1 0.034027 0.972366
vt1 0.284424 0.981369
vt1 0.291748 0.991936
vt1 0.386719 0.301270
vt1 0.564453 0.476074
vt1 0.615234 0.363281
vt1 0.717773 0.074219
vt1 0.503906 0.027832
vt1 0.537109 0.116211
vt1 0.812500 0.476074
vt1 0.833984 0.171875
vt1 0.647949 0.397461
vt1 0.503906 0.027832
vt1 0.389404 0.167969
vt1 0.527344 0.114746
vt1 0.626953 0.468750
vt1 0.804199 0.645508
vt1 0.691895 0.697754
vt1 0.307129 0.834473
vt1 0.291748 0.991936
vt1 0.284424 0.981369
vt1 0.401855 0.813354
vt1 0.346680 0.589600
vt1 0.443848 0.625488
vt1 0.804199 0.883362
vt1 0.511230 0.917847
vt1 0.722168 0.727539
vt1 0.346680 0.589600
vt1 0.493164 0.467773
vt1 0.442871 0.615967
vt1 0.306885 0.173340
vt1 0.312012 0.401367
vt1 0.293457 0.313965
vt1 0.298828 0.021973
vt1 0.291504 0.030273
vt1 0.284424 0.833374
vt1 0.049469 0.959808
vt1 0.048431 0.827393
vt1 0.275635 0.968719
vt1 0.282471 0.040527
vt1 0.047424 0.166992
vt1 0.056213 0.031738
vt1 0.283447 0.172852
vt1 0.536133 0.104980
vt1 0.623535 0.349121
vt1 0.734863 0.155273
vt1 0.417725 0.241211
vt1 0.431641 0.623779
vt1 0.677734 0.706055
vt1 0.488037 0.823975
vt1 0.567871 0.500244
vt1 0.304932 0.178223
vt1 0.282471 0.040527
vt1 0.291504 0.030273
vt1 0.283447 0.172852
vt1 0.275635 0.968719
vt1 0.306641 0.831421
vt1 0.284424 0.981369
vt1 0.284424 0.833374
vt1 0.026825 0.822266
vt1 0.049469 0.959808
vt1 0.036865 0.971405
vt1 0.048431 0.827393
vt1 0.049469 0.959808
vt1 0.284424 0.981369
vt1 0.039795 0.973877
vt1 0.275635 0.968719
vt1 0.047333 0.019043
vt1 0.291504 0.030273
vt1 0.282471 0.040527
vt1 0.056213 0.031738
vt1 0.056213 0.031738
vt1 0.025253 0.168945
vt1 0.047333 0.019043
vt1 0.047424 0.166992
vt1 0.298828 0.021973
vt1 0.047333 0.019043
vt1 0.040222 0.008301
vt1 0.291504 0.030273
vt1 0.293457 0.314453
vt1 0.283447 0.172852
vt1 0.307861 0.169922
vt1 0.279785 0.353027
vt1 0.302490 0.409180
vt1 0.285889 0.480957
vt1 0.302734 0.579102
vt1 0.284424 0.833374
vt1 0.285645 0.684326
vt1 0.307861 0.837280
vt1 0.030563 0.421387
vt1 0.024002 0.163086
vt1 0.047424 0.166992
vt1 0.046143 0.315918
vt1 0.029251 0.591309
vt1 0.045532 0.521484
vt1 0.052185 0.646729
vt1 0.038361 0.686035
vt1 0.048431 0.827393
vt1 0.024078 0.830200
vt1 0.284424 0.833374
vt1 0.048431 0.827393
vt1 0.050293 0.646484
vt1 0.285889 0.683594
vt1 0.289307 0.576660
vt1 0.046906 0.521729
vt1 0.285400 0.480469
vt1 0.044647 0.423828
vt1 0.281494 0.353516
vt1 0.046021 0.316895
vt1 0.047424 0.166992
vt1 0.283447 0.172852
vn 0.000000 0.000000 1.000000
vn 0.000000 0.000000 1.000000
vn 0.000000 0.000000 1.000000
vn 0.000000 0.000000 1.000000
vn 0.000000 0.000000 1.000000
vn 0.000000 0.000000 1.000000
vn -1.000000 0.000000 0.000000
vn -1.000000 0.000000 0.000000
vn -1.000000 0.000000 0.000000
vn -1.000000 0.000000 0.000000
vn -1.000000 0.000000 0.000000
vn -1.000000 0.000000 0.000000
vn 1.000000 0.000000 0.000000
vn 1.000000 0.000000 0.000000
vn 1.000000 0.000000 0.000000
vn 0.000000 0.000000 1.000000
vn 0.000000 0.000000 1.000000
vn 0.000000 0.000000 1.000000
vn 0.000000 -0.000000 -1.000000
vn 0.000000 -0.000000 -1.000000
vn 0.000000 -0.000000 -1.000000
vn -1.000000 0.000000 0.000000
vn -1.000000 0.000000 0.000000
vn -1.000000 0.000000 0.000000
vn 0.000000 -0.000000 -1.000000
vn 0.000000 -0.000000 -1.000000
vn 0.000000 -0.000000 -1.000000
vn 1.000000 0.000000 0.000000
vn 1.000000 0.000000 0.000000
vn 1.000000 0.000000 0.000000
vn 0.000000 0.000000 1.000000
vn 0.000000 0.000000 1.000000
vn 0.000000 0.000000 1.000000
vn 0.000000 -0.000000 -1.000000
vn 0.000000 -0.000000 -1.000000
vn 0.000000 -0.000000 -1.000000
vn 0.000000 -0.000000 -1.000000
vn 0.000000 -0.000000 -1.000000
vn 0.000000 -0.000000 -1.000000
vn 0.000000 -0.000000 -1.000000
vn 0.000000 -0.000000 -1.000000
vn 0.000000 -1.000000 0.000000
vn 0.000000 -1.000000 0.000000
vn 0.000000 -1.000000 0.000000
vn 0.000000 -1.000000 0.000000
vn 0.000000 -1.000000 0.000000
vn 0.000000 -1.000000 0.000000
vn 0.000000 -1.000000 0.000000
vn 0.000000 -1.000000 0.000000
vn 0.000000 -1.000000 0.000000
vn 0.000000 -1.000000 0.000000
vn 0.000000 -1.000000 0.000000
vn 0.000000 -1.000000 0.000000
vn 0.000000 -1.000000 0.000000
vn 0.000000 -1.000000 0.000000
vn 0.000000 -1.000000 0.000000
vn 0.000000 -1.000000 0.000000
vn 0.000000 -0.708661 -0.708661
vn 0.000000 -0.708661 -0.708661
vn 0.000000 -0.708661 -0.708661
vn 0.000000 -0.708661 -0.708661
vn 0.000000 -0.708661 -0.708661
vn 0.000000 -0.708661 -0.708661
vn 0.000000 -0.708661 -0.708661
vn 0.000000 -0.708661 -0.708661
vn 0.000000 -0.708661 0.708661
vn 0.000000 -0.708661 0.708661
vn 0.000000 -0.708661 0.708661
vn 0.000000 -0.708661 0.708661
vn -0.708661 -0.708661 0.000000
vn -0.708661 -0.708661 0.000000
vn -0.708661 -0.708661 0.000000
vn -0.708661 -0.708661 0.000000
vn 0.708661 -0.708661 0.000000
vn 0.708661 -0.708661 0.000000
vn 0.708661 -0.708661 0.000000
vn 0.708661 -0.708661 0.000000
vn 0.000000 -0.708661 0.708661
vn 0.000000 -0.708661 0.708661
vn 0.000000 -0.708661 0.708661
vn 0.000000 -0.708661 0.708661
vn 1.000000 0.000000 0.000000
vn 1.000000 0.000000 0.000000
vn 1.000000 0.000000 0.000000
vn 1.000000 0.000000 0.000000
vn 0.700787 -0.062992 -0.708661
vn 0.708661 -0.000000 -0.708661
vn 0.708661 -0.000000 -0.708661
vn 0.692913 -0.181102 -0.700787
vn 0.519685 -0.511811 -0.685039
vn 0.133858 -0.708661 -0.700787
vn -0.582677 -0.370079 -0.724409
vn -0.708661 -0.000000 -0.708661
vn -0.708661 -0.078740 -0.700787
vn -0.708661 -0.000000 -0.708661
vn 0.582677 -0.377953 0.716535
vn 0.708661 0.000000 0.708661
vn 0.708661 0.000000 0.708661
vn 0.708661 -0.078740 0.700787
vn -0.519685 -0.503937 0.685039
vn -0.141732 -0.700787 0.700787
vn -0.692913 -0.181102 0.700787
vn -0.700787 -0.062992 0.708661
vn -0.708661 0.000000 0.708661
vn -0.708661 0.000000 0.708661
vn -1.000000 0.000000 0.000000
vn -1.000000 0.000000 0.000000
vn -0.976378 -0.228346 0.000000
vn -0.992126 -0.118110 0.000000
vn -0.653543 -0.755905 0.000000
vn -0.196850 -0.984252 0.000000
vn 0.181102 -0.984252 0.000000
vn 0.653543 -0.755905 0.000000
vn 0.976378 -0.228346 0.000000
vn 0.992126 -0.118110 0.000000
vn 1.000000 0.000000 0.000000
vn 1.000000 0.000000 0.000000
tan 0.716535 -0.692913 0.000000 1.000000
tan 0.149606 -0.992126 0.000000 1.000000
tan -0.007874 -1.000000 0.000000 1.000000
tan 0.677165 0.732283 -0.000000 1.000000
tan 0.826772 0.559055 -0.000000 1.000000
tan 0.834646 0.551181 -0.000000 1.000000
tan 0.000000 -0.992126 0.094488 1.000000
tan 0.000000 -1.000000 0.086614 1.000000
tan 0.000000 -1.000000 0.086614 1.000000
tan 0.000000 0.503937 -0.866142 1.000000
tan 0.000000 0.503937 -0.866142 1.000000
tan 0.000000 0.503937 -0.866142 1.000000
tan 0.000000 0.031496 -1.000000 1.000000
tan 0.000000 0.228346 -0.976378 1.000000
tan 0.000000 0.149606 -0.992126 1.000000
tan -0.354331 -0.937008 0.000000 1.000000
tan -0.354331 -0.937008 0.000000 1.000000
tan -0.354331 -0.937008 0.000000 1.000000
tan -0.921260 0.393701 -0.000000 1.000000
tan -0.858268 0.519685 -0.000000 1.000000
tan -0.952756 0.314961 -0.000000 1.000000
tan 0.000000 0.511811 -0.858268 1.000000
tan 0.000000 0.511811 -0.858268 1.000000
tan 0.000000 0.511811 -0.858268 1.000000
tan 0.677165 -0.732283 0.000000 1.000000
tan 0.826772 -0.559055 0.000000 1.000000
tan 0.834646 -0.551181 0.000000 1.000000
tan 0.000000 0.007874 -1.000000 1.000000
tan 0.000000 0.244094 -0.968504 1.000000
tan 0.000000 0.149606 -0.992126 1.000000
tan -0.393701 -0.921260 0.000000 1.000000
tan -0.393701 -0.921260 0.000000 1.000000
tan -0.393701 -0.921260 0.000000 1.000000
tan -0.913386 0.401575 -0.000000 1.000000
tan -0.858268 0.519685 -0.000000 1.000000
tan -0.944882 0.322835 -0.000000 1.000000
tan 0.716535 0.692913 -0.000000 1.000000
tan 0.149606 0.992126 -0.000000 1.000000
tan -0.007874 1.000000 -0.000000 1.000000
tan 0.874016 0.488189 -0.000000 1.000000
tan 0.881890 0.472441 -0.000000 1.000000
tan 1.000000 0.000000 0.031496 1.000000
tan 1.000000 0.000000 0.031496 1.000000
tan 1.000000 0.000000 0.023622 1.000000
tan 1.000000 0.000000 0.039370 1.000000
tan 1.000000 0.000000 0.031496 1.000000
tan 1.000000 0.000000 0.031496 1.000000
tan 1.000000 0.000000 0.039370 1.000000
tan 1.000000 0.000000 0.023622 1.000000
tan -0.464567 -0.000000 -0.889764 1.000000
tan -0.464567 -0.000000 -0.889764 1.000000
tan -0.448819 -0.000000 -0.889764 1.000000
tan -0.472441 -0.000000 -0.881890 1.000000
tan -0.480315 -0.000000 -0.874016 1.000000
tan -0.480315 -0.000000 -0.874016 1.000000
tan -0.472441 -0.000000 -0.881890 1.000000
tan -0.488189 -0.000000 -0.874016 1.000000
tan 0.334801 0.669601 -0.669601 1.000000
tan 0.970922 0.161820 -0.161820 1.000000
tan 0.982082 0.133920 -0.133920 1.000000
tan 0.546841 0.591481 -0.591481 1.000000
tan 0.859322 -0.357121 0.357121 1.000000
tan 0.312481 -0.675181 0.675181 1.000000
tan 0.881642 -0.340381 0.340381 1.000000
tan 0.524521 -0.602641 0.602641 1.000000
tan 0.334801 -0.669601 -0.669601 1.000000
tan 0.970922 -0.161820 -0.161820 1.000000
tan 0.937442 -0.245521 -0.245520 1.000000
tan 0.546841 -0.591481 -0.591481 1.000000
tan 0.708661 -0.708661 0.033480 1.000000
tan 0.708661 -0.708661 0.022320 1.000000
tan 0.708661 -0.708661 0.011160 1.000000
tan 0.708661 -0.708661 0.022320 1.000000
tan 0.708661 0.708661 0.022320 1.000000
tan 0.708661 0.708661 0.033480 1.000000
tan 0.708661 0.708661 0.033480 1.000000
tan 0.708661 0.708661 0.022320 1.000000
tan 0.859322 0.357121 0.357121 1.000000
tan 0.312481 0.675181 0.675181 1.000000
tan 0.881642 0.340381 0.340381 1.000000
tan 0.524521 0.602641 0.602641 1.000000
tan 0.000000 0.992126 0.094488 1.000000
tan 0.000000 1.000000 0.086614 1.000000
tan 0.000000 1.000000 0.086614 1.000000
tan 0.000000 0.992126 0.094488 1.000000
tan 0.060884 0.998884 -0.028582 1.000000
tan 0.552421 0.636121 0.552421 1.000000
tan 0.664021 0.345961 0.664021 1.000000
tan 0.595883 0.675119 0.414719 1.000000
tan 0.491785 0.655279 -0.116498 1.000000
tan 0.654659 0.589807 -0.471387 1.000000
tan 0.205034 -0.866886 0.277947 1.000000
tan 0.535681 -0.658441 -0.535681 1.000000
tan 0.245830 -0.954368 -0.141360 1.000000
tan 0.658441 -0.368281 -0.658441 1.000000
tan 0.220906 0.864096 0.276148 1.000000
tan 0.658441 0.368281 -0.658441 1.000000
tan 0.535681 0.658441 -0.535681 1.000000
tan 0.245830 0.954368 -0.141360 1.000000
tan 0.495505 -0.655279 -0.106144 1.000000
tan 0.640089 -0.597743 -0.468287 1.000000
tan 0.595883 -0.669601 0.416145 1.000000
tan 0.060884 -0.998884 -0.028582 1.000000
tan 0.552421 -0.636121 0.552421 1.000000
tan 0.664021 -0.345961 0.664021 1.000000
tan 0.000000 -1.000000 0.015748 1.000000
tan 0.000000 -1.000000 0.023622 1.000000
tan 0.228346 -0.976378 0.007688 1.000000
tan 0.118110 -0.992126 0.015624 1.000000
tan 0.755906 -0.653543 0.000000 1.000000
tan 0.984252 -0.196850 0.000000 1.000000
tan 0.984252 0.181102 -0.000000 1.000000
tan 0.755906 0.653543 -0.000000 1.000000
tan 0.228346 0.976378 0.007688 1.000000
tan 0.118110 0.992126 0.015624 1.000000
tan 0.000000 1.000000 0.015748 1.000000
tan 0.000000 1.000000 0.023622 1.000000
f 3/3/3 2/2/2 1/1/1
f 6/6/6 5/5/5 4/4/4
f 9/9/9 8/8/8 7/7/7
f 12/12/12 11/11/11 10/10/10
f 15/15/15 14/14/14 13/13/13
f 18/18/18 17/17/17 16/16/16
f 21/21/21 20/20/20 19/19/19
f 24/24/24 23/23/23 22/22/22
f 27/27/27 26/26/26 25/25/25
f 30/30/30 29/29/29 28/28/28
f 33/33/33 32/32/32 31/31/31
f 36/36/36 35/35/35 34/34/34
f 39/39/39 38/38/38 37/37/37
f 41/41/41 37/37/37 40/40/40
f 44/44/44 43/43/43 42/42/42
f 45/45/45 42/42/42 43/43/43
f 48/48/48 47/47/47 46/46/46
f 49/49/49 46/46/46 47/47/47
f 52/52/52 51/51/51 50/50/50
f 53/53/53 50/50/50 51/51/51
f 56/56/56 55/55/55 54/54/54
f 57/57/57 54/54/54 55/55/55
f 60/60/60 59/59/59 58/58/58
f 61/61/61 58/58/58 59/59/59
f 64/64/64 63/63/63 62/62/62
f 65/65/65 62/62/62 63/63/63
f 68/68/68 67/67/67 66/66/66
f 69/69/69 66/66/66 67/67/67
f 72/72/72 71/71/71 70/70/70
f 73/73/73 70/70/70 71/71/71
f 76/76/76 75/75/75 74/74/74
f 77/77/77 76/76/76 74/74/74
f 80/80/80 79/79/79 78/78/78
f 81/81/81 78/78/78 79/79/79
f 84/84/84 83/83/83 82/82/82
f 85/85/85 82/82/82 83/83/83
f 88/88/88 87/87/87 86/86/86
f 89/89/89 86/86/86 87/87/87
f 90/90/90 86/86/86 89/89/89
f 89/89/89 91/91/91 90/90/90
f 91/91/91 92/92/92 90/90/90
f 94/94/94 93/93/93 92/92/92
f 93/93/93 95/95/95 92/92/92
f 98/98/98 97/97/97 96/96/96
f 99/99/99 98/98/98 96/96/96
f 101/101/101 96/96/96 100/100/100
f 102/102/102 101/101/101 100/100/100
f 100/100/100 103/103/103 102/102/102
f 102/102/102 103/103/103 104/104/104
f 105/105/105 104/104/104 103/103/103
f 108/108/108 107/107/107 106/106/106
f 109/109/109 108/108/108 106/106/106
f 109/109/109 110/110/110 108/108/108
f 111/111/111 108/108/108 110/110/110
f 110/110/110 112/112/112 111/111/111
f 113/113/113 111/111/111 112/112/112
f 112/112/112 114/114/114 113/113/113
f 113/113/113 114/114/114 115/115/115
f 115/115/115 114/114/114 116/116/116
f 114/114/114 117/117/117 116/116/116
