mtllib SM_ClipRoofLong_LOD2.mtl
g SM_ClipRoofLong_LOD2
#Vertices 91
#Indices 186
#Section 0 Offset 0 NumIndices 186 MaterialIndex 0 MI_Brushed_Metal
v -0.069703 0.380503 -0.086774
v -0.174529 0.375272 -0.085361
v -0.076342 0.373867 -0.080137
v -0.169871 0.373890 0.079790
v -0.174529 0.375272 -0.085361
v -0.177186 0.385004 0.087166
v 0.174714 0.375186 0.085361
v 0.177375 0.384917 -0.087166
v 0.170055 0.373807 -0.079790
v 0.069891 0.380469 0.086774
v 0.174714 0.375186 0.085361
v 0.076526 0.373830 0.080137
v 0.070160 -0.159606 -0.080642
v 0.076526 0.373830 -0.079790
v 0.069890 0.380469 -0.086428
v 0.055639 -0.166844 -0.086854
v 0.013930 -0.195560 -0.079663
v -0.042551 -0.185531 -0.082868
v -0.069770 -0.114060 -0.086775
v -0.076279 -0.117582 -0.080099
v -0.076342 0.373867 -0.080137
v -0.069703 0.380503 -0.086774
v -0.076342 0.373867 -0.080137
v -0.169871 0.373890 0.079790
v -0.076342 0.373867 0.079790
v -0.174529 0.375272 -0.085361
v 0.170055 0.373807 -0.079790
v 0.076526 0.373830 0.080137
v 0.174714 0.375186 0.085361
v 0.076526 0.373830 -0.079790
v 0.069890 0.380469 -0.086428
v 0.170055 0.373807 -0.079790
v 0.177375 0.384917 -0.087166
v 0.076526 0.373830 -0.079790
v -0.069703 0.380503 0.086428
v -0.169871 0.373890 0.079790
v -0.177186 0.385004 0.087166
v -0.076342 0.373867 0.079790
v -0.177186 0.385004 0.087166
v -0.057993 0.392207 0.086428
v -0.069703 0.380503 0.086428
v -0.055636 -0.167484 0.086790
v -0.069770 -0.114074 0.086429
v 0.177375 0.384917 -0.087166
v 0.058186 0.392179 -0.086428
v 0.069890 0.380469 -0.086428
v 0.055639 -0.166844 -0.086854
v 0.070160 -0.159606 -0.080642
v 0.174714 0.375186 0.085361
v 0.069891 0.380469 0.086774
v 0.058187 0.392179 0.086774
v 0.058017 -0.112447 0.086775
v 0.069714 -0.114086 0.086775
v 0.042563 -0.185408 0.082919
v -0.042551 -0.185531 -0.082868
v -0.058072 -0.112419 -0.086775
v -0.069770 -0.114060 -0.086775
v -0.069703 0.380503 -0.086774
v -0.057994 0.392207 -0.086774
v -0.174529 0.375272 -0.085361
v 0.069714 -0.114086 0.086775
v 0.069891 0.380469 0.086774
v 0.076526 0.373830 0.080137
v 0.076222 -0.117611 0.080099
v 0.042563 -0.185408 0.082919
v -0.055636 -0.167484 0.086790
v -0.012998 -0.196522 0.079940
v -0.074731 -0.141646 0.079546
v -0.069770 -0.114074 0.086429
v -0.076342 0.373867 0.079790
v -0.069703 0.380503 0.086428
v -0.012998 -0.196522 0.079940
v 0.013930 -0.195560 -0.079663
v -0.042551 -0.185531 -0.082868
v 0.042563 -0.185408 0.082919
v -0.074731 -0.141646 0.079546
v 0.070160 -0.159606 -0.080642
v -0.076279 -0.117582 -0.080099
v 0.076222 -0.117611 0.080099
v -0.076454 -0.079703 -0.055789
v -0.076348 0.349519 -0.055789
v -0.076454 -0.079703 0.055442
v -0.076342 0.373867 -0.080137
v -0.076342 0.373867 0.079790
v -0.076348 0.349519 0.055442
v 0.076415 -0.079740 0.055789
v 0.076520 0.349481 0.055789
v 0.076414 -0.079741 -0.055442
v 0.076526 0.373830 0.080137
v 0.076526 0.373830 -0.079790
v 0.076520 0.349481 -0.055442
vt 0.104126 0.421387
vt 0.104675 0.413574
vt 0.104980 0.421387
vt 0.117432 0.413086
vt 0.104553 0.413574
vt 0.117859 0.412598
vt 0.127930 0.586182
vt 0.103333 0.587891
vt 0.104187 0.586426
vt 0.129272 0.572510
vt 0.127686 0.586670
vt 0.127686 0.572266
vt 0.102478 0.487305
vt 0.103149 0.572754
vt 0.101501 0.573242
vt 0.102417 0.485840
vt 0.104797 0.479004
vt 0.105347 0.472168
vt 0.105835 0.463867
vt 0.106750 0.464355
vt 0.104980 0.421387
vt 0.104126 0.421387
vt 0.104980 0.421387
vt 0.117432 0.413086
vt 0.118286 0.420410
vt 0.104492 0.413574
vt 0.104187 0.586426
vt 0.127686 0.572266
vt 0.127930 0.586426
vt 0.103149 0.572754
vt 0.101501 0.573242
vt 0.104187 0.586426
vt 0.103027 0.587646
vt 0.103149 0.572754
vt 0.119141 0.420410
vt 0.117432 0.413086
vt 0.118042 0.412598
vt 0.118286 0.420410
vt 0.117859 0.412598
vt 0.120117 0.419922
vt 0.119141 0.420410
vt 0.124512 0.467773
vt 0.122681 0.462891
vt 0.103394 0.587646
vt 0.099548 0.573975
vt 0.101501 0.573242
vt 0.099792 0.485840
vt 0.101562 0.487305
vt 0.126831 0.585205
vt 0.129272 0.572510
vt 0.131104 0.572998
vt 0.131104 0.494629
vt 0.129150 0.494629
vt 0.127808 0.480957
vt 0.104126 0.472656
vt 0.104736 0.463867
vt 0.105835 0.463867
vt 0.104126 0.421387
vt 0.103088 0.420898
vt 0.105164 0.414062
vt 0.129150 0.494629
vt 0.129272 0.572510
vt 0.127686 0.572266
vt 0.127686 0.494141
vt 0.126465 0.481934
vt 0.124756 0.468750
vt 0.124817 0.474609
vt 0.122192 0.465820
vt 0.122681 0.462891
vt 0.118286 0.420410
vt 0.119141 0.420410
vt 0.124756 0.474609
vt 0.104858 0.479492
vt 0.105225 0.472168
vt 0.126221 0.482422
vt 0.122498 0.465820
vt 0.103394 0.487793
vt 0.106628 0.464355
vt 0.127563 0.494141
vt 0.109009 0.460938
vt 0.107056 0.423340
vt 0.119202 0.460449
vt 0.104980 0.421387
vt 0.118286 0.420410
vt 0.116516 0.422852
vt 0.124023 0.500000
vt 0.124084 0.568604
vt 0.106628 0.500000
vt 0.127686 0.572266
vt 0.103149 0.572754
vt 0.106750 0.568848
vt1 0.839844 0.059082
vt1 0.842773 0.016113
vt1 0.844727 0.059570
vt1 0.914062 0.014160
vt1 0.842285 0.017578
vt1 0.916504 0.009766
vt1 0.972656 0.980728
vt1 0.835449 0.989235
vt1 0.840332 0.981049
vt1 0.980469 0.904541
vt1 0.971680 0.982986
vt1 0.971191 0.903137
vt1 0.830566 0.429199
vt1 0.834473 0.905945
vt1 0.825195 0.908630
vt1 0.830566 0.419434
vt1 0.843750 0.382812
vt1 0.846680 0.344727
vt1 0.849609 0.298340
vt1 0.854492 0.300293
vt1 0.844727 0.059570
vt1 0.839844 0.059082
vt1 0.844727 0.059570
vt1 0.914062 0.014160
vt1 0.918945 0.055176
vt1 0.842285 0.016602
vt1 0.840332 0.981049
vt1 0.971191 0.903137
vt1 0.973145 0.981964
vt1 0.834473 0.905945
vt1 0.825195 0.908630
vt1 0.840332 0.981049
vt1 0.833984 0.987877
vt1 0.834473 0.905945
vt1 0.923828 0.053711
vt1 0.914062 0.014160
vt1 0.917480 0.010742
vt1 0.918945 0.055176
vt1 0.916504 0.010254
vt1 0.929199 0.052246
vt1 0.923828 0.053711
vt1 0.953613 0.318848
vt1 0.943848 0.292480
vt1 0.835938 0.987976
vt1 0.814453 0.911926
vt1 0.825195 0.908630
vt1 0.815430 0.419434
vt1 0.825684 0.428223
vt1 0.966797 0.974792
vt1 0.980469 0.904541
vt1 0.990723 0.906494
vt1 0.990723 0.468262
vt1 0.979980 0.467773
vt1 0.972168 0.391602
vt1 0.839844 0.345703
vt1 0.843262 0.297363
vt1 0.849609 0.298340
vt1 0.839844 0.059082
vt1 0.833984 0.058105
vt1 0.845703 0.020508
vt1 0.979980 0.467773
vt1 0.980469 0.904541
vt1 0.971191 0.903137
vt1 0.971680 0.465332
vt1 0.964844 0.398926
vt1 0.955078 0.323242
vt1 0.955078 0.358398
vt1 0.940430 0.307129
vt1 0.943359 0.292480
vt1 0.918945 0.055176
vt1 0.923828 0.053711
vt1 0.955078 0.357910
vt1 0.843750 0.383301
vt1 0.845703 0.344727
vt1 0.963867 0.399902
vt1 0.942383 0.307617
vt1 0.835938 0.431152
vt1 0.853516 0.300293
vt1 0.970703 0.465332
vt1 0.867188 0.280762
vt1 0.855957 0.070801
vt1 0.923828 0.277344
vt1 0.844727 0.059570
vt1 0.918945 0.055176
vt1 0.908691 0.067383
vt1 0.951172 0.499512
vt1 0.951172 0.882202
vt1 0.853516 0.500000
vt1 0.971191 0.903137
vt1 0.834473 0.905945
vt1 0.854492 0.883423
vn 0.000000 -0.708661 -0.708661
vn 0.000000 -0.708661 -0.708661
vn 0.000000 -0.708661 -0.708661
vn -0.708661 -0.708661 0.000000
vn -0.708661 -0.708661 0.000000
vn -0.708661 -0.708661 0.000000
vn 0.708661 -0.708661 0.000000
vn 0.708661 -0.708661 0.000000
vn 0.708661 -0.708661 0.000000
vn 0.000000 -0.708661 0.708661
vn 0.000000 -0.708661 0.708661
vn 0.000000 -0.708661 0.708661
vn 0.700787 -0.102362 -0.708661
vn 0.708661 -0.000000 -0.708661
vn 0.708661 -0.000000 -0.708661
vn 0.559055 -0.480315 -0.685039
vn 0.141732 -0.700787 -0.700787
vn -0.433071 -0.574803 -0.692913
vn -0.708661 -0.047244 -0.708661
vn -0.708661 -0.055118 -0.708661
vn -0.708661 -0.000000 -0.708661
vn -0.708661 -0.000000 -0.708661
vn 0.000000 -1.000000 0.000000
vn 0.000000 -1.000000 0.000000
vn 0.000000 -1.000000 0.000000
vn 0.000000 -1.000000 0.000000
vn 0.000000 -1.000000 0.000000
vn 0.000000 -1.000000 0.000000
vn 0.000000 -1.000000 0.000000
vn 0.000000 -1.000000 0.000000
vn 0.000000 -0.708661 -0.708661
vn 0.000000 -0.708661 -0.708661
vn 0.000000 -0.708661 -0.708661
vn 0.000000 -0.708661 -0.708661
vn 0.000000 -0.708661 0.708661
vn 0.000000 -0.708661 0.708661
vn 0.000000 -0.708661 0.708661
vn 0.000000 -0.708661 0.708661
vn 0.000000 0.000000 1.000000
vn 0.000000 0.000000 1.000000
vn 0.000000 0.000000 1.000000
vn 0.000000 0.000000 1.000000
vn 0.000000 0.000000 1.000000
vn 0.000000 -0.000000 -1.000000
vn 0.000000 -0.000000 -1.000000
vn 0.000000 -0.000000 -1.000000
vn 0.000000 -0.000000 -1.000000
vn 0.000000 -0.000000 -1.000000
vn 0.000000 0.000000 1.000000
vn 0.000000 0.000000 1.000000
vn 0.000000 0.000000 1.000000
vn 0.000000 0.000000 1.000000
vn 0.000000 0.000000 1.000000
vn 0.000000 0.000000 1.000000
vn 0.000000 -0.000000 -1.000000
vn 0.000000 -0.000000 -1.000000
vn 0.000000 -0.000000 -1.000000
vn 0.000000 -0.000000 -1.000000
vn 0.000000 -0.000000 -1.000000
vn 0.000000 -0.000000 -1.000000
vn 0.708661 -0.047244 0.708661
vn 0.708661 0.000000 0.708661
vn 0.708661 0.000000 0.708661
vn 0.708661 -0.055118 0.708661
vn 0.433071 -0.574803 0.692913
vn -0.551181 -0.480315 0.677165
vn -0.133858 -0.708661 0.700787
vn -0.700787 -0.102362 0.708661
vn -0.708661 -0.047244 0.708661
vn -0.708661 0.000000 0.708661
vn -0.708661 0.000000 0.708661
vn -0.181102 -0.984252 0.000000
vn 0.196850 -0.984252 0.000000
vn -0.598425 -0.803149 0.000000
vn 0.598425 -0.803149 0.000000
vn -0.968504 -0.251968 0.000000
vn 0.937008 -0.354331 0.000000
vn -0.992126 -0.094488 0.000000
vn 0.992126 -0.094488 0.000000
vn -1.000000 0.000000 0.000000
vn -1.000000 0.000000 0.000000
vn -1.000000 0.000000 0.000000
vn -1.000000 0.000000 0.000000
vn -1.000000 0.000000 0.000000
vn -1.000000 0.000000 0.000000
vn 1.000000 0.000000 0.000000
vn 1.000000 0.000000 0.000000
vn 1.000000 0.000000 0.000000
vn 1.000000 0.000000 0.000000
vn 1.000000 0.000000 0.000000
vn 1.000000 0.000000 0.000000
tan -0.558001 0.591481 -0.591481 1.000000
tan -0.937442 0.239940 -0.239940 1.000000
tan -0.513361 0.608221 -0.608221 1.000000
tan -0.708661 0.708661 0.044640 1.000000
tan -0.708661 0.708661 0.022320 1.000000
tan -0.708661 0.708661 0.022320 1.000000
tan -0.708661 -0.708661 0.011160 1.000000
tan -0.708661 -0.708661 0.011160 1.000000
tan -0.708661 -0.708661 0.011160 1.000000
tan -0.535681 -0.597061 -0.597061 1.000000
tan -0.892802 -0.312481 -0.312481 1.000000
tan -0.491041 -0.619381 -0.619381 1.000000
tan -0.590365 -0.632773 -0.492405 1.000000
tan -0.429661 -0.792361 -0.429661 1.000000
tan -0.435241 -0.792361 -0.435241 1.000000
tan -0.678777 -0.511067 -0.195610 1.000000
tan -0.904954 -0.367351 0.184326 1.000000
tan -0.393391 0.669043 -0.309133 1.000000
tan -0.016368 1.004402 -0.050592 1.000000
tan -0.049786 0.998822 -0.027900 1.000000
tan -0.535681 0.658441 0.535681 1.000000
tan -0.535681 0.658441 0.535681 1.000000
tan -1.000000 0.000000 0.062992 1.000000
tan -1.000000 0.000000 0.062992 1.000000
tan -1.000000 0.000000 0.062992 1.000000
tan -1.000000 0.000000 0.062992 1.000000
tan -1.000000 0.000000 0.023622 1.000000
tan -1.000000 0.000000 0.023622 1.000000
tan -1.000000 0.000000 0.023622 1.000000
tan -1.000000 0.000000 0.023622 1.000000
tan -0.468721 -0.624961 0.624961 1.000000
tan -0.948602 -0.239940 0.239940 1.000000
tan -0.859322 -0.362701 0.362701 1.000000
tan -0.424081 -0.641701 0.641701 1.000000
tan -0.491041 0.619381 0.619381 1.000000
tan -0.926282 0.262261 0.262260 1.000000
tan -0.825842 0.401761 0.401761 1.000000
tan -0.446401 0.636121 0.636121 1.000000
tan -0.850394 0.527559 -0.000000 1.000000
tan -0.590551 0.811023 -0.000000 1.000000
tan -0.590551 0.803149 -0.000000 1.000000
tan 0.102362 0.992126 -0.000000 1.000000
tan 0.133858 0.992126 -0.000000 1.000000
tan -0.850394 -0.519685 0.000000 1.000000
tan -0.566929 -0.826772 0.000000 1.000000
tan -0.574803 -0.818897 0.000000 1.000000
tan -0.188976 -0.984252 0.000000 1.000000
tan -0.086614 -1.000000 0.000000 1.000000
tan -0.850394 -0.527559 0.000000 1.000000
tan -0.629921 -0.771653 0.000000 1.000000
tan -0.629921 -0.779527 0.000000 1.000000
tan -0.094488 -0.992126 0.000000 1.000000
tan -0.118110 -0.992126 0.000000 1.000000
tan -0.905512 -0.425197 0.000000 1.000000
tan -0.692913 0.724409 -0.000000 1.000000
tan 0.007874 1.000000 -0.000000 1.000000
tan 0.007874 1.000000 -0.000000 1.000000
tan -0.645669 0.763779 -0.000000 1.000000
tan -0.645669 0.763779 -0.000000 1.000000
tan -0.858268 0.511811 -0.000000 1.000000
tan -0.287557 -0.931862 0.225433 1.000000
tan -0.518941 -0.680761 0.518941 1.000000
tan -0.518941 -0.680761 0.518941 1.000000
tan -0.401699 -0.859322 0.334863 1.000000
tan -0.657821 -0.503317 -0.006386 1.000000
tan -0.294067 0.751689 0.293818 1.000000
tan -0.427243 0.674623 0.600595 1.000000
tan 0.141980 0.949222 0.277512 1.000000
tan 0.300205 0.887222 0.359353 1.000000
tan -0.463141 0.758881 -0.463141 1.000000
tan -0.468721 0.747721 -0.468721 1.000000
tan -0.984252 0.181102 0.054250 1.000000
tan -0.984252 -0.196850 0.046500 1.000000
tan -0.803150 0.598425 0.006324 1.000000
tan -0.803150 -0.598425 0.006324 1.000000
tan -0.251969 0.968504 0.038130 1.000000
tan -0.354331 -0.937008 0.007378 1.000000
tan -0.094488 0.992126 0.062496 1.000000
tan -0.094488 -0.992126 0.007812 1.000000
tan 0.000000 1.000000 0.070866 1.000000
tan 0.000000 1.000000 0.070866 1.000000
tan 0.000000 1.000000 0.055118 1.000000
tan 0.000000 1.000000 0.062992 1.000000
tan 0.000000 1.000000 0.047244 1.000000
tan 0.000000 1.000000 0.047244 1.000000
tan 0.000000 -1.000000 0.007874 1.000000
tan 0.000000 -1.000000 0.023622 1.000000
tan 0.000000 -1.000000 0.007874 1.000000
tan 0.000000 -1.000000 0.023622 1.000000
tan 0.000000 -1.000000 0.023622 1.000000
tan 0.000000 -1.000000 0.023622 1.000000
f 3/3/3 2/2/2 1/1/1
f 6/6/6 5/5/5 4/4/4
f 9/9/9 8/8/8 7/7/7
f 12/12/12 11/11/11 10/10/10
f 15/15/15 14/14/14 13/13/13
f 13/13/13 17/17/17 16/16/16
f 17/17/17 18/18/18 16/16/16
f 18/18/18 20/20/20 19/19/19
f 20/20/20 21/21/21 19/19/19
f 21/21/21 22/22/22 19/19/19
f 25/25/25 24/24/24 23/23/23
f 26/26/26 23/23/23 24/24/24
f 29/29/29 28/28/28 27/27/27
f 30/30/30 27/27/27 28/28/28
f 33/33/33 32/32/32 31/31/31
f 34/34/34 31/31/31 32/32/32
f 37/37/37 36/36/36 35/35/35
f 38/38/38 35/35/35 36/36/36
f 41/41/41 40/40/40 39/39/39
f 40/40/40 41/41/41 42/42/42
f 43/43/43 42/42/42 41/41/41
f 46/46/46 45/45/45 44/44/44
f 45/45/45 46/46/46 47/47/47
f 48/48/48 47/47/47 46/46/46
f 51/51/51 50/50/50 49/49/49
f 50/50/50 51/51/51 52/52/52
f 52/52/52 53/53/53 50/50/50
f 53/53/53 52/52/52 54/54/54
f 57/57/57 56/56/56 55/55/55
f 56/56/56 57/57/57 58/58/58
f 58/58/58 59/59/59 56/56/56
f 59/59/59 58/58/58 60/60/60
f 63/63/63 62/62/62 61/61/61
f 64/64/64 63/63/63 61/61/61
f 65/65/65 64/64/64 61/61/61
f 67/67/67 65/65/65 66/66/66
f 68/68/68 67/67/67 66/66/66
f 66/66/66 69/69/69 68/68/68
f 68/68/68 69/69/69 70/70/70
f 71/71/71 70/70/70 69/69/69
f 74/74/74 73/73/73 72/72/72
f 75/75/75 72/72/72 73/73/73
f 72/72/72 76/76/76 74/74/74
f 73/73/73 77/77/77 75/75/75
f 78/78/78 74/74/74 76/76/76
f 75/75/75 77/77/77 79/79/79
f 78/78/78 76/76/76 80/80/80
f 80/80/80 81/81/81 78/78/78
f 82/82/82 80/80/80 76/76/76
f 81/81/81 83/83/83 78/78/78
f 82/82/82 76/76/76 84/84/84
f 81/81/81 85/85/85 83/83/83
f 85/85/85 82/82/82 84/84/84
f 85/85/85 84/84/84 83/83/83
f 79/79/79 77/77/77 86/86/86
f 86/86/86 87/87/87 79/79/79
f 88/88/88 86/86/86 77/77/77
f 87/87/87 89/89/89 79/79/79
f 88/88/88 77/77/77 90/90/90
f 87/87/87 91/91/91 89/89/89
f 91/91/91 88/88/88 90/90/90
f 91/91/91 90/90/90 89/89/89
