mtllib SM_CableSmall_LOD3.mtl
g SM_CableSmall_LOD3
#Vertices 35
#Indices 87
#Section 0 Offset 0 NumIndices 57 MaterialIndex 0 MI_Rubber05
#Section 1 Offset 57 NumIndices 30 MaterialIndex 1 MI_Brushed_Metal
v -0.000100 0.024411 -0.001198
v 0.037162 0.020973 0.000130
v 0.039947 0.010785 0.024357
v 0.000259 -0.017339 0.021858
v 0.038571 -0.028817 0.002126
v -0.000000 -0.006630 -0.020929
v 0.037184 0.010067 -0.022633
v -0.000100 0.024411 -0.001198
v 0.037162 0.020973 0.000130
v 1.192531 0.020449 0.000002
v 0.056338 0.014857 0.014220
v 0.053994 0.020848 -0.000019
v 1.192563 0.008160 0.019775
v 0.054293 -0.008329 0.020061
v 1.192557 -0.014459 0.014459
v 0.054699 -0.020641 -0.000473
v 1.192554 -0.019828 -0.008187
v 0.056700 -0.008541 -0.019662
v 1.192557 0.000000 -0.020449
v 0.055855 0.014163 -0.014948
v 1.192557 0.014459 -0.014459
v 1.192531 0.020449 0.000002
v 0.053994 0.020848 -0.000019
v 0.039947 0.010785 0.024357
v 0.037162 0.020973 0.000130
v 0.053994 0.020848 -0.000019
v 0.056338 0.014857 0.014220
v 0.054293 -0.008329 0.020061
v 0.038571 -0.028817 0.002126
v 0.054699 -0.020641 -0.000473
v 0.056700 -0.008541 -0.019662
v 0.037184 0.010067 -0.022633
v 0.055855 0.014163 -0.014948
v 0.053994 0.020848 -0.000019
v 0.037162 0.020973 0.000130
vt 0.053558 0.575928
vt 0.052734 0.570801
vt 0.055756 0.569824
vt 0.059235 0.574951
vt 0.061035 0.569580
vt 0.064392 0.574951
vt 0.066589 0.570068
vt 0.068909 0.575684
vt 0.069763 0.570801
vt 0.054230 0.424805
vt 0.055084 0.565430
vt 0.053040 0.565674
vt 0.057129 0.424805
vt 0.058136 0.565674
vt 0.060028 0.424805
vt 0.061127 0.565674
vt 0.062927 0.424805
vt 0.064026 0.565674
vt 0.065857 0.424805
vt 0.066895 0.565430
vt 0.067749 0.424805
vt 0.069702 0.424805
vt 0.069031 0.565674
vt 0.055786 0.569336
vt 0.052734 0.571045
vt 0.052551 0.567871
vt 0.054657 0.567383
vt 0.058105 0.567383
vt 0.061066 0.569580
vt 0.061310 0.567627
vt 0.064331 0.567383
vt 0.066589 0.569580
vt 0.067627 0.567139
vt 0.069824 0.567383
vt 0.069763 0.570801
vt1 0.091797 0.992634
vt1 0.049011 0.960480
vt1 0.210815 0.952789
vt1 0.397949 0.986511
vt1 0.493896 0.952423
vt1 0.675293 0.986443
vt1 0.792969 0.954742
vt1 0.917480 0.990700
vt1 0.964844 0.959564
vt1 0.128906 0.008301
vt1 0.174683 0.925171
vt1 0.065063 0.926941
vt1 0.284668 0.008301
vt1 0.338379 0.927002
vt1 0.440186 0.008301
vt1 0.498535 0.926208
vt1 0.595703 0.008789
vt1 0.655762 0.926025
vt1 0.752441 0.008789
vt1 0.809570 0.925171
vt1 0.856445 0.008789
vt1 0.959473 0.009277
vt1 0.924805 0.926636
vt1 0.212402 0.950836
vt1 0.048767 0.961151
vt1 0.038452 0.940704
vt1 0.152222 0.937195
vt1 0.336914 0.937317
vt1 0.495117 0.951416
vt1 0.508301 0.938690
vt1 0.672363 0.936829
vt1 0.792480 0.952515
vt1 0.848145 0.936707
vt1 0.966797 0.937744
vt1 0.963867 0.960052
vn 0.000000 1.000000 0.031496
vn 0.000000 1.000000 -0.000000
vn 0.000000 0.425197 0.905512
vn 0.000000 -0.614173 0.787401
vn 0.000000 -1.000000 0.055118
vn 0.000000 -0.307087 -0.952756
vn 0.000000 0.417323 -0.913386
vn 0.000000 0.984252 -0.157480
vn 0.000000 1.000000 0.015748
vn 0.000000 1.000000 -0.000000
vn 0.000000 0.716535 0.692913
vn 0.000000 1.000000 -0.007874
vn 0.000000 0.385827 0.921260
vn 0.000000 -0.385827 0.921260
vn 0.000000 -0.708661 0.708661
vn 0.000000 -1.000000 -0.015748
vn 0.000000 -0.921260 -0.377953
vn 0.000000 -0.393701 -0.921260
vn 0.000000 -0.000000 -1.000000
vn 0.000000 0.692913 -0.724409
vn 0.000000 0.708661 -0.708661
vn 0.000000 1.000000 -0.000000
vn 0.000000 1.000000 0.007874
vn -0.440945 0.362205 0.818897
vn -0.992126 0.141732 0.039370
vn 0.433071 0.897638 0.110236
vn 0.622047 0.566929 0.543307
vn 0.716535 -0.338583 0.614173
vn -0.559055 -0.826772 0.000000
vn 0.488189 -0.874016 0.015748
vn 0.622047 -0.299213 -0.724409
vn -0.566929 0.354331 -0.748031
vn 0.653543 0.543307 -0.527559
vn 0.425197 0.897638 -0.118110
vn -0.984252 0.149606 0.055118
tan 0.984252 -0.006200 0.196850 1.000000
tan 0.960630 0.000000 0.267716 1.000000
tan 0.687829 -0.591791 0.277885 1.000000
tan 0.978362 -0.074400 -0.058032 1.000000
tan 1.000000 -0.001302 -0.023622 1.000000
tan 0.962428 -0.045012 0.014508 1.000000
tan 0.814124 -0.453097 -0.207018 1.000000
tan 0.969992 -0.031000 -0.193750 1.000000
tan 0.968504 0.003968 -0.251968 1.000000
tan 1.000000 0.000000 0.000000 1.000000
tan 0.927522 0.256432 -0.265175 1.000000
tan 1.000000 -0.000496 -0.062992 1.000000
tan 0.948602 0.007254 -0.003038 1.000000
tan 0.938310 0.072540 0.030380 1.000000
tan 1.004402 0.033480 0.033480 1.000000
tan 1.000000 0.000000 0.000000 1.000000
tan 0.948044 -0.008928 0.021762 1.000000
tan 0.945006 -0.065286 0.027900 1.000000
tan 1.000000 -0.007874 0.000000 1.000000
tan 0.983570 0.125488 0.120032 1.000000
tan 1.004402 -0.044640 -0.044640 1.000000
tan 1.000000 -0.000000 -0.031496 1.000000
tan 1.000000 -0.000496 0.062992 1.000000
tan 0.852378 -0.009424 0.463141 1.000000
tan 0.137392 0.796826 0.593713 1.000000
tan 0.902846 -0.433071 -0.020460 1.000000
tan 0.781945 -0.426127 -0.450617 1.000000
tan 0.686961 0.216008 -0.682373 1.000000
tan 0.826772 -0.559055 0.011098 1.000000
tan 0.874016 0.488065 -0.006882 1.000000
tan 0.758758 0.083266 0.617149 1.000000
tan 0.803212 0.083576 -0.569161 1.000000
tan 0.749209 -0.364995 0.552235 1.000000
tan 0.903218 -0.422407 0.041292 1.000000
tan 0.096534 0.829252 -0.527001 1.000000
f 3/3/3 2/2/2 1/1/1
f 1/1/1 4/4/4 3/3/3
f 3/3/3 4/4/4 5/5/5
f 6/6/6 5/5/5 4/4/4
f 5/5/5 6/6/6 7/7/7
f 8/8/8 7/7/7 6/6/6
f 7/7/7 8/8/8 9/9/9
f 12/12/12 11/11/11 10/10/10
f 10/10/10 11/11/11 13/13/13
f 11/11/11 14/14/14 13/13/13
f 14/14/14 15/15/15 13/13/13
f 16/16/16 15/15/15 14/14/14
f 15/15/15 16/16/16 17/17/17
f 16/16/16 18/18/18 17/17/17
f 19/19/19 17/17/17 18/18/18
f 19/19/19 18/18/18 20/20/20
f 20/20/20 21/21/21 19/19/19
f 20/20/20 22/22/22 21/21/21
f 20/20/20 23/23/23 22/22/22
f 26/26/26 25/25/25 24/24/24
f 24/24/24 27/27/27 26/26/26
f 28/28/28 27/27/27 24/24/24
f 28/28/28 24/24/24 29/29/29
f 28/28/28 29/29/29 30/30/30
f 29/29/29 31/31/31 30/30/30
f 32/32/32 31/31/31 29/29/29
f 31/31/31 32/32/32 33/33/33
f 33/33/33 32/32/32 34/34/34
f 35/35/35 34/34/34 32/32/32
