mtllib SM_ChairPlastic_LOD5.mtl
g SM_ChairPlastic_LOD5
#Vertices 92
#Indices 183
#Section 0 Offset 0 NumIndices 183 MaterialIndex 0 MI_Brick_Wall
v -0.225554 0.477540 0.098374
v -0.304324 0.094075 0.038421
v -0.289698 0.639945 0.176705
v -0.070974 0.526633 0.523450
v -0.224859 0.833877 0.651728
v -0.060798 0.781967 0.681929
v -0.224859 0.833877 0.651728
v -0.070974 0.526633 0.523450
v -0.060798 0.781967 0.681929
v 0.226385 0.487611 0.106606
v 0.308694 0.074684 0.046578
v 0.286142 0.662656 0.158317
v 0.308694 0.074684 0.046578
v 0.226385 0.487611 0.106606
v 0.286142 0.662656 0.158317
v 0.096222 0.819488 0.611000
v 0.098136 0.551724 0.530933
v 0.060465 0.814634 0.626267
v 0.134343 0.467312 0.465831
v 0.163935 -0.009382 0.549542
v 0.260930 -0.021870 0.506378
v 0.096222 0.819488 0.611000
v 0.060465 0.814634 0.626267
v 0.098136 0.551724 0.530933
v 0.244906 0.808669 0.676658
v 0.286142 0.662656 0.158317
v 0.305132 0.701421 0.550039
v 0.060465 0.814634 0.626267
v 0.012902 0.966928 0.657677
v 0.095196 0.518881 0.556160
v -0.060798 0.781967 0.681929
v -0.224859 0.833877 0.651728
v -0.130502 0.467453 0.513363
v 0.134343 0.467312 0.465831
v -0.070974 0.526633 0.523450
v 0.098136 0.551724 0.530933
v 0.244906 0.808669 0.676658
v 0.305132 0.701421 0.550039
v 0.198881 0.938231 0.628812
v 0.098136 0.551724 0.530933
v 0.244906 0.808669 0.676658
v 0.095196 0.518881 0.556160
v 0.134343 0.467312 0.465831
v 0.229432 0.488960 0.464786
v -0.130502 0.467453 0.513363
v 0.096222 0.819488 0.611000
v -0.070974 0.526633 0.523450
v -0.224859 0.833877 0.651728
v -0.060798 0.781967 0.681929
v -0.287401 0.931053 0.658437
v -0.270210 0.698338 0.535405
v -0.288882 0.689102 0.134518
v -0.222641 0.662958 0.157516
v -0.225554 0.477540 0.098374
v -0.304324 0.094075 0.038421
v -0.304324 0.094075 0.038421
v -0.288882 0.689102 0.134518
v -0.289698 0.639945 0.176705
v -0.270210 0.698338 0.535405
v -0.270210 0.698338 0.535405
v -0.222641 0.662958 0.157516
v -0.289698 0.639945 0.176705
v -0.225554 0.477540 0.098374
v 0.214998 0.971989 0.704856
v -0.287401 0.931053 0.658437
v 0.198881 0.938231 0.628812
v 0.305132 0.701421 0.550039
v 0.096222 0.819488 0.611000
v 0.095196 0.518881 0.556160
v 0.060465 0.814634 0.626267
v 0.098136 0.551724 0.530933
v 0.095196 0.518881 0.556160
v 0.096222 0.819488 0.611000
v 0.060465 0.814634 0.626267
v 0.098136 0.551724 0.530933
v -0.130502 0.467453 0.513363
v -0.233194 0.489839 0.461698
v 0.229432 0.488960 0.464786
v 0.226385 0.487611 0.106606
v -0.225554 0.477540 0.098374
v 0.229432 0.488960 0.464786
v 0.163935 -0.009382 0.549542
v 0.134343 0.467312 0.465831
v 0.260930 -0.021870 0.506378
v 0.221189 0.409962 0.390973
v 0.226385 0.487611 0.106606
v -0.170267 -0.009065 0.585838
v -0.233194 0.489839 0.461698
v -0.130502 0.467453 0.513363
v -0.221537 0.408885 0.392467
v -0.213667 -0.012198 0.489201
v -0.225554 0.477540 0.098374
vt 0.534668 0.498535
vt 0.543945 0.451172
vt 0.537598 0.520752
vt 0.520508 0.567383
vt 0.520996 0.525391
vt 0.523438 0.531006
vt 0.520996 0.602539
vt 0.520508 0.560547
vt 0.523926 0.596680
vt 0.427490 0.403809
vt 0.429199 0.352051
vt 0.447510 0.414551
vt 0.531250 0.530273
vt 0.520020 0.479492
vt 0.521973 0.456543
vt 0.528809 0.596680
vt 0.527832 0.561768
vt 0.530273 0.596436
vt 0.514648 0.520020
vt 0.515137 0.457031
vt 0.518555 0.452637
vt 0.528809 0.527100
vt 0.531738 0.527344
vt 0.526367 0.562012
vt 0.473389 0.361816
vt 0.536133 0.344727
vt 0.491699 0.359375
vt 0.474609 0.386230
vt 0.454834 0.392090
vt 0.513672 0.381348
vt 0.476562 0.401855
vt 0.471436 0.422852
vt 0.520996 0.410645
vt 0.526855 0.376465
vt 0.514160 0.402832
vt 0.510742 0.380859
vt 0.440918 0.481445
vt 0.446533 0.457520
vt 0.446045 0.494141
vt 0.415771 0.450195
vt 0.445801 0.478027
vt 0.415527 0.449707
vt 0.418213 0.440918
vt 0.426758 0.440430
vt 0.393555 0.447754
vt 0.425293 0.482910
vt 0.398682 0.451660
vt 0.380127 0.489746
vt 0.403564 0.484375
vt 0.375000 0.505371
vt 0.372070 0.469238
vt 0.353516 0.430664
vt 0.355713 0.428711
vt 0.369385 0.411133
vt 0.352295 0.361328
vt 0.340576 0.344238
vt 0.344971 0.409180
vt 0.339111 0.405273
vt 0.303467 0.426270
vt 0.492920 0.431152
vt 0.536621 0.438477
vt 0.534180 0.445801
vt 0.559082 0.445312
vt 0.288086 0.537842
vt 0.293945 0.449707
vt 0.297363 0.538330
vt 0.301514 0.574951
vt 0.549316 0.606201
vt 0.547852 0.568604
vt 0.550781 0.605957
vt 0.546875 0.572021
vt 0.547852 0.574219
vt 0.549316 0.536621
vt 0.550781 0.536865
vt 0.546875 0.570557
vt 0.457031 0.537842
vt 0.458984 0.524902
vt 0.458740 0.582764
vt 0.503418 0.582275
vt 0.504395 0.525879
vt 0.502441 0.521484
vt 0.515137 0.457031
vt 0.514648 0.519775
vt 0.504883 0.455078
vt 0.492920 0.511475
vt 0.456299 0.522949
vt 0.403320 0.581299
vt 0.391602 0.515625
vt 0.405029 0.518799
vt 0.382812 0.525635
vt 0.391846 0.582275
vt 0.344727 0.515137
vt1 0.595703 0.954681
vt1 0.780762 0.991768
vt1 0.509277 0.966644
vt1 0.435791 0.382812
vt1 0.600098 0.386719
vt1 0.577637 0.395996
vt1 0.299072 0.386719
vt1 0.463135 0.383301
vt1 0.321777 0.396973
vt1 0.303467 0.585693
vt1 0.309570 0.385254
vt1 0.379883 0.627686
vt1 0.488037 0.931885
vt1 0.686523 0.887268
vt1 0.775879 0.895691
vt1 0.531738 0.145508
vt1 0.666992 0.141113
vt1 0.532227 0.151855
vt1 0.436768 0.466309
vt1 0.672363 0.465332
vt1 0.687988 0.451660
vt1 0.802246 0.145996
vt1 0.801758 0.157227
vt1 0.666992 0.137207
vt1 0.779297 0.635254
vt1 0.846191 0.879822
vt1 0.789551 0.706299
vt1 0.685547 0.640137
vt1 0.661621 0.562500
vt1 0.704102 0.792114
vt1 0.624023 0.647461
vt1 0.542969 0.627197
vt1 0.589844 0.821777
vt1 0.723145 0.843628
vt1 0.619629 0.793579
vt1 0.705078 0.780151
vt1 0.354736 0.888794
vt1 0.376221 0.796631
vt1 0.374512 0.938293
vt1 0.258789 0.768066
vt1 0.373047 0.875244
vt1 0.257324 0.766113
vt1 0.267578 0.731934
vt1 0.300537 0.728516
vt1 0.173950 0.758057
vt1 0.295166 0.894043
vt1 0.193359 0.773315
vt1 0.122559 0.922180
vt1 0.212158 0.901428
vt1 0.103027 0.983383
vt1 0.091370 0.841675
vt1 0.020721 0.690918
vt1 0.028366 0.683594
vt1 0.081238 0.614014
vt1 0.015518 0.421875
vt1 0.959961 0.184082
vt1 0.769043 0.171387
vt1 0.780762 0.187988
vt1 0.718262 0.293457
vt1 0.509766 0.710938
vt1 0.481201 0.882446
vt1 0.454102 0.872437
vt1 0.455566 0.969879
vt1 0.388672 0.338867
vt1 0.649414 0.321777
vt1 0.387451 0.311523
vt1 0.279297 0.299316
vt1 0.531738 0.081055
vt1 0.678223 0.076660
vt1 0.532227 0.087402
vt1 0.664062 0.073242
vt1 0.655762 0.076660
vt1 0.802246 0.081543
vt1 0.801758 0.087891
vt1 0.669922 0.073242
vt1 0.296143 0.088379
vt1 0.303711 0.038574
vt1 0.302246 0.263672
vt1 0.476562 0.261719
vt1 0.480469 0.041992
vt1 0.431396 0.517334
vt1 0.672363 0.465332
vt1 0.437744 0.467773
vt1 0.679199 0.506348
vt1 0.468018 0.556152
vt1 0.426025 0.707520
vt1 0.948242 0.758911
vt1 0.900391 0.514404
vt1 0.955078 0.525879
vt1 0.863281 0.551514
vt1 0.900391 0.762573
vt1 0.707520 0.512207
vn 1.000000 0.062992 -0.007874
vn 0.992126 -0.031496 0.133858
vn 0.976378 0.094488 -0.204724
vn -1.000000 -0.000000 -0.007874
vn -1.000000 -0.000000 -0.007874
vn -1.000000 -0.000000 -0.007874
vn 1.000000 0.000000 0.000000
vn 1.000000 0.007874 -0.039370
vn 1.000000 0.007874 -0.007874
vn -0.338583 0.251968 -0.905512
vn 0.346457 0.330709 -0.881890
vn 0.070866 0.716535 -0.692913
vn -0.992126 -0.031496 0.133858
vn -1.000000 0.062992 -0.015748
vn -0.976378 0.102362 -0.196850
vn 1.000000 -0.000000 -0.007874
vn 1.000000 -0.000000 -0.007874
vn 1.000000 -0.000000 -0.007874
vn -1.000000 -0.047244 0.015748
vn -1.000000 -0.047244 0.015748
vn -1.000000 -0.047244 0.015748
vn -1.000000 0.000000 0.000000
vn -1.000000 0.007874 -0.007874
vn -1.000000 0.007874 -0.039370
vn 0.039370 -0.566929 0.826772
vn 0.039370 -0.771653 0.637795
vn 0.023622 -0.826771 0.559055
vn -0.015748 -0.251968 0.968504
vn -0.007874 -0.188976 0.984252
vn -0.007874 -0.370079 0.929134
vn 0.023622 -0.259842 0.960630
vn -0.047244 -0.204724 0.976378
vn 0.000000 -0.661417 0.748031
vn 0.007874 -0.976378 0.212599
vn 0.000000 -0.346457 0.937008
vn -0.007874 -0.220472 0.976378
vn -0.929134 -0.157480 0.330709
vn 0.212598 0.921260 -0.322835
vn 0.031496 0.299212 -0.952756
vn 0.086614 0.244094 -0.968504
vn 0.889764 -0.385827 0.251969
vn 0.181102 0.433071 -0.881890
vn 0.992126 -0.070866 0.062992
vn 0.102362 0.984252 -0.141732
vn -0.582677 0.669291 -0.456693
vn 0.000000 0.244094 -0.968504
vn 0.055118 0.362205 -0.929134
vn -0.188976 0.149606 -0.968504
vn 0.000000 0.244094 -0.968504
vn -0.086614 0.228346 -0.968504
vn -0.086614 0.937008 -0.346457
vn -0.251969 0.653543 -0.716535
vn 0.692913 0.622047 -0.354331
vn 0.228346 0.228346 -0.944882
vn -0.259843 0.346457 -0.897638
vn -1.000000 -0.023622 0.007874
vn -0.842520 0.338583 -0.417323
vn -0.952756 -0.220472 0.196850
vn -0.913386 0.275590 -0.299213
vn 0.000000 -0.952756 0.307087
vn -0.031496 -0.818897 0.566929
vn -0.031496 -0.818897 0.574803
vn -0.062992 -0.244094 0.968504
vn 0.362205 0.622047 0.692913
vn -0.653543 0.740157 -0.165354
vn 0.370079 0.622047 -0.685039
vn 0.960630 -0.181102 -0.220472
vn 1.000000 -0.000000 -0.007874
vn 1.000000 -0.000000 -0.007874
vn 1.000000 -0.000000 -0.007874
vn 1.000000 -0.000000 -0.007874
vn -1.000000 -0.000000 -0.007874
vn -1.000000 -0.000000 -0.007874
vn -1.000000 -0.000000 -0.007874
vn -1.000000 -0.000000 -0.007874
vn -0.102362 0.842520 -0.527559
vn -0.031496 1.000000 0.039370
vn 0.062992 1.000000 0.047244
vn 0.047244 0.976378 -0.220473
vn -0.078740 0.968504 -0.244095
vn 0.716535 0.181102 0.677165
vn 0.015748 0.165354 0.984252
vn 0.007874 0.173228 0.984252
vn 1.000000 -0.015748 0.078740
vn 0.897638 -0.283465 -0.330709
vn 0.984252 0.165354 -0.039370
vn -0.354331 0.173228 0.921260
vn -0.740157 0.173228 0.653543
vn 0.039370 0.165354 0.984252
vn -0.866142 -0.212598 -0.456693
vn 0.094488 -0.196850 -0.976378
vn -0.984252 0.125984 -0.094488
tan 0.058404 -0.960630 -0.267716 1.000000
tan 0.010044 -0.945254 -0.296856 1.000000
tan 0.032736 -0.937938 -0.276768 1.000000
tan -0.001736 0.976378 0.220472 1.000000
tan -0.001736 0.976378 0.220472 1.000000
tan -0.001736 0.976378 0.220472 1.000000
tan 0.000000 -0.976378 -0.212598 1.000000
tan -0.000992 -0.976378 -0.220472 1.000000
tan 0.006014 -0.976378 -0.212598 1.000000
tan 0.784302 -0.456321 -0.420237 1.000000
tan -0.124992 -0.874946 -0.377209 1.000000
tan 0.137702 -0.691363 -0.700849 1.000000
tan 0.010044 0.945254 0.296856 1.000000
tan 0.056296 0.960630 0.267716 1.000000
tan 0.040176 0.930250 0.284456 1.000000
tan -0.001736 -0.976378 -0.220472 1.000000
tan -0.001736 -0.976378 -0.220472 1.000000
tan -0.001736 -0.976378 -0.220472 1.000000
tan 0.049352 -0.984252 0.181102 1.000000
tan 0.041664 -0.968504 -0.259842 1.000000
tan 0.040300 -0.952756 -0.299212 1.000000
tan 0.000000 0.976378 0.212598 1.000000
tan 0.006014 0.976378 0.212598 1.000000
tan -0.000682 0.976378 0.212598 1.000000
tan 0.886664 -0.251721 -0.214830 1.000000
tan 0.157728 -0.621241 -0.761361 1.000000
tan 0.680823 -0.375597 -0.584227 1.000000
tan 0.968504 0.000000 0.015748 1.000000
tan 0.984252 0.015500 0.010850 1.000000
tan 0.932048 0.029202 0.019530 1.000000
tan 0.960630 0.007564 -0.021576 1.000000
tan 0.976378 0.000000 0.047244 1.000000
tan 0.967636 0.000000 0.000000 1.000000
tan 0.976378 0.007874 -0.000000 1.000000
tan 0.939736 0.000000 0.000000 1.000000
tan 0.976378 0.000000 0.007874 1.000000
tan 0.042036 -0.893546 -0.307396 1.000000
tan -0.029016 -0.316139 -0.921260 1.000000
tan 0.150040 -0.937752 -0.289540 1.000000
tan 0.297415 -0.922748 -0.205964 1.000000
tan -0.373923 -0.907620 -0.069378 1.000000
tan 0.027776 -0.881890 -0.427367 1.000000
tan 0.017794 -0.507781 -0.851510 1.000000
tan 0.271251 -0.164362 -0.945502 1.000000
tan -0.112902 -0.621489 -0.766755 1.000000
tan 0.213528 -0.945626 -0.238328 1.000000
tan 0.007316 -0.929134 -0.361771 1.000000
tan -0.007626 -0.968504 -0.148118 1.000000
tan 0.083886 -0.960878 -0.242172 1.000000
tan -0.007626 -0.968504 -0.227664 1.000000
tan 0.295121 -0.302809 -0.892740 1.000000
tan -0.099882 -0.683737 -0.588505 1.000000
tan 0.323579 -0.711947 -0.617087 1.000000
tan -0.431521 -0.840722 -0.307458 1.000000
tan 0.292517 -0.846116 -0.411247 1.000000
tan 0.002046 -0.393701 -0.921260 1.000000
tan -0.123194 -0.772707 -0.378201 1.000000
tan 0.157542 -0.915246 -0.262570 1.000000
tan -0.280303 -0.922810 0.005704 1.000000
tan 0.727695 0.198276 0.615165 1.000000
tan 0.500465 0.451361 0.679769 1.000000
tan 0.414719 0.497055 0.730857 1.000000
tan 0.909418 0.342675 0.145514 1.000000
tan -0.838118 0.533945 -0.041230 1.000000
tan -0.690867 -0.669539 -0.266414 1.000000
tan -0.405357 0.705251 0.421415 1.000000
tan 0.191518 0.962366 0.043958 1.000000
tan -0.001736 -0.976378 -0.220472 1.000000
tan -0.001736 -0.976378 -0.220472 1.000000
tan -0.001736 -0.976378 -0.220472 1.000000
tan -0.001736 -0.976378 -0.220472 1.000000
tan -0.001736 0.976378 0.220472 1.000000
tan -0.001736 0.976378 0.220472 1.000000
tan -0.001736 0.976378 0.220472 1.000000
tan -0.001736 0.976378 0.220472 1.000000
tan -0.835886 -0.155558 -0.086242 1.000000
tan -1.000000 -0.031806 0.007874 1.000000
tan -1.000000 0.062992 -0.000000 1.000000
tan -0.976378 0.042036 -0.023064 1.000000
tan -0.968504 -0.072974 0.022878 1.000000
tan 0.205468 -0.981710 0.045136 1.000000
tan 0.069750 -0.984252 0.164238 1.000000
tan 0.069750 -0.984252 0.172670 1.000000
tan -0.015128 -1.000000 -0.007874 1.000000
tan -0.299089 -0.913262 -0.029016 1.000000
tan 0.167834 -0.984252 0.062000 1.000000
tan 0.038130 0.947486 -0.163494 1.000000
tan 0.197842 0.981462 -0.036084 1.000000
tan 0.062000 0.984252 -0.167834 1.000000
tan -0.254077 0.884494 0.070122 1.000000
tan -0.467419 0.861802 -0.218985 1.000000
tan 0.132680 0.984252 -0.069750 1.000000
f 3/3/3 2/2/2 1/1/1
f 6/6/6 5/5/5 4/4/4
f 9/9/9 8/8/8 7/7/7
f 12/12/12 11/11/11 10/10/10
f 15/15/15 14/14/14 13/13/13
f 18/18/18 17/17/17 16/16/16
f 21/21/21 20/20/20 19/19/19
f 24/24/24 23/23/23 22/22/22
f 27/27/27 26/26/26 25/25/25
f 29/29/29 28/28/28 25/25/25
f 25/25/25 28/28/28 30/30/30
f 28/28/28 29/29/29 31/31/31
f 29/29/29 32/32/32 31/31/31
f 28/28/28 31/31/31 30/30/30
f 31/31/31 32/32/32 33/33/33
f 30/30/30 33/33/33 34/34/34
f 33/33/33 35/35/35 31/31/31
f 35/35/35 30/30/30 31/31/31
f 35/35/35 33/33/33 30/30/30
f 30/30/30 36/36/36 28/28/28
f 30/30/30 28/28/28 36/36/36
f 39/39/39 38/38/38 37/37/37
f 41/41/41 40/40/40 39/39/39
f 41/41/41 42/42/42 40/40/40
f 44/44/44 42/42/42 43/43/43
f 44/44/44 45/45/45 42/42/42
f 46/46/46 39/39/39 40/40/40
f 45/45/45 47/47/47 42/42/42
f 47/47/47 40/40/40 42/42/42
f 40/40/40 47/47/47 46/46/46
f 47/47/47 45/45/45 48/48/48
f 49/49/49 39/39/39 46/46/46
f 46/46/46 47/47/47 49/49/49
f 50/50/50 39/39/39 49/49/49
f 50/50/50 49/49/49 47/47/47
f 48/48/48 50/50/50 47/47/47
f 48/48/48 51/51/51 50/50/50
f 53/53/53 52/52/52 51/51/51
f 53/53/53 54/54/54 52/52/52
f 52/52/52 54/54/54 55/55/55
f 58/58/58 57/57/57 56/56/56
f 57/57/57 58/58/58 59/59/59
f 62/62/62 61/61/61 60/60/60
f 62/62/62 63/63/63 61/61/61
f 66/66/66 65/65/65 64/64/64
f 67/67/67 66/66/66 64/64/64
f 70/70/70 69/69/69 68/68/68
f 71/71/71 68/68/68 69/69/69
f 74/74/74 73/73/73 72/72/72
f 75/75/75 72/72/72 73/73/73
f 78/78/78 77/77/77 76/76/76
f 79/79/79 77/77/77 78/78/78
f 79/79/79 80/80/80 77/77/77
f 83/83/83 82/82/82 81/81/81
f 84/84/84 81/81/81 82/82/82
f 81/81/81 84/84/84 85/85/85
f 85/85/85 86/86/86 81/81/81
f 89/89/89 88/88/88 87/87/87
f 88/88/88 90/90/90 87/87/87
f 91/91/91 87/87/87 90/90/90
f 90/90/90 88/88/88 92/92/92
