mtllib SM_ClipRoofLong_LOD3.mtl
g SM_ClipRoofLong_LOD3
#Vertices 46
#Indices 96
#Section 0 Offset 0 NumIndices 96 MaterialIndex 0 MI_Brushed_Metal
v -0.065555 0.384852 0.087576
v -0.052178 -0.191632 0.084293
v -0.070395 -0.158879 0.080737
v 0.069926 0.368029 0.082859
v 0.074354 -0.137227 0.083850
v 0.052489 -0.179023 0.083794
v 0.072070 0.368625 -0.085028
v 0.052414 -0.187880 -0.084307
v 0.070160 -0.159606 -0.080642
v -0.069749 0.368053 -0.082850
v -0.074422 -0.137268 -0.083840
v -0.052527 -0.179219 -0.083697
v -0.175289 0.374679 0.084155
v -0.065555 0.384852 0.087576
v -0.076342 0.373867 0.079790
v -0.070395 -0.158879 0.080737
v -0.076342 0.373867 0.079790
v -0.065555 0.384852 0.087576
v -0.069749 0.368053 -0.082850
v -0.175289 0.374679 0.084155
v -0.076342 0.373867 0.079790
v -0.174529 0.375272 -0.085361
v 0.175473 0.374593 -0.084155
v 0.069926 0.368029 0.082859
v 0.174714 0.375186 0.085361
v 0.072070 0.368625 -0.085028
v -0.052178 -0.191632 0.084293
v 0.052414 -0.187880 -0.084307
v -0.052527 -0.179219 -0.083697
v 0.052489 -0.179023 0.083794
v -0.070395 -0.158879 0.080737
v 0.070160 -0.159606 -0.080642
v -0.074422 -0.137268 -0.083840
v 0.074354 -0.137227 0.083850
v -0.076454 -0.079703 -0.055789
v -0.076348 0.349519 -0.055789
v -0.076454 -0.079703 0.055442
v -0.069749 0.368053 -0.082850
v -0.076342 0.373867 0.079790
v -0.076348 0.349519 0.055442
v 0.076415 -0.079740 0.055789
v 0.076520 0.349481 0.055789
v 0.076414 -0.079741 -0.055442
v 0.069926 0.368029 0.082859
v 0.072070 0.368625 -0.085028
v 0.076520 0.349481 -0.055442
vt 0.119507 0.419922
vt 0.124878 0.469727
vt 0.122986 0.466797
vt 0.129272 0.570312
vt 0.128662 0.490723
vt 0.131348 0.483398
vt 0.101624 0.571289
vt 0.099548 0.482422
vt 0.101562 0.487305
vt 0.104187 0.422363
vt 0.106262 0.465820
vt 0.104553 0.470215
vt 0.117554 0.412598
vt 0.119507 0.420410
vt 0.118286 0.420410
vt 0.122681 0.466797
vt 0.118286 0.420410
vt 0.119507 0.419922
vt 0.104797 0.421875
vt 0.117737 0.412598
vt 0.118286 0.420410
vt 0.104492 0.413574
vt 0.103577 0.587158
vt 0.128052 0.571289
vt 0.127930 0.586426
vt 0.102356 0.572266
vt 0.125000 0.470215
vt 0.104065 0.483887
vt 0.105103 0.471191
vt 0.126465 0.483887
vt 0.122742 0.467285
vt 0.103394 0.487793
vt 0.106201 0.466309
vt 0.127930 0.490723
vt 0.109009 0.460938
vt 0.107056 0.423340
vt 0.119202 0.460449
vt 0.104797 0.421875
vt 0.118286 0.420410
vt 0.116516 0.422852
vt 0.124023 0.500000
vt 0.124084 0.568604
vt 0.106628 0.500000
vt 0.128052 0.571289
vt 0.102417 0.572021
vt 0.106750 0.568848
vt1 0.925781 0.052734
vt1 0.955566 0.330566
vt1 0.944824 0.314453
vt1 0.980957 0.892212
vt1 0.977051 0.448242
vt1 0.992188 0.406738
vt1 0.825684 0.897278
vt1 0.814453 0.400391
vt1 0.825684 0.428223
vt1 0.839844 0.065918
vt1 0.852051 0.309082
vt1 0.842285 0.332031
vt1 0.915039 0.011719
vt1 0.925781 0.054199
vt1 0.918945 0.055176
vt1 0.943359 0.314941
vt1 0.918945 0.055176
vt1 0.925781 0.052734
vt1 0.843750 0.062500
vt1 0.916016 0.011719
vt1 0.918945 0.055176
vt1 0.842285 0.016602
vt1 0.836914 0.985481
vt1 0.973633 0.897766
vt1 0.973145 0.981964
vt1 0.830078 0.902405
vt1 0.956055 0.332520
vt1 0.839844 0.409668
vt1 0.845215 0.338379
vt1 0.964355 0.408691
vt1 0.943848 0.316895
vt1 0.835938 0.431152
vt1 0.851562 0.310547
vt1 0.972656 0.447754
vt1 0.867188 0.280762
vt1 0.855957 0.070801
vt1 0.923828 0.277344
vt1 0.843750 0.062500
vt1 0.918945 0.055176
vt1 0.908691 0.067383
vt1 0.951172 0.499512
vt1 0.951172 0.882202
vt1 0.853516 0.500000
vt1 0.973633 0.897888
vt1 0.830078 0.901672
vt1 0.854492 0.883423
vn 0.000000 0.000000 1.000000
vn 0.000000 0.000000 1.000000
vn 0.000000 0.000000 1.000000
vn 0.000000 0.000000 1.000000
vn 0.000000 0.000000 1.000000
vn 0.000000 0.000000 1.000000
vn 0.000000 -0.000000 -1.000000
vn 0.000000 -0.000000 -1.000000
vn 0.000000 -0.000000 -1.000000
vn 0.000000 -0.000000 -1.000000
vn 0.000000 -0.000000 -1.000000
vn 0.000000 -0.000000 -1.000000
vn 0.000000 -0.708661 0.708661
vn 0.000000 -0.708661 0.708661
vn 0.000000 -0.708661 0.708661
vn -0.700787 -0.102362 0.708661
vn -0.708661 0.000000 0.708661
vn -0.708661 0.000000 0.708661
vn 0.000000 -1.000000 0.000000
vn 0.000000 -1.000000 0.000000
vn 0.000000 -1.000000 0.000000
vn 0.000000 -1.000000 0.000000
vn 0.000000 -1.000000 0.000000
vn 0.000000 -1.000000 0.000000
vn 0.000000 -1.000000 0.000000
vn 0.000000 -1.000000 0.000000
vn -0.566929 -0.826772 0.000000
vn 0.606299 -0.795275 0.000000
vn -0.700787 -0.716535 0.000000
vn 0.700787 -0.716535 0.000000
vn -0.937008 -0.354331 0.000000
vn 0.937008 -0.354331 0.000000
vn -0.984252 -0.165354 0.000000
vn 0.984252 -0.165354 0.000000
vn -1.000000 0.000000 0.000000
vn -1.000000 0.000000 0.000000
vn -1.000000 0.000000 0.000000
vn -1.000000 0.000000 0.000000
vn -1.000000 0.000000 0.000000
vn -1.000000 0.000000 0.000000
vn 1.000000 0.000000 0.000000
vn 1.000000 0.000000 0.000000
vn 1.000000 0.000000 0.000000
vn 1.000000 0.000000 0.000000
vn 1.000000 -0.039370 0.000000
vn 1.000000 0.000000 0.000000
tan -0.598425 0.803149 -0.000000 1.000000
tan 0.125984 0.992126 -0.000000 1.000000
tan 0.204724 0.976378 -0.000000 1.000000
tan -0.614173 -0.795275 0.000000 1.000000
tan -0.078740 -1.000000 0.000000 1.000000
tan -0.118110 -0.992126 0.000000 1.000000
tan -0.535433 -0.842520 0.000000 1.000000
tan -0.188976 -0.984252 0.000000 1.000000
tan -0.086614 -1.000000 0.000000 1.000000
tan -0.622047 0.779527 -0.000000 1.000000
tan 0.055118 1.000000 -0.000000 1.000000
tan 0.007874 1.000000 -0.000000 1.000000
tan -0.792362 0.429661 0.429661 1.000000
tan -0.279001 0.680761 0.680761 1.000000
tan -0.446401 0.636121 0.636121 1.000000
tan 0.407589 0.760618 0.512927 1.000000
tan -0.463141 0.758881 -0.463141 1.000000
tan -0.619381 0.491041 -0.619381 1.000000
tan -1.000000 0.000000 0.062992 1.000000
tan -1.000000 0.000000 0.062992 1.000000
tan -1.000000 0.000000 0.062992 1.000000
tan -1.000000 0.000000 0.062992 1.000000
tan -1.000000 0.000000 0.023622 1.000000
tan -1.000000 0.000000 0.023622 1.000000
tan -1.000000 0.000000 0.023622 1.000000
tan -1.000000 0.000000 0.023622 1.000000
tan -0.826772 0.566929 0.032550 1.000000
tan -0.795276 -0.606299 0.018786 1.000000
tan -0.716535 0.700787 -0.000000 1.000000
tan -0.716535 -0.700787 0.000000 1.000000
tan -0.354331 0.937008 0.029512 1.000000
tan -0.354331 -0.937008 0.007378 1.000000
tan -0.165354 0.984252 0.054250 1.000000
tan -0.165354 -0.984252 0.007750 1.000000
tan 0.000000 1.000000 0.070866 1.000000
tan 0.000000 1.000000 0.070866 1.000000
tan 0.000000 1.000000 0.055118 1.000000
tan 0.000000 1.000000 0.062992 1.000000
tan 0.000000 1.000000 0.047244 1.000000
tan 0.000000 1.000000 0.047244 1.000000
tan 0.000000 -1.000000 0.007874 1.000000
tan 0.000000 -1.000000 0.023622 1.000000
tan 0.000000 -1.000000 0.007874 1.000000
tan 0.000000 -1.000000 0.023622 1.000000
tan -0.039370 -1.000000 0.023622 1.000000
tan 0.000000 -1.000000 0.023622 1.000000
f 3/3/3 2/2/2 1/1/1
f 6/6/6 5/5/5 4/4/4
f 9/9/9 8/8/8 7/7/7
f 12/12/12 11/11/11 10/10/10
f 15/15/15 14/14/14 13/13/13
f 18/18/18 17/17/17 16/16/16
f 21/21/21 20/20/20 19/19/19
f 22/22/22 19/19/19 20/20/20
f 25/25/25 24/24/24 23/23/23
f 26/26/26 23/23/23 24/24/24
f 29/29/29 28/28/28 27/27/27
f 30/30/30 27/27/27 28/28/28
f 27/27/27 31/31/31 29/29/29
f 28/28/28 32/32/32 30/30/30
f 33/33/33 29/29/29 31/31/31
f 30/30/30 32/32/32 34/34/34
f 33/33/33 31/31/31 35/35/35
f 35/35/35 36/36/36 33/33/33
f 37/37/37 35/35/35 31/31/31
f 36/36/36 38/38/38 33/33/33
f 37/37/37 31/31/31 39/39/39
f 36/36/36 40/40/40 38/38/38
f 40/40/40 37/37/37 39/39/39
f 40/40/40 39/39/39 38/38/38
f 34/34/34 32/32/32 41/41/41
f 41/41/41 42/42/42 34/34/34
f 43/43/43 41/41/41 32/32/32
f 42/42/42 44/44/44 34/34/34
f 43/43/43 32/32/32 45/45/45
f 42/42/42 46/46/46 44/44/44
f 46/46/46 43/43/43 45/45/45
f 46/46/46 45/45/45 44/44/44
