mtllib SM_CableMid_LOD1.mtl
g SM_CableMid_LOD1
#Vertices 85
#Indices 312
#Section 0 Offset 0 NumIndices 96 MaterialIndex 2 MI_Rubber05
#Section 1 Offset 96 NumIndices 216 MaterialIndex 3 MI_Brushed_Metal
v 1.192539 0.053075 0.000009
v 0.156587 0.053074 0.000003
v 0.156487 0.037708 -0.037302
v 1.192557 0.037528 -0.037530
v 0.156488 -0.000000 -0.053075
v 1.192557 0.000000 -0.053075
v 1.192557 -0.037529 -0.037530
v 0.156488 -0.037683 -0.037376
v 0.156491 -0.053075 0.000147
v 1.192557 -0.053075 -0.000000
v 1.192557 -0.037529 0.037529
v 0.156488 -0.037370 0.037689
v 0.154287 0.000000 0.053146
v 1.192557 0.000000 0.053075
v 1.192557 0.037530 0.037529
v 0.156490 0.037480 0.037591
v 1.192539 0.053075 0.000009
v 0.156587 0.053074 0.000003
v 0.091955 0.053075 -0.000000
v -0.000000 0.037529 0.037529
v -0.000000 0.053075 -0.000000
v 0.091955 0.037529 0.037529
v 0.000000 0.000000 0.053075
v 0.093748 0.000001 0.054414
v 0.091955 -0.037529 0.037529
v 0.000000 -0.037529 0.037529
v 0.091955 -0.053075 -0.000000
v 0.000000 -0.053075 0.000000
v 0.091955 -0.037529 -0.037529
v 0.000000 -0.037529 -0.037529
v 0.091955 -0.000000 -0.053075
v -0.000000 -0.000000 -0.053075
v 0.094608 0.038795 -0.038354
v -0.000000 0.037529 -0.037529
v 0.091955 0.053075 -0.000000
v -0.000000 0.053075 -0.000000
v 0.156494 0.062290 -0.000000
v 0.156487 0.037708 -0.037302
v 0.156587 0.053074 0.000003
v 0.156494 0.044046 -0.044046
v 0.156488 -0.000000 -0.053075
v 0.150355 0.068935 -0.000000
v 0.156494 -0.000000 -0.062290
v 0.150355 0.048744 -0.048744
v 0.098094 0.048744 -0.048744
v 0.095951 0.068733 0.000282
v 0.094608 0.038795 -0.038354
v 0.091955 0.053075 -0.000000
v 0.091955 -0.000000 -0.062290
v 0.091955 -0.000000 -0.053075
v 0.098094 -0.000000 -0.068935
v 0.150355 -0.000000 -0.068935
v 0.098094 -0.048744 -0.048744
v 0.091955 -0.044046 -0.044046
v 0.091955 -0.037529 -0.037529
v 0.150355 -0.048744 -0.048744
v 0.098095 -0.068935 -0.000000
v 0.091955 -0.062290 -0.000000
v 0.091955 -0.053075 -0.000000
v 0.156494 -0.044046 -0.044046
v 0.156488 -0.037683 -0.037376
v 0.150355 -0.068935 -0.000000
v 0.156494 -0.062290 -0.000000
v 0.156491 -0.053075 0.000147
v 0.098095 -0.048744 0.048744
v 0.150355 -0.048744 0.048744
v 0.156494 -0.044046 0.044046
v 0.156488 -0.037370 0.037689
v 0.154287 0.000000 0.053146
v 0.150355 0.000000 0.068935
v 0.156494 0.044046 0.044046
v 0.156490 0.037480 0.037591
v 0.156587 0.053074 0.000003
v 0.156494 0.062290 -0.000000
v 0.150355 0.048744 0.048744
v 0.150355 0.068935 -0.000000
v 0.095951 0.068733 0.000282
v 0.098095 0.000000 0.068935
v 0.098094 0.048744 0.048744
v 0.091955 0.044046 0.044046
v 0.091955 0.053075 -0.000000
v 0.091955 0.037529 0.037529
v 0.093748 0.000001 0.054414
v 0.091955 -0.044046 0.044046
v 0.091955 -0.037529 0.037529
vt 0.178101 0.424316
vt 0.175659 0.551514
vt 0.170044 0.551514
vt 0.173340 0.424316
vt 0.164795 0.551758
vt 0.168335 0.423828
vt 0.163330 0.423828
vt 0.159790 0.552002
vt 0.154541 0.551758
vt 0.158325 0.423828
vt 0.153320 0.423340
vt 0.149292 0.551758
vt 0.144043 0.551758
vt 0.148315 0.423340
vt 0.143433 0.423340
vt 0.138794 0.551270
vt 0.138550 0.422852
vt 0.133179 0.551270
vt 0.132690 0.565186
vt 0.140259 0.576416
vt 0.134888 0.577393
vt 0.138184 0.563721
vt 0.145142 0.575684
vt 0.143677 0.563232
vt 0.149292 0.563232
vt 0.150146 0.575439
vt 0.154663 0.562988
vt 0.155029 0.575195
vt 0.160156 0.562988
vt 0.160034 0.575195
vt 0.165527 0.563232
vt 0.164917 0.575439
vt 0.171265 0.563232
vt 0.169922 0.575928
vt 0.176880 0.564941
vt 0.174805 0.576660
vt 0.177612 0.553223
vt 0.171509 0.553467
vt 0.176880 0.552246
vt 0.171631 0.554443
vt 0.165894 0.553711
vt 0.178223 0.554199
vt 0.165894 0.554688
vt 0.171753 0.555420
vt 0.171387 0.561279
vt 0.178345 0.562988
vt 0.171265 0.563232
vt 0.176880 0.564941
vt 0.165527 0.562256
vt 0.165527 0.563232
vt 0.165649 0.561035
vt 0.165894 0.555664
vt 0.160034 0.561035
vt 0.160034 0.562012
vt 0.160156 0.562988
vt 0.160400 0.555664
vt 0.154663 0.561035
vt 0.154663 0.562012
vt 0.154663 0.562988
vt 0.160400 0.554688
vt 0.160278 0.553711
vt 0.154907 0.555664
vt 0.154907 0.554688
vt 0.154785 0.553711
vt 0.149170 0.561035
vt 0.149414 0.555664
vt 0.149414 0.554688
vt 0.149292 0.553711
vt 0.143799 0.553711
vt 0.143799 0.555664
vt 0.137939 0.554688
vt 0.137939 0.553467
vt 0.132202 0.552246
vt 0.131348 0.553467
vt 0.137817 0.555664
vt 0.130737 0.554688
vt 0.131348 0.563477
vt 0.143555 0.561279
vt 0.137817 0.561768
vt 0.137939 0.562744
vt 0.132690 0.565186
vt 0.138184 0.563721
vt 0.143677 0.562988
vt 0.149170 0.562012
vt 0.149292 0.563232
vt1 0.987305 0.017578
vt1 0.936523 0.827148
vt1 0.819824 0.827881
vt1 0.887695 0.015625
vt1 0.711914 0.829346
vt1 0.785156 0.014648
vt1 0.681641 0.013672
vt1 0.607422 0.830933
vt1 0.498535 0.828491
vt1 0.578613 0.012695
vt1 0.475098 0.011230
vt1 0.391357 0.829346
vt1 0.283447 0.828369
vt1 0.372070 0.010254
vt1 0.268799 0.009277
vt1 0.174438 0.825806
vt1 0.168213 0.007812
vt1 0.058685 0.825684
vt1 0.048462 0.914978
vt1 0.204834 0.985703
vt1 0.094299 0.991936
vt1 0.160889 0.905579
vt1 0.306396 0.981400
vt1 0.275879 0.901123
vt1 0.390381 0.901428
vt1 0.408203 0.978973
vt1 0.502930 0.900879
vt1 0.510254 0.978058
vt1 0.614746 0.900879
vt1 0.612793 0.978424
vt1 0.727539 0.901672
vt1 0.715332 0.980042
vt1 0.845703 0.902039
vt1 0.817383 0.983124
vt1 0.960938 0.913330
vt1 0.919434 0.987869
vt1 0.976074 0.837402
vt1 0.850098 0.839111
vt1 0.962891 0.831543
vt1 0.853027 0.845825
vt1 0.733887 0.840454
vt1 0.989258 0.844604
vt1 0.735352 0.847290
vt1 0.855469 0.852661
vt1 0.849121 0.889893
vt1 0.991699 0.900818
vt1 0.844727 0.901794
vt1 0.960938 0.913330
vt1 0.727539 0.894836
vt1 0.727539 0.901672
vt1 0.728516 0.888245
vt1 0.735840 0.853882
vt1 0.614258 0.887817
vt1 0.613770 0.894226
vt1 0.614746 0.900879
vt1 0.620605 0.853882
vt1 0.501465 0.887878
vt1 0.501465 0.894287
vt1 0.502930 0.900879
vt1 0.620605 0.847412
vt1 0.619141 0.840698
vt1 0.506836 0.853882
vt1 0.506836 0.847534
vt1 0.505859 0.840820
vt1 0.388672 0.888306
vt1 0.393311 0.854248
vt1 0.393311 0.847656
vt1 0.391602 0.840942
vt1 0.276855 0.841553
vt1 0.277100 0.854370
vt1 0.155762 0.847290
vt1 0.157349 0.839600
vt1 0.036499 0.832397
vt1 0.020660 0.839722
vt1 0.153931 0.854248
vt1 0.008064 0.847534
vt1 0.021103 0.904114
vt1 0.273193 0.889282
vt1 0.152710 0.892029
vt1 0.156250 0.898865
vt1 0.048462 0.914978
vt1 0.160889 0.905579
vt1 0.275879 0.900940
vt1 0.388916 0.894775
vt1 0.390381 0.901428
vn 0.000000 1.000000 -0.000000
vn 0.000000 1.000000 -0.000000
vn 0.000000 0.708661 -0.700787
vn 0.000000 0.708661 -0.708661
vn 0.000000 -0.000000 -1.000000
vn 0.000000 -0.000000 -1.000000
vn 0.000000 -0.708661 -0.708661
vn 0.000000 -0.708661 -0.700787
vn 0.000000 -1.000000 0.000000
vn 0.000000 -1.000000 0.000000
vn 0.000000 -0.708661 0.708661
vn 0.000000 -0.700787 0.708661
vn 0.000000 0.000000 1.000000
vn 0.000000 0.000000 1.000000
vn 0.000000 0.708661 0.708661
vn 0.000000 0.708661 0.708661
vn 0.000000 1.000000 -0.000000
vn 0.000000 1.000000 -0.000000
vn 0.000000 1.000000 -0.000000
vn 0.000000 0.708661 0.708661
vn 0.000000 1.000000 -0.000000
vn 0.000000 0.708661 0.708661
vn 0.000000 0.000000 1.000000
vn 0.000000 0.000000 1.000000
vn 0.000000 -0.708661 0.708661
vn 0.000000 -0.708661 0.708661
vn 0.000000 -1.000000 0.000000
vn 0.000000 -1.000000 0.000000
vn 0.000000 -0.708661 -0.708661
vn 0.000000 -0.708661 -0.708661
vn 0.000000 -0.000000 -1.000000
vn 0.000000 -0.000000 -1.000000
vn 0.000000 0.716535 -0.700787
vn 0.000000 0.708661 -0.708661
vn 0.000000 1.000000 -0.000000
vn 0.000000 1.000000 -0.000000
vn 0.897638 0.440945 -0.000000
vn 1.000000 0.000000 0.000000
vn 1.000000 0.000000 0.000000
vn 0.897638 0.307087 -0.307087
vn 1.000000 0.000000 0.000000
vn 0.370079 0.929134 -0.000000
vn 0.897638 -0.000000 -0.440945
vn 0.370079 0.653543 -0.653543
vn -0.370079 0.653543 -0.653543
vn -0.448819 0.897638 0.007874
vn -0.992126 0.118110 -0.086614
vn -1.000000 0.000000 0.000000
vn -0.897638 -0.000000 -0.440945
vn -1.000000 0.000000 0.000000
vn -0.370079 -0.000000 -0.929134
vn 0.370079 -0.000000 -0.929134
vn -0.370079 -0.653543 -0.653543
vn -0.897638 -0.307087 -0.307087
vn -1.000000 0.000000 0.000000
vn 0.370079 -0.653543 -0.653543
vn -0.370079 -0.929134 0.000000
vn -0.897638 -0.440945 0.000000
vn -1.000000 0.000000 0.000000
vn 0.897638 -0.307087 -0.307087
vn 1.000000 0.000000 0.000000
vn 0.370079 -0.929134 0.000000
vn 0.897638 -0.440945 0.000000
vn 1.000000 0.000000 0.000000
vn -0.370079 -0.653543 0.653543
vn 0.370079 -0.653543 0.653543
vn 0.897638 -0.307087 0.307087
vn 1.000000 0.000000 0.000000
vn 1.000000 0.000000 0.078740
vn 0.370079 0.000000 0.929134
vn 0.897638 0.307087 0.307087
vn 1.000000 0.000000 0.000000
vn 1.000000 0.000000 0.000000
vn 0.897638 0.440945 -0.000000
vn 0.370079 0.653543 0.653543
vn 0.370079 0.929134 -0.000000
vn -0.433071 0.897638 0.015748
vn -0.370079 0.000000 0.929134
vn -0.370079 0.653543 0.653543
vn -0.897638 0.307087 0.307087
vn -1.000000 0.000000 0.000000
vn -1.000000 0.000000 0.000000
vn -0.992126 0.000000 0.125984
vn -0.897638 -0.307087 0.307087
vn -1.000000 0.000000 0.000000
tan 1.000000 -0.000000 -0.070866 1.000000
tan 0.992126 0.000000 0.102362 1.000000
tan 0.993366 0.038626 0.039060 1.000000
tan 0.982082 -0.150660 -0.150660 1.000000
tan 1.000000 0.000000 0.000000 1.000000
tan 1.000000 -0.039370 0.000000 1.000000
tan 0.993242 -0.089280 0.089280 1.000000
tan 0.960010 -0.187612 0.189720 1.000000
tan 1.000000 0.000000 0.007874 1.000000
tan 1.000000 0.000000 0.039370 1.000000
tan 0.970922 0.172980 0.172980 1.000000
tan 0.976688 0.145080 0.143468 1.000000
tan 1.000000 0.039370 -0.000000 1.000000
tan 1.000000 0.039370 -0.000000 1.000000
tan 0.982082 0.122760 -0.122760 1.000000
tan 0.848162 0.379441 -0.379441 1.000000
tan 1.000000 -0.000000 -0.031496 1.000000
tan 0.992126 -0.000000 -0.110236 1.000000
tan 0.968504 0.000000 0.251968 1.000000
tan 0.948602 -0.234360 0.234360 1.000000
tan 0.984252 0.000000 0.196850 1.000000
tan 0.937442 -0.251100 0.251101 1.000000
tan 0.992126 -0.094488 0.000000 1.000000
tan 1.000000 -0.062992 0.000000 1.000000
tan 1.004402 -0.044640 -0.044640 1.000000
tan 0.993242 -0.072540 -0.072540 1.000000
tan 1.000000 -0.000000 -0.007874 1.000000
tan 1.000000 -0.000000 -0.007874 1.000000
tan 1.004402 -0.016740 0.016740 1.000000
tan 1.004402 -0.039060 0.039060 1.000000
tan 1.000000 -0.055118 0.000000 1.000000
tan 1.000000 -0.070866 0.000000 1.000000
tan 0.809288 -0.413851 -0.423151 1.000000
tan 0.959762 -0.189720 -0.189720 1.000000
tan 0.968504 -0.000000 -0.244094 1.000000
tan 0.984252 -0.000000 -0.157480 1.000000
tan 0.402753 -0.819889 0.388369 1.000000
tan 0.000000 -0.598425 0.795276 1.000000
tan 0.000000 -0.803149 0.590551 1.000000
tan 0.432823 -0.563023 0.702151 1.000000
tan 0.000000 0.023622 1.000000 1.000000
tan 0.907186 -0.361337 0.196044 1.000000
tan 0.440945 0.007068 0.897638 1.000000
tan 0.910844 -0.149916 0.365863 1.000000
tan 0.921136 0.191766 -0.329841 1.000000
tan 0.876372 0.439891 -0.194370 1.000000
tan 0.139996 0.585901 -0.804638 1.000000
tan 0.000000 0.811023 -0.590551 1.000000
tan 0.440945 -0.021204 -0.897638 1.000000
tan 0.000000 -0.031496 -1.000000 1.000000
tan 0.929134 -0.014632 -0.370079 1.000000
tan 0.929134 0.007316 0.370079 1.000000
tan 0.926282 -0.267407 -0.257114 1.000000
tan 0.432823 -0.636121 -0.629053 1.000000
tan 0.000000 -0.716535 -0.700787 1.000000
tan 0.926282 0.262261 0.262260 1.000000
tan 0.929134 -0.370079 -0.007316 1.000000
tan 0.440945 -0.897638 -0.007068 1.000000
tan 0.000000 -1.000000 -0.007874 1.000000
tan 0.435241 0.636121 0.636121 1.000000
tan 0.000000 0.708661 0.700787 1.000000
tan 0.929134 0.370079 -0.007316 1.000000
tan 0.440945 0.897638 -0.000000 1.000000
tan 0.000000 1.000000 -0.007874 1.000000
tan 0.921136 -0.277698 0.243908 1.000000
tan 0.926282 0.257114 -0.267407 1.000000
tan 0.432823 0.629053 -0.636121 1.000000
tan 0.000000 0.700787 -0.708661 1.000000
tan 0.078740 0.015748 -1.000000 1.000000
tan 0.929134 -0.000000 -0.370079 1.000000
tan 0.430405 -0.570091 -0.688015 1.000000
tan 0.000000 -0.622047 -0.779527 1.000000
tan 0.000000 -0.842520 -0.535433 1.000000
tan 0.409697 -0.834026 -0.349557 1.000000
tan 0.921136 -0.243908 -0.277698 1.000000
tan 0.907186 -0.361337 -0.210676 1.000000
tan 0.883750 0.423275 0.176452 1.000000
tan 0.929134 -0.029264 0.370079 1.000000
tan 0.900552 0.084568 0.425383 1.000000
tan 0.430405 0.525265 0.732841 1.000000
tan 0.000000 0.779527 0.629921 1.000000
tan 0.000000 0.551181 0.834646 1.000000
tan 0.125984 -0.062496 0.992126 1.000000
tan 0.432823 -0.643189 0.621985 1.000000
tan 0.000000 -0.724409 0.692913 1.000000
f 3/3/3 2/2/2 1/1/1
f 3/3/3 1/1/1 4/4/4
f 3/3/3 4/4/4 5/5/5
f 6/6/6 5/5/5 4/4/4
f 5/5/5 6/6/6 7/7/7
f 7/7/7 8/8/8 5/5/5
f 7/7/7 9/9/9 8/8/8
f 9/9/9 7/7/7 10/10/10
f 11/11/11 9/9/9 10/10/10
f 12/12/12 9/9/9 11/11/11
f 12/12/12 11/11/11 13/13/13
f 14/14/14 13/13/13 11/11/11
f 15/15/15 13/13/13 14/14/14
f 16/16/16 13/13/13 15/15/15
f 17/17/17 16/16/16 15/15/15
f 18/18/18 16/16/16 17/17/17
f 21/21/21 20/20/20 19/19/19
f 22/22/22 19/19/19 20/20/20
f 20/20/20 23/23/23 22/22/22
f 24/24/24 22/22/22 23/23/23
f 24/24/24 23/23/23 25/25/25
f 26/26/26 25/25/25 23/23/23
f 25/25/25 26/26/26 27/27/27
f 28/28/28 27/27/27 26/26/26
f 27/27/27 28/28/28 29/29/29
f 30/30/30 29/29/29 28/28/28
f 29/29/29 30/30/30 31/31/31
f 32/32/32 31/31/31 30/30/30
f 31/31/31 32/32/32 33/33/33
f 34/34/34 33/33/33 32/32/32
f 33/33/33 34/34/34 35/35/35
f 36/36/36 35/35/35 34/34/34
f 39/39/39 38/38/38 37/37/37
f 40/40/40 37/37/37 38/38/38
f 38/38/38 41/41/41 40/40/40
f 37/37/37 40/40/40 42/42/42
f 43/43/43 40/40/40 41/41/41
f 40/40/40 44/44/44 42/42/42
f 44/44/44 40/40/40 43/43/43
f 44/44/44 45/45/45 42/42/42
f 46/46/46 42/42/42 45/45/45
f 48/48/48 46/46/46 47/47/47
f 45/45/45 47/47/47 46/46/46
f 47/47/47 45/45/45 49/49/49
f 49/49/49 50/50/50 47/47/47
f 45/45/45 44/44/44 51/51/51
f 51/51/51 49/49/49 45/45/45
f 52/52/52 51/51/51 44/44/44
f 43/43/43 52/52/52 44/44/44
f 49/49/49 51/51/51 53/53/53
f 51/51/51 52/52/52 53/53/53
f 49/49/49 54/54/54 50/50/50
f 53/53/53 54/54/54 49/49/49
f 55/55/55 50/50/50 54/54/54
f 56/56/56 53/53/53 52/52/52
f 52/52/52 43/43/43 56/56/56
f 54/54/54 53/53/53 57/57/57
f 53/53/53 56/56/56 57/57/57
f 54/54/54 58/58/58 55/55/55
f 58/58/58 54/54/54 57/57/57
f 59/59/59 55/55/55 58/58/58
f 60/60/60 56/56/56 43/43/43
f 41/41/41 60/60/60 43/43/43
f 61/61/61 60/60/60 41/41/41
f 62/62/62 57/57/57 56/56/56
f 56/56/56 60/60/60 62/62/62
f 61/61/61 63/63/63 60/60/60
f 63/63/63 62/62/62 60/60/60
f 64/64/64 63/63/63 61/61/61
f 57/57/57 62/62/62 65/65/65
f 57/57/57 65/65/65 58/58/58
f 62/62/62 63/63/63 66/66/66
f 66/66/66 65/65/65 62/62/62
f 63/63/63 64/64/64 67/67/67
f 67/67/67 66/66/66 63/63/63
f 68/68/68 67/67/67 64/64/64
f 68/68/68 69/69/69 67/67/67
f 66/66/66 67/67/67 70/70/70
f 69/69/69 70/70/70 67/67/67
f 66/66/66 70/70/70 65/65/65
f 69/69/69 71/71/71 70/70/70
f 71/71/71 69/69/69 72/72/72
f 72/72/72 73/73/73 71/71/71
f 74/74/74 71/71/71 73/73/73
f 71/71/71 74/74/74 75/75/75
f 71/71/71 75/75/75 70/70/70
f 76/76/76 75/75/75 74/74/74
f 76/76/76 77/77/77 75/75/75
f 70/70/70 75/75/75 78/78/78
f 78/78/78 65/65/65 70/70/70
f 79/79/79 75/75/75 77/77/77
f 79/79/79 78/78/78 75/75/75
f 80/80/80 79/79/79 77/77/77
f 79/79/79 80/80/80 78/78/78
f 81/81/81 80/80/80 77/77/77
f 82/82/82 80/80/80 81/81/81
f 83/83/83 80/80/80 82/82/82
f 83/83/83 78/78/78 80/80/80
f 78/78/78 83/83/83 84/84/84
f 84/84/84 65/65/65 78/78/78
f 84/84/84 83/83/83 85/85/85
f 84/84/84 58/58/58 65/65/65
f 85/85/85 59/59/59 84/84/84
f 58/58/58 84/84/84 59/59/59
