mtllib SM_CableMid_LOD3.mtl
g SM_CableMid_LOD3
#Vertices 32
#Indices 78
#Section 0 Offset 0 NumIndices 51 MaterialIndex 2 MI_Rubber05
#Section 1 Offset 51 NumIndices 27 MaterialIndex 3 MI_Brushed_Metal
v 1.192539 0.053075 0.000009
v 0.153614 0.053290 0.000025
v 0.148910 0.039895 -0.038680
v 1.192555 0.021026 -0.051108
v 0.150701 -0.018598 -0.053055
v 1.192557 -0.037529 -0.037530
v 0.153810 -0.053154 0.001399
v 1.192593 -0.050408 0.026946
v 0.146485 -0.021177 0.052902
v 1.192558 0.021123 0.051365
v 0.149310 0.038881 0.037770
v 1.192539 0.053075 0.000009
v 0.153614 0.053290 0.000025
v 0.094570 0.060351 -0.000090
v -0.001224 -0.010877 0.072328
v -0.000000 0.053075 -0.000000
v 0.097250 -0.071404 0.045294
v -0.000442 -0.034398 -0.075263
v 0.098365 -0.002886 -0.061274
v 0.094570 0.060351 -0.000090
v -0.000000 0.053075 -0.000000
v 0.094570 0.060351 -0.000090
v 0.148910 0.039895 -0.038680
v 0.153614 0.053290 0.000025
v 0.098365 -0.002886 -0.061274
v 0.150701 -0.018598 -0.053055
v 0.097250 -0.071404 0.045294
v 0.153810 -0.053154 0.001399
v 0.146485 -0.021177 0.052902
v 0.149310 0.038881 0.037770
v 0.094570 0.060351 -0.000090
v 0.153614 0.053290 0.000025
vt 0.178101 0.424316
vt 0.175659 0.551758
vt 0.170044 0.552490
vt 0.170776 0.424316
vt 0.162598 0.552734
vt 0.163330 0.423828
vt 0.154297 0.552002
vt 0.155273 0.423340
vt 0.146606 0.552979
vt 0.145874 0.423340
vt 0.138672 0.552246
vt 0.138550 0.422852
vt 0.133179 0.551758
vt 0.132202 0.564941
vt 0.146118 0.575439
vt 0.134888 0.577393
vt 0.150146 0.562012
vt 0.162109 0.574951
vt 0.165283 0.562256
vt 0.177246 0.564697
vt 0.174805 0.576660
vt 0.177734 0.562744
vt 0.171143 0.555176
vt 0.176880 0.552246
vt 0.165405 0.562256
vt 0.163330 0.555664
vt 0.150269 0.561279
vt 0.154663 0.553955
vt 0.146484 0.555908
vt 0.137695 0.555420
vt 0.131836 0.563232
vt 0.132080 0.552734
vt1 0.987305 0.017578
vt1 0.937012 0.829468
vt1 0.819824 0.833862
vt1 0.836426 0.015625
vt1 0.666016 0.834595
vt1 0.681641 0.013672
vt1 0.495361 0.830566
vt1 0.514648 0.011719
vt1 0.335449 0.835815
vt1 0.321045 0.009766
vt1 0.171997 0.831421
vt1 0.168213 0.007812
vt1 0.058197 0.828125
vt1 0.038818 0.912903
vt1 0.324463 0.979294
vt1 0.094299 0.991936
vt1 0.408691 0.893738
vt1 0.655273 0.977097
vt1 0.721680 0.895569
vt1 0.970215 0.911316
vt1 0.919434 0.987869
vt1 0.978516 0.898682
vt1 0.841797 0.850952
vt1 0.961426 0.832520
vt1 0.724121 0.895447
vt1 0.681152 0.852905
vt1 0.410645 0.889526
vt1 0.500977 0.842041
vt1 0.334229 0.855103
vt1 0.150146 0.852295
vt1 0.030655 0.902405
vt1 0.035004 0.834473
vn 0.000000 1.000000 -0.000000
vn 0.000000 1.000000 -0.000000
vn 0.000000 0.716535 -0.700787
vn 0.000000 0.385827 -0.921260
vn 0.000000 -0.338583 -0.937008
vn 0.000000 -0.708661 -0.708661
vn 0.000000 -1.000000 0.023622
vn 0.000000 -0.881890 0.472441
vn 0.000000 -0.370079 0.929134
vn 0.000000 0.385827 0.921260
vn 0.000000 0.716535 0.700787
vn 0.000000 1.000000 -0.000000
vn 0.000000 1.000000 -0.000000
vn 0.000000 1.000000 -0.047244
vn 0.000000 -0.133858 0.992126
vn 0.000000 1.000000 -0.000000
vn 0.000000 -0.818897 0.582677
vn 0.000000 -0.401575 -0.913386
vn 0.000000 -0.023622 -1.000000
vn 0.000000 1.000000 0.047244
vn 0.000000 1.000000 -0.000000
vn -0.543307 0.834646 -0.007874
vn 0.590551 0.472441 -0.653543
vn 0.992126 0.094488 0.062992
vn -0.834646 -0.039370 -0.551181
vn 0.653543 -0.401575 -0.645669
vn -0.559055 -0.669291 0.488189
vn 0.992126 -0.094488 -0.007874
vn 0.519685 -0.354331 0.779527
vn 0.559055 0.590551 0.574803
vn -0.527559 0.850394 0.047244
vn 0.992126 0.102362 -0.015748
tan 1.000000 -0.000000 -0.070866 1.000000
tan 0.992126 0.000000 0.102362 1.000000
tan 0.993614 0.077252 0.078988 1.000000
tan 0.926840 -0.174096 -0.072912 1.000000
tan 0.935582 -0.154938 0.055986 1.000000
tan 0.993242 -0.089280 0.089280 1.000000
tan 1.000000 0.000186 0.007874 1.000000
tan 0.914130 0.111600 0.208320 1.000000
tan 0.929072 0.175584 0.069936 1.000000
tan 0.948602 0.021762 -0.009114 1.000000
tan 0.362639 0.651125 -0.665757 1.000000
tan 1.000000 -0.000000 -0.031496 1.000000
tan 0.992126 -0.000000 -0.110236 1.000000
tan 0.968504 0.011532 0.244094 1.000000
tan 0.969744 -0.203112 -0.027404 1.000000
tan 0.984252 0.000000 0.196850 1.000000
tan 0.931490 -0.142228 -0.199888 1.000000
tan 0.930312 -0.230144 0.101184 1.000000
tan 0.984252 -0.181102 0.004278 1.000000
tan 0.976378 0.010788 -0.228346 1.000000
tan 0.984252 -0.000000 -0.157480 1.000000
tan 0.834770 0.542873 -0.054560 1.000000
tan 0.764338 -0.090892 0.624961 1.000000
tan 0.042904 -0.820261 0.554653 1.000000
tan 0.550251 0.024056 -0.834956 1.000000
tan 0.730919 0.185194 0.624651 1.000000
tan 0.823300 -0.492467 0.267655 1.000000
tan 0.094178 0.992126 -0.039060 1.000000
tan 0.823052 0.069564 -0.517081 1.000000
tan 0.821192 -0.382727 -0.405481 1.000000
tan 0.850766 0.524583 0.057722 1.000000
tan 0.079794 -0.851510 -0.507781 1.000000
f 3/3/3 2/2/2 1/1/1
f 3/3/3 1/1/1 4/4/4
f 3/3/3 4/4/4 5/5/5
f 5/5/5 4/4/4 6/6/6
f 6/6/6 7/7/7 5/5/5
f 7/7/7 6/6/6 8/8/8
f 9/9/9 7/7/7 8/8/8
f 10/10/10 9/9/9 8/8/8
f 11/11/11 9/9/9 10/10/10
f 12/12/12 11/11/11 10/10/10
f 13/13/13 11/11/11 12/12/12
f 16/16/16 15/15/15 14/14/14
f 17/17/17 14/14/14 15/15/15
f 18/18/18 17/17/17 15/15/15
f 17/17/17 18/18/18 19/19/19
f 19/19/19 18/18/18 20/20/20
f 21/21/21 20/20/20 18/18/18
f 24/24/24 23/23/23 22/22/22
f 23/23/23 25/25/25 22/22/22
f 25/25/25 23/23/23 26/26/26
f 25/25/25 26/26/26 27/27/27
f 28/28/28 27/27/27 26/26/26
f 27/27/27 28/28/28 29/29/29
f 29/29/29 30/30/30 27/27/27
f 27/27/27 30/30/30 31/31/31
f 31/31/31 30/30/30 32/32/32
