mtllib SM_CarboardBox_LOD3.mtl
g SM_CarboardBox_LOD3
#Vertices 140
#Indices 243
#Section 0 Offset 0 NumIndices 243 MaterialIndex 0 MM_BasicFill
v -0.305946 0.146281 0.206228
v -0.295068 0.003999 0.211939
v -0.304738 -0.004779 0.199934
v 0.340000 0.385905 0.219209
v 0.345041 0.384640 -0.205096
v 0.335744 0.380411 -0.188632
v -0.308447 0.380305 -0.192028
v -0.118310 0.387949 -0.189301
v -0.315571 0.386472 -0.201467
v -0.115644 0.343055 0.217351
v -0.307130 0.382371 0.206918
v -0.320968 0.381185 0.218715
v 0.335744 0.380411 -0.188632
v 0.102962 0.389780 -0.158554
v 0.138159 0.377976 -0.160185
v 0.102962 0.389780 -0.158554
v 0.335744 0.380411 -0.188632
v 0.345041 0.384640 -0.205096
v 0.334617 0.377758 0.206846
v 0.123204 0.388207 0.204497
v 0.340000 0.385905 0.219209
v 0.335744 0.380411 -0.188632
v 0.334617 0.377758 0.206846
v 0.340000 0.385905 0.219209
v 0.102962 0.389780 -0.158554
v -0.118310 0.387949 -0.189301
v 0.138159 0.377976 -0.160185
v 0.449180 0.202385 -0.212234
v 0.345041 0.384640 -0.205096
v 0.384193 0.335172 -0.193492
v 0.445376 0.201356 0.200391
v 0.384193 0.335172 0.206508
v 0.340000 0.385905 0.219209
v -0.318998 0.249081 0.333052
v 0.024593 0.208586 0.322063
v -0.127094 0.208280 0.332887
v 0.384163 0.335231 -0.081435
v 0.384193 0.335172 0.206508
v 0.445376 0.201356 0.200391
v 0.448415 0.203667 -0.098634
v -0.307130 0.382371 0.206918
v -0.306569 0.145757 -0.032523
v -0.333892 0.380476 -0.033204
v -0.305946 0.146281 0.206228
v -0.307130 0.382371 0.206918
v -0.115644 0.343055 0.217351
v -0.118907 0.335778 0.207081
v 0.031141 0.345848 0.190118
v 0.123204 0.388207 0.204497
v 0.323238 0.249997 0.332347
v 0.340000 0.385905 0.219209
v 0.113128 0.247856 0.333295
v 0.031141 0.345848 0.190118
v 0.113128 0.247856 0.333295
v 0.123204 0.388207 0.204497
v 0.024593 0.208586 0.322063
v 0.334899 0.144412 -0.032695
v 0.334150 -0.003888 -0.190063
v 0.333566 -0.004381 -0.032558
v 0.335144 0.159208 -0.192097
v -0.308986 -0.002285 -0.183051
v -0.335280 0.002721 -0.033469
v 0.333566 -0.004381 -0.032558
v 0.209956 -0.003761 -0.207455
v 0.334150 -0.003888 -0.190063
v 0.333566 -0.004381 -0.032558
v -0.335280 0.002721 -0.033469
v -0.304738 -0.004779 0.199934
v 0.332672 -0.001464 0.205086
v -0.295068 0.003999 0.211939
v -0.305946 0.146281 0.206228
v -0.118907 0.335778 0.207081
v -0.307130 0.382371 0.206918
v 0.031141 0.345848 0.190118
v 0.332672 -0.001464 0.205086
v 0.123204 0.388207 0.204497
v 0.334525 0.143739 0.193207
v 0.334617 0.377758 0.206846
v -0.307130 0.382371 0.206918
v -0.333892 0.380476 -0.033204
v -0.343741 0.387687 -0.058124
v -0.308447 0.380305 -0.192028
v -0.315571 0.386472 -0.201467
v 0.384193 0.335172 -0.193492
v 0.448415 0.203667 -0.098634
v 0.449180 0.202385 -0.212234
v 0.384163 0.335231 -0.081435
v 0.345041 0.384640 -0.205096
v 0.384193 0.335172 0.206508
v 0.340000 0.385905 0.219209
v 0.160716 0.261259 -0.307426
v 0.345041 0.384640 -0.205096
v 0.316901 0.257183 -0.357047
v 0.102962 0.389780 -0.158554
v -0.036223 0.258032 -0.354330
v -0.118310 0.387949 -0.189301
v -0.315571 0.386472 -0.201467
v -0.327470 0.257055 -0.342138
v -0.333892 0.380476 -0.033204
v -0.306510 0.146278 -0.156516
v -0.308447 0.380305 -0.192028
v -0.306569 0.145757 -0.032523
v -0.335280 0.002721 -0.033469
v -0.308986 -0.002285 -0.183051
v -0.305946 0.146281 0.206228
v -0.304738 -0.004779 0.199934
v -0.118310 0.387949 -0.189301
v -0.118816 0.146238 -0.164450
v 0.138159 0.377976 -0.160185
v 0.174285 0.145935 -0.184780
v 0.335144 0.159208 -0.192097
v 0.335744 0.380411 -0.188632
v -0.115644 0.343055 0.217351
v 0.024593 0.208586 0.322063
v 0.031141 0.345848 0.190118
v -0.127094 0.208280 0.332887
v -0.318998 0.249081 0.333052
v -0.320968 0.381185 0.218715
v -0.315571 0.386472 -0.201467
v -0.451946 0.200609 -0.208634
v -0.343741 0.387687 -0.058124
v -0.440174 0.202047 0.189939
v -0.320968 0.381185 0.218715
v -0.307130 0.382371 0.206918
v 0.334525 0.143739 0.193207
v 0.333566 -0.004381 -0.032558
v 0.332672 -0.001464 0.205086
v 0.334899 0.144412 -0.032695
v 0.335744 0.380411 -0.188632
v 0.334617 0.377758 0.206846
v 0.335144 0.159208 -0.192097
v 0.335144 0.159208 -0.192097
v 0.209956 -0.003761 -0.207455
v 0.334150 -0.003888 -0.190063
v 0.174285 0.145935 -0.184780
v -0.118816 0.146238 -0.164450
v -0.308986 -0.002285 -0.183051
v -0.308447 0.380305 -0.192028
v -0.118310 0.387949 -0.189301
v -0.306510 0.146278 -0.156516
vt 0.392090 0.492676
vt 0.408936 0.487305
vt 0.410400 0.488770
vt 0.510742 0.601807
vt 0.563477 0.604004
vt 0.561035 0.605225
vt 0.477783 0.566895
vt 0.478516 0.542725
vt 0.479004 0.567627
vt 0.527832 0.543701
vt 0.522949 0.568359
vt 0.520996 0.569580
vt 0.455078 0.586426
vt 0.425781 0.584961
vt 0.430420 0.583984
vt 0.476562 0.514648
vt 0.477539 0.487305
vt 0.479248 0.485840
vt 0.533691 0.487305
vt 0.531738 0.513672
vt 0.532227 0.486328
vt 0.561035 0.605469
vt 0.512207 0.603271
vt 0.510742 0.602051
vt 0.435791 0.583984
vt 0.407959 0.586670
vt 0.440186 0.583252
vt 0.563965 0.576660
vt 0.563965 0.603516
vt 0.562988 0.595703
vt 0.477051 0.544922
vt 0.458008 0.545410
vt 0.449463 0.543701
vt 0.378906 0.529785
vt 0.421387 0.524902
vt 0.402588 0.526367
vt 0.459229 0.580322
vt 0.458008 0.545410
vt 0.477051 0.544189
vt 0.476807 0.582520
vt 0.399170 0.529297
vt 0.431396 0.502197
vt 0.430908 0.531738
vt 0.402588 0.500000
vt 0.523438 0.568359
vt 0.528320 0.543945
vt 0.529785 0.544434
vt 0.533691 0.525879
vt 0.435547 0.550293
vt 0.460205 0.528320
vt 0.461670 0.551025
vt 0.433838 0.528076
vt 0.532715 0.525879
vt 0.509277 0.521729
vt 0.531738 0.513428
vt 0.510742 0.533691
vt 0.422852 0.406250
vt 0.441895 0.424805
vt 0.422852 0.425781
vt 0.444824 0.404785
vt 0.442871 0.504150
vt 0.425049 0.509521
vt 0.423096 0.426758
vt 0.444580 0.441406
vt 0.442139 0.424805
vt 0.455322 0.451660
vt 0.449951 0.536133
vt 0.420654 0.530029
vt 0.426758 0.451172
vt 0.418945 0.528564
vt 0.400635 0.528564
vt 0.378906 0.502441
vt 0.370605 0.525879
vt 0.379395 0.483398
vt 0.426514 0.451172
vt 0.375488 0.471191
vt 0.409424 0.448730
vt 0.380371 0.444824
vt 0.560547 0.397461
vt 0.559570 0.427734
vt 0.558105 0.431152
vt 0.562012 0.447754
vt 0.561035 0.448730
vt 0.562988 0.595703
vt 0.550293 0.577393
vt 0.563965 0.576660
vt 0.548340 0.595459
vt 0.563477 0.604004
vt 0.512695 0.593506
vt 0.510742 0.601807
vt 0.501465 0.508057
vt 0.479492 0.485840
vt 0.502441 0.486328
vt 0.476074 0.514648
vt 0.503906 0.533447
vt 0.478271 0.542725
vt 0.479004 0.567627
vt 0.503418 0.569092
vt 0.439453 0.584229
vt 0.460938 0.558350
vt 0.459473 0.588379
vt 0.445557 0.554932
vt 0.449707 0.536133
vt 0.468506 0.540771
vt 0.416016 0.549072
vt 0.420410 0.530273
vt 0.482422 0.479004
vt 0.453125 0.477539
vt 0.482178 0.445801
vt 0.452881 0.441406
vt 0.452881 0.421387
vt 0.481201 0.419922
vt 0.404785 0.548584
vt 0.421631 0.525635
vt 0.423828 0.550537
vt 0.402588 0.526367
vt 0.378906 0.529785
vt 0.378418 0.551514
vt 0.561035 0.448730
vt 0.532715 0.450684
vt 0.558594 0.431152
vt 0.531250 0.400879
vt 0.558594 0.395996
vt 0.560059 0.397461
vt 0.424072 0.437012
vt 0.453613 0.450684
vt 0.426758 0.452637
vt 0.450928 0.432617
vt 0.464600 0.401367
vt 0.417236 0.409668
vt 0.469727 0.427734
vt 0.504883 0.478027
vt 0.525391 0.462402
vt 0.524902 0.477539
vt 0.506348 0.458008
vt 0.506348 0.421875
vt 0.524414 0.397461
vt 0.475830 0.400391
vt 0.476318 0.423340
vt 0.505859 0.396973
vt1 0.091248 0.750977
vt1 0.011826 0.725586
vt1 0.004040 0.731445
vt1 0.818848 0.295410
vt1 0.808105 0.546631
vt1 0.803223 0.536621
vt1 0.501953 0.569580
vt1 0.505859 0.454102
vt1 0.508789 0.573975
vt1 0.682129 0.354492
vt1 0.706055 0.471680
vt1 0.714355 0.478027
vt1 0.189819 0.296387
vt1 0.197632 0.154297
vt1 0.201660 0.175781
vt1 0.497314 0.319336
vt1 0.500977 0.187500
vt1 0.509766 0.181152
vt1 0.653809 0.083496
vt1 0.663574 0.209961
vt1 0.661133 0.079590
vt1 0.801270 0.536621
vt1 0.812500 0.302246
vt1 0.818359 0.295410
vt1 0.430908 0.342285
vt1 0.443604 0.475098
vt1 0.427002 0.321777
vt1 0.939941 0.548828
vt1 0.811035 0.550781
vt1 0.848145 0.544189
vt1 0.972656 0.266113
vt1 0.880859 0.268555
vt1 0.839844 0.260254
vt1 0.901855 0.582031
vt1 0.925293 0.785889
vt1 0.917969 0.696533
vt1 0.887207 0.435547
vt1 0.880859 0.268555
vt1 0.972168 0.262207
vt1 0.971680 0.445312
vt1 0.854492 0.047363
vt1 0.701172 0.177246
vt1 0.703613 0.035156
vt1 0.838379 0.187988
vt1 0.702637 0.472656
vt1 0.678711 0.354980
vt1 0.672363 0.357910
vt1 0.653320 0.268066
vt1 0.803711 0.854248
vt1 0.909180 0.972122
vt1 0.800293 0.979523
vt1 0.910156 0.846191
vt1 0.657715 0.269043
vt1 0.770020 0.248535
vt1 0.663574 0.208984
vt1 0.764648 0.306152
vt1 0.670410 0.503174
vt1 0.762695 0.591553
vt1 0.669922 0.596191
vt1 0.775879 0.496094
vt1 0.767090 0.968933
vt1 0.681152 0.994114
vt1 0.671875 0.600098
vt1 0.775879 0.670654
vt1 0.763672 0.591309
vt1 0.407715 0.338867
vt1 0.382080 0.744385
vt1 0.242188 0.715576
vt1 0.271240 0.336914
vt1 0.234009 0.708740
vt1 0.146240 0.708008
vt1 0.042328 0.583252
vt1 0.003302 0.695068
vt1 0.045380 0.491211
vt1 0.270508 0.336426
vt1 0.026749 0.432129
vt1 0.188721 0.323242
vt1 0.049438 0.305176
vt1 0.153687 0.018066
vt1 0.148315 0.164062
vt1 0.142578 0.178711
vt1 0.160522 0.259766
vt1 0.154907 0.265137
vt1 0.848145 0.544189
vt1 0.935547 0.483398
vt1 0.939453 0.550293
vt1 0.849121 0.475098
vt1 0.808594 0.546875
vt1 0.858398 0.305176
vt1 0.819336 0.295410
vt1 0.616699 0.288086
vt1 0.510254 0.181152
vt1 0.620605 0.183105
vt1 0.493896 0.319336
vt1 0.629395 0.409668
vt1 0.504883 0.454102
vt1 0.508789 0.574219
vt1 0.626465 0.581055
vt1 0.331787 0.975983
vt1 0.435303 0.851440
vt1 0.427734 0.995590
vt1 0.362061 0.834839
vt1 0.382080 0.744873
vt1 0.471680 0.767090
vt1 0.219849 0.806274
vt1 0.241821 0.716797
vt1 0.008415 0.994671
vt1 0.016556 0.853760
vt1 0.166992 0.993488
vt1 0.187256 0.852661
vt1 0.283936 0.852905
vt1 0.291504 0.988701
vt1 0.811523 0.706787
vt1 0.922363 0.787109
vt1 0.802246 0.798340
vt1 0.917969 0.696533
vt1 0.901855 0.582031
vt1 0.798340 0.579346
vt1 0.155518 0.265137
vt1 0.019257 0.272461
vt1 0.143677 0.178711
vt1 0.013863 0.033691
vt1 0.143433 0.011230
vt1 0.151489 0.017578
vt1 0.258301 0.267090
vt1 0.400146 0.334473
vt1 0.271240 0.342285
vt1 0.386963 0.247559
vt1 0.453125 0.095703
vt1 0.225952 0.137207
vt1 0.477295 0.223145
vt1 0.548340 0.995667
vt1 0.645508 0.921509
vt1 0.645020 0.994537
vt1 0.555664 0.900024
vt1 0.554688 0.725098
vt1 0.641602 0.608643
vt1 0.408936 0.621582
vt1 0.411377 0.734131
vt1 0.551758 0.606934
vn -0.551181 0.007874 0.834646
vn -0.047244 -0.133858 0.992126
vn -0.661417 -0.133858 0.740157
vn 0.173228 -0.968504 0.181102
vn 0.425197 -0.905512 -0.070866
vn 0.409449 -0.913386 -0.047244
vn -0.181102 -0.952756 -0.236220
vn 0.055118 -0.905512 -0.417323
vn -0.165354 -0.952756 -0.251968
vn -0.110236 -0.740157 -0.661417
vn -0.165354 -0.787401 -0.590551
vn -0.149606 -0.700787 -0.700787
vn 0.212598 -0.307087 -0.929134
vn -0.181102 -0.133858 -0.976378
vn -0.110236 -0.039370 -0.992126
vn -0.031496 -0.905512 -0.433071
vn -0.062992 -0.929134 -0.362205
vn -0.062992 -0.929134 -0.370079
vn 0.165354 -0.228346 0.960630
vn -0.110236 -0.125984 0.984252
vn 0.755906 -0.622047 0.212598
vn 0.952756 -0.125984 -0.291339
vn 0.968504 -0.204724 0.133858
vn 0.393701 -0.598425 0.700787
vn 0.000000 -0.149606 -0.992126
vn 0.181102 -0.220473 -0.960630
vn -0.078740 -0.039370 -0.992126
vn 0.354331 0.165354 0.921260
vn 0.181102 0.354331 0.921260
vn 0.267717 0.267717 0.929134
vn -0.291339 -0.244095 -0.929134
vn -0.440945 -0.070866 -0.897638
vn -0.488189 -0.007874 -0.874016
vn 0.173228 0.795275 -0.574803
vn -0.165354 0.874016 -0.448819
vn 0.039370 0.842520 -0.535433
vn -0.858268 -0.511811 0.000000
vn -0.850394 -0.527559 0.000000
vn -0.787402 -0.622047 0.000000
vn -0.755906 -0.653543 0.000000
vn -0.968504 -0.188976 0.188976
vn -1.000000 0.031496 0.007874
vn -0.976378 -0.204724 0.023622
vn -0.968504 0.007874 0.244094
vn -0.370079 -0.330709 0.866142
vn -0.062992 -0.314960 0.944882
vn 0.039370 -0.102362 0.992126
vn 0.015748 -0.149606 0.984252
vn 0.031496 -0.740157 -0.677165
vn 0.000000 -0.653543 -0.755905
vn 0.000000 -0.708661 -0.700787
vn 0.070866 -0.653543 -0.755905
vn 0.259843 -0.716535 -0.645669
vn 0.188976 -0.645669 -0.740157
vn 0.141732 -0.748031 -0.645669
vn 0.228346 -0.637795 -0.732283
vn 1.000000 0.000000 0.039370
vn 0.976378 -0.149606 -0.157480
vn 0.992126 -0.149606 0.023622
vn 0.984252 0.007874 -0.165354
vn -0.015748 -0.984252 -0.157480
vn -0.181102 -0.976378 0.094488
vn 0.102362 -0.992126 0.031496
vn -0.031496 -0.984252 -0.165354
vn 0.078740 -0.992126 -0.125984
vn 0.118110 -0.992126 0.023622
vn -0.157480 -0.984252 0.062992
vn -0.133858 -0.992126 0.047244
vn 0.055118 -0.984252 0.157480
vn -0.015748 -0.039370 1.000000
vn -0.149606 0.000000 0.992126
vn 0.039370 -0.102362 0.992126
vn -0.173228 -0.141732 0.976378
vn 0.007874 -0.102362 0.992126
vn 0.031496 -0.007874 1.000000
vn -0.031496 -0.118110 0.992126
vn 0.188976 0.023622 0.984252
vn 0.133858 -0.165354 0.976378
vn -0.291339 -0.937008 0.173228
vn -0.346457 -0.937008 0.015748
vn -0.346457 -0.937008 -0.007874
vn -0.204724 -0.952756 -0.228346
vn -0.157480 -0.952756 -0.259842
vn -0.858268 -0.511811 0.000000
vn -0.779528 -0.622047 0.000000
vn -0.763780 -0.645669 0.000000
vn -0.858268 -0.511811 0.000000
vn -0.685039 -0.724409 0.000000
vn -0.850394 -0.527559 0.000000
vn -0.677165 -0.732283 0.000000
vn 0.007874 -0.732283 0.677165
vn 0.133858 -0.787401 0.598425
vn 0.165354 -0.740157 0.645669
vn -0.031496 -0.850394 0.527559
vn -0.070866 -0.787401 0.614173
vn -0.039370 -0.842520 0.543307
vn 0.015748 -0.811023 0.582677
vn 0.031496 -0.748031 0.661417
vn -0.976378 -0.204724 -0.007874
vn -0.976378 0.015748 -0.228346
vn -0.944882 -0.196850 -0.259842
vn -1.000000 0.031496 0.015748
vn -1.000000 0.007874 0.007874
vn -0.952756 -0.055118 -0.299213
vn -0.984252 0.007874 0.188976
vn -0.968504 -0.102362 0.212598
vn 0.102362 -0.165354 -0.984252
vn 0.055118 0.055118 -1.000000
vn -0.070866 -0.055118 -0.992126
vn -0.078740 0.102362 -0.992126
vn 0.094488 0.031496 -0.992126
vn -0.031496 -0.133858 -0.992126
vn -0.110236 -0.716535 -0.692913
vn 0.102362 -0.653543 -0.755905
vn 0.133858 -0.732283 -0.661417
vn -0.110236 -0.645669 -0.755905
vn -0.141732 -0.637795 -0.755905
vn -0.149606 -0.700787 -0.700787
vn 0.637795 -0.755905 0.141732
vn 0.960630 -0.212598 0.165354
vn 0.629921 -0.779527 0.015748
vn 0.968504 -0.212598 -0.102362
vn 0.685039 -0.724409 -0.078740
vn 0.496063 -0.866142 -0.055118
vn 0.992126 0.000000 0.133858
vn 0.992126 -0.141732 0.000000
vn 0.968504 -0.133858 0.196850
vn 1.000000 0.000000 0.007874
vn 0.992126 -0.110236 -0.078740
vn 0.984252 -0.141732 0.102362
vn 0.992126 -0.000000 -0.141732
vn 0.102362 0.031496 -0.992126
vn 0.015748 -0.031496 -1.000000
vn 0.244094 -0.125984 -0.960630
vn -0.070866 0.094488 -0.992126
vn 0.031496 0.078740 -1.000000
vn -0.228346 0.055118 -0.976378
vn -0.157480 -0.228347 -0.960630
vn 0.102362 -0.165354 -0.984252
vn -0.944882 0.023622 -0.322835
tan 0.834646 -0.039432 0.551553 1.000000
tan 0.960878 -0.242172 0.013082 1.000000
tan 0.740157 0.005828 0.662471 1.000000
tan 0.968504 0.188914 0.083886 1.000000
tan 0.905512 0.424081 0.014260 1.000000
tan 0.913386 0.408705 0.014384 1.000000
tan 0.952756 -0.177382 -0.015004 1.000000
tan 0.908798 0.032116 0.050344 1.000000
tan 0.952756 -0.165354 0.000000 1.000000
tan 0.663525 -0.542501 0.496497 1.000000
tan 0.500651 -0.575299 0.626883 1.000000
tan 0.325563 -0.698679 0.629177 1.000000
tan 0.087792 -0.921818 0.324757 1.000000
tan -0.115320 -0.968690 0.154194 1.000000
tan -0.101556 -0.984314 0.050344 1.000000
tan 0.905512 -0.038316 0.014260 1.000000
tan 0.921818 -0.014012 -0.124372 1.000000
tan 0.914502 0.007936 -0.175584 1.000000
tan 0.960630 0.037820 -0.156364 1.000000
tan 0.976502 0.124000 0.125240 1.000000
tan 0.654721 0.697501 -0.287061 1.000000
tan 0.201314 0.917540 0.261578 1.000000
tan 0.204724 0.968504 -0.000000 1.000000
tan 0.462769 0.737181 0.369521 1.000000
tan -0.015624 -0.992126 0.149606 1.000000
tan 0.098332 -0.953066 0.237275 1.000000
tan -0.070308 -0.992126 0.044950 1.000000
tan 0.689131 -0.609337 -0.155682 1.000000
tan 0.275653 -0.877736 0.283403 1.000000
tan 0.446401 -0.834150 0.111724 1.000000
tan -0.768182 -0.526753 0.379255 1.000000
tan -0.831794 -0.339017 0.435365 1.000000
tan -0.860252 -0.144522 0.481803 1.000000
tan 0.034782 -0.584351 -0.798003 1.000000
tan -0.027528 -0.454027 -0.874016 1.000000
tan -0.001798 -0.535743 -0.843140 1.000000
tan 0.008060 -0.013516 0.894538 1.000000
tan 0.137082 -0.220968 0.913138 1.000000
tan -0.127348 0.161200 0.883750 1.000000
tan 0.025730 -0.029760 0.975386 1.000000
tan 0.205344 -0.960878 0.091512 1.000000
tan -0.030814 -1.000000 0.086614 1.000000
tan 0.206212 -0.976378 0.061504 1.000000
tan 0.036456 -0.953252 0.175398 1.000000
tan 0.877550 0.068262 0.401017 1.000000
tan 0.932482 0.170624 0.119040 1.000000
tan 0.984314 0.132804 -0.025358 1.000000
tan 0.945502 0.279001 0.027280 1.000000
tan 0.000000 -0.677165 0.740157 1.000000
tan -0.005952 -0.755905 0.653543 1.000000
tan -0.011098 -0.700787 0.708661 1.000000
tan 0.011904 -0.755905 0.654659 1.000000
tan 0.384897 0.691053 -0.612003 1.000000
tan 0.447641 0.689937 -0.487569 1.000000
tan 0.635253 0.550685 -0.498543 1.000000
tan 0.480811 0.678839 -0.441317 1.000000
tan 0.000930 1.000000 -0.023622 1.000000
tan 0.157046 0.976378 0.046128 1.000000
tan 0.150350 0.992126 -0.031248 1.000000
tan 0.003844 0.984252 0.069750 1.000000
tan 0.968752 0.013020 -0.178250 1.000000
tan 0.976378 -0.180358 0.007688 1.000000
tan 0.992126 0.102858 0.015624 1.000000
tan 0.984252 -0.038006 0.038750 1.000000
tan 0.984314 0.090024 -0.093744 1.000000
tan 0.992126 0.118668 0.023436 1.000000
tan 0.984252 -0.154008 0.054250 1.000000
tan 0.992126 -0.130138 0.078120 1.000000
tan 0.984252 0.062558 0.046500 1.000000
tan 1.000000 0.086614 0.019158 1.000000
tan 0.992126 0.085932 0.149606 1.000000
tan 0.984314 0.093744 -0.029388 1.000000
tan 0.968690 0.107632 0.187488 1.000000
tan 0.984314 0.109368 0.003472 1.000000
tan 0.992126 0.094488 -0.030504 1.000000
tan 0.984314 0.124992 0.046128 1.000000
tan 0.976502 0.139500 -0.190836 1.000000
tan 0.968690 0.115320 -0.113274 1.000000
tan 0.103292 0.139748 0.929630 1.000000
tan 0.036890 0.002108 0.937008 1.000000
tan 0.022134 -0.016058 0.937008 1.000000
tan -0.075020 -0.212226 0.952756 1.000000
tan -0.075020 -0.247442 0.952756 1.000000
tan 0.511811 -0.858268 0.006758 1.000000
tan 0.622047 -0.779527 -0.012276 1.000000
tan 0.645669 -0.763779 -0.006014 1.000000
tan 0.511811 -0.858268 0.013516 1.000000
tan 0.724409 -0.685039 0.000000 1.000000
tan 0.527559 -0.850394 0.030938 1.000000
tan 0.732283 -0.677165 0.005766 1.000000
tan 0.946122 -0.046128 -0.060884 1.000000
tan 0.772521 -0.107570 -0.314341 1.000000
tan 0.890074 -0.115010 -0.359787 1.000000
tan 0.841156 0.072850 0.167648 1.000000
tan 0.864902 0.092628 0.218550 1.000000
tan 0.861554 0.016554 0.088102 1.000000
tan 0.864282 0.056916 0.055862 1.000000
tan 0.966954 0.022568 -0.020522 1.000000
tan 0.200074 -0.961002 0.176824 1.000000
tan -0.072788 -0.945626 0.246017 1.000000
tan 0.139004 -0.922562 0.193440 1.000000
tan -0.027652 -0.976378 0.196850 1.000000
tan -0.005394 -0.960630 0.275591 1.000000
tan -0.041726 -0.907744 0.300081 1.000000
tan 0.027962 -0.968752 0.186000 1.000000
tan 0.140926 -0.953252 0.183024 1.000000
tan 0.984252 -0.046500 0.110174 1.000000
tan 1.000000 -0.070866 0.051212 1.000000
tan 0.992126 0.031248 -0.072602 1.000000
tan 0.992126 0.023436 -0.076322 1.000000
tan 0.992126 0.046872 0.095976 1.000000
tan 0.992126 0.062496 -0.039928 1.000000
tan 0.006014 -0.695517 0.718271 1.000000
tan 0.017856 -0.755905 0.655961 1.000000
tan -0.000558 -0.662471 0.733337 1.000000
tan 0.012648 -0.761113 0.648273 1.000000
tan -0.019716 -0.758137 0.643375 1.000000
tan -0.005518 -0.704321 0.705499 1.000000
tan -0.161820 0.029574 0.885920 1.000000
tan -0.140616 0.105896 0.953066 1.000000
tan 0.100874 0.099572 0.893856 1.000000
tan 0.095666 -0.028892 0.965156 1.000000
tan 0.283713 0.168082 0.921942 1.000000
tan 0.069068 -0.016058 0.873954 1.000000
tan 0.025296 0.976502 -0.187488 1.000000
tan 0.141732 0.992126 -0.078120 1.000000
tan 0.167400 0.953252 -0.175398 1.000000
tan 0.001240 0.984252 -0.157480 1.000000
tan 0.096100 0.976502 -0.156240 1.000000
tan 0.157232 0.968752 -0.170500 1.000000
tan -0.025668 0.976502 -0.179676 1.000000
tan -0.992126 -0.000000 -0.102362 1.000000
tan -1.000000 -0.086614 -0.013020 1.000000
tan -0.960630 0.015128 -0.246078 1.000000
tan -0.992126 -0.007812 0.070122 1.000000
tan -1.000000 -0.000000 -0.031496 1.000000
tan -0.976378 0.007688 0.228780 1.000000
tan -0.953066 -0.098332 0.179614 1.000000
tan -0.984252 -0.062000 -0.091946 1.000000
tan -0.323765 -0.037200 0.944882 1.000000
f 3/3/3 2/2/2 1/1/1
f 6/6/6 5/5/5 4/4/4
f 9/9/9 8/8/8 7/7/7
f 12/12/12 11/11/11 10/10/10
f 15/15/15 14/14/14 13/13/13
f 18/18/18 17/17/17 16/16/16
f 21/21/21 20/20/20 19/19/19
f 24/24/24 23/23/23 22/22/22
f 27/27/27 26/26/26 25/25/25
f 30/30/30 29/29/29 28/28/28
f 33/33/33 32/32/32 31/31/31
f 36/36/36 35/35/35 34/34/34
f 39/39/39 38/38/38 37/37/37
f 40/40/40 39/39/39 37/37/37
f 43/43/43 42/42/42 41/41/41
f 44/44/44 41/41/41 42/42/42
f 47/47/47 46/46/46 45/45/45
f 46/46/46 47/47/47 48/48/48
f 51/51/51 50/50/50 49/49/49
f 50/50/50 52/52/52 49/49/49
f 55/55/55 54/54/54 53/53/53
f 56/56/56 53/53/53 54/54/54
f 59/59/59 58/58/58 57/57/57
f 60/60/60 57/57/57 58/58/58
f 63/63/63 62/62/62 61/61/61
f 64/64/64 63/63/63 61/61/61
f 65/65/65 63/63/63 64/64/64
f 68/68/68 67/67/67 66/66/66
f 66/66/66 69/69/69 68/68/68
f 69/69/69 70/70/70 68/68/68
f 70/70/70 72/72/72 71/71/71
f 73/73/73 71/71/71 72/72/72
f 72/72/72 70/70/70 74/74/74
f 75/75/75 74/74/74 70/70/70
f 76/76/76 74/74/74 75/75/75
f 75/75/75 77/77/77 76/76/76
f 78/78/78 76/76/76 77/77/77
f 81/81/81 80/80/80 79/79/79
f 80/80/80 81/81/81 82/82/82
f 83/83/83 82/82/82 81/81/81
f 86/86/86 85/85/85 84/84/84
f 84/84/84 85/85/85 87/87/87
f 87/87/87 88/88/88 84/84/84
f 87/87/87 89/89/89 88/88/88
f 89/89/89 90/90/90 88/88/88
f 93/93/93 92/92/92 91/91/91
f 94/94/94 91/91/91 92/92/92
f 91/91/91 94/94/94 95/95/95
f 94/94/94 96/96/96 95/95/95
f 96/96/96 97/97/97 95/95/95
f 97/97/97 98/98/98 95/95/95
f 101/101/101 100/100/100 99/99/99
f 102/102/102 99/99/99 100/100/100
f 102/102/102 100/100/100 103/103/103
f 104/104/104 103/103/103 100/100/100
f 102/102/102 103/103/103 105/105/105
f 106/106/106 105/105/105 103/103/103
f 109/109/109 108/108/108 107/107/107
f 108/108/108 109/109/109 110/110/110
f 110/110/110 109/109/109 111/111/111
f 112/112/112 111/111/111 109/109/109
f 115/115/115 114/114/114 113/113/113
f 116/116/116 113/113/113 114/114/114
f 116/116/116 117/117/117 113/113/113
f 117/117/117 118/118/118 113/113/113
f 121/121/121 120/120/120 119/119/119
f 120/120/120 121/121/121 122/122/122
f 123/123/123 122/122/122 121/121/121
f 124/124/124 123/123/123 121/121/121
f 127/127/127 126/126/126 125/125/125
f 128/128/128 125/125/125 126/126/126
f 128/128/128 129/129/129 125/125/125
f 130/130/130 125/125/125 129/129/129
f 128/128/128 131/131/131 129/129/129
f 134/134/134 133/133/133 132/132/132
f 135/135/135 132/132/132 133/133/133
f 135/135/135 133/133/133 136/136/136
f 136/136/136 133/133/133 137/137/137
f 137/137/137 138/138/138 136/136/136
f 139/139/139 136/136/136 138/138/138
f 137/137/137 140/140/140 138/138/138
