mtllib SM_CableSmall_LOD1.mtl
g SM_CableSmall_LOD1
#Vertices 95
#Indices 360
#Section 0 Offset 0 NumIndices 120 MaterialIndex 0 MI_Rubber05
#Section 1 Offset 120 NumIndices 240 MaterialIndex 1 MI_Brushed_Metal
v 0.035429 0.020449 -0.000000
v -0.000000 0.014459 0.014459
v -0.000000 0.020449 -0.000000
v 0.035429 0.014459 0.014459
v 0.000000 0.000000 0.020449
v 0.035429 0.000000 0.020449
v 0.035429 -0.014459 0.014459
v 0.000000 -0.014459 0.014459
v 0.035429 -0.020449 -0.000000
v 0.000000 -0.020449 0.000000
v 0.035429 -0.014459 -0.014459
v 0.000000 -0.014459 -0.014459
v 0.035429 -0.000000 -0.020449
v -0.000000 -0.000000 -0.020449
v 0.035429 0.014459 -0.014459
v -0.000000 0.014459 -0.014459
v 0.035429 0.020449 -0.000000
v -0.000000 0.020449 -0.000000
v 0.186101 0.020449 -0.000000
v 0.060294 0.014459 0.014459
v 0.060294 0.020449 -0.000000
v 0.183853 0.014459 0.014459
v 1.192531 0.020449 0.000002
v 1.192557 0.014459 0.014459
v 0.060294 0.000000 0.020449
v 1.192557 0.000000 0.020449
v 1.192557 -0.014459 0.014459
v 0.192385 -0.014459 0.014459
v 0.060294 -0.014459 0.014459
v 0.060293 -0.020449 0.000028
v 1.192557 -0.020449 -0.000000
v 1.192557 -0.014459 -0.014459
v 0.060293 -0.014474 -0.014448
v 1.192557 0.000000 -0.020449
v 0.060290 -0.000001 -0.020449
v 0.211046 0.014459 -0.014459
v 0.060294 0.014459 -0.014459
v 1.192557 0.014459 -0.014459
v 0.060294 0.020449 -0.000000
v 1.192531 0.020449 0.000002
v 0.186101 0.020449 -0.000000
v 0.035429 0.014459 -0.014459
v 0.035429 0.023999 -0.000000
v 0.035429 0.020449 -0.000000
v 0.035429 0.016970 -0.016970
v 0.037794 0.026559 -0.000000
v 0.035429 -0.000000 -0.020449
v 0.037794 0.018780 -0.018780
v 0.057929 0.026559 -0.000000
v 0.035429 -0.000000 -0.023999
v 0.035429 -0.016970 -0.016970
v 0.035429 -0.014459 -0.014459
v 0.037794 -0.000000 -0.026559
v 0.035429 -0.023999 -0.000000
v 0.035429 -0.020449 -0.000000
v 0.037794 -0.018780 -0.018780
v 0.037794 -0.026559 -0.000000
v 0.035429 -0.016970 0.016970
v 0.035429 -0.014459 0.014459
v 0.037794 -0.018780 0.018780
v 0.035429 0.000000 0.023999
v 0.035429 0.000000 0.020449
v 0.035429 0.014459 0.014459
v 0.037794 0.000000 0.026559
v 0.035429 0.016970 0.016970
v 0.035429 0.020449 -0.000000
v 0.035429 0.023999 -0.000000
v 0.037794 0.018780 0.018780
v 0.037794 0.026559 -0.000000
v 0.057929 0.018780 0.018780
v 0.057929 0.026559 -0.000000
v 0.060294 0.023999 -0.000000
v 0.057929 0.000000 0.026559
v 0.060294 0.016970 0.016970
v 0.060294 0.020449 -0.000000
v 0.060294 0.014459 0.014459
v 0.060294 0.000000 0.023999
v 0.060294 0.000000 0.020449
v 0.060294 -0.014459 0.014459
v 0.060294 -0.016970 0.016970
v 0.060293 -0.020449 0.000028
v 0.057929 -0.018780 0.018780
v 0.060294 -0.023999 -0.000000
v 0.060293 -0.014474 -0.014448
v 0.057929 -0.026559 -0.000000
v 0.060294 -0.016970 -0.016970
v 0.060290 -0.000001 -0.020449
v 0.057929 -0.018780 -0.018780
v 0.060294 -0.000000 -0.023999
v 0.057929 -0.000000 -0.026559
v 0.060294 0.016970 -0.016970
v 0.060294 0.014459 -0.014459
v 0.057929 0.018780 -0.018780
v 0.060294 0.023999 -0.000000
v 0.060294 0.020449 -0.000000
vt 0.052795 0.571045
vt 0.055725 0.575439
vt 0.053711 0.575684
vt 0.054871 0.570557
vt 0.057617 0.575195
vt 0.057007 0.570312
vt 0.059113 0.570312
vt 0.059479 0.574951
vt 0.061218 0.570312
vt 0.061371 0.574951
vt 0.063293 0.570312
vt 0.063232 0.574951
vt 0.065369 0.570312
vt 0.065125 0.574951
vt 0.067566 0.570312
vt 0.067017 0.575195
vt 0.069702 0.571045
vt 0.068909 0.575439
vt 0.053345 0.549072
vt 0.054749 0.566650
vt 0.052490 0.566162
vt 0.055328 0.549316
vt 0.054230 0.424805
vt 0.056152 0.424805
vt 0.057129 0.564941
vt 0.058105 0.424805
vt 0.060028 0.424805
vt 0.059235 0.548340
vt 0.059113 0.566650
vt 0.061066 0.564941
vt 0.061981 0.424805
vt 0.063904 0.424805
vt 0.063049 0.564941
vt 0.065857 0.424805
vt 0.065063 0.565186
vt 0.066956 0.545898
vt 0.067688 0.566406
vt 0.067749 0.424805
vt 0.069824 0.566162
vt 0.069702 0.424805
vt 0.068909 0.549072
vt 0.067566 0.570312
vt 0.070007 0.570557
vt 0.069702 0.571045
vt 0.067566 0.570068
vt 0.070312 0.570068
vt 0.065369 0.570312
vt 0.067627 0.569580
vt 0.070312 0.566895
vt 0.065369 0.569824
vt 0.063293 0.569824
vt 0.063293 0.570312
vt 0.065430 0.569336
vt 0.061188 0.569824
vt 0.061218 0.570312
vt 0.063293 0.569336
vt 0.061188 0.569336
vt 0.059082 0.569824
vt 0.059113 0.570312
vt 0.059082 0.569336
vt 0.056976 0.569824
vt 0.057007 0.570312
vt 0.054871 0.570557
vt 0.056946 0.569580
vt 0.054779 0.570068
vt 0.052795 0.571045
vt 0.052521 0.570801
vt 0.054718 0.569824
vt 0.052246 0.570312
vt 0.054688 0.567383
vt 0.051971 0.567139
vt 0.052216 0.566650
vt 0.056976 0.567383
vt 0.054718 0.567139
vt 0.052490 0.566162
vt 0.054749 0.566650
vt 0.056976 0.567139
vt 0.056946 0.566650
vt 0.059113 0.566650
vt 0.059143 0.566895
vt 0.061249 0.566650
vt 0.059143 0.567383
vt 0.061279 0.566895
vt 0.063354 0.566650
vt 0.061279 0.567383
vt 0.063416 0.566895
vt 0.065552 0.566650
vt 0.063416 0.567383
vt 0.065552 0.566895
vt 0.065552 0.567383
vt 0.067749 0.566895
vt 0.067688 0.566406
vt 0.067810 0.567383
vt 0.070068 0.566406
vt 0.069824 0.566162
vt1 0.051910 0.961975
vt1 0.209595 0.989357
vt1 0.100220 0.991936
vt1 0.163086 0.958099
vt1 0.310059 0.987541
vt1 0.277832 0.956787
vt1 0.391602 0.956146
vt1 0.410645 0.986496
vt1 0.503418 0.955841
vt1 0.511719 0.986076
vt1 0.615234 0.955811
vt1 0.613281 0.986198
vt1 0.728027 0.956177
vt1 0.715332 0.986862
vt1 0.843750 0.957306
vt1 0.816895 0.988129
vt1 0.960938 0.960968
vt1 0.917969 0.990059
vt1 0.080444 0.818604
vt1 0.156006 0.932251
vt1 0.035278 0.929749
vt1 0.187744 0.820435
vt1 0.128906 0.008301
vt1 0.232300 0.008301
vt1 0.284180 0.921814
vt1 0.336426 0.008301
vt1 0.440186 0.008301
vt1 0.396973 0.813721
vt1 0.391113 0.932190
vt1 0.495850 0.921692
vt1 0.544434 0.008789
vt1 0.648438 0.008789
vt1 0.603027 0.922424
vt1 0.752441 0.008789
vt1 0.712402 0.923645
vt1 0.812500 0.798462
vt1 0.851562 0.931702
vt1 0.856445 0.008789
vt1 0.965820 0.928894
vt1 0.959473 0.009277
vt1 0.918457 0.818604
vt1 0.843750 0.957306
vt1 0.977539 0.958252
vt1 0.960938 0.960968
vt1 0.846680 0.954346
vt1 0.991699 0.955353
vt1 0.728027 0.956177
vt1 0.849609 0.951660
vt1 0.991699 0.934082
vt1 0.728516 0.953491
vt1 0.614746 0.953217
vt1 0.615234 0.955811
vt1 0.729492 0.950897
vt1 0.502441 0.953217
vt1 0.503418 0.955841
vt1 0.615234 0.950684
vt1 0.502441 0.950714
vt1 0.389893 0.953522
vt1 0.391602 0.956146
vt1 0.389160 0.950989
vt1 0.275391 0.954132
vt1 0.277832 0.956787
vt1 0.163086 0.958099
vt1 0.274170 0.951538
vt1 0.158203 0.955475
vt1 0.051910 0.961975
vt1 0.037140 0.959808
vt1 0.154297 0.952789
vt1 0.022751 0.957031
vt1 0.153687 0.938019
vt1 0.008064 0.935730
vt1 0.020050 0.932678
vt1 0.276123 0.937805
vt1 0.155029 0.935303
vt1 0.035278 0.929749
vt1 0.156006 0.932251
vt1 0.275879 0.935181
vt1 0.274902 0.932434
vt1 0.391113 0.932190
vt1 0.392334 0.934875
vt1 0.505859 0.932068
vt1 0.392822 0.937439
vt1 0.507324 0.934753
vt1 0.621094 0.932007
vt1 0.507324 0.937317
vt1 0.622070 0.934692
vt1 0.736328 0.932068
vt1 0.621582 0.937256
vt1 0.737305 0.934753
vt1 0.737305 0.937378
vt1 0.854980 0.934387
vt1 0.851562 0.931702
vt1 0.857422 0.937073
vt1 0.979004 0.931213
vt1 0.965820 0.928894
vn 0.000000 1.000000 -0.000000
vn 0.000000 0.708661 0.708661
vn 0.000000 1.000000 -0.000000
vn 0.000000 0.708661 0.708661
vn 0.000000 0.000000 1.000000
vn 0.000000 0.000000 1.000000
vn 0.000000 -0.708661 0.708661
vn 0.000000 -0.708661 0.708661
vn 0.000000 -1.000000 0.000000
vn 0.000000 -1.000000 0.000000
vn 0.000000 -0.708661 -0.708661
vn 0.000000 -0.708661 -0.708661
vn 0.000000 -0.000000 -1.000000
vn 0.000000 -0.000000 -1.000000
vn 0.000000 0.708661 -0.708661
vn 0.000000 0.708661 -0.708661
vn 0.000000 1.000000 -0.000000
vn 0.000000 1.000000 -0.000000
vn 0.000000 1.000000 -0.000000
vn 0.000000 0.708661 0.708661
vn 0.000000 1.000000 -0.000000
vn 0.000000 0.708661 0.708661
vn 0.000000 1.000000 -0.000000
vn 0.000000 0.708661 0.708661
vn 0.000000 0.000000 1.000000
vn 0.000000 0.000000 1.000000
vn 0.000000 -0.708661 0.708661
vn 0.000000 -0.708661 0.708661
vn 0.000000 -0.708661 0.708661
vn 0.000000 -1.000000 0.000000
vn 0.000000 -1.000000 0.000000
vn 0.000000 -0.708661 -0.708661
vn 0.000000 -0.708661 -0.708661
vn 0.000000 -0.000000 -1.000000
vn 0.000000 -0.000000 -1.000000
vn 0.000000 0.708661 -0.708661
vn 0.000000 0.708661 -0.708661
vn 0.000000 0.708661 -0.708661
vn 0.000000 1.000000 -0.000000
vn 0.000000 1.000000 -0.000000
vn 0.000000 1.000000 -0.000000
vn -1.000000 0.000000 0.000000
vn -0.897638 0.440945 -0.000000
vn -1.000000 0.000000 0.000000
vn -0.897638 0.307087 -0.307087
vn -0.370079 0.929134 -0.000000
vn -1.000000 0.000000 0.000000
vn -0.370079 0.653543 -0.653543
vn 0.370079 0.929134 -0.000000
vn -0.897638 -0.000000 -0.440945
vn -0.897638 -0.307087 -0.307087
vn -1.000000 0.000000 0.000000
vn -0.370079 -0.000000 -0.929134
vn -0.897638 -0.440945 0.000000
vn -1.000000 0.000000 0.000000
vn -0.370079 -0.653543 -0.653543
vn -0.370079 -0.929134 0.000000
vn -0.897638 -0.307087 0.307087
vn -1.000000 0.000000 0.000000
vn -0.370079 -0.653543 0.653543
vn -0.897638 0.000000 0.440945
vn -1.000000 0.000000 0.000000
vn -1.000000 0.000000 0.000000
vn -0.370079 0.000000 0.929134
vn -0.897638 0.307087 0.307087
vn -1.000000 0.000000 0.000000
vn -0.897638 0.440945 -0.000000
vn -0.370079 0.653543 0.653543
vn -0.370079 0.929134 -0.000000
vn 0.370079 0.653543 0.653543
vn 0.370079 0.929134 -0.000000
vn 0.897638 0.440945 -0.000000
vn 0.370079 0.000000 0.929134
vn 0.897638 0.307087 0.307087
vn 1.000000 0.000000 0.000000
vn 1.000000 0.000000 0.000000
vn 0.897638 0.000000 0.440945
vn 1.000000 0.000000 0.000000
vn 1.000000 0.000000 0.000000
vn 0.897638 -0.307087 0.307087
vn 1.000000 0.000000 0.000000
vn 0.370079 -0.653543 0.653543
vn 0.897638 -0.440945 0.000000
vn 1.000000 0.000000 0.000000
vn 0.370079 -0.929134 0.000000
vn 0.897638 -0.307087 -0.307087
vn 1.000000 0.000000 0.000000
vn 0.370079 -0.653543 -0.653543
vn 0.897638 -0.000000 -0.440945
vn 0.370079 -0.000000 -0.929134
vn 0.897638 0.307087 -0.307087
vn 1.000000 0.000000 0.000000
vn 0.370079 0.653543 -0.653543
vn 0.897638 0.440945 -0.000000
vn 1.000000 0.000000 0.000000
tan 0.960630 0.000000 0.267716 1.000000
tan 0.937442 -0.251100 0.251101 1.000000
tan 0.976378 0.000000 0.204724 1.000000
tan 0.926282 -0.273420 0.273421 1.000000
tan 0.992126 -0.102362 0.000000 1.000000
tan 1.000000 -0.078740 0.000000 1.000000
tan 0.993242 -0.061380 -0.061380 1.000000
tan 0.993242 -0.083700 -0.083700 1.000000
tan 1.000000 -0.000000 -0.015748 1.000000
tan 1.000000 -0.000000 -0.015748 1.000000
tan 1.004402 -0.022320 0.022320 1.000000
tan 1.004402 -0.039060 0.039060 1.000000
tan 1.000000 -0.062992 0.000000 1.000000
tan 1.000000 -0.078740 0.000000 1.000000
tan 0.937442 -0.251101 -0.251100 1.000000
tan 0.959762 -0.200880 -0.200880 1.000000
tan 0.968504 -0.000000 -0.251968 1.000000
tan 0.984252 -0.000000 -0.157480 1.000000
tan 1.000000 -0.000000 -0.031496 1.000000
tan 0.982082 0.133920 -0.133920 1.000000
tan 0.984252 -0.000000 -0.188976 1.000000
tan 1.004402 0.055800 -0.055800 1.000000
tan 1.000000 0.000000 0.000000 1.000000
tan 1.004402 0.044640 -0.044640 1.000000
tan 1.000000 0.007874 -0.000000 1.000000
tan 1.000000 0.007874 -0.000000 1.000000
tan 1.004402 0.033480 0.033480 1.000000
tan 1.004402 0.044640 0.044640 1.000000
tan 1.004402 -0.022320 -0.022320 1.000000
tan 1.000000 0.000000 0.000000 1.000000
tan 1.000000 0.000000 0.007874 1.000000
tan 1.004402 -0.027900 0.027900 1.000000
tan 0.998822 -0.044640 0.044640 1.000000
tan 1.000000 -0.007874 0.000000 1.000000
tan 1.000000 0.007874 -0.000000 1.000000
tan 1.004402 0.000000 0.000000 1.000000
tan 0.970922 0.167400 0.167400 1.000000
tan 1.004402 -0.044640 -0.044640 1.000000
tan 0.976378 0.000000 0.196850 1.000000
tan 1.000000 -0.000000 -0.031496 1.000000
tan 1.000000 0.000000 0.023622 1.000000
tan 0.000000 0.582677 -0.811024 1.000000
tan 0.399281 0.812821 -0.402505 1.000000
tan 0.000000 0.803149 -0.598425 1.000000
tan 0.430405 0.539401 -0.718705 1.000000
tan 0.892554 0.355509 -0.261889 1.000000
tan 0.000000 -0.039370 -1.000000 1.000000
tan 0.921136 0.181474 -0.340133 1.000000
tan 0.914502 -0.364251 0.188728 1.000000
tan 0.440945 -0.021204 -0.897638 1.000000
tan 0.435241 -0.643189 -0.629053 1.000000
tan 0.000000 -0.716535 -0.700787 1.000000
tan 0.929134 -0.014632 -0.370079 1.000000
tan 0.440945 -0.897638 -0.007068 1.000000
tan 0.000000 -1.000000 -0.007874 1.000000
tan 0.926282 -0.267407 -0.257114 1.000000
tan 0.929134 -0.370079 -0.007316 1.000000
tan 0.432823 -0.650257 0.614917 1.000000
tan 0.000000 -0.732283 0.685039 1.000000
tan 0.926282 -0.290905 0.233616 1.000000
tan 0.440945 -0.045880 0.897638 1.000000
tan 0.000000 -0.078740 1.000000 1.000000
tan 0.000000 0.535433 0.842520 1.000000
tan 0.929134 -0.043896 0.370079 1.000000
tan 0.427987 0.511129 0.739909 1.000000
tan 0.000000 0.763779 0.645669 1.000000
tan 0.392337 0.798686 0.427181 1.000000
tan 0.895406 0.071362 0.435675 1.000000
tan 0.899870 0.358423 0.232624 1.000000
tan 0.926282 -0.262261 -0.262260 1.000000
tan 0.907186 -0.361337 -0.203360 1.000000
tan 0.413169 -0.841094 -0.335421 1.000000
tan 0.929134 -0.014632 -0.370079 1.000000
tan 0.432823 -0.584227 -0.680947 1.000000
tan 0.000000 -0.858268 -0.519685 1.000000
tan 0.000000 -0.637795 -0.771653 1.000000
tan 0.440945 -0.007068 -0.897638 1.000000
tan 0.000000 -0.000000 -1.000000 1.000000
tan 0.000000 0.692913 -0.716535 1.000000
tan 0.435241 0.629053 -0.643189 1.000000
tan 0.000000 1.000000 -0.007874 1.000000
tan 0.921136 0.243908 -0.277699 1.000000
tan 0.440945 0.897638 -0.007068 1.000000
tan 0.000000 0.708661 0.708661 1.000000
tan 0.929134 0.370079 -0.007316 1.000000
tan 0.435241 0.636121 0.636121 1.000000
tan 0.000000 0.007874 1.000000 1.000000
tan 0.926282 0.262261 0.262260 1.000000
tan 0.440945 0.007068 0.897638 1.000000
tan 0.929134 0.007316 0.370079 1.000000
tan 0.432823 -0.570091 0.695083 1.000000
tan 0.000000 -0.606299 0.795276 1.000000
tan 0.915990 -0.157976 0.360717 1.000000
tan 0.402753 -0.819889 0.381301 1.000000
tan 0.000000 -0.811023 0.582677 1.000000
f 3/3/3 2/2/2 1/1/1
f 4/4/4 1/1/1 2/2/2
f 2/2/2 5/5/5 4/4/4
f 6/6/6 4/4/4 5/5/5
f 6/6/6 5/5/5 7/7/7
f 8/8/8 7/7/7 5/5/5
f 7/7/7 8/8/8 9/9/9
f 10/10/10 9/9/9 8/8/8
f 9/9/9 10/10/10 11/11/11
f 12/12/12 11/11/11 10/10/10
f 11/11/11 12/12/12 13/13/13
f 14/14/14 13/13/13 12/12/12
f 13/13/13 14/14/14 15/15/15
f 16/16/16 15/15/15 14/14/14
f 15/15/15 16/16/16 17/17/17
f 18/18/18 17/17/17 16/16/16
f 21/21/21 20/20/20 19/19/19
f 19/19/19 20/20/20 22/22/22
f 19/19/19 22/22/22 23/23/23
f 23/23/23 22/22/22 24/24/24
f 20/20/20 25/25/25 22/22/22
f 22/22/22 25/25/25 24/24/24
f 24/24/24 25/25/25 26/26/26
f 25/25/25 27/27/27 26/26/26
f 28/28/28 27/27/27 25/25/25
f 29/29/29 28/28/28 25/25/25
f 30/30/30 28/28/28 29/29/29
f 30/30/30 27/27/27 28/28/28
f 27/27/27 30/30/30 31/31/31
f 30/30/30 32/32/32 31/31/31
f 30/30/30 33/33/33 32/32/32
f 34/34/34 32/32/32 33/33/33
f 33/33/33 35/35/35 34/34/34
f 34/34/34 35/35/35 36/36/36
f 37/37/37 36/36/36 35/35/35
f 36/36/36 38/38/38 34/34/34
f 37/37/37 39/39/39 36/36/36
f 36/36/36 40/40/40 38/38/38
f 36/36/36 39/39/39 41/41/41
f 36/36/36 41/41/41 40/40/40
f 44/44/44 43/43/43 42/42/42
f 42/42/42 43/43/43 45/45/45
f 43/43/43 46/46/46 45/45/45
f 45/45/45 47/47/47 42/42/42
f 48/48/48 45/45/45 46/46/46
f 46/46/46 49/49/49 48/48/48
f 50/50/50 47/47/47 45/45/45
f 45/45/45 48/48/48 50/50/50
f 50/50/50 51/51/51 47/47/47
f 52/52/52 47/47/47 51/51/51
f 53/53/53 50/50/50 48/48/48
f 51/51/51 54/54/54 52/52/52
f 55/55/55 52/52/52 54/54/54
f 56/56/56 51/51/51 50/50/50
f 50/50/50 53/53/53 56/56/56
f 54/54/54 51/51/51 57/57/57
f 51/51/51 56/56/56 57/57/57
f 54/54/54 58/58/58 55/55/55
f 59/59/59 55/55/55 58/58/58
f 57/57/57 60/60/60 54/54/54
f 58/58/58 54/54/54 60/60/60
f 58/58/58 61/61/61 59/59/59
f 62/62/62 59/59/59 61/61/61
f 61/61/61 63/63/63 62/62/62
f 64/64/64 61/61/61 58/58/58
f 58/58/58 60/60/60 64/64/64
f 61/61/61 65/65/65 63/63/63
f 61/61/61 64/64/64 65/65/65
f 63/63/63 65/65/65 66/66/66
f 66/66/66 65/65/65 67/67/67
f 65/65/65 68/68/68 67/67/67
f 68/68/68 65/65/65 64/64/64
f 69/69/69 67/67/67 68/68/68
f 68/68/68 70/70/70 69/69/69
f 68/68/68 64/64/64 70/70/70
f 71/71/71 69/69/69 70/70/70
f 71/71/71 70/70/70 72/72/72
f 73/73/73 70/70/70 64/64/64
f 64/64/64 60/60/60 73/73/73
f 74/74/74 72/72/72 70/70/70
f 74/74/74 70/70/70 73/73/73
f 72/72/72 74/74/74 75/75/75
f 76/76/76 75/75/75 74/74/74
f 74/74/74 77/77/77 76/76/76
f 77/77/77 74/74/74 73/73/73
f 78/78/78 76/76/76 77/77/77
f 79/79/79 78/78/78 77/77/77
f 79/79/79 77/77/77 80/80/80
f 77/77/77 73/73/73 80/80/80
f 79/79/79 80/80/80 81/81/81
f 82/82/82 80/80/80 73/73/73
f 82/82/82 73/73/73 60/60/60
f 83/83/83 81/81/81 80/80/80
f 80/80/80 82/82/82 83/83/83
f 81/81/81 83/83/83 84/84/84
f 82/82/82 60/60/60 85/85/85
f 85/85/85 83/83/83 82/82/82
f 57/57/57 85/85/85 60/60/60
f 84/84/84 83/83/83 86/86/86
f 83/83/83 85/85/85 86/86/86
f 84/84/84 86/86/86 87/87/87
f 85/85/85 57/57/57 88/88/88
f 88/88/88 86/86/86 85/85/85
f 56/56/56 88/88/88 57/57/57
f 87/87/87 86/86/86 89/89/89
f 86/86/86 88/88/88 89/89/89
f 88/88/88 56/56/56 90/90/90
f 90/90/90 89/89/89 88/88/88
f 53/53/53 90/90/90 56/56/56
f 89/89/89 91/91/91 87/87/87
f 92/92/92 87/87/87 91/91/91
f 89/89/89 90/90/90 93/93/93
f 90/90/90 53/53/53 93/93/93
f 93/93/93 91/91/91 89/89/89
f 48/48/48 93/93/93 53/53/53
f 93/93/93 48/48/48 49/49/49
f 91/91/91 93/93/93 49/49/49
f 94/94/94 91/91/91 49/49/49
f 91/91/91 94/94/94 92/92/92
f 95/95/95 92/92/92 94/94/94
