mtllib SM_FacadeOctagon_LOD1.mtl
g SM_FacadeOctagon_LOD1
#Vertices 94
#Indices 162
#Section 0 Offset 0 NumIndices 144 MaterialIndex 0 MI_WhiteFillBasic
#Section 1 Offset 144 NumIndices 12 MaterialIndex 1 MI_Windows01
#Section 2 Offset 156 NumIndices 6 MaterialIndex 2 MI_Brushed_Metal
v 1.676069 2.792665 0.103449
v 1.113758 2.372703 0.003173
v 1.162543 2.345589 0.576358
v 1.676069 2.792665 0.103449
v 2.247042 2.884760 0.600765
v 2.380043 2.907424 0.000730
v 2.867446 1.639609 0.207237
v 2.884535 2.373908 0.002136
v 2.827235 2.343539 0.593250
v 2.339272 1.151436 0.575170
v 1.672054 1.209401 0.087639
v 2.383284 1.107763 0.002189
v 2.383284 1.107763 0.002189
v 2.867446 1.639609 0.207237
v 2.339272 1.151436 0.575170
v 1.672054 1.209401 0.087639
v 1.211693 1.558771 0.605501
v 1.094574 1.618725 0.003949
v 1.000000 3.999999 3.000000
v 1.001774 4.003985 0.043124
v 3.000000 3.999999 3.000000
v 2.997455 4.000980 0.022662
v 4.004026 2.998236 0.042963
v 4.000000 1.000000 3.000000
v 4.000000 3.000000 3.000000
v 4.000989 1.002550 0.022761
v -0.004012 1.001763 0.043220
v 1.000000 -0.000000 3.000000
v 1.002576 -0.000985 0.022493
v 0.000000 1.000000 3.000000
v 1.211693 1.558771 0.605501
v 1.162543 2.345589 0.576358
v 1.113758 2.372703 0.003173
v 1.094574 1.618725 0.003949
v 0.000000 3.000000 3.000000
v -0.004012 1.001763 0.043220
v -0.000957 2.997410 0.022399
v 0.000000 1.000000 3.000000
v 2.380043 2.907424 0.000730
v 2.247042 2.884760 0.600765
v 2.884535 2.373908 0.002136
v 2.827235 2.343539 0.593250
v 0.000000 3.000000 3.000000
v 1.001774 4.003985 0.043124
v 1.000000 3.999999 3.000000
v -0.000957 2.997410 0.022399
v 4.000000 1.000000 3.000000
v 4.000989 1.002550 0.022761
v 2.998229 -0.004035 0.043037
v 3.000000 -0.000000 3.000000
v 4.004026 2.998236 0.042963
v 4.000000 3.000000 3.000000
v 3.000000 3.999999 3.000000
v 2.997455 4.000980 0.022662
v 2.998229 -0.004035 0.043037
v 1.002576 -0.000985 0.022493
v 1.000000 -0.000000 3.000000
v 3.000000 -0.000000 3.000000
v 1.000000 -0.000000 3.000000
v 4.000000 1.000000 3.000000
v 3.000000 -0.000000 3.000000
v 4.000000 3.000000 3.000000
v 0.000000 1.000000 3.000000
v 0.000000 3.000000 3.000000
v 1.000000 3.999999 3.000000
v 3.000000 3.999999 3.000000
v 4.004026 2.998236 0.042963
v 2.867446 1.639609 0.207237
v 4.000989 1.002550 0.022761
v 2.884535 2.373908 0.002136
v 2.383284 1.107763 0.002189
v 2.997455 4.000980 0.022662
v 2.998229 -0.004035 0.043037
v 2.380043 2.907424 0.000730
v 1.672054 1.209401 0.087639
v 1.001774 4.003985 0.043124
v 1.002576 -0.000985 0.022493
v 1.676069 2.792665 0.103449
v 1.094574 1.618725 0.003949
v -0.000957 2.997410 0.022399
v -0.004012 1.001763 0.043220
v 1.113758 2.372703 0.003173
v 2.867446 1.639609 0.207237
v 1.211693 1.558771 0.605501
v 2.339272 1.151436 0.575170
v 2.827235 2.343539 0.593250
v 2.247042 2.884760 0.600765
v 1.162543 2.345589 0.576358
v 1.162543 2.345589 0.576358
v 2.247042 2.884760 0.600765
v 1.676069 2.792665 0.103449
v 1.672054 1.209401 0.087639
v 2.339272 1.151436 0.575170
v 1.211693 1.558771 0.605501
vt 0.045044 1.095947
vt -0.059814 1.110901
vt -0.035919 1.026947
vt 0.069092 1.091736
vt 0.072632 0.987732
vt 0.173340 1.009514
vt 0.064331 0.811279
vt 0.166260 0.867065
vt 0.084229 0.911133
vt -0.031525 0.858643
vt -0.148926 0.879211
vt -0.069824 0.775879
vt -0.065552 0.777832
vt 0.046143 0.805542
vt -0.032623 0.859375
vt -0.152954 0.889954
vt -0.079041 0.963806
vt -0.162964 1.016891
vt 0.099243 -0.118164
vt 0.099060 0.310547
vt -0.115967 -0.118164
vt -0.115662 0.313965
vt 0.036407 0.334961
vt 0.251465 0.764160
vt 0.036224 0.764160
vt 0.251221 0.332031
vt 0.466309 0.310547
vt 0.618652 -0.118164
vt 0.619141 0.313965
vt 0.466797 -0.118164
vt -0.090576 0.962585
vt -0.036926 1.026337
vt -0.069702 1.108032
vt -0.165161 1.012878
vt 0.251465 -0.118164
vt 0.466553 0.310547
vt 0.251709 0.313965
vt 0.466797 -0.118164
vt 0.170898 1.013779
vt 0.080078 0.998544
vt 0.170410 0.876770
vt 0.084656 0.912720
vt 0.251465 -0.118164
vt 0.098816 0.310547
vt 0.099243 -0.118164
vt 0.251709 0.313965
vt 0.251465 0.764160
vt 0.251221 0.332031
vt 0.404053 0.334961
vt 0.403564 0.764160
vt 0.036652 0.334961
vt 0.036224 0.764160
vt -0.115967 0.764160
vt -0.116211 0.332031
vt 0.403809 0.334961
vt 0.618652 0.332031
vt 0.618652 0.764160
vt 0.403564 0.764160
vt 1.018555 0.346680
vt 0.644043 0.471680
vt 0.769043 0.346680
vt 0.644043 0.721680
vt 1.143555 0.471680
vt 1.143555 0.721680
vt 1.018555 0.846558
vt 0.769043 0.846558
vt 1.025391 -0.144531
vt 0.857422 -0.002930
vt 0.777832 -0.142578
vt 0.949219 -0.005859
vt 0.790527 0.059570
vt 1.151367 -0.018555
vt 0.652344 -0.016602
vt 1.015625 0.057129
vt 0.802246 0.148926
vt 1.151367 0.229980
vt 0.652344 0.231934
vt 1.000977 0.145996
vt 0.854004 0.221680
vt 1.026367 0.355957
vt 0.778320 0.357422
vt 0.948242 0.217773
vt 0.714844 -0.089844
vt -0.077271 0.669678
vt 0.243896 -0.052734
vt 1.037109 0.256836
vt 1.020508 0.786743
vt 0.261963 1.045013
vt -0.037689 1.030304
vt 0.083130 0.991615
vt 0.039154 1.045410
vt -0.097717 0.900574
vt -0.035889 0.856201
vt -0.088074 0.969070
vt1 0.827637 0.991066
vt1 0.751953 1.001844
vt1 0.769043 0.941193
vt1 0.845215 0.988022
vt1 0.847656 0.912842
vt1 0.920410 0.928589
vt1 0.841797 0.785278
vt1 0.915039 0.825562
vt1 0.855957 0.857422
vt1 0.772461 0.819458
vt1 0.687500 0.834351
vt1 0.744629 0.759766
vt1 0.747559 0.761108
vt1 0.828613 0.781128
vt1 0.771484 0.820068
vt1 0.684570 0.842163
vt1 0.737793 0.895508
vt1 0.677246 0.933899
vt1 0.198853 0.427734
vt1 0.198730 0.709961
vt1 0.008064 0.427734
vt1 0.008301 0.711914
vt1 0.143188 0.709717
vt1 0.333740 0.991936
vt1 0.142944 0.991936
vt1 0.333496 0.707764
vt1 0.524414 0.709961
vt1 0.659668 0.427734
vt1 0.659668 0.712158
vt1 0.524414 0.427734
vt1 0.729492 0.894653
vt1 0.768555 0.940735
vt1 0.744629 0.999787
vt1 0.675781 0.931030
vt1 0.333740 0.427734
vt1 0.524414 0.709961
vt1 0.333984 0.712158
vt1 0.524414 0.427734
vt1 0.918457 0.931702
vt1 0.853027 0.920654
vt1 0.918457 0.832642
vt1 0.856445 0.858643
vt1 0.333740 0.427734
vt1 0.198486 0.709961
vt1 0.198853 0.427734
vt1 0.333984 0.712158
vt1 0.333740 0.991936
vt1 0.333496 0.707764
vt1 0.469238 0.709717
vt1 0.468750 0.991936
vt1 0.143433 0.709717
vt1 0.142944 0.991936
vt1 0.008064 0.991936
vt1 0.007820 0.707764
vt1 0.468994 0.709717
vt1 0.659180 0.707764
vt1 0.659668 0.991936
vt1 0.468750 0.991936
vt1 0.713379 0.029785
vt1 0.427246 0.125000
vt1 0.522461 0.029785
vt1 0.427246 0.315918
vt1 0.809082 0.125000
vt1 0.809082 0.315918
vt1 0.713379 0.411621
vt1 0.522461 0.411621
vt1 0.298828 0.022461
vt1 0.170410 0.130371
vt1 0.109497 0.023926
vt1 0.240479 0.128418
vt1 0.119202 0.178711
vt1 0.395264 0.118652
vt1 0.013611 0.119629
vt1 0.291748 0.176758
vt1 0.128174 0.246582
vt1 0.395508 0.308594
vt1 0.013710 0.310059
vt1 0.280518 0.244141
vt1 0.167847 0.302246
vt1 0.299561 0.404785
vt1 0.110046 0.405762
vt1 0.239746 0.299316
vt1 0.787109 0.595947
vt1 0.672363 0.705811
vt1 0.718750 0.601318
vt1 0.833984 0.645996
vt1 0.831543 0.722900
vt1 0.721680 0.760132
vt1 0.767578 0.943604
vt1 0.854980 0.915649
vt1 0.823242 0.954529
vt1 0.724609 0.849854
vt1 0.769043 0.817749
vt1 0.731445 0.899353
vn 0.708661 -0.708661 0.000000
vn 0.708661 -0.708661 0.000000
vn 0.708661 -0.708661 0.000000
vn 0.000000 -1.000000 0.000000
vn 0.000000 -1.000000 0.000000
vn 0.000000 -1.000000 0.000000
vn -1.000000 0.000000 0.000000
vn -1.000000 0.000000 0.000000
vn -1.000000 0.000000 0.000000
vn 0.000000 1.000000 -0.000000
vn 0.000000 1.000000 -0.000000
vn 0.000000 1.000000 -0.000000
vn -0.708661 0.708661 -0.000000
vn -0.708661 0.708661 -0.000000
vn -0.708661 0.708661 -0.000000
vn 0.708661 0.708661 -0.000000
vn 0.708661 0.708661 -0.000000
vn 0.708661 0.708661 -0.000000
vn 0.000000 1.000000 -0.000000
vn 0.000000 1.000000 -0.000000
vn 0.000000 1.000000 -0.000000
vn 0.000000 1.000000 -0.000000
vn 1.000000 0.000000 0.000000
vn 1.000000 0.000000 0.000000
vn 1.000000 0.000000 0.000000
vn 1.000000 0.000000 0.000000
vn -0.708661 -0.708661 0.000000
vn -0.708661 -0.708661 0.000000
vn -0.708661 -0.708661 0.000000
vn -0.708661 -0.708661 0.000000
vn 1.000000 0.000000 0.000000
vn 1.000000 0.000000 0.000000
vn 1.000000 0.000000 0.000000
vn 1.000000 0.000000 0.000000
vn -1.000000 0.000000 0.000000
vn -1.000000 0.000000 0.000000
vn -1.000000 0.000000 0.000000
vn -1.000000 0.000000 0.000000
vn -0.708661 -0.708661 0.000000
vn -0.708661 -0.708661 0.000000
vn -0.708661 -0.708661 0.000000
vn -0.708661 -0.708661 0.000000
vn -0.708661 0.708661 -0.000000
vn -0.708661 0.708661 -0.000000
vn -0.708661 0.708661 -0.000000
vn -0.708661 0.708661 -0.000000
vn 0.708661 -0.708661 0.000000
vn 0.708661 -0.708661 0.000000
vn 0.708661 -0.708661 0.000000
vn 0.708661 -0.708661 0.000000
vn 0.708661 0.708661 -0.000000
vn 0.708661 0.708661 -0.000000
vn 0.708661 0.708661 -0.000000
vn 0.708661 0.708661 -0.000000
vn 0.000000 -1.000000 0.000000
vn 0.000000 -1.000000 0.000000
vn 0.000000 -1.000000 0.000000
vn 0.000000 -1.000000 0.000000
vn 0.000000 0.000000 1.000000
vn 0.000000 0.000000 1.000000
vn 0.000000 0.000000 1.000000
vn 0.000000 0.000000 1.000000
vn 0.000000 0.000000 1.000000
vn 0.000000 0.000000 1.000000
vn 0.000000 0.000000 1.000000
vn 0.000000 0.000000 1.000000
vn 0.000000 -0.000000 -1.000000
vn 0.000000 -0.000000 -1.000000
vn 0.000000 -0.000000 -1.000000
vn 0.000000 -0.000000 -1.000000
vn 0.000000 -0.000000 -1.000000
vn 0.000000 -0.000000 -1.000000
vn 0.000000 -0.000000 -1.000000
vn 0.000000 -0.000000 -1.000000
vn 0.000000 -0.000000 -1.000000
vn 0.000000 -0.000000 -1.000000
vn 0.000000 -0.000000 -1.000000
vn 0.000000 -0.000000 -1.000000
vn 0.000000 -0.000000 -1.000000
vn 0.000000 -0.000000 -1.000000
vn 0.000000 -0.000000 -1.000000
vn 0.000000 -0.000000 -1.000000
vn 0.000000 -0.000000 -1.000000
vn 0.000000 -0.000000 -1.000000
vn 0.000000 -0.000000 -1.000000
vn 0.000000 -0.000000 -1.000000
vn 0.000000 -0.000000 -1.000000
vn 0.000000 -0.000000 -1.000000
vn 0.488189 -0.212599 -0.850394
vn -0.125984 -0.535433 -0.834646
vn 0.212598 -0.496063 -0.842520
vn 0.196850 0.503937 -0.842520
vn -0.212598 0.488189 -0.850394
vn 0.464567 0.291338 -0.834646
tan 0.000000 0.000000 0.998822 1.000000
tan -0.027900 -0.027900 0.998822 1.000000
tan -0.044640 -0.044640 0.998822 1.000000
tan 0.661417 0.000000 0.748031 1.000000
tan 0.740157 0.000000 0.677165 1.000000
tan 0.944882 0.000000 0.330709 1.000000
tan 0.000000 -0.645669 -0.763779 1.000000
tan 0.000000 -0.700787 -0.708661 1.000000
tan 0.000000 -0.748031 -0.661417 1.000000
tan 0.748031 -0.000000 -0.669291 1.000000
tan 0.787402 -0.000000 -0.622047 1.000000
tan 0.653543 -0.000000 -0.755905 1.000000
tan 0.055800 0.055800 -0.998822 1.000000
tan 0.161820 0.161820 -0.976502 1.000000
tan -0.022320 -0.022320 -0.998822 1.000000
tan 0.708661 -0.708661 -0.022320 1.000000
tan 0.708661 -0.708661 0.000000 1.000000
tan 0.703081 -0.703081 0.111600 1.000000
tan 0.000000 0.000000 1.000000 1.000000
tan 0.000000 0.000000 1.000000 1.000000
tan 0.000000 0.000000 1.000000 1.000000
tan 0.000000 0.000000 1.000000 1.000000
tan 0.000000 -0.000000 -1.000000 1.000000
tan 0.000000 -0.000000 -1.000000 1.000000
tan 0.000000 -0.000000 -1.000000 1.000000
tan 0.000000 -0.000000 -1.000000 1.000000
tan 0.000000 0.000000 1.004402 1.000000
tan 0.000000 0.000000 1.004402 1.000000
tan 0.000000 0.000000 1.004402 1.000000
tan 0.000000 0.000000 1.004402 1.000000
tan 0.000000 -0.771653 0.637795 1.000000
tan 0.000000 -0.440945 0.897638 1.000000
tan 0.000000 -0.653543 0.755905 1.000000
tan 0.000000 -0.897638 0.433071 1.000000
tan 0.000000 0.000000 1.000000 1.000000
tan 0.000000 0.000000 1.000000 1.000000
tan 0.000000 0.000000 1.000000 1.000000
tan 0.000000 0.000000 1.000000 1.000000
tan 0.703081 -0.703081 0.089280 1.000000
tan 0.708661 -0.708661 0.005580 1.000000
tan 0.708661 -0.708661 -0.066960 1.000000
tan 0.697501 -0.697501 -0.178560 1.000000
tan 0.000000 0.000000 1.004402 1.000000
tan 0.000000 0.000000 1.004402 1.000000
tan 0.000000 0.000000 1.004402 1.000000
tan 0.000000 0.000000 1.004402 1.000000
tan 0.000000 -0.000000 -1.004402 1.000000
tan 0.000000 -0.000000 -1.004402 1.000000
tan 0.000000 -0.000000 -1.004402 1.000000
tan 0.000000 -0.000000 -1.004402 1.000000
tan 0.000000 -0.000000 -1.004402 1.000000
tan 0.000000 -0.000000 -1.004402 1.000000
tan 0.000000 -0.000000 -1.004402 1.000000
tan 0.000000 -0.000000 -1.004402 1.000000
tan 0.000000 -0.000000 -1.000000 1.000000
tan 0.000000 -0.000000 -1.000000 1.000000
tan 0.000000 -0.000000 -1.000000 1.000000
tan 0.000000 -0.000000 -1.000000 1.000000
tan 0.000000 -1.000000 0.000000 1.000000
tan 0.000000 -1.000000 0.000000 1.000000
tan 0.000000 -1.000000 0.000000 1.000000
tan 0.000000 -1.000000 0.000000 1.000000
tan 0.000000 -1.000000 0.000000 1.000000
tan 0.000000 -1.000000 0.000000 1.000000
tan 0.000000 -1.000000 0.000000 1.000000
tan 0.000000 -1.000000 0.000000 1.000000
tan 1.000000 0.000000 0.000000 1.000000
tan 1.000000 0.015748 -0.000000 1.000000
tan 1.000000 0.007874 -0.000000 1.000000
tan 1.000000 0.007874 -0.000000 1.000000
tan 1.000000 0.007874 -0.000000 1.000000
tan 1.000000 -0.007874 0.000000 1.000000
tan 1.000000 0.000000 0.000000 1.000000
tan 1.000000 -0.007874 0.000000 1.000000
tan 1.000000 0.000000 0.000000 1.000000
tan 1.000000 0.000000 0.000000 1.000000
tan 1.000000 -0.007874 0.000000 1.000000
tan 1.000000 0.007874 -0.000000 1.000000
tan 1.000000 0.007874 -0.000000 1.000000
tan 1.000000 0.007874 -0.000000 1.000000
tan 1.000000 0.000000 0.000000 1.000000
tan 1.000000 0.015748 -0.000000 1.000000
tan 0.724409 -0.685039 0.000000 1.000000
tan 0.724409 -0.692913 0.000000 1.000000
tan 0.732283 -0.685039 0.000000 1.000000
tan 0.724409 -0.692913 0.000000 1.000000
tan 0.716535 -0.692913 0.000000 1.000000
tan 0.708661 -0.708661 0.000000 1.000000
tan 0.731539 -0.433381 0.528303 1.000000
tan 0.253457 -0.805753 0.478641 1.000000
tan 0.403125 -0.744621 0.540145 1.000000
tan 0.376713 -0.781946 -0.379689 1.000000
tan 0.416145 -0.739910 -0.528799 1.000000
tan 0.688387 -0.504619 0.207018 1.000000
f 3/3/3 2/2/2 1/1/1
f 6/6/6 5/5/5 4/4/4
f 9/9/9 8/8/8 7/7/7
f 12/12/12 11/11/11 10/10/10
f 15/15/15 14/14/14 13/13/13
f 18/18/18 17/17/17 16/16/16
f 21/21/21 20/20/20 19/19/19
f 22/22/22 20/20/20 21/21/21
f 25/25/25 24/24/24 23/23/23
f 26/26/26 23/23/23 24/24/24
f 29/29/29 28/28/28 27/27/27
f 30/30/30 27/27/27 28/28/28
f 33/33/33 32/32/32 31/31/31
f 31/31/31 34/34/34 33/33/33
f 37/37/37 36/36/36 35/35/35
f 38/38/38 35/35/35 36/36/36
f 41/41/41 40/40/40 39/39/39
f 42/42/42 40/40/40 41/41/41
f 45/45/45 44/44/44 43/43/43
f 46/46/46 43/43/43 44/44/44
f 49/49/49 48/48/48 47/47/47
f 47/47/47 50/50/50 49/49/49
f 53/53/53 52/52/52 51/51/51
f 51/51/51 54/54/54 53/53/53
f 57/57/57 56/56/56 55/55/55
f 58/58/58 57/57/57 55/55/55
f 61/61/61 60/60/60 59/59/59
f 60/60/60 62/62/62 59/59/59
f 59/59/59 62/62/62 63/63/63
f 63/63/63 62/62/62 64/64/64
f 65/65/65 64/64/64 62/62/62
f 66/66/66 65/65/65 62/62/62
f 69/69/69 68/68/68 67/67/67
f 70/70/70 67/67/67 68/68/68
f 68/68/68 69/69/69 71/71/71
f 67/67/67 70/70/70 72/72/72
f 73/73/73 71/71/71 69/69/69
f 74/74/74 72/72/72 70/70/70
f 71/71/71 73/73/73 75/75/75
f 72/72/72 74/74/74 76/76/76
f 77/77/77 75/75/75 73/73/73
f 78/78/78 76/76/76 74/74/74
f 75/75/75 77/77/77 79/79/79
f 76/76/76 78/78/78 80/80/80
f 81/81/81 79/79/79 77/77/77
f 82/82/82 80/80/80 78/78/78
f 79/79/79 81/81/81 82/82/82
f 80/80/80 82/82/82 81/81/81
f 85/85/85 84/84/84 83/83/83
f 86/86/86 83/83/83 84/84/84
f 86/86/86 84/84/84 87/87/87
f 88/88/88 87/87/87 84/84/84
f 91/91/91 90/90/90 89/89/89
f 94/94/94 93/93/93 92/92/92
