mtllib SM_FacadeFlat_LOD2.mtl
g SM_FacadeFlat_LOD2
#Vertices 8
#Indices 21
#Section 0 Offset 0 NumIndices 21 MaterialIndex 2 MI_Brick_Wall
v 2.255922 3.000000 -0.000000
v 3.000000 0.000000 0.000000
v 3.000000 3.000000 -0.000000
v 2.245093 0.000000 0.000000
v 1.455144 3.000000 -0.000000
v 1.430722 0.794408 -0.000000
v -0.000000 0.000000 -0.000000
v -0.000000 3.000000 -0.000000
vt 0.585449 1.000496
vt 0.666504 0.666260
vt 0.666504 1.000383
vt 0.583984 0.666504
vt 0.495361 1.000582
vt 0.492676 0.754517
vt 0.333740 0.666504
vt 0.333740 1.000469
vt1 0.751953 0.993279
vt1 0.990234 0.006348
vt1 0.990234 0.992947
vt1 0.747559 0.006836
vt1 0.485107 0.993534
vt1 0.477783 0.266602
vt1 0.008064 0.006836
vt1 0.008064 0.993202
vn 0.000000 -0.000000 -1.000000
vn 0.000000 -0.000000 -1.000000
vn 0.000000 -0.000000 -1.000000
vn 0.000000 -0.000000 -1.000000
vn 0.000000 -0.000000 -1.000000
vn 0.000000 -0.000000 -1.000000
vn 0.000000 -0.000000 -1.000000
vn 0.000000 -0.000000 -1.000000
tan 0.000000 -1.000000 0.000000 1.000000
tan 0.000000 -1.000000 0.000000 1.000000
tan 0.000000 -1.000000 0.000000 1.000000
tan 0.000000 -1.000000 0.000000 1.000000
tan 0.000000 -1.000000 0.000000 1.000000
tan 0.000000 -1.000000 0.000000 1.000000
tan 0.000000 -1.000000 0.000000 1.000000
tan 0.000000 -1.000000 0.000000 1.000000
f 3/3/3 2/2/2 1/1/1
f 4/4/4 1/1/1 2/2/2
f 4/4/4 5/5/5 1/1/1
f 6/6/6 5/5/5 4/4/4
f 4/4/4 7/7/7 6/6/6
f 5/5/5 6/6/6 8/8/8
f 7/7/7 8/8/8 6/6/6
