mtllib SM_FacadeTop_b_LOD3.mtl
g SM_FacadeTop_b_LOD3
#Vertices 16
#Indices 24
#Section 0 Offset 0 NumIndices 12 MaterialIndex 0 MI_Metal_Darkgrey
#Section 1 Offset 12 NumIndices 12 MaterialIndex 1 MI_Brushed_Metal
v -0.003275 3.766418 2.498122
v -0.000000 0.805192 2.500000
v 2.999999 0.805194 2.500001
v 2.982139 3.837353 2.485848
v 2.995019 0.821609 -0.410761
v 2.999999 0.805194 2.500001
v 0.000001 0.809914 -0.402058
v -0.000000 0.805192 2.500000
v 2.995019 0.821609 -0.410761
v 0.000001 0.809914 -0.402058
v -0.000000 0.508652 -0.500000
v 3.000000 0.508652 -0.500000
v 3.000000 0.508652 -0.500000
v -0.000000 0.508652 -0.500000
v 0.000002 0.178537 0.056390
v 2.961086 0.171346 0.051958
vt 0.112793 0.484863
vt 0.113159 0.114746
vt 0.488037 0.114746
vt 0.485840 0.494141
vt 0.854492 0.489258
vt 0.490967 0.489746
vt 0.853516 0.115234
vt 0.490967 0.115234
vt 0.506348 0.866943
vt 0.509277 0.493164
vt 0.546875 0.493164
vt 0.546875 0.867676
vt 0.546875 0.867676
vt 0.546875 0.493164
vt 0.627930 0.493164
vt 0.627930 0.862793
vt1 0.007526 0.921082
vt1 0.008064 0.437012
vt1 0.498535 0.437012
vt1 0.495605 0.932678
vt1 1.000000 0.991119
vt1 0.523926 0.991936
vt1 0.998535 0.501465
vt1 0.523926 0.501465
vt1 0.009079 0.225586
vt1 0.498535 0.229492
vt1 0.498535 0.278809
vt1 0.008064 0.278809
vt1 0.008064 0.278809
vt1 0.498535 0.278809
vt1 0.498535 0.384277
vt1 0.014519 0.384277
vn 0.000000 -0.000000 -1.000000
vn 0.000000 -0.000000 -1.000000
vn 0.000000 -0.000000 -1.000000
vn 0.000000 -0.000000 -1.000000
vn 0.000000 1.000000 -0.000000
vn 0.000000 1.000000 -0.000000
vn 0.000000 1.000000 -0.000000
vn 0.000000 1.000000 -0.000000
vn 0.000000 -0.000000 -1.000000
vn 0.000000 -0.000000 -1.000000
vn 0.000000 -0.000000 -1.000000
vn 0.000000 -0.000000 -1.000000
vn 0.000000 -0.889764 -0.456693
vn 0.000000 -0.889764 -0.456693
vn 0.000000 -0.889764 -0.456693
vn 0.000000 -0.889764 -0.456693
tan 0.000000 -1.000000 0.000000 1.000000
tan 0.000000 -1.000000 0.000000 1.000000
tan 0.000000 -1.000000 0.000000 1.000000
tan 0.000000 -1.000000 0.000000 1.000000
tan -1.000000 0.000000 0.000000 1.000000
tan -1.000000 0.000000 0.000000 1.000000
tan -1.000000 0.000000 0.000000 1.000000
tan -1.000000 0.000000 0.000000 1.000000
tan -1.000000 0.000000 0.000000 1.000000
tan -1.000000 0.000000 0.000000 1.000000
tan -1.000000 0.000000 0.000000 1.000000
tan -1.000000 0.000000 0.000000 1.000000
tan -0.893360 0.000000 0.000000 1.000000
tan -0.943890 0.000000 0.000000 1.000000
tan -0.907744 0.000000 0.000000 1.000000
tan -0.889764 0.000000 0.000000 1.000000
f 3/3/3 2/2/2 1/1/1
f 4/4/4 3/3/3 1/1/1
f 7/7/7 6/6/6 5/5/5
f 8/8/8 6/6/6 7/7/7
f 11/11/11 10/10/10 9/9/9
f 12/12/12 11/11/11 9/9/9
f 15/15/15 14/14/14 13/13/13
f 16/16/16 15/15/15 13/13/13
