mtllib SM_FacadeCornerRound_LOD3.mtl
g SM_FacadeCornerRound_LOD3
#Vertices 24
#Indices 60
#Section 0 Offset 0 NumIndices 51 MaterialIndex 2 MI_Brick_Wall
#Section 1 Offset 51 NumIndices 9 MaterialIndex 1 MI_Windows01
v 1.739491 0.036329 0.015377
v -0.000000 3.000000 -0.000000
v -0.000000 -0.000000 0.000000
v 1.737733 0.537913 0.033607
v 1.702165 2.603618 0.028771
v 2.171295 2.952580 0.124475
v 2.190498 0.390212 0.271516
v 2.851182 0.047291 0.765646
v 2.146468 2.458665 0.248829
v 2.862837 2.601856 1.044640
v 2.966788 2.959157 1.314010
v 2.999725 0.377077 1.260294
v 3.000000 3.000000 3.000000
v 2.713169 0.548630 0.873302
v 3.000000 0.000000 3.000000
v 1.737733 0.537913 0.033607
v 1.739491 0.036329 0.015377
v 2.190498 0.390212 0.271516
v 2.171295 2.952580 0.124475
v 1.702165 2.603618 0.028771
v 2.146468 2.458665 0.248829
v 2.713169 0.548630 0.873302
v 2.851182 0.047291 0.765646
v 2.999725 0.377077 1.260294
vt 0.525879 0.337891
vt 0.333008 0.666992
vt 0.333008 0.333496
vt 0.525879 0.393555
vt 0.521484 0.622314
vt 0.573242 0.661621
vt 0.581055 0.377441
vt 0.688477 0.338867
vt 0.577637 0.606445
vt 0.718262 0.622070
vt 0.747070 0.662109
vt 0.743164 0.375977
vt 0.918945 0.666992
vt 0.689941 0.394531
vt 0.918945 0.333496
vt 0.404541 0.236816
vt 0.398193 0.291016
vt 0.347656 0.252930
vt 0.178223 0.315918
vt 0.135010 0.278320
vt 0.189819 0.262207
vt 0.288574 0.360352
vt 0.292480 0.304688
vt 0.341064 0.339844
vt1 0.332031 0.439453
vt1 0.008064 0.991936
vt1 0.008064 0.432617
vt1 0.331787 0.532959
vt1 0.324707 0.917297
vt1 0.411865 0.982925
vt1 0.424316 0.506348
vt1 0.604492 0.440918
vt1 0.418945 0.890564
vt1 0.654297 0.916931
vt1 0.703613 0.983856
vt1 0.696777 0.503906
vt1 0.991699 0.991936
vt1 0.607422 0.534668
vt1 0.991699 0.432617
vt1 0.443115 0.076660
vt1 0.423340 0.241699
vt1 0.270020 0.125000
vt1 0.409912 0.434082
vt1 0.278564 0.319336
vt1 0.445068 0.269043
vt1 0.519531 0.381836
vt1 0.530762 0.211426
vt1 0.678223 0.318848
vn 0.228346 -0.000000 -0.976378
vn 0.000000 -0.000000 -1.000000
vn 0.000000 -0.000000 -1.000000
vn 0.244094 -0.000000 -0.968504
vn 0.244094 -0.000000 -0.968504
vn 0.401575 -0.000000 -0.913386
vn 0.456693 -0.000000 -0.889764
vn 0.905512 -0.000000 -0.425197
vn 0.456693 -0.000000 -0.889764
vn 0.944882 -0.000000 -0.330709
vn 0.968504 -0.000000 -0.236220
vn 0.968504 -0.000000 -0.244094
vn 1.000000 0.000000 0.000000
vn 0.921260 -0.000000 -0.385827
vn 1.000000 0.000000 0.000000
vn 0.385827 -0.000000 -0.921260
vn 0.385827 -0.000000 -0.921260
vn 0.385827 -0.000000 -0.921260
vn 0.385827 -0.000000 -0.921260
vn 0.385827 -0.000000 -0.921260
vn 0.385827 -0.000000 -0.921260
vn 0.921260 -0.000000 -0.385827
vn 0.921260 -0.000000 -0.385827
vn 0.921260 -0.000000 -0.385827
tan 0.000000 -0.976378 0.000000 1.000000
tan 0.000000 -1.000000 0.000000 1.000000
tan 0.000000 -1.000000 0.000000 1.000000
tan 0.000000 -0.968504 0.000000 1.000000
tan 0.000000 -0.968504 0.000000 1.000000
tan 0.000000 -0.916548 0.000000 1.000000
tan 0.000000 -0.900552 0.000000 1.000000
tan 0.000000 -0.912208 0.000000 1.000000
tan 0.000000 -0.918532 0.000000 1.000000
tan 0.000000 -0.939674 0.000000 1.000000
tan 0.000000 -0.968504 0.000000 1.000000
tan 0.000000 -0.968504 0.000000 1.000000
tan 0.000000 -1.000000 0.000000 1.000000
tan 0.000000 -0.927336 0.000000 1.000000
tan 0.000000 -1.000000 0.000000 1.000000
tan 0.050778 0.921260 0.021266 1.000000
tan 0.043524 0.921260 0.018228 1.000000
tan 0.058032 0.921260 0.024304 1.000000
tan -0.036270 -0.927336 -0.015190 1.000000
tan -0.050778 -0.921260 -0.021266 1.000000
tan -0.050778 -0.921260 -0.021266 1.000000
tan -0.018228 -0.927336 -0.043524 1.000000
tan -0.015190 -0.927336 -0.036270 1.000000
tan -0.021266 -0.921260 -0.050778 1.000000
f 3/3/3 2/2/2 1/1/1
f 4/4/4 1/1/1 2/2/2
f 5/5/5 4/4/4 2/2/2
f 5/5/5 2/2/2 6/6/6
f 7/7/7 4/4/4 5/5/5
f 7/7/7 8/8/8 1/1/1
f 9/9/9 7/7/7 5/5/5
f 10/10/10 9/9/9 6/6/6
f 10/10/10 6/6/6 11/11/11
f 12/12/12 7/7/7 9/9/9
f 9/9/9 10/10/10 12/12/12
f 10/10/10 11/11/11 12/12/12
f 7/7/7 12/12/12 8/8/8
f 11/11/11 13/13/13 12/12/12
f 14/14/14 8/8/8 12/12/12
f 13/13/13 15/15/15 12/12/12
f 12/12/12 15/15/15 8/8/8
f 18/18/18 17/17/17 16/16/16
f 21/21/21 20/20/20 19/19/19
f 24/24/24 23/23/23 22/22/22
