mtllib SM_FacadeCornerRound_LOD1.mtl
g SM_FacadeCornerRound_LOD1
#Vertices 108
#Indices 252
#Section 0 Offset 0 NumIndices 204 MaterialIndex 2 MI_Brick_Wall
#Section 1 Offset 204 NumIndices 48 MaterialIndex 1 MI_Windows01
v 2.116124 0.954161 0.305894
v 1.715971 0.957298 0.096703
v 2.165371 0.955103 0.226552
v 1.706994 1.300229 0.112042
v 2.116124 1.295838 0.305894
v 2.163013 1.291546 0.222174
v 2.694106 1.704161 0.883876
v 2.712442 2.049860 0.861741
v 2.730606 1.704357 0.747868
v 2.887743 2.449977 1.293116
v 2.694106 2.454161 0.883876
v 2.767566 2.453676 0.835096
v 2.694106 2.454161 0.883876
v 2.728227 2.796381 0.869367
v 2.767566 2.453676 0.835096
v 1.707493 2.048547 0.113539
v 1.624941 1.703096 0.010084
v 1.701588 1.704161 0.134188
v 1.707493 2.048547 0.113539
v 2.116124 2.045838 0.305894
v 2.249394 2.043994 0.267348
v 1.624941 1.703096 0.010084
v 2.136786 1.699842 0.286598
v 1.701588 1.704161 0.134188
v 2.136786 1.699842 0.286598
v 2.249394 2.043994 0.267348
v 2.116124 2.045838 0.305894
v 2.894191 1.704213 1.286659
v 2.694106 1.704161 0.883876
v 2.730606 1.704357 0.747868
v 2.163013 1.291546 0.222174
v 2.116124 0.954161 0.305894
v 2.165371 0.955103 0.226552
v 2.116124 1.295838 0.305894
v 1.536188 -0.000000 0.000000
v -0.000000 3.000000 -0.000000
v -0.000000 -0.000000 0.000000
v 2.128812 0.204378 0.271452
v 1.717977 0.206795 0.097375
v 1.737733 0.537913 0.033607
v 2.533477 -0.000036 0.475334
v 2.132588 0.543334 0.259243
v 2.165371 0.955103 0.226552
v 1.715971 0.957298 0.096703
v 1.624941 1.703096 0.010084
v 1.706994 1.300229 0.112042
v 2.163013 1.291546 0.222174
v 1.732206 2.446383 0.033432
v 1.536188 3.000000 -0.000000
v 2.136786 1.699842 0.286598
v 1.707493 2.048547 0.113539
v 2.249394 2.043994 0.267348
v 1.714237 2.794313 0.102940
v 2.128040 2.454355 0.276524
v 2.524665 3.000036 0.466523
v 2.134359 2.793804 0.263594
v 2.767566 2.453676 0.835096
v 2.728227 2.796381 0.869367
v 3.000000 3.000000 1.463812
v 2.902573 2.793273 1.282105
v 2.968075 2.048110 1.272274
v 2.887743 2.449977 1.293116
v 3.000000 3.000000 3.000000
v 2.712442 2.049860 0.861741
v 2.730606 1.704357 0.747868
v 2.985397 1.297359 1.270029
v 2.894191 1.704213 1.286659
v 3.000000 0.000000 3.000000
v 2.716696 1.298580 0.869441
v 2.783964 0.952707 0.838957
v 2.967105 0.545727 1.266599
v 2.894191 0.954213 1.286658
v 3.000000 0.000000 1.463812
v 2.713169 0.548630 0.873302
v 2.896489 0.207061 1.284983
v 2.735746 0.207185 0.867135
v 2.132588 0.543334 0.259243
v 1.737733 0.537913 0.033607
v 2.128812 0.204378 0.271452
v 1.717977 0.206795 0.097375
v 2.728227 2.796381 0.869367
v 2.694106 2.454161 0.883876
v 2.887743 2.449977 1.293116
v 2.902573 2.793273 1.282105
v 2.134359 2.793804 0.263594
v 1.714237 2.794313 0.102940
v 2.128040 2.454355 0.276524
v 1.732206 2.446383 0.033432
v 2.116124 2.045838 0.305894
v 1.707493 2.048547 0.113539
v 2.136786 1.699842 0.286598
v 1.701588 1.704161 0.134188
v 2.116124 1.295838 0.305894
v 1.706994 1.300229 0.112042
v 2.116124 0.954161 0.305894
v 1.715971 0.957298 0.096703
v 2.713169 0.548630 0.873302
v 2.735746 0.207185 0.867135
v 2.896489 0.207061 1.284983
v 2.967105 0.545727 1.266599
v 2.716696 1.298580 0.869441
v 2.783964 0.952707 0.838957
v 2.894191 0.954213 1.286658
v 2.985397 1.297359 1.270029
v 2.712442 2.049860 0.861741
v 2.694106 1.704161 0.883876
v 2.894191 1.704213 1.286659
v 2.968075 2.048110 1.272274
vt 0.421875 0.190430
vt 0.480225 0.197266
vt 0.405518 0.205566
vt 0.477539 0.149414
vt 0.427002 0.151367
vt 0.415771 0.137695
vt 0.063049 0.259766
vt 0.053986 0.307129
vt 0.049377 0.248535
vt 0.274902 0.318359
vt 0.217041 0.321289
vt 0.200684 0.309082
vt 0.217041 0.321289
vt 0.206177 0.369141
vt 0.203247 0.309082
vt 0.131592 0.367676
vt 0.126465 0.309082
vt 0.140015 0.321289
vt 0.133423 0.363281
vt 0.183960 0.361816
vt 0.210693 0.374023
vt 0.112122 0.309082
vt 0.192017 0.318848
vt 0.140015 0.321289
vt 0.193237 0.320312
vt 0.197754 0.372559
vt 0.183960 0.361816
vt 0.119995 0.256348
vt 0.063049 0.259766
vt 0.034058 0.248047
vt 0.411865 0.145508
vt 0.421875 0.190430
vt 0.407715 0.205078
vt 0.427002 0.151367
vt 0.503418 0.333496
vt 0.333008 0.666992
vt 0.333008 0.333496
vt 0.576172 0.355957
vt 0.526855 0.356445
vt 0.525879 0.393555
vt 0.634277 0.333496
vt 0.575684 0.394043
vt 0.575195 0.439941
vt 0.526367 0.439941
vt 0.513672 0.522705
vt 0.525879 0.478027
vt 0.574707 0.477051
vt 0.525391 0.605225
vt 0.503418 0.666992
vt 0.577637 0.522705
vt 0.525879 0.561035
vt 0.586426 0.560547
vt 0.526367 0.644287
vt 0.576172 0.606201
vt 0.632324 0.666992
vt 0.576172 0.644043
vt 0.690430 0.605957
vt 0.689941 0.644531
vt 0.763184 0.666992
vt 0.740234 0.643799
vt 0.743164 0.561279
vt 0.740723 0.605957
vt 0.918945 0.666992
vt 0.688965 0.561035
vt 0.679688 0.522949
vt 0.743164 0.478027
vt 0.740234 0.522949
vt 0.918945 0.333496
vt 0.689941 0.477539
vt 0.692383 0.439453
vt 0.742676 0.394043
vt 0.740234 0.439453
vt 0.763184 0.333496
vt 0.689941 0.394531
vt 0.740234 0.356445
vt 0.690430 0.356445
vt 0.355957 0.235352
vt 0.404541 0.236816
vt 0.350342 0.273438
vt 0.398926 0.274414
vt 0.211792 0.359863
vt 0.217041 0.321289
vt 0.266357 0.322266
vt 0.260498 0.360840
vt 0.183716 0.299805
vt 0.135010 0.298340
vt 0.189087 0.261230
vt 0.139648 0.260254
vt 0.183960 0.361816
vt 0.134644 0.360352
vt 0.190430 0.322266
vt 0.140015 0.321289
vt 0.427002 0.151367
vt 0.476562 0.152344
vt 0.421875 0.190430
vt 0.471191 0.191406
vt 0.288574 0.360352
vt 0.294189 0.321777
vt 0.343018 0.322754
vt 0.338623 0.360352
vt 0.057465 0.360352
vt 0.062927 0.321777
vt 0.112183 0.322754
vt 0.108459 0.360352
vt 0.056488 0.298828
vt 0.063049 0.259766
vt 0.112183 0.261230
vt 0.108093 0.299316
vt1 0.520020 0.187500
vt1 0.697266 0.208496
vt1 0.470215 0.233887
vt1 0.688965 0.062500
vt1 0.535645 0.068359
vt1 0.501953 0.026855
vt1 0.052124 0.068359
vt1 0.024521 0.212891
vt1 0.010529 0.034180
vt1 0.228394 0.254395
vt1 0.052124 0.262207
vt1 0.002554 0.225586
vt1 0.052124 0.262207
vt1 0.019012 0.408691
vt1 0.010384 0.225098
vt1 0.751953 0.211426
vt1 0.736328 0.032227
vt1 0.777832 0.068359
vt1 0.757812 0.197754
vt1 0.910645 0.192383
vt1 0.991699 0.229980
vt1 0.692871 0.031738
vt1 0.935547 0.061035
vt1 0.777832 0.068359
vt1 0.938965 0.066406
vt1 0.953125 0.226562
vt1 0.910645 0.192383
vt1 0.224976 0.057129
vt1 0.052124 0.068359
vt1 -0.035980 0.031738
vt1 0.489746 0.049805
vt1 0.520020 0.187500
vt1 0.477295 0.233398
vt1 0.535645 0.068359
vt1 0.294678 0.432617
vt1 0.008064 0.991936
vt1 0.008064 0.432617
vt1 0.416504 0.470215
vt1 0.333252 0.471191
vt1 0.331787 0.532959
vt1 0.513672 0.432617
vt1 0.416016 0.533447
vt1 0.414795 0.610596
vt1 0.332764 0.611084
vt1 0.311035 0.750000
vt1 0.331787 0.674561
vt1 0.414062 0.673340
vt1 0.330811 0.888367
vt1 0.294678 0.991936
vt1 0.418457 0.750000
vt1 0.332275 0.814453
vt1 0.433594 0.813721
vt1 0.332764 0.954010
vt1 0.416260 0.890137
vt1 0.510742 0.991943
vt1 0.416504 0.953735
vt1 0.607422 0.889893
vt1 0.607422 0.954407
vt1 0.729980 0.991936
vt1 0.691406 0.953339
vt1 0.696777 0.814575
vt1 0.692383 0.889587
vt1 0.991699 0.991936
vt1 0.605469 0.814331
vt1 0.589844 0.750244
vt1 0.696777 0.674561
vt1 0.691895 0.750244
vt1 0.991699 0.432617
vt1 0.607422 0.674316
vt1 0.611328 0.609863
vt1 0.695312 0.534180
vt1 0.691895 0.610352
vt1 0.729980 0.432617
vt1 0.607422 0.534668
vt1 0.691406 0.470703
vt1 0.607910 0.470703
vt1 0.295166 0.071289
vt1 0.443115 0.076660
vt1 0.278564 0.187500
vt1 0.426025 0.190430
vt1 0.036224 0.381348
vt1 0.052124 0.262207
vt1 0.202148 0.265625
vt1 0.184204 0.384277
vt1 0.426758 0.383789
vt1 0.278564 0.380371
vt1 0.442871 0.266602
vt1 0.292969 0.262695
vt1 0.910645 0.192383
vt1 0.761230 0.188477
vt1 0.930664 0.071777
vt1 0.777832 0.068359
vt1 0.535645 0.068359
vt1 0.686035 0.071777
vt1 0.520020 0.187500
vt1 0.669434 0.190430
vt1 0.519531 0.381836
vt1 0.536621 0.264160
vt1 0.684570 0.267578
vt1 0.670898 0.382324
vt1 0.760742 0.381836
vt1 0.777344 0.264160
vt1 0.926758 0.266602
vt1 0.915527 0.382812
vt1 0.032074 0.188477
vt1 0.052124 0.068359
vt1 0.201172 0.073242
vt1 0.188843 0.189941
vn 0.000000 1.000000 -0.000000
vn 0.000000 1.000000 -0.000000
vn 0.000000 1.000000 -0.000000
vn 0.000000 -1.000000 0.000000
vn 0.000000 -1.000000 0.000000
vn 0.000000 -1.000000 0.000000
vn 0.385827 0.000000 0.921260
vn 0.385827 0.000000 0.921260
vn 0.385827 0.000000 0.921260
vn 0.000000 1.000000 -0.000000
vn 0.000000 1.000000 -0.000000
vn 0.000000 1.000000 -0.000000
vn 0.385827 0.000000 0.921260
vn 0.385827 0.000000 0.921260
vn 0.385827 0.000000 0.921260
vn 0.921260 0.000000 0.385827
vn 0.921260 0.000000 0.385827
vn 0.921260 0.000000 0.385827
vn 0.000000 -1.000000 0.000000
vn 0.000000 -1.000000 0.000000
vn 0.000000 -1.000000 0.000000
vn 0.000000 1.000000 -0.000000
vn 0.000000 1.000000 -0.000000
vn 0.000000 1.000000 -0.000000
vn -0.921260 -0.000000 -0.385827
vn -0.921260 -0.000000 -0.385827
vn -0.921260 -0.000000 -0.385827
vn 0.000000 1.000000 -0.000000
vn 0.000000 1.000000 -0.000000
vn 0.000000 1.000000 -0.000000
vn -0.921260 -0.000000 -0.385827
vn -0.921260 -0.000000 -0.385827
vn -0.921260 -0.000000 -0.385827
vn -0.921260 -0.000000 -0.385827
vn 0.196850 -0.000000 -0.984252
vn 0.000000 -0.000000 -1.000000
vn 0.000000 -0.000000 -1.000000
vn 0.385827 -0.000000 -0.921260
vn 0.385827 -0.000000 -0.921260
vn 0.244094 -0.000000 -0.968504
vn 0.716535 -0.000000 -0.692913
vn 0.377953 -0.000000 -0.921260
vn 0.448819 -0.000000 -0.897638
vn 0.385827 -0.000000 -0.921260
vn 0.236220 -0.000000 -0.968504
vn 0.377953 -0.000000 -0.921260
vn 0.425197 -0.000000 -0.905512
vn 0.251969 -0.000000 -0.968504
vn 0.196850 -0.000000 -0.984252
vn 0.377953 -0.000000 -0.921260
vn 0.377953 -0.000000 -0.921260
vn 0.488189 -0.000000 -0.874016
vn 0.385827 -0.000000 -0.921260
vn 0.385827 -0.000000 -0.921260
vn 0.692913 -0.000000 -0.716535
vn 0.385827 -0.000000 -0.921260
vn 0.905512 -0.000000 -0.425197
vn 0.921260 -0.000000 -0.385827
vn 0.984252 -0.000000 -0.196850
vn 0.921260 -0.000000 -0.385827
vn 0.968504 -0.000000 -0.259842
vn 0.921260 -0.000000 -0.377953
vn 1.000000 0.000000 0.000000
vn 0.921260 -0.000000 -0.377953
vn 0.874016 -0.000000 -0.480315
vn 0.968504 -0.000000 -0.236220
vn 0.921260 -0.000000 -0.385827
vn 1.000000 0.000000 0.000000
vn 0.921260 -0.000000 -0.385827
vn 0.905512 -0.000000 -0.425197
vn 0.960630 -0.000000 -0.267716
vn 0.921260 -0.000000 -0.385827
vn 0.984252 -0.000000 -0.196850
vn 0.921260 -0.000000 -0.385827
vn 0.921260 -0.000000 -0.385827
vn 0.921260 -0.000000 -0.385827
vn 0.385827 -0.000000 -0.921260
vn 0.385827 -0.000000 -0.921260
vn 0.385827 -0.000000 -0.921260
vn 0.385827 -0.000000 -0.921260
vn 0.921260 -0.000000 -0.385827
vn 0.921260 -0.000000 -0.385827
vn 0.921260 -0.000000 -0.385827
vn 0.921260 -0.000000 -0.385827
vn 0.385827 -0.000000 -0.921260
vn 0.385827 -0.000000 -0.921260
vn 0.385827 -0.000000 -0.921260
vn 0.385827 -0.000000 -0.921260
vn 0.385827 -0.000000 -0.921260
vn 0.385827 -0.000000 -0.921260
vn 0.385827 -0.000000 -0.921260
vn 0.385827 -0.000000 -0.921260
vn 0.385827 -0.000000 -0.921260
vn 0.385827 -0.000000 -0.921260
vn 0.385827 -0.000000 -0.921260
vn 0.385827 -0.000000 -0.921260
vn 0.921260 -0.000000 -0.385827
vn 0.921260 -0.000000 -0.385827
vn 0.921260 -0.000000 -0.385827
vn 0.921260 -0.000000 -0.385827
vn 0.921260 -0.000000 -0.385827
vn 0.921260 -0.000000 -0.385827
vn 0.921260 -0.000000 -0.385827
vn 0.921260 -0.000000 -0.385827
vn 0.921260 -0.000000 -0.385827
vn 0.921260 -0.000000 -0.385827
vn 0.921260 -0.000000 -0.385827
vn 0.921260 -0.000000 -0.385827
tan -0.377953 0.000000 0.921260 1.000000
tan -0.362205 0.000000 0.929134 1.000000
tan -0.385827 0.000000 0.921260 1.000000
tan 0.385827 -0.000000 -0.921260 1.000000
tan 0.409449 -0.000000 -0.913386 1.000000
tan 0.401575 -0.000000 -0.913386 1.000000
tan 0.573067 -0.739413 -0.240002 1.000000
tan -0.812450 -0.445533 0.340257 1.000000
tan 0.739909 -0.554343 -0.309877 1.000000
tan 0.913386 -0.000000 -0.401575 1.000000
tan 0.921260 -0.000000 -0.385827 1.000000
tan 0.921260 -0.000000 -0.377953 1.000000
tan 0.573067 -0.739413 -0.240002 1.000000
tan -0.797942 -0.467295 0.334181 1.000000
tan 0.747163 -0.547089 -0.312915 1.000000
tan -0.340257 -0.445533 0.812450 1.000000
tan 0.309877 -0.547089 -0.739909 1.000000
tan 0.240002 -0.739413 -0.573067 1.000000
tan -0.385827 0.000000 0.921260 1.000000
tan -0.409449 0.000000 0.913386 1.000000
tan -0.409449 0.000000 0.913386 1.000000
tan 0.354331 -0.000000 -0.937008 1.000000
tan 0.385827 -0.000000 -0.921260 1.000000
tan 0.362205 -0.000000 -0.937008 1.000000
tan 0.300763 -0.583359 -0.718147 1.000000
tan -0.297725 -0.590613 0.710893 1.000000
tan -0.322029 -0.515717 0.768925 1.000000
tan 0.913386 -0.000000 -0.401575 1.000000
tan 0.921260 -0.000000 -0.385827 1.000000
tan 0.929134 -0.000000 -0.377953 1.000000
tan 0.306839 0.561597 -0.732655 1.000000
tan -0.267345 0.688635 0.638353 1.000000
tan -0.331143 0.481803 0.790687 1.000000
tan 0.322029 0.515717 -0.768925 1.000000
tan 0.000000 -0.985802 0.000000 1.000000
tan 0.000000 -1.000000 0.000000 1.000000
tan 0.000000 -1.000000 0.000000 1.000000
tan 0.000000 -0.927336 0.000000 1.000000
tan 0.000000 -0.927336 0.000000 1.000000
tan 0.000000 -0.968504 0.000000 1.000000
tan 0.000000 -0.994110 0.000000 1.000000
tan 0.000000 -0.927212 0.000000 1.000000
tan 0.000000 -0.908240 0.000000 1.000000
tan 0.000000 -0.927336 0.000000 1.000000
tan 0.000000 -0.968504 0.000000 1.000000
tan 0.000000 -0.927212 0.000000 1.000000
tan 0.000000 -0.912208 0.000000 1.000000
tan 0.000000 -0.968504 0.000000 1.000000
tan 0.000000 -0.985802 0.000000 1.000000
tan 0.000000 -0.927212 0.000000 1.000000
tan 0.000000 -0.927212 0.000000 1.000000
tan 0.000000 -0.900924 0.000000 1.000000
tan 0.000000 -0.927336 0.000000 1.000000
tan 0.000000 -0.927336 0.000000 1.000000
tan 0.000000 -0.994110 0.000000 1.000000
tan 0.000000 -0.927336 0.000000 1.000000
tan 0.000000 -0.915556 0.000000 1.000000
tan 0.000000 -0.927336 0.000000 1.000000
tan 0.000000 -0.985802 0.000000 1.000000
tan 0.000000 -0.927336 0.000000 1.000000
tan 0.000000 -0.968504 0.000000 1.000000
tan 0.000000 -0.927212 0.000000 1.000000
tan 0.000000 -1.000000 0.000000 1.000000
tan 0.000000 -0.927212 0.000000 1.000000
tan 0.000000 -0.900490 0.000000 1.000000
tan 0.000000 -0.968504 0.000000 1.000000
tan 0.000000 -0.927336 0.000000 1.000000
tan 0.000000 -1.000000 0.000000 1.000000
tan 0.000000 -0.927336 0.000000 1.000000
tan 0.000000 -0.908860 0.000000 1.000000
tan 0.000000 -0.960630 0.000000 1.000000
tan 0.000000 -0.927336 0.000000 1.000000
tan 0.000000 -0.985802 0.000000 1.000000
tan 0.000000 -0.927336 0.000000 1.000000
tan 0.000000 -0.927336 0.000000 1.000000
tan 0.000000 -0.927336 0.000000 1.000000
tan 0.043524 0.927336 0.018228 1.000000
tan 0.050778 0.921260 0.021266 1.000000
tan 0.043524 0.927336 0.018228 1.000000
tan 0.043524 0.927336 0.018228 1.000000
tan -0.018228 -0.927336 -0.043524 1.000000
tan -0.015190 -0.948602 -0.036270 1.000000
tan -0.018228 -0.927336 -0.043524 1.000000
tan -0.018228 -0.927336 -0.043524 1.000000
tan -0.043524 -0.927336 -0.018228 1.000000
tan -0.043524 -0.927336 -0.018228 1.000000
tan -0.043524 -0.927336 -0.018228 1.000000
tan -0.043524 -0.927336 -0.018228 1.000000
tan -0.036270 -0.948602 -0.015190 1.000000
tan -0.043524 -0.927336 -0.018228 1.000000
tan -0.043524 -0.927336 -0.018228 1.000000
tan -0.036270 -0.948602 -0.015190 1.000000
tan 0.036270 0.948602 0.015190 1.000000
tan 0.043524 0.927336 0.018228 1.000000
tan 0.036270 0.948602 0.015190 1.000000
tan 0.043524 0.927336 0.018228 1.000000
tan -0.018228 -0.927336 -0.043524 1.000000
tan -0.018228 -0.927336 -0.043524 1.000000
tan -0.018228 -0.927336 -0.043524 1.000000
tan -0.018228 -0.927336 -0.043524 1.000000
tan -0.018228 -0.927336 -0.043524 1.000000
tan -0.018228 -0.927336 -0.043524 1.000000
tan -0.018228 -0.927336 -0.043524 1.000000
tan -0.018228 -0.927336 -0.043524 1.000000
tan -0.018228 -0.927336 -0.043524 1.000000
tan -0.015190 -0.948602 -0.036270 1.000000
tan -0.018228 -0.927336 -0.043524 1.000000
tan -0.018228 -0.927336 -0.043524 1.000000
f 3/3/3 2/2/2 1/1/1
f 6/6/6 5/5/5 4/4/4
f 9/9/9 8/8/8 7/7/7
f 12/12/12 11/11/11 10/10/10
f 15/15/15 14/14/14 13/13/13
f 18/18/18 17/17/17 16/16/16
f 21/21/21 20/20/20 19/19/19
f 24/24/24 23/23/23 22/22/22
f 27/27/27 26/26/26 25/25/25
f 30/30/30 29/29/29 28/28/28
f 33/33/33 32/32/32 31/31/31
f 34/34/34 31/31/31 32/32/32
f 37/37/37 36/36/36 35/35/35
f 39/39/39 38/38/38 35/35/35
f 39/39/39 35/35/35 40/40/40
f 40/40/40 35/35/35 36/36/36
f 38/38/38 41/41/41 35/35/35
f 38/38/38 42/42/42 41/41/41
f 43/43/43 42/42/42 40/40/40
f 42/42/42 43/43/43 41/41/41
f 40/40/40 44/44/44 43/43/43
f 44/44/44 40/40/40 45/45/45
f 45/45/45 40/40/40 36/36/36
f 46/46/46 44/44/44 45/45/45
f 46/46/46 45/45/45 47/47/47
f 48/48/48 45/45/45 36/36/36
f 48/48/48 36/36/36 49/49/49
f 50/50/50 47/47/47 45/45/45
f 51/51/51 45/45/45 48/48/48
f 50/50/50 52/52/52 47/47/47
f 51/51/51 48/48/48 52/52/52
f 53/53/53 48/48/48 49/49/49
f 54/54/54 52/52/52 48/48/48
f 53/53/53 49/49/49 55/55/55
f 54/54/54 56/56/56 52/52/52
f 56/56/56 53/53/53 55/55/55
f 56/56/56 55/55/55 52/52/52
f 57/57/57 52/52/52 55/55/55
f 58/58/58 57/57/57 55/55/55
f 58/58/58 55/55/55 59/59/59
f 60/60/60 58/58/58 59/59/59
f 60/60/60 59/59/59 61/61/61
f 62/62/62 60/60/60 61/61/61
f 62/62/62 61/61/61 57/57/57
f 59/59/59 63/63/63 61/61/61
f 64/64/64 57/57/57 61/61/61
f 64/64/64 65/65/65 57/57/57
f 52/52/52 57/57/57 65/65/65
f 65/65/65 47/47/47 52/52/52
f 61/61/61 63/63/63 66/66/66
f 66/66/66 67/67/67 61/61/61
f 67/67/67 66/66/66 65/65/65
f 63/63/63 68/68/68 66/66/66
f 69/69/69 65/65/65 66/66/66
f 69/69/69 70/70/70 65/65/65
f 47/47/47 65/65/65 70/70/70
f 70/70/70 43/43/43 47/47/47
f 43/43/43 70/70/70 41/41/41
f 66/66/66 68/68/68 71/71/71
f 71/71/71 72/72/72 66/66/66
f 72/72/72 71/71/71 70/70/70
f 71/71/71 68/68/68 73/73/73
f 74/74/74 70/70/70 71/71/71
f 75/75/75 71/71/71 73/73/73
f 75/75/75 73/73/73 41/41/41
f 74/74/74 76/76/76 70/70/70
f 76/76/76 75/75/75 41/41/41
f 76/76/76 41/41/41 70/70/70
f 79/79/79 78/78/78 77/77/77
f 79/79/79 80/80/80 78/78/78
f 83/83/83 82/82/82 81/81/81
f 84/84/84 83/83/83 81/81/81
f 87/87/87 86/86/86 85/85/85
f 87/87/87 88/88/88 86/86/86
f 91/91/91 90/90/90 89/89/89
f 91/91/91 92/92/92 90/90/90
f 95/95/95 94/94/94 93/93/93
f 95/95/95 96/96/96 94/94/94
f 99/99/99 98/98/98 97/97/97
f 100/100/100 99/99/99 97/97/97
f 103/103/103 102/102/102 101/101/101
f 104/104/104 103/103/103 101/101/101
f 107/107/107 106/106/106 105/105/105
f 108/108/108 107/107/107 105/105/105
