mtllib SM_FacadeTopCorner_C_LOD3.mtl
g SM_FacadeTopCorner_C_LOD3
#Vertices 19
#Indices 21
#Section 0 Offset 0 NumIndices 9 MaterialIndex 1 MI_Metal_Darkgrey
#Section 1 Offset 9 NumIndices 12 MaterialIndex 0 MI_Brushed_Metal
v 3.370809 0.673809 0.799253
v 2.861093 -0.075076 3.059026
v 3.259145 1.510857 2.914774
v 0.225258 0.201788 -0.675013
v 3.370809 0.673809 0.799253
v 2.378587 1.002031 -0.504907
v 2.861093 -0.075076 3.059026
v 3.259145 1.510857 2.914774
v 2.785684 1.879297 0.707688
v 3.370809 0.673809 0.799253
v 2.785684 1.879297 0.707688
v 2.378587 1.002031 -0.504907
v 3.370809 0.673809 0.799253
v 0.225258 0.201788 -0.675013
v 2.378587 1.002031 -0.504907
v -0.005284 1.877365 0.139045
v -0.005284 1.877365 0.139045
v 2.378587 1.002031 -0.504907
v 2.785684 1.879297 0.707688
vt 0.518066 0.413086
vt 0.420410 0.130859
vt 0.610352 0.146973
vt 0.360840 1.021896
vt 0.340332 0.354980
vt 0.350098 0.600098
vt 0.328369 0.015137
vt 0.229980 0.848877
vt 0.169678 0.574707
vt 0.321045 0.583008
vt 0.172363 0.544434
vt 0.278809 0.402344
vt 0.320068 0.588379
vt 0.419922 0.188965
vt 0.283203 0.436035
vt 0.182495 0.140137
vt 0.153931 0.140625
vt 0.238892 0.444824
vt 0.065369 0.480469
vt1 0.897949 0.388672
vt1 0.686523 -0.002930
vt1 1.096680 0.019531
vt1 0.607910 1.043427
vt1 0.575195 0.357910
vt1 0.590820 0.609863
vt1 0.556152 0.008301
vt1 0.336670 0.975830
vt1 0.208496 0.601807
vt1 0.529785 0.613037
vt1 0.214355 0.560303
vt1 0.440430 0.366699
vt1 0.528320 0.620361
vt1 0.740234 0.075684
vt1 0.450195 0.412598
vt1 0.235840 0.008789
vt1 0.175049 0.009766
vt1 0.355469 0.424805
vt1 -0.013145 0.473145
vn 1.000000 -0.000000 -0.015748
vn 1.000000 -0.000000 -0.015748
vn 1.000000 -0.000000 -0.015748
vn 0.000000 -1.000000 0.000000
vn 0.000000 -1.000000 0.000000
vn 0.000000 -1.000000 0.000000
vn 0.000000 -1.000000 0.000000
vn 1.000000 -0.000000 -0.015748
vn 1.000000 -0.000000 -0.015748
vn 1.000000 -0.000000 -0.015748
vn 0.708661 -0.000000 -0.708661
vn 0.708661 -0.000000 -0.708661
vn 0.708661 -0.000000 -0.708661
vn 0.015748 -0.000000 -1.000000
vn 0.015748 -0.000000 -1.000000
vn 0.015748 -0.000000 -1.000000
vn 0.000000 1.000000 -0.000000
vn 0.000000 1.000000 -0.000000
vn 0.000000 1.000000 -0.000000
tan 0.015748 0.000000 1.000000 1.000000
tan 0.015748 0.000000 1.000000 1.000000
tan 0.015748 0.000000 1.000000 1.000000
tan 0.000000 0.000000 1.000000 1.000000
tan 0.000000 0.000000 1.000000 1.000000
tan 0.000000 0.000000 1.000000 1.000000
tan 0.000000 0.000000 1.000000 1.000000
tan -0.015748 -0.031496 -1.000000 1.000000
tan -0.015748 -0.055118 -1.000000 1.000000
tan -0.015748 -0.047244 -1.000000 1.000000
tan -0.708661 -0.000000 -0.708661 1.000000
tan -0.708661 -0.000000 -0.708661 1.000000
tan -0.708661 -0.011160 -0.708661 1.000000
tan -1.000000 0.070866 -0.015748 1.000000
tan -1.000000 0.039370 -0.015748 1.000000
tan -0.992126 0.102362 -0.015624 1.000000
tan -1.000000 0.000000 0.023622 1.000000
tan -1.000000 0.000000 0.023622 1.000000
tan -1.000000 0.000000 0.023622 1.000000
f 3/3/3 2/2/2 1/1/1
f 6/6/6 5/5/5 4/4/4
f 5/5/5 7/7/7 4/4/4
f 10/10/10 9/9/9 8/8/8
f 13/13/13 12/12/12 11/11/11
f 16/16/16 15/15/15 14/14/14
f 19/19/19 18/18/18 17/17/17
