mtllib SM_FacadeTop_b.mtl
g SM_FacadeTop_b
#Vertices 80
#Indices 192
#Section 0 Offset 0 NumIndices 96 MaterialIndex 0 MI_Metal_Darkgrey
#Section 1 Offset 96 NumIndices 96 MaterialIndex 1 MI_Brushed_Metal
v -0.000000 3.749999 2.499999
v -0.000000 0.805192 2.500000
v 0.750000 3.749999 2.499999
v 0.750000 0.805192 2.500000
v 1.500000 3.749999 2.500000
v 1.500000 0.805192 2.500000
v 2.250000 3.749999 2.500000
v 2.250000 0.805192 2.500000
v 3.000000 3.749999 2.500000
v 3.000000 0.805192 2.500000
v -0.000000 0.000000 -0.000000
v 0.750000 0.250000 0.000000
v -0.000000 0.250000 0.000000
v 0.750000 0.000000 -0.000000
v 1.500000 0.250000 0.000000
v 1.500000 0.000000 -0.000000
v 2.250000 0.250000 0.000000
v 2.250000 0.000000 -0.000000
v 3.000000 0.250000 0.000000
v 3.000000 0.000000 -0.000000
v -0.000000 0.805191 -0.500000
v 0.750000 0.805191 -0.350000
v -0.000000 0.805191 -0.350000
v 0.750000 0.805191 -0.500000
v 1.500000 0.805191 -0.350000
v 1.500000 0.805191 -0.500000
v 2.250000 0.805191 -0.350000
v 2.250000 0.805191 -0.500000
v 3.000000 0.805191 -0.350000
v 3.000000 0.805191 -0.500000
v 3.000000 0.805192 2.500000
v 2.250000 0.805191 -0.350000
v 3.000000 0.805191 -0.350000
v 2.250000 0.805192 2.500000
v 1.500000 0.805191 -0.350000
v 1.500000 0.805192 2.500000
v 0.750000 0.805191 -0.350000
v 0.750000 0.805192 2.500000
v -0.000000 0.805191 -0.350000
v -0.000000 0.805192 2.500000
v 0.750000 0.508652 -0.500000
v -0.000000 0.508652 -0.500000
v -0.000000 0.250000 0.000000
v 0.750000 0.250000 0.000000
v 1.500000 0.508652 -0.500000
v 1.500000 0.250000 0.000000
v 2.250000 0.508652 -0.500000
v 2.250000 0.250000 0.000000
v 3.000000 0.508652 -0.500000
v 3.000000 0.250000 0.000000
v 2.250000 0.805191 -0.500000
v 3.000000 0.508652 -0.500000
v 3.000000 0.805191 -0.500000
v 2.250000 0.508652 -0.500000
v 1.500000 0.805191 -0.500000
v 1.500000 0.508652 -0.500000
v 0.750000 0.805191 -0.500000
v 0.750000 0.508652 -0.500000
v -0.000000 0.508652 -0.500000
v -0.000000 0.805191 -0.500000
v 3.000000 3.999999 2.299999
v 2.250000 3.749999 2.299999
v 3.000000 3.749999 2.299999
v 2.250000 3.999999 2.299999
v 1.500000 3.749999 2.299999
v 1.500000 3.999999 2.299999
v 0.750000 3.749999 2.299999
v 0.750000 3.999999 2.299999
v -0.000000 3.749999 2.299999
v -0.000000 3.999999 2.299999
v -0.000000 3.749999 2.499999
v 0.750000 3.749999 2.299999
v -0.000000 3.749999 2.299999
v 0.750000 3.749999 2.499999
v 1.500000 3.749999 2.299999
v 1.500000 3.749999 2.500000
v 2.250000 3.749999 2.500000
v 2.250000 3.749999 2.299999
v 3.000000 3.749999 2.299999
v 3.000000 3.749999 2.500000
vt 0.113159 0.482910
vt 0.113159 0.114746
vt 0.206909 0.482910
vt 0.206909 0.114746
vt 0.300537 0.482910
vt 0.300537 0.114746
vt 0.394287 0.482910
vt 0.394287 0.114746
vt 0.488037 0.482910
vt 0.488037 0.114746
vt 0.648926 0.493164
vt 0.617676 0.586426
vt 0.617676 0.493164
vt 0.648926 0.586426
vt 0.617676 0.680176
vt 0.648926 0.680176
vt 0.617676 0.773926
vt 0.648926 0.773926
vt 0.617676 0.867676
vt 0.648926 0.867676
vt 0.510254 0.493164
vt 0.491455 0.586426
vt 0.491455 0.493164
vt 0.510254 0.586426
vt 0.491455 0.680176
vt 0.510254 0.680176
vt 0.491455 0.773926
vt 0.510254 0.773926
vt 0.491455 0.867676
vt 0.510254 0.867676
vt 0.490967 0.489746
vt 0.847168 0.395996
vt 0.847168 0.489746
vt 0.490967 0.395996
vt 0.847168 0.302734
vt 0.490967 0.302734
vt 0.847168 0.208984
vt 0.490967 0.208984
vt 0.847168 0.115234
vt 0.490967 0.115234
vt 0.546875 0.586426
vt 0.546875 0.493164
vt 0.617676 0.493164
vt 0.617676 0.586426
vt 0.546875 0.680176
vt 0.617676 0.680176
vt 0.546875 0.773926
vt 0.617676 0.773926
vt 0.546875 0.867676
vt 0.617676 0.867676
vt 0.510254 0.773926
vt 0.546875 0.867676
vt 0.510254 0.867676
vt 0.546875 0.773926
vt 0.510254 0.680176
vt 0.546875 0.680176
vt 0.510254 0.586426
vt 0.546875 0.586426
vt 0.546875 0.493164
vt 0.510254 0.493164
vt 0.488037 0.539062
vt 0.394287 0.507812
vt 0.488037 0.507812
vt 0.394287 0.539062
vt 0.300537 0.507812
vt 0.300537 0.539062
vt 0.206909 0.507812
vt 0.206909 0.539062
vt 0.113159 0.507812
vt 0.113159 0.539062
vt 0.113159 0.482910
vt 0.206909 0.507812
vt 0.113159 0.507812
vt 0.206909 0.482910
vt 0.300537 0.507812
vt 0.300537 0.482910
vt 0.394287 0.482910
vt 0.394287 0.507812
vt 0.488037 0.507812
vt 0.488037 0.482910
vt1 0.008064 0.918396
vt1 0.008064 0.437012
vt1 0.130615 0.918396
vt1 0.130615 0.437012
vt1 0.253174 0.918396
vt1 0.253174 0.437012
vt1 0.375732 0.918396
vt1 0.375732 0.437012
vt1 0.498535 0.918396
vt1 0.498535 0.437012
vt1 0.498535 0.411621
vt1 0.375732 0.370605
vt1 0.498535 0.370605
vt1 0.375732 0.411621
vt1 0.253174 0.370605
vt1 0.253174 0.411621
vt1 0.130615 0.370605
vt1 0.130615 0.411621
vt1 0.008064 0.370605
vt1 0.008064 0.411621
vt1 0.498535 0.229980
vt1 0.375732 0.205566
vt1 0.498535 0.205566
vt1 0.375732 0.229980
vt1 0.253174 0.205566
vt1 0.253174 0.229980
vt1 0.130615 0.205566
vt1 0.130615 0.229980
vt1 0.008064 0.205566
vt1 0.008064 0.229980
vt1 0.523926 0.991936
vt1 0.989746 0.869385
vt1 0.989746 0.991936
vt1 0.523926 0.869385
vt1 0.989746 0.746826
vt1 0.523926 0.746826
vt1 0.989746 0.624268
vt1 0.523926 0.624268
vt1 0.989746 0.501465
vt1 0.523926 0.501465
vt1 0.375732 0.278809
vt1 0.498535 0.278809
vt1 0.498535 0.370605
vt1 0.375732 0.370605
vt1 0.253174 0.278809
vt1 0.253174 0.370605
vt1 0.130615 0.278809
vt1 0.130615 0.370605
vt1 0.008064 0.278809
vt1 0.008064 0.370605
vt1 0.130615 0.229980
vt1 0.008064 0.278809
vt1 0.008064 0.229980
vt1 0.130615 0.278809
vt1 0.253174 0.229980
vt1 0.253174 0.278809
vt1 0.375732 0.229980
vt1 0.375732 0.278809
vt1 0.498535 0.278809
vt1 0.498535 0.229980
vt1 0.498535 0.991936
vt1 0.375732 0.951080
vt1 0.498535 0.951080
vt1 0.375732 0.991936
vt1 0.253174 0.951080
vt1 0.253174 0.991936
vt1 0.130615 0.951080
vt1 0.130615 0.991936
vt1 0.008064 0.951080
vt1 0.008064 0.991936
vt1 0.008064 0.918396
vt1 0.130615 0.951080
vt1 0.008064 0.951080
vt1 0.130615 0.918396
vt1 0.253174 0.951080
vt1 0.253174 0.918396
vt1 0.375732 0.918396
vt1 0.375732 0.951080
vt1 0.498535 0.951080
vt1 0.498535 0.918396
vn 0.000000 -0.000000 -1.000000
vn 0.000000 -0.000000 -1.000000
vn 0.000000 -0.000000 -1.000000
vn 0.000000 -0.000000 -1.000000
vn 0.000000 -0.000000 -1.000000
vn 0.000000 -0.000000 -1.000000
vn 0.000000 -0.000000 -1.000000
vn 0.000000 -0.000000 -1.000000
vn 0.000000 -0.000000 -1.000000
vn 0.000000 -0.000000 -1.000000
vn 0.000000 -0.000000 -1.000000
vn 0.000000 -0.000000 -1.000000
vn 0.000000 -0.000000 -1.000000
vn 0.000000 -0.000000 -1.000000
vn 0.000000 -0.000000 -1.000000
vn 0.000000 -0.000000 -1.000000
vn 0.000000 -0.000000 -1.000000
vn 0.000000 -0.000000 -1.000000
vn 0.000000 -0.000000 -1.000000
vn 0.000000 -0.000000 -1.000000
vn 0.000000 1.000000 -0.000000
vn 0.000000 1.000000 -0.000000
vn 0.000000 1.000000 -0.000000
vn 0.000000 1.000000 -0.000000
vn 0.000000 1.000000 -0.000000
vn 0.000000 1.000000 -0.000000
vn 0.000000 1.000000 -0.000000
vn 0.000000 1.000000 -0.000000
vn 0.000000 1.000000 -0.000000
vn 0.000000 1.000000 -0.000000
vn 0.000000 1.000000 -0.000000
vn 0.000000 1.000000 -0.000000
vn 0.000000 1.000000 -0.000000
vn 0.000000 1.000000 -0.000000
vn 0.000000 1.000000 -0.000000
vn 0.000000 1.000000 -0.000000
vn 0.000000 1.000000 -0.000000
vn 0.000000 1.000000 -0.000000
vn 0.000000 1.000000 -0.000000
vn 0.000000 1.000000 -0.000000
vn 0.000000 -0.889764 -0.456693
vn 0.000000 -0.889764 -0.456693
vn 0.000000 -0.889764 -0.456693
vn 0.000000 -0.889764 -0.456693
vn 0.000000 -0.889764 -0.456693
vn 0.000000 -0.889764 -0.456693
vn 0.000000 -0.889764 -0.456693
vn 0.000000 -0.889764 -0.456693
vn 0.000000 -0.889764 -0.456693
vn 0.000000 -0.889764 -0.456693
vn 0.000000 -0.000000 -1.000000
vn 0.000000 -0.000000 -1.000000
vn 0.000000 -0.000000 -1.000000
vn 0.000000 -0.000000 -1.000000
vn 0.000000 -0.000000 -1.000000
vn 0.000000 -0.000000 -1.000000
vn 0.000000 -0.000000 -1.000000
vn 0.000000 -0.000000 -1.000000
vn 0.000000 -0.000000 -1.000000
vn 0.000000 -0.000000 -1.000000
vn 0.000000 -0.000000 -1.000000
vn 0.000000 -0.000000 -1.000000
vn 0.000000 -0.000000 -1.000000
vn 0.000000 -0.000000 -1.000000
vn 0.000000 -0.000000 -1.000000
vn 0.000000 -0.000000 -1.000000
vn 0.000000 -0.000000 -1.000000
vn 0.000000 -0.000000 -1.000000
vn 0.000000 -0.000000 -1.000000
vn 0.000000 -0.000000 -1.000000
vn 0.000000 -1.000000 0.000000
vn 0.000000 -1.000000 0.000000
vn 0.000000 -1.000000 0.000000
vn 0.000000 -1.000000 0.000000
vn 0.000000 -1.000000 0.000000
vn 0.000000 -1.000000 0.000000
vn 0.000000 -1.000000 0.000000
vn 0.000000 -1.000000 0.000000
vn 0.000000 -1.000000 0.000000
vn 0.000000 -1.000000 0.000000
tan 0.000000 -1.000000 0.000000 1.000000
tan 0.000000 -1.000000 0.000000 1.000000
tan 0.000000 -1.000000 0.000000 1.000000
tan 0.000000 -1.000000 0.000000 1.000000
tan 0.000000 -1.000000 0.000000 1.000000
tan 0.000000 -1.000000 0.000000 1.000000
tan 0.000000 -1.000000 0.000000 1.000000
tan 0.000000 -1.000000 0.000000 1.000000
tan 0.000000 -1.000000 0.000000 1.000000
tan 0.000000 -1.000000 0.000000 1.000000
tan -1.000000 0.000000 0.000000 1.000000
tan -1.000000 0.000000 0.000000 1.000000
tan -1.000000 0.000000 0.000000 1.000000
tan -1.000000 0.000000 0.000000 1.000000
tan -1.000000 0.000000 0.000000 1.000000
tan -1.000000 0.000000 0.000000 1.000000
tan -1.000000 0.000000 0.000000 1.000000
tan -1.000000 0.000000 0.000000 1.000000
tan -1.000000 0.000000 0.000000 1.000000
tan -1.000000 0.000000 0.000000 1.000000
tan -1.000000 0.000000 0.000000 1.000000
tan -1.000000 0.000000 0.000000 1.000000
tan -1.000000 0.000000 0.000000 1.000000
tan -1.000000 0.000000 0.000000 1.000000
tan -1.000000 0.000000 0.000000 1.000000
tan -1.000000 0.000000 0.000000 1.000000
tan -1.000000 0.000000 0.000000 1.000000
tan -1.000000 0.000000 0.000000 1.000000
tan -1.000000 0.000000 0.000000 1.000000
tan -1.000000 0.000000 0.000000 1.000000
tan -1.000000 0.000000 0.000000 1.000000
tan -1.000000 0.000000 0.000000 1.000000
tan -1.000000 0.000000 0.000000 1.000000
tan -1.000000 0.000000 0.000000 1.000000
tan -1.000000 0.000000 0.000000 1.000000
tan -1.000000 0.000000 0.000000 1.000000
tan -1.000000 0.000000 0.000000 1.000000
tan -1.000000 0.000000 0.000000 1.000000
tan -1.000000 0.000000 0.000000 1.000000
tan -1.000000 0.000000 0.000000 1.000000
tan -1.000248 0.000000 0.000000 1.000000
tan -1.000248 0.000000 0.000000 1.000000
tan -1.000248 0.000000 0.000000 1.000000
tan -1.000248 0.000000 0.000000 1.000000
tan -1.000248 0.000000 0.000000 1.000000
tan -1.000248 0.000000 0.000000 1.000000
tan -1.000248 0.000000 0.000000 1.000000
tan -1.000248 0.000000 0.000000 1.000000
tan -1.000248 0.000000 0.000000 1.000000
tan -1.000248 0.000000 0.000000 1.000000
tan -1.000000 0.000000 0.000000 1.000000
tan -1.000000 0.000000 0.000000 1.000000
tan -1.000000 0.000000 0.000000 1.000000
tan -1.000000 0.000000 0.000000 1.000000
tan -1.000000 0.000000 0.000000 1.000000
tan -1.000000 0.000000 0.000000 1.000000
tan -1.000000 0.000000 0.000000 1.000000
tan -1.000000 0.000000 0.000000 1.000000
tan -1.000000 0.000000 0.000000 1.000000
tan -1.000000 0.000000 0.000000 1.000000
tan 0.000000 -1.000000 0.000000 1.000000
tan 0.000000 -1.000000 0.000000 1.000000
tan 0.000000 -1.000000 0.000000 1.000000
tan 0.000000 -1.000000 0.000000 1.000000
tan 0.000000 -1.000000 0.000000 1.000000
tan 0.000000 -1.000000 0.000000 1.000000
tan 0.000000 -1.000000 0.000000 1.000000
tan 0.000000 -1.000000 0.000000 1.000000
tan 0.000000 -1.000000 0.000000 1.000000
tan 0.000000 -1.000000 0.000000 1.000000
tan 0.000000 0.000000 1.000000 1.000000
tan 0.000000 0.000000 1.000000 1.000000
tan 0.000000 0.000000 1.000000 1.000000
tan 0.000000 0.000000 1.000000 1.000000
tan 0.000000 0.000000 1.000000 1.000000
tan 0.000000 0.000000 1.000000 1.000000
tan 0.000000 0.000000 1.000000 1.000000
tan 0.000000 0.000000 1.000000 1.000000
tan 0.000000 0.000000 1.000000 1.000000
tan 0.000000 0.000000 1.000000 1.000000
f 3/3/3 2/2/2 1/1/1
f 4/4/4 2/2/2 3/3/3
f 5/5/5 4/4/4 3/3/3
f 6/6/6 4/4/4 5/5/5
f 7/7/7 6/6/6 5/5/5
f 8/8/8 6/6/6 7/7/7
f 9/9/9 8/8/8 7/7/7
f 10/10/10 8/8/8 9/9/9
f 13/13/13 12/12/12 11/11/11
f 14/14/14 11/11/11 12/12/12
f 12/12/12 15/15/15 14/14/14
f 16/16/16 14/14/14 15/15/15
f 15/15/15 17/17/17 16/16/16
f 18/18/18 16/16/16 17/17/17
f 17/17/17 19/19/19 18/18/18
f 20/20/20 18/18/18 19/19/19
f 23/23/23 22/22/22 21/21/21
f 24/24/24 21/21/21 22/22/22
f 22/22/22 25/25/25 24/24/24
f 26/26/26 24/24/24 25/25/25
f 25/25/25 27/27/27 26/26/26
f 28/28/28 26/26/26 27/27/27
f 27/27/27 29/29/29 28/28/28
f 30/30/30 28/28/28 29/29/29
f 33/33/33 32/32/32 31/31/31
f 34/34/34 31/31/31 32/32/32
f 35/35/35 34/34/34 32/32/32
f 36/36/36 34/34/34 35/35/35
f 37/37/37 36/36/36 35/35/35
f 38/38/38 36/36/36 37/37/37
f 39/39/39 38/38/38 37/37/37
f 40/40/40 38/38/38 39/39/39
f 43/43/43 42/42/42 41/41/41
f 44/44/44 43/43/43 41/41/41
f 44/44/44 41/41/41 45/45/45
f 46/46/46 44/44/44 45/45/45
f 46/46/46 45/45/45 47/47/47
f 48/48/48 46/46/46 47/47/47
f 48/48/48 47/47/47 49/49/49
f 50/50/50 48/48/48 49/49/49
f 53/53/53 52/52/52 51/51/51
f 54/54/54 51/51/51 52/52/52
f 51/51/51 54/54/54 55/55/55
f 56/56/56 55/55/55 54/54/54
f 55/55/55 56/56/56 57/57/57
f 58/58/58 57/57/57 56/56/56
f 58/58/58 59/59/59 57/57/57
f 59/59/59 60/60/60 57/57/57
f 63/63/63 62/62/62 61/61/61
f 62/62/62 64/64/64 61/61/61
f 62/62/62 65/65/65 64/64/64
f 65/65/65 66/66/66 64/64/64
f 65/65/65 67/67/67 66/66/66
f 67/67/67 68/68/68 66/66/66
f 67/67/67 69/69/69 68/68/68
f 69/69/69 70/70/70 68/68/68
f 73/73/73 72/72/72 71/71/71
f 74/74/74 71/71/71 72/72/72
f 74/74/74 72/72/72 75/75/75
f 76/76/76 74/74/74 75/75/75
f 76/76/76 75/75/75 77/77/77
f 78/78/78 77/77/77 75/75/75
f 77/77/77 78/78/78 79/79/79
f 80/80/80 77/77/77 79/79/79
