mtllib SM_Facade_window_vert_LOD3.mtl
g SM_Facade_window_vert_LOD3
#Vertices 30
#Indices 48
#Section 0 Offset 0 NumIndices 18 MaterialIndex 2 MI_Brushed_Metal
#Section 1 Offset 18 NumIndices 12 MaterialIndex 0 MI_Brick_Wall
#Section 2 Offset 30 NumIndices 12 MaterialIndex 3 MI_Metal_Darkgrey
#Section 3 Offset 42 NumIndices 6 MaterialIndex 1 MI_Windows01
v 2.136752 2.994968 -0.140799
v 2.000000 3.000000 0.200000
v 2.043608 2.267452 0.294165
v 2.035363 0.755590 0.307335
v 2.101132 0.019140 -0.019973
v 0.863247 0.005032 -0.140799
v 1.000000 0.000000 0.200000
v 0.956390 0.732550 0.294165
v 0.962448 2.245007 0.308056
v 0.898867 2.980861 -0.019973
v -0.000000 3.000000 -0.000000
v -0.000000 -0.000000 0.000000
v 0.898867 2.980861 -0.019973
v 0.863247 0.005032 -0.140799
v 2.136752 2.994968 -0.140799
v 2.101132 0.019140 -0.019973
v 3.000000 3.000000 -0.000000
v 3.000000 -0.000000 0.000000
v 0.898867 2.980861 -0.019973
v 0.962448 2.245007 0.308056
v 2.000000 3.000000 0.200000
v 2.043608 2.267452 0.294165
v 0.956390 0.732550 0.294165
v 1.000000 0.000000 0.200000
v 2.035363 0.755590 0.307335
v 2.101132 0.019140 -0.019973
v 0.962448 2.245007 0.308056
v 2.035363 0.755590 0.307335
v 2.043608 2.267452 0.294165
v 0.956390 0.732550 0.294165
vt 0.700684 0.291504
vt 0.701172 0.333008
vt 0.609375 0.344727
vt 0.420654 0.343750
vt 0.329346 0.304199
vt 0.260986 0.761230
vt 0.219482 0.761841
vt 0.207764 0.670410
vt 0.208496 0.481445
vt 0.248291 0.390137
vt 0.577637 0.333008
vt 0.577637 0.000977
vt 0.677246 0.331055
vt 0.673828 0.001465
vt 0.325928 0.332520
vt 0.322754 0.002930
vt 0.422119 0.333008
vt 0.422119 0.000977
vt 0.538574 0.759399
vt 0.548340 0.664795
vt 0.676270 0.761841
vt 0.681641 0.670410
vt 0.545898 0.428711
vt 0.551270 0.336914
vt 0.678711 0.434082
vt 0.688965 0.339355
vt 0.156616 0.988098
vt 0.861328 0.007324
vt 0.866699 1.004757
vt 0.149780 -0.006836
vt1 0.507324 0.990814
vt1 0.427246 0.991936
vt1 0.404541 0.815186
vt1 0.406006 0.450684
vt1 0.482910 0.274414
vt1 0.716797 0.990814
vt1 0.636719 0.991936
vt1 0.614258 0.815186
vt1 0.615723 0.450684
vt1 0.692383 0.274414
vt1 0.217651 0.991936
vt1 0.217651 0.268066
vt1 0.434326 0.987328
vt1 0.427246 0.269043
vt1 -0.008568 0.990959
vt1 -0.015701 0.272949
vt1 0.201050 0.991936
vt1 0.201050 0.268066
vt1 0.370605 0.245605
vt1 0.389893 0.062988
vt1 0.636230 0.250000
vt1 0.646973 0.073242
vt1 0.642578 0.197754
vt1 0.652832 0.020996
vt1 0.898926 0.208496
vt1 0.918457 0.025391
vt1 0.009949 0.000977
vt1 0.368652 0.258789
vt1 0.003853 0.260742
vt1 0.374023 -0.000977
vn -1.000000 0.000000 0.000000
vn -1.000000 0.000000 0.000000
vn -1.000000 0.000000 0.000000
vn -1.000000 0.000000 0.000000
vn -1.000000 0.000000 0.000000
vn 1.000000 0.000000 0.000000
vn 1.000000 0.000000 0.000000
vn 1.000000 0.000000 0.000000
vn 1.000000 0.000000 0.000000
vn 1.000000 0.000000 0.000000
vn 0.000000 -0.000000 -1.000000
vn 0.000000 -0.000000 -1.000000
vn 0.000000 -0.000000 -1.000000
vn 0.000000 -0.000000 -1.000000
vn 0.000000 -0.000000 -1.000000
vn 0.000000 -0.000000 -1.000000
vn 0.000000 -0.000000 -1.000000
vn 0.000000 -0.000000 -1.000000
vn 0.000000 -0.000000 -1.000000
vn 0.000000 -0.000000 -1.000000
vn 0.000000 -0.000000 -1.000000
vn 0.000000 -0.000000 -1.000000
vn 0.000000 -0.000000 -1.000000
vn 0.000000 -0.000000 -1.000000
vn 0.000000 -0.000000 -1.000000
vn 0.000000 -0.000000 -1.000000
vn 0.000000 -0.000000 -1.000000
vn 0.000000 -0.000000 -1.000000
vn 0.000000 -0.000000 -1.000000
vn 0.000000 -0.000000 -1.000000
tan 0.000000 -0.000000 -1.000000 1.000000
tan 0.000000 -0.000000 -1.000000 1.000000
tan 0.000000 -0.000000 -1.000000 1.000000
tan 0.000000 -0.000000 -1.000000 1.000000
tan 0.000000 -0.000000 -1.000000 1.000000
tan 0.000000 1.000000 -0.000000 1.000000
tan 0.000000 1.000000 -0.000000 1.000000
tan 0.000000 1.000000 -0.000000 1.000000
tan 0.000000 1.000000 -0.000000 1.000000
tan 0.000000 1.000000 -0.000000 1.000000
tan 0.000000 -1.000000 0.000000 1.000000
tan 0.000000 -1.000000 0.000000 1.000000
tan 0.000000 -1.000000 0.000000 1.000000
tan 0.000000 -1.000000 0.000000 1.000000
tan 0.000000 -1.000000 0.000000 1.000000
tan 0.000000 -1.000000 0.000000 1.000000
tan 0.000000 -1.000000 0.000000 1.000000
tan 0.000000 -1.000000 0.000000 1.000000
tan 0.000000 -1.000000 0.000000 1.000000
tan 0.000000 -1.000000 0.000000 1.000000
tan 0.000000 -1.000000 0.000000 1.000000
tan 0.000000 -1.000000 0.000000 1.000000
tan 0.000000 -1.000000 0.000000 1.000000
tan 0.000000 -1.000000 0.000000 1.000000
tan 0.000000 -1.000000 0.000000 1.000000
tan 0.000000 -1.000000 0.000000 1.000000
tan 0.000000 -1.000000 0.000000 1.000000
tan 0.000000 -1.000000 0.000000 1.000000
tan 0.000000 -1.000000 0.000000 1.000000
tan 0.000000 -1.000000 0.000000 1.000000
f 3/3/3 2/2/2 1/1/1
f 3/3/3 1/1/1 4/4/4
f 5/5/5 4/4/4 1/1/1
f 8/8/8 7/7/7 6/6/6
f 8/8/8 6/6/6 9/9/9
f 9/9/9 6/6/6 10/10/10
f 13/13/13 12/12/12 11/11/11
f 14/14/14 12/12/12 13/13/13
f 17/17/17 16/16/16 15/15/15
f 18/18/18 16/16/16 17/17/17
f 21/21/21 20/20/20 19/19/19
f 22/22/22 20/20/20 21/21/21
f 25/25/25 24/24/24 23/23/23
f 26/26/26 24/24/24 25/25/25
f 29/29/29 28/28/28 27/27/27
f 30/30/30 27/27/27 28/28/28
