mtllib SM_FacadeStair_LOD3.mtl
g SM_FacadeStair_LOD3
#Vertices 60
#Indices 78
#Section 0 Offset 0 NumIndices 27 MaterialIndex 2 MI_Brick_Wall
#Section 1 Offset 27 NumIndices 48 MaterialIndex 0 MI_Metal_Darkgrey
#Section 2 Offset 75 NumIndices 3 MaterialIndex 1 MI_Metal_Darkgrey
v 3.000002 2.624999 -0.000001
v 3.156435 2.214956 1.124606
v 2.999999 1.499999 -0.000001
v 0.137481 2.781760 -0.109059
v 0.087281 1.292902 0.351482
v 0.200002 2.625000 1.000000
v 0.137481 2.781760 -0.109059
v 0.099650 0.026819 0.003783
v 0.087281 1.292902 0.351482
v 4.500000 2.999999 -0.000000
v 3.000002 2.624999 -0.000001
v 2.999999 1.499999 -0.000001
v 3.000002 2.624999 -0.000001
v 0.200002 2.625000 1.000000
v 3.156435 2.214956 1.124606
v 0.137481 2.781760 -0.109059
v 3.000000 -0.000000 0.000000
v 6.000000 -0.000000 0.000000
v 4.459975 1.516566 -0.478161
v 6.187638 1.588724 -0.740534
v 3.299585 0.213491 -1.184226
v 3.000000 -0.000000 0.000000
v 4.459975 1.516566 -0.478161
v 2.812339 1.429654 -1.011120
v 0.343618 1.138792 -1.157398
v 3.299585 0.213491 -1.184226
v 0.343618 1.138792 -1.157398
v 0.158685 0.031780 -0.998559
v 3.299585 0.213491 -1.184226
v 4.546005 2.999755 -1.062784
v 6.187638 1.588724 -0.740534
v 6.098687 3.054516 -0.496290
v 4.546005 2.999755 -1.062784
v 6.098687 3.054516 -0.496290
v 4.500000 2.999999 -0.000000
v 2.812339 1.429654 -1.011120
v 3.299585 0.213491 -1.184226
v 4.459975 1.516566 -0.478161
v 6.187638 1.588724 -0.740534
v 4.546005 2.999755 -1.062784
v 2.812339 1.429654 -1.011120
v 2.812339 1.429654 -1.011120
v 2.999999 1.499999 -0.000001
v 0.087281 1.292902 0.351482
v 0.343618 1.138792 -1.157398
v 0.158685 0.031780 -0.998559
v 0.343618 1.138792 -1.157398
v 0.087281 1.292902 0.351482
v 0.099650 0.026819 0.003783
v 2.812339 1.429654 -1.011120
v 4.546005 2.999755 -1.062784
v 2.999999 1.499999 -0.000001
v 4.500000 2.999999 -0.000000
v 3.299585 0.213491 -1.184226
v 0.158685 0.031780 -0.998559
v 0.099650 0.026819 0.003783
v 3.000000 -0.000000 0.000000
v 0.200002 2.625000 1.000000
v 0.087281 1.292902 0.351482
v 3.156435 2.214956 1.124606
vt 0.384277 0.720703
vt 0.334961 0.861206
vt 0.243774 0.720703
vt 0.771484 0.834229
vt 0.585938 0.776855
vt 0.751953 0.695801
vt 0.016510 0.971832
vt 0.011818 0.672363
vt 0.032227 0.808350
vt 0.490479 0.994537
vt 0.327637 0.954224
vt 0.327881 0.832520
vt 0.595703 0.683838
vt 0.720703 0.333984
vt 0.736328 0.703369
vt 0.582031 0.326172
vt 0.340576 0.667969
vt 0.666016 0.667969
vt 0.505371 0.839233
vt 0.686523 0.840454
vt 0.782227 0.339844
vt 0.930664 0.296387
vt 0.872559 0.557617
vt 0.264160 0.852783
vt -0.043610 0.806763
vt 0.326660 0.703125
vt -0.043945 0.809082
vt -0.061401 0.668457
vt 0.325439 0.707764
vt 0.493896 1.037170
vt 0.711914 0.881287
vt 0.687988 1.053925
vt 0.922852 0.128418
vt 0.993164 -0.065430
vt 1.054688 0.133789
vt 0.266357 0.855347
vt 0.322266 0.697998
vt 0.484375 0.853516
vt 0.700684 0.865601
vt 0.496826 1.036285
vt 0.265625 0.855469
vt 0.928711 0.422363
vt 1.054688 0.398926
vt 1.091797 0.764648
vt 0.912109 0.728760
vt 0.930176 0.932129
vt 0.910645 0.792969
vt 1.098633 0.775269
vt 1.054688 0.932739
vt 0.928711 0.421875
vt 0.922363 0.129395
vt 1.054688 0.398926
vt 1.054688 0.133789
vt 0.782715 0.333496
vt 0.806152 -0.058594
vt 0.931152 -0.066406
vt 0.930664 0.296387
vt 0.443115 0.333984
vt 0.609375 0.322754
vt 0.493164 0.700684
vt1 0.675781 0.500732
vt1 0.627930 0.635986
vt1 0.540039 0.500732
vt1 0.710449 0.779297
vt1 0.531738 0.724121
vt1 0.691895 0.645752
vt1 0.343750 0.079590
vt1 0.011322 0.074707
vt1 0.162354 0.097168
vt1 0.368896 0.605469
vt1 0.324219 0.424805
vt1 0.189209 0.425293
vt1 0.395020 0.637207
vt1 0.515137 0.300293
vt1 0.530273 0.656006
vt1 0.381836 0.292480
vt1 0.008064 0.556641
vt1 0.008064 0.195312
vt1 0.197998 0.373535
vt1 0.199341 0.172852
vt1 0.844238 0.417480
vt1 0.987305 0.375488
vt1 0.931152 0.627197
vt1 0.328125 0.804321
vt1 0.032135 0.759888
vt1 0.388428 0.659912
vt1 0.031799 0.762085
vt1 0.014999 0.626221
vt1 0.387207 0.664307
vt1 0.548828 0.982285
vt1 0.758789 0.831787
vt1 0.735840 0.998427
vt1 0.730957 0.213867
vt1 0.798340 0.026367
vt1 0.857910 0.218750
vt1 0.330322 0.806763
vt1 0.384277 0.654785
vt1 0.540039 0.805054
vt1 0.748047 0.816650
vt1 0.551758 0.981415
vt1 0.329590 0.806885
vt1 0.736328 0.497070
vt1 0.857910 0.474121
vt1 0.893555 0.826782
vt1 0.720215 0.792236
vt1 0.737793 0.988144
vt1 0.718750 0.854004
vt1 0.900879 0.837036
vt1 0.857910 0.988708
vt1 0.736328 0.496582
vt1 0.729980 0.214844
vt1 0.857910 0.474121
vt1 0.857910 0.218750
vt1 0.844727 0.411133
vt1 0.867188 0.033203
vt1 0.987793 0.025879
vt1 0.987305 0.375488
vt1 0.345215 0.856445
vt1 0.355957 1.016953
vt1 -0.008171 0.904602
vn -1.000000 0.000000 0.000000
vn -1.000000 0.000000 0.000000
vn -1.000000 0.000000 0.000000
vn 1.000000 0.000000 0.000000
vn 1.000000 0.000000 0.000000
vn 1.000000 0.000000 0.000000
vn 0.000000 -0.000000 -1.000000
vn 0.000000 -0.000000 -1.000000
vn 0.000000 -0.000000 -1.000000
vn 0.000000 -0.000000 -1.000000
vn 0.000000 -0.000000 -1.000000
vn 0.000000 -0.000000 -1.000000
vn 0.000000 -1.000000 0.000000
vn 0.000000 -1.000000 0.000000
vn 0.000000 -1.000000 0.000000
vn 0.000000 -1.000000 0.000000
vn 0.000000 -0.000000 -1.000000
vn 0.000000 -0.000000 -1.000000
vn 0.000000 -0.000000 -1.000000
vn 0.000000 -0.000000 -1.000000
vn 0.708661 -0.708661 0.000000
vn 0.708661 -0.708661 0.000000
vn 0.708661 -0.708661 0.000000
vn 0.000000 -0.000000 -1.000000
vn 0.000000 -0.000000 -1.000000
vn 0.000000 -0.000000 -1.000000
vn 0.000000 -0.000000 -1.000000
vn 0.000000 -0.000000 -1.000000
vn 0.000000 -0.000000 -1.000000
vn 0.000000 -0.000000 -1.000000
vn 0.000000 -0.000000 -1.000000
vn 0.000000 -0.000000 -1.000000
vn 0.000000 1.000000 -0.000000
vn 0.000000 1.000000 -0.000000
vn 0.000000 1.000000 -0.000000
vn 0.000000 -0.000000 -1.000000
vn 0.000000 -0.000000 -1.000000
vn 0.000000 -0.000000 -1.000000
vn 0.000000 -0.000000 -1.000000
vn 0.000000 -0.000000 -1.000000
vn 0.000000 -0.000000 -1.000000
vn 0.000000 1.000000 -0.000000
vn 0.000000 1.000000 -0.000000
vn 0.000000 1.000000 -0.000000
vn 0.000000 1.000000 -0.000000
vn -1.000000 0.000000 0.000000
vn -1.000000 0.000000 0.000000
vn -1.000000 0.000000 0.000000
vn -1.000000 0.000000 0.000000
vn -0.708661 0.708661 -0.000000
vn -0.708661 0.708661 -0.000000
vn -0.708661 0.708661 -0.000000
vn -0.708661 0.708661 -0.000000
vn 0.000000 -1.000000 0.000000
vn 0.000000 -1.000000 0.000000
vn 0.000000 -1.000000 0.000000
vn 0.000000 -1.000000 0.000000
vn 0.000000 -0.000000 -1.000000
vn 0.000000 -0.000000 -1.000000
vn 0.000000 -0.000000 -1.000000
tan 0.000000 -0.000000 -1.000000 1.000000
tan 0.000000 -0.000000 -1.000000 1.000000
tan 0.000000 -0.000000 -1.000000 1.000000
tan 0.000000 0.000000 1.000000 1.000000
tan 0.000000 0.000000 1.000000 1.000000
tan 0.000000 0.000000 1.000000 1.000000
tan 0.000000 -1.000000 0.000000 1.000000
tan 0.000000 -1.000000 0.000000 1.000000
tan 0.000000 -1.000000 0.000000 1.000000
tan 0.000000 -1.000000 0.000000 1.000000
tan 0.000000 -1.000000 0.000000 1.000000
tan -0.007874 -1.000000 0.000000 1.000000
tan -1.000000 0.000000 0.000000 1.000000
tan -1.000000 0.000000 0.000000 1.000000
tan -1.000000 0.000000 0.000000 1.000000
tan -1.000000 0.000000 0.000000 1.000000
tan 0.000000 -1.000000 0.000000 1.000000
tan 0.000000 -1.000000 0.000000 1.000000
tan 0.000000 -1.000000 0.000000 1.000000
tan 0.000000 -1.000000 0.000000 1.000000
tan -0.708661 -0.708661 0.000000 1.000000
tan -0.708661 -0.708661 0.000000 1.000000
tan -0.708661 -0.708661 0.000000 1.000000
tan -0.023622 -1.000000 0.000000 1.000000
tan -0.031496 -1.000000 0.000000 1.000000
tan -0.023622 -1.000000 0.000000 1.000000
tan -0.023622 -1.000000 0.000000 1.000000
tan -0.039370 -1.000000 0.000000 1.000000
tan -0.023622 -1.000000 0.000000 1.000000
tan -0.023622 -1.000000 0.000000 1.000000
tan -0.031496 -1.000000 0.000000 1.000000
tan -0.031496 -1.000000 0.000000 1.000000
tan 1.000000 0.000000 0.000000 1.000000
tan 1.000000 0.000000 0.000000 1.000000
tan 1.000000 0.000000 0.000000 1.000000
tan 0.062992 -1.000000 0.000000 1.000000
tan 0.055118 -1.000000 0.000000 1.000000
tan 0.055118 -1.000000 0.000000 1.000000
tan -0.039370 -1.000000 0.000000 1.000000
tan -0.007874 -1.000000 0.000000 1.000000
tan 0.070866 -1.000000 0.000000 1.000000
tan 1.000000 0.000000 0.000000 1.000000
tan 1.000000 0.000000 0.000000 1.000000
tan 1.000000 0.000000 0.000000 1.000000
tan 1.000000 0.000000 0.000000 1.000000
tan 0.000000 1.000000 -0.000000 1.000000
tan 0.000000 1.000000 -0.000000 1.000000
tan 0.000000 1.000000 -0.000000 1.000000
tan 0.000000 1.000000 -0.000000 1.000000
tan 0.708661 0.708661 -0.000000 1.000000
tan 0.708661 0.708661 -0.000000 1.000000
tan 0.708661 0.708661 -0.000000 1.000000
tan 0.708661 0.708661 -0.000000 1.000000
tan -1.000000 0.000000 0.000000 1.000000
tan -1.000000 0.000000 0.000000 1.000000
tan -1.000000 0.000000 0.000000 1.000000
tan -1.000000 0.000000 0.000000 1.000000
tan -1.000000 0.000000 0.000000 1.000000
tan -1.000000 0.000000 0.000000 1.000000
tan -1.000000 0.000000 0.000000 1.000000
f 3/3/3 2/2/2 1/1/1
f 6/6/6 5/5/5 4/4/4
f 9/9/9 8/8/8 7/7/7
f 11/11/11 7/7/7 10/10/10
f 11/11/11 10/10/10 12/12/12
f 15/15/15 14/14/14 13/13/13
f 13/13/13 14/14/14 16/16/16
f 19/19/19 18/18/18 17/17/17
f 18/18/18 19/19/19 20/20/20
f 23/23/23 22/22/22 21/21/21
f 26/26/26 25/25/25 24/24/24
f 29/29/29 28/28/28 27/27/27
f 32/32/32 31/31/31 30/30/30
f 35/35/35 34/34/34 33/33/33
f 38/38/38 37/37/37 36/36/36
f 38/38/38 40/40/40 39/39/39
f 40/40/40 38/38/38 41/41/41
f 44/44/44 43/43/43 42/42/42
f 44/44/44 42/42/42 45/45/45
f 48/48/48 47/47/47 46/46/46
f 49/49/49 48/48/48 46/46/46
f 52/52/52 51/51/51 50/50/50
f 52/52/52 53/53/53 51/51/51
f 56/56/56 55/55/55 54/54/54
f 57/57/57 56/56/56 54/54/54
f 60/60/60 59/59/59 58/58/58
