mtllib SM_FacadeTopCornerChamf_b_LOD3.mtl
g SM_FacadeTopCornerChamf_b_LOD3
#Vertices 11
#Indices 15
#Section 0 Offset 0 NumIndices 3 MaterialIndex 1 MI_Metal_Darkgrey
#Section 1 Offset 3 NumIndices 12 MaterialIndex 0 MI_Brushed_Metal
v 3.636018 0.803898 2.998807
v 3.479445 0.845033 0.839111
v 2.938550 0.184070 1.027610
v 2.095881 0.844833 -0.407738
v 2.938550 0.184070 1.027610
v 3.479445 0.845033 0.839111
v 3.636018 0.803898 2.998807
v 0.159769 0.864453 2.821176
v 3.479445 0.845033 0.839111
v 2.095881 0.844833 -0.407738
v 0.055095 0.855629 -0.586239
vt 0.625977 0.060547
vt 0.621094 0.319824
vt 0.511230 0.335449
vt 0.621582 0.545166
vt 0.511230 0.340332
vt 0.616699 0.336426
vt 0.483643 0.030273
vt 0.461914 0.464844
vt 0.213989 0.050293
vt 0.058289 0.223145
vt 0.036194 0.478027
vt1 0.753418 0.036133
vt1 0.747070 0.375488
vt1 0.602539 0.395996
vt1 0.748047 0.670410
vt1 0.603027 0.402344
vt1 0.741699 0.397461
vt1 0.550781 0.401367
vt1 0.522461 0.965149
vt1 0.200562 0.427246
vt1 -0.001573 0.651611
vt1 -0.030258 0.982620
vn 0.472441 -0.881890 -0.007874
vn 0.472441 -0.881890 -0.007874
vn 0.472441 -0.881890 -0.007874
vn 0.346457 -0.874016 -0.346457
vn 0.346457 -0.874016 -0.346457
vn 0.346457 -0.874016 -0.346457
vn 0.000000 1.000000 -0.000000
vn 0.000000 1.000000 -0.000000
vn 0.000000 1.000000 -0.000000
vn 0.000000 1.000000 -0.000000
vn 0.000000 1.000000 -0.000000
tan 0.159836 0.077810 0.875442 1.000000
tan 0.500341 0.261331 0.751441 1.000000
tan 0.458615 0.238763 0.775497 1.000000
tan 0.739103 0.103664 0.477587 1.000000
tan 0.488499 -0.103664 0.750015 1.000000
tan 0.346705 -0.188232 0.821563 1.000000
tan 1.000000 0.000000 0.000000 1.000000
tan 1.000000 0.000000 0.000000 1.000000
tan 1.000000 0.000000 0.000000 1.000000
tan 1.000000 0.000000 0.000000 1.000000
tan 1.000000 0.000000 0.000000 1.000000
f 3/3/3 2/2/2 1/1/1
f 6/6/6 5/5/5 4/4/4
f 9/9/9 8/8/8 7/7/7
f 10/10/10 8/8/8 9/9/9
f 10/10/10 11/11/11 8/8/8
