mtllib SM_FacadeOctagon_LOD2.mtl
g SM_FacadeOctagon_LOD2
#Vertices 46
#Indices 78
#Section 0 Offset 0 NumIndices 78 MaterialIndex 0 MI_WhiteFillBasic
v 3.629372 3.547790 0.045956
v 4.000000 3.000000 3.000000
v 3.000000 3.999999 3.000000
v 1.000000 3.999999 3.000000
v 1.001774 4.003985 0.043124
v 3.000000 3.999999 3.000000
v 3.629372 3.547790 0.045956
v 3.629372 3.547790 0.045956
v 4.000000 1.000000 3.000000
v 4.000000 3.000000 3.000000
v 4.000989 1.002550 0.022761
v -0.004012 1.001763 0.043220
v 1.000000 -0.000000 3.000000
v 1.002576 -0.000985 0.022493
v 0.000000 1.000000 3.000000
v 0.000000 3.000000 3.000000
v -0.004012 1.001763 0.043220
v -0.000957 2.997410 0.022399
v 0.000000 1.000000 3.000000
v 0.000000 3.000000 3.000000
v 1.001774 4.003985 0.043124
v 1.000000 3.999999 3.000000
v -0.000957 2.997410 0.022399
v 4.000000 1.000000 3.000000
v 4.000989 1.002550 0.022761
v 2.998229 -0.004035 0.043037
v 3.000000 -0.000000 3.000000
v 2.998229 -0.004035 0.043037
v 1.002576 -0.000985 0.022493
v 1.000000 -0.000000 3.000000
v 3.000000 -0.000000 3.000000
v 1.000000 -0.000000 3.000000
v 4.000000 1.000000 3.000000
v 3.000000 -0.000000 3.000000
v 4.000000 3.000000 3.000000
v 0.000000 1.000000 3.000000
v 0.000000 3.000000 3.000000
v 1.000000 3.999999 3.000000
v 3.000000 3.999999 3.000000
v 4.000989 1.002550 0.022761
v 3.629372 3.547790 0.045956
v 2.998229 -0.004035 0.043037
v 1.002576 -0.000985 0.022493
v -0.004012 1.001763 0.043220
v -0.000957 2.997410 0.022399
v 1.001774 4.003985 0.043124
vt -0.033569 0.335449
vt 0.036224 0.764160
vt -0.115967 0.764160
vt 0.099243 -0.118164
vt 0.099060 0.310547
vt -0.115967 -0.118164
vt -0.183838 0.310547
vt -0.022690 0.335449
vt 0.251465 0.764160
vt 0.036224 0.764160
vt 0.251221 0.332031
vt 0.466309 0.310547
vt 0.618652 -0.118164
vt 0.619141 0.313965
vt 0.466797 -0.118164
vt 0.251465 -0.118164
vt 0.466553 0.310547
vt 0.251709 0.313965
vt 0.466797 -0.118164
vt 0.251465 -0.118164
vt 0.098816 0.310547
vt 0.099243 -0.118164
vt 0.251709 0.313965
vt 0.251465 0.764160
vt 0.251221 0.332031
vt 0.404053 0.334961
vt 0.403564 0.764160
vt 0.403809 0.334961
vt 0.618652 0.332031
vt 0.618652 0.764160
vt 0.403564 0.764160
vt 1.018555 0.346680
vt 0.644043 0.471680
vt 0.769043 0.346680
vt 0.644043 0.721680
vt 1.143555 0.471680
vt 1.143555 0.721680
vt 1.018555 0.846558
vt 0.769043 0.846558
vt 0.777832 -0.142578
vt 1.091797 -0.096680
vt 0.652344 -0.016602
vt 0.652344 0.231934
vt 0.778320 0.357422
vt 1.026367 0.355957
vt 1.151367 0.229980
vt1 0.081116 0.710205
vt1 0.142944 0.991936
vt1 0.008064 0.991936
vt1 0.198853 0.427734
vt1 0.198730 0.709961
vt1 0.008064 0.427734
vt1 -0.052094 0.709717
vt1 0.090759 0.710205
vt1 0.333740 0.991936
vt1 0.142944 0.991936
vt1 0.333496 0.707764
vt1 0.524414 0.709961
vt1 0.659668 0.427734
vt1 0.659668 0.712158
vt1 0.524414 0.427734
vt1 0.333740 0.427734
vt1 0.524414 0.709961
vt1 0.333984 0.712158
vt1 0.524414 0.427734
vt1 0.333740 0.427734
vt1 0.198486 0.709961
vt1 0.198853 0.427734
vt1 0.333984 0.712158
vt1 0.333740 0.991936
vt1 0.333496 0.707764
vt1 0.469238 0.709717
vt1 0.468750 0.991936
vt1 0.468994 0.709717
vt1 0.659180 0.707764
vt1 0.659668 0.991936
vt1 0.468750 0.991936
vt1 0.713379 0.029785
vt1 0.427246 0.125000
vt1 0.522461 0.029785
vt1 0.427246 0.315918
vt1 0.809082 0.125000
vt1 0.809082 0.315918
vt1 0.713379 0.411621
vt1 0.522461 0.411621
vt1 0.109497 0.023926
vt1 0.349854 0.058594
vt1 0.013611 0.119629
vt1 0.013710 0.310059
vt1 0.110046 0.405762
vt1 0.299561 0.404785
vt1 0.395508 0.308594
vn 0.708661 0.708661 -0.000000
vn 0.708661 0.708661 -0.000000
vn 0.708661 0.708661 -0.000000
vn 0.000000 1.000000 -0.000000
vn 0.000000 1.000000 -0.000000
vn 0.000000 1.000000 -0.000000
vn 0.000000 1.000000 -0.000000
vn 1.000000 0.000000 0.000000
vn 1.000000 0.000000 0.000000
vn 1.000000 0.000000 0.000000
vn 1.000000 0.000000 0.000000
vn -0.708661 -0.708661 0.000000
vn -0.708661 -0.708661 0.000000
vn -0.708661 -0.708661 0.000000
vn -0.708661 -0.708661 0.000000
vn -1.000000 0.000000 0.000000
vn -1.000000 0.000000 0.000000
vn -1.000000 0.000000 0.000000
vn -1.000000 0.000000 0.000000
vn -0.708661 0.708661 -0.000000
vn -0.708661 0.708661 -0.000000
vn -0.708661 0.708661 -0.000000
vn -0.708661 0.708661 -0.000000
vn 0.708661 -0.708661 0.000000
vn 0.708661 -0.708661 0.000000
vn 0.708661 -0.708661 0.000000
vn 0.708661 -0.708661 0.000000
vn 0.000000 -1.000000 0.000000
vn 0.000000 -1.000000 0.000000
vn 0.000000 -1.000000 0.000000
vn 0.000000 -1.000000 0.000000
vn 0.000000 0.000000 1.000000
vn 0.000000 0.000000 1.000000
vn 0.000000 0.000000 1.000000
vn 0.000000 0.000000 1.000000
vn 0.000000 0.000000 1.000000
vn 0.000000 0.000000 1.000000
vn 0.000000 0.000000 1.000000
vn 0.000000 0.000000 1.000000
vn 0.000000 -0.000000 -1.000000
vn 0.000000 -0.000000 -1.000000
vn 0.000000 -0.000000 -1.000000
vn 0.000000 -0.000000 -1.000000
vn 0.000000 -0.000000 -1.000000
vn 0.000000 -0.000000 -1.000000
vn 0.000000 -0.000000 -1.000000
tan 0.000000 -0.000000 -1.004402 1.000000
tan 0.000000 -0.000000 -1.004402 1.000000
tan 0.000000 -0.000000 -1.004402 1.000000
tan 0.000000 0.000000 1.000000 1.000000
tan 0.000000 0.000000 1.000000 1.000000
tan 0.000000 0.000000 1.000000 1.000000
tan 0.000000 0.000000 1.000000 1.000000
tan 0.000000 -0.000000 -1.000000 1.000000
tan 0.000000 -0.000000 -1.000000 1.000000
tan 0.000000 -0.000000 -1.000000 1.000000
tan 0.000000 -0.000000 -1.000000 1.000000
tan 0.000000 0.000000 1.004402 1.000000
tan 0.000000 0.000000 1.004402 1.000000
tan 0.000000 0.000000 1.004402 1.000000
tan 0.000000 0.000000 1.004402 1.000000
tan 0.000000 0.000000 1.000000 1.000000
tan 0.000000 0.000000 1.000000 1.000000
tan 0.000000 0.000000 1.000000 1.000000
tan 0.000000 0.000000 1.000000 1.000000
tan 0.000000 0.000000 1.004402 1.000000
tan 0.000000 0.000000 1.004402 1.000000
tan 0.000000 0.000000 1.004402 1.000000
tan 0.000000 0.000000 1.004402 1.000000
tan 0.000000 -0.000000 -1.004402 1.000000
tan 0.000000 -0.000000 -1.004402 1.000000
tan 0.000000 -0.000000 -1.004402 1.000000
tan 0.000000 -0.000000 -1.004402 1.000000
tan 0.000000 -0.000000 -1.000000 1.000000
tan 0.000000 -0.000000 -1.000000 1.000000
tan 0.000000 -0.000000 -1.000000 1.000000
tan 0.000000 -0.000000 -1.000000 1.000000
tan 0.000000 -1.000000 0.000000 1.000000
tan 0.000000 -1.000000 0.000000 1.000000
tan 0.000000 -1.000000 0.000000 1.000000
tan 0.000000 -1.000000 0.000000 1.000000
tan 0.000000 -1.000000 0.000000 1.000000
tan 0.000000 -1.000000 0.000000 1.000000
tan 0.000000 -1.000000 0.000000 1.000000
tan 0.000000 -1.000000 0.000000 1.000000
tan 1.000000 0.007874 -0.000000 1.000000
tan 1.000000 0.007874 -0.000000 1.000000
tan 1.000000 0.000000 0.000000 1.000000
tan 1.000000 -0.007874 0.000000 1.000000
tan 1.000000 0.000000 0.000000 1.000000
tan 1.000000 0.007874 -0.000000 1.000000
tan 1.000000 0.000000 0.000000 1.000000
f 3/3/3 2/2/2 1/1/1
f 6/6/6 5/5/5 4/4/4
f 7/7/7 5/5/5 6/6/6
f 10/10/10 9/9/9 8/8/8
f 11/11/11 8/8/8 9/9/9
f 14/14/14 13/13/13 12/12/12
f 15/15/15 12/12/12 13/13/13
f 18/18/18 17/17/17 16/16/16
f 19/19/19 16/16/16 17/17/17
f 22/22/22 21/21/21 20/20/20
f 23/23/23 20/20/20 21/21/21
f 26/26/26 25/25/25 24/24/24
f 24/24/24 27/27/27 26/26/26
f 30/30/30 29/29/29 28/28/28
f 31/31/31 30/30/30 28/28/28
f 34/34/34 33/33/33 32/32/32
f 33/33/33 35/35/35 32/32/32
f 32/32/32 35/35/35 36/36/36
f 36/36/36 35/35/35 37/37/37
f 38/38/38 37/37/37 35/35/35
f 39/39/39 38/38/38 35/35/35
f 42/42/42 41/41/41 40/40/40
f 43/43/43 41/41/41 42/42/42
f 44/44/44 41/41/41 43/43/43
f 45/45/45 41/41/41 44/44/44
f 46/46/46 41/41/41 45/45/45
