mtllib SM_FacadeTop_a_LOD2.mtl
g SM_FacadeTop_a_LOD2
#Vertices 52
#Indices 78
#Section 0 Offset 0 NumIndices 36 MaterialIndex 0 MI_Metal_Darkgrey
#Section 1 Offset 36 NumIndices 42 MaterialIndex 1 MI_Brushed_Metal
v -0.000000 0.000000 -0.000000
v 3.000002 0.250001 -0.000001
v -0.000000 0.250000 0.000000
v 3.000000 0.000000 -0.000000
v 2.999991 1.991348 -0.500000
v 2.999998 2.250000 -0.000000
v -0.000002 2.250000 -0.000000
v -0.000000 1.991348 -0.500000
v -0.000002 2.250000 -0.000000
v 2.999998 2.250000 -0.000000
v -0.000001 2.999999 0.999999
v 2.999999 3.000000 0.999999
v 0.000000 1.694809 -0.350000
v 3.000000 0.805192 -0.350000
v 3.000000 1.694808 -0.350000
v -0.000000 0.805191 -0.350000
v -0.000001 2.999999 0.999999
v 2.999999 3.000000 0.999999
v 2.999999 3.000000 1.199999
v -0.000000 3.000000 1.199999
v 3.000001 3.750000 1.199999
v -0.000000 3.750000 1.199999
v -0.000000 3.000000 1.199999
v 2.999999 3.000000 1.199999
v 3.000002 0.805191 -0.500000
v -0.000000 0.805191 -0.500000
v -0.000000 0.508652 -0.500000
v 3.000002 0.508652 -0.500000
v 3.000002 0.508652 -0.500000
v -0.000000 0.508652 -0.500000
v -0.000000 0.250000 0.000000
v 3.000002 0.250001 -0.000001
v 3.000000 1.694808 -0.500000
v 2.999991 1.991348 -0.500000
v -0.000002 1.694808 -0.500000
v -0.000000 1.991348 -0.500000
v 3.000000 0.805192 -0.350000
v -0.000000 0.805191 -0.500000
v 3.000002 0.805191 -0.500000
v -0.000000 0.805191 -0.350000
v 3.000000 1.694808 -0.500000
v -0.000002 1.694808 -0.500000
v 0.000000 1.694809 -0.350000
v 3.000000 1.694808 -0.350000
v 3.000000 4.000000 0.999999
v -0.000000 4.000000 0.999999
v 3.000002 3.750000 1.000000
v -0.000000 3.750000 0.999999
v 3.000002 3.750000 1.000000
v -0.000000 3.750000 0.999999
v -0.000000 3.750000 1.199999
v 3.000001 3.750000 1.199999
vt 0.657227 0.149414
vt 0.625977 0.524170
vt 0.625977 0.149414
vt 0.657227 0.524170
vt 0.244263 0.149414
vt 0.314453 0.149414
vt 0.314453 0.524170
vt 0.244263 0.524170
vt 0.314453 0.524170
vt 0.314453 0.149414
vt 0.470703 0.524170
vt 0.470703 0.149414
vt 0.188354 0.639404
vt 0.562988 0.528320
vt 0.562988 0.639404
vt 0.188354 0.528320
vt 0.470703 0.524170
vt 0.470703 0.149414
vt 0.495850 0.149414
vt 0.495850 0.524170
vt 0.717773 0.524170
vt 0.717773 0.149414
vt 0.811523 0.149414
vt 0.811523 0.524170
vt 0.518555 0.524170
vt 0.518555 0.149414
vt 0.555664 0.149414
vt 0.555664 0.524170
vt 0.555664 0.524170
vt 0.555664 0.149414
vt 0.625977 0.149414
vt 0.625977 0.524170
vt 0.207153 0.149414
vt 0.244263 0.149414
vt 0.207153 0.524170
vt 0.244263 0.524170
vt 0.500000 0.524170
vt 0.518555 0.149414
vt 0.518555 0.524170
vt 0.500000 0.149414
vt 0.207153 0.149414
vt 0.207153 0.524170
vt 0.188354 0.524170
vt 0.188354 0.149414
vt 0.661133 0.524170
vt 0.661133 0.149414
vt 0.692383 0.524170
vt 0.692383 0.149414
vt 0.692383 0.524170
vt 0.692383 0.149414
vt 0.717773 0.149414
vt 0.717773 0.524170
vt1 0.780273 0.381836
vt1 0.729492 0.991943
vt1 0.729492 0.381836
vt1 0.780273 0.991936
vt1 0.098877 0.381836
vt1 0.213257 0.381836
vt1 0.213257 0.991943
vt1 0.098877 0.991936
vt1 0.213257 0.991943
vt1 0.213257 0.381836
vt1 0.467529 0.991943
vt1 0.467529 0.381836
vt1 0.798340 0.381836
vt1 0.979004 0.991936
vt1 0.798340 0.991936
vt1 0.979004 0.381836
vt1 0.467529 0.991936
vt1 0.467529 0.381836
vt1 0.507812 0.381836
vt1 0.507812 0.991936
vt1 0.008064 0.210449
vt1 0.618164 0.210449
vt1 0.618164 0.363281
vt1 0.008064 0.363281
vt1 0.554688 0.991943
vt1 0.554688 0.381836
vt1 0.614746 0.381836
vt1 0.614746 0.991943
vt1 0.614746 0.991943
vt1 0.614746 0.381836
vt1 0.729492 0.381836
vt1 0.729492 0.991943
vt1 0.038544 0.381836
vt1 0.098877 0.381836
vt1 0.038544 0.991943
vt1 0.098877 0.991936
vt1 0.523926 0.991936
vt1 0.554688 0.381836
vt1 0.554688 0.991943
vt1 0.523926 0.381836
vt1 0.038544 0.381836
vt1 0.038544 0.991943
vt1 0.008064 0.991936
vt1 0.008064 0.381836
vt1 0.008064 0.119141
vt1 0.618164 0.119141
vt1 0.008057 0.169922
vt1 0.618164 0.169922
vt1 0.008057 0.169922
vt1 0.618164 0.169922
vt1 0.618164 0.210449
vt1 0.008057 0.210449
vn 0.000000 -0.000000 -1.000000
vn 0.000000 -0.000000 -1.000000
vn 0.000000 -0.000000 -1.000000
vn 0.000000 -0.000000 -1.000000
vn 0.000000 0.889764 -0.456693
vn 0.000000 0.889764 -0.456693
vn 0.000000 0.889764 -0.456693
vn 0.000000 0.889764 -0.456693
vn 0.000000 0.803149 -0.598425
vn 0.000000 0.803149 -0.598425
vn 0.000000 0.803149 -0.598425
vn 0.000000 0.803149 -0.598425
vn 0.000000 -0.000000 -1.000000
vn 0.000000 -0.000000 -1.000000
vn 0.000000 -0.000000 -1.000000
vn 0.000000 -0.000000 -1.000000
vn 0.000000 1.000000 -0.000000
vn 0.000000 1.000000 -0.000000
vn 0.000000 1.000000 -0.000000
vn 0.000000 1.000000 -0.000000
vn 0.000000 -0.000000 -1.000000
vn 0.000000 -0.000000 -1.000000
vn 0.000000 -0.000000 -1.000000
vn 0.000000 -0.000000 -1.000000
vn 0.000000 -0.000000 -1.000000
vn 0.000000 -0.000000 -1.000000
vn 0.000000 -0.000000 -1.000000
vn 0.000000 -0.000000 -1.000000
vn 0.000000 -0.889764 -0.456693
vn 0.000000 -0.889764 -0.456693
vn 0.000000 -0.889764 -0.456693
vn 0.000000 -0.889764 -0.456693
vn 0.000000 -0.000000 -1.000000
vn 0.000000 -0.000000 -1.000000
vn 0.000000 -0.000000 -1.000000
vn 0.000000 -0.000000 -1.000000
vn 0.000000 1.000000 -0.000000
vn 0.000000 1.000000 -0.000000
vn 0.000000 1.000000 -0.000000
vn 0.000000 1.000000 -0.000000
vn 0.000000 -1.000000 0.000000
vn 0.000000 -1.000000 0.000000
vn 0.000000 -1.000000 0.000000
vn 0.000000 -1.000000 0.000000
vn 0.000000 -0.000000 -1.000000
vn 0.000000 -0.000000 -1.000000
vn 0.000000 -0.000000 -1.000000
vn 0.000000 -0.000000 -1.000000
vn 0.000000 -1.000000 0.000000
vn 0.000000 -1.000000 0.000000
vn 0.000000 -1.000000 0.000000
vn 0.000000 -1.000000 0.000000
tan -1.000000 0.000000 0.000000 1.000000
tan -1.000000 0.000000 0.000000 1.000000
tan -1.000000 0.000000 0.000000 1.000000
tan -1.000000 0.000000 0.000000 1.000000
tan 0.893360 0.000000 0.000000 1.000000
tan 0.911340 0.000000 0.000000 1.000000
tan 0.896956 0.000000 0.000000 1.000000
tan 0.943890 0.000000 0.000000 1.000000
tan 0.886354 0.000000 0.000000 1.000000
tan 0.919214 0.000000 0.000000 1.000000
tan 0.901978 0.000000 0.000000 1.000000
tan 0.920826 0.000000 0.000000 1.000000
tan 0.000000 -1.000000 0.000000 1.000000
tan 0.000000 -1.000000 0.000000 1.000000
tan 0.000000 -1.000000 0.000000 1.000000
tan 0.000000 -1.000000 0.000000 1.000000
tan 1.000000 0.000000 0.000000 1.000000
tan 1.000000 0.000000 0.000000 1.000000
tan 1.000000 0.000000 0.000000 1.000000
tan 1.000000 0.000000 0.000000 1.000000
tan -1.000000 0.000000 0.000000 1.000000
tan -1.000000 0.000000 0.000000 1.000000
tan -1.000000 0.000000 0.000000 1.000000
tan -1.000000 0.000000 0.000000 1.000000
tan -1.000000 0.000000 0.000000 1.000000
tan -1.000000 0.000000 0.000000 1.000000
tan -1.000000 0.000000 0.000000 1.000000
tan -1.000000 0.000000 0.000000 1.000000
tan -0.893360 0.000000 0.000000 1.000000
tan -0.943890 0.000000 0.000000 1.000000
tan -0.943890 0.000000 0.000000 1.000000
tan -0.893360 0.000000 0.000000 1.000000
tan 1.000000 0.000000 0.000000 1.000000
tan 1.000000 0.000000 0.000000 1.000000
tan 1.000000 0.000000 0.000000 1.000000
tan 1.000000 0.000000 0.000000 1.000000
tan -1.000000 0.000000 0.000000 1.000000
tan -1.000000 0.000000 0.000000 1.000000
tan -1.000000 0.000000 0.000000 1.000000
tan -1.000000 0.000000 0.000000 1.000000
tan 1.000000 0.000000 0.000000 1.000000
tan 1.000000 0.000000 0.000000 1.000000
tan 1.000000 0.000000 0.000000 1.000000
tan 1.000000 0.000000 0.000000 1.000000
tan -1.000000 0.000000 0.000000 1.000000
tan -1.000000 0.000000 0.000000 1.000000
tan -1.000000 0.000000 0.000000 1.000000
tan -1.000000 0.000000 0.000000 1.000000
tan -1.000000 0.000000 0.000000 1.000000
tan -1.000000 0.000000 0.000000 1.000000
tan -1.000000 0.000000 0.000000 1.000000
tan -1.000000 0.000000 0.000000 1.000000
f 3/3/3 2/2/2 1/1/1
f 4/4/4 1/1/1 2/2/2
f 7/7/7 6/6/6 5/5/5
f 7/7/7 5/5/5 8/8/8
f 11/11/11 10/10/10 9/9/9
f 11/11/11 12/12/12 10/10/10
f 15/15/15 14/14/14 13/13/13
f 14/14/14 16/16/16 13/13/13
f 19/19/19 18/18/18 17/17/17
f 20/20/20 19/19/19 17/17/17
f 23/23/23 22/22/22 21/21/21
f 24/24/24 23/23/23 21/21/21
f 27/27/27 26/26/26 25/25/25
f 28/28/28 27/27/27 25/25/25
f 31/31/31 30/30/30 29/29/29
f 32/32/32 31/31/31 29/29/29
f 35/35/35 34/34/34 33/33/33
f 35/35/35 36/36/36 34/34/34
f 39/39/39 38/38/38 37/37/37
f 40/40/40 37/37/37 38/38/38
f 43/43/43 42/42/42 41/41/41
f 44/44/44 43/43/43 41/41/41
f 47/47/47 46/46/46 45/45/45
f 47/47/47 48/48/48 46/46/46
f 51/51/51 50/50/50 49/49/49
f 52/52/52 51/51/51 49/49/49
