mtllib SM_FacadeBeamDiag_LOD2.mtl
g SM_FacadeBeamDiag_LOD2
#Vertices 82
#Indices 114
#Section 0 Offset 0 NumIndices 78 MaterialIndex 1 MI_Metal_Darkgrey
#Section 1 Offset 78 NumIndices 6 MaterialIndex 0 MI_Brick_Wall
#Section 2 Offset 84 NumIndices 30 MaterialIndex 2 MI_Brushed_Metal
v 2.625000 3.000001 0.083437
v 2.627494 0.000004 0.028955
v 2.708436 3.000003 -0.000000
v 0.368078 3.000003 0.023636
v 0.291563 -0.000000 0.000000
v 0.375000 0.000001 0.083437
v 1.959834 0.007854 0.273649
v 1.933603 0.376559 0.318749
v 1.825653 0.399857 0.411310
v 2.608109 0.009903 0.280327
v 2.361090 0.350464 0.409139
v 2.253699 0.365867 0.310151
v 1.026059 2.990506 0.265803
v 1.066474 2.623426 0.318939
v 1.183592 2.608405 0.408064
v 0.399676 2.993630 0.273304
v 0.628481 2.639060 0.405150
v 0.746301 2.634131 0.310151
v -0.000000 3.000000 -0.000000
v 0.291563 -0.000000 0.000000
v 0.368078 3.000003 0.023636
v -0.000000 -0.000000 0.000000
v 2.625000 3.000001 0.083437
v 2.624999 3.000001 1.000000
v 2.627494 0.000004 0.028955
v 2.624999 0.000001 1.000000
v 2.708436 3.000003 -0.000000
v 3.000000 -0.000000 0.000000
v 3.000000 3.000000 -0.000000
v 2.627494 0.000004 0.028955
v 0.375000 0.000001 0.083437
v 0.374999 3.000001 0.999999
v 0.368078 3.000003 0.023636
v 0.374999 0.000001 1.000000
v 1.183592 2.608405 0.408064
v 1.050000 3.000000 1.079727
v 1.026059 2.990506 0.265803
v 1.172770 2.600479 1.008566
v 1.825653 0.399857 0.411310
v 1.816606 0.384943 1.010614
v 1.959834 0.007854 0.273649
v 1.950000 0.000000 1.079727
v 0.746301 2.634131 0.310151
v 1.026059 2.990506 0.265803
v 0.399676 2.993630 0.273304
v 1.066474 2.623426 0.318939
v 1.959834 0.007854 0.273649
v 2.253699 0.365867 0.310151
v 1.933603 0.376559 0.318749
v 2.608109 0.009903 0.280327
v 0.399676 2.993630 0.273304
v 0.375000 3.000000 1.079727
v 0.628481 2.639060 0.405150
v 0.641569 2.649920 1.010788
v 2.608109 0.009903 0.280327
v 2.369970 0.359766 1.008239
v 2.361090 0.350464 0.409139
v 2.625000 0.000000 1.079727
v 2.624999 3.000001 1.000000
v 0.374999 3.000001 0.999999
v 2.624999 0.000001 1.000000
v 0.374999 0.000001 1.000000
v 0.746301 2.634131 0.310151
v 1.933603 0.376559 0.318749
v 1.066474 2.623426 0.318939
v 2.253699 0.365867 0.310151
v 0.641569 2.649920 1.010788
v 1.825653 0.399857 0.411310
v 0.628481 2.639060 0.405150
v 1.816606 0.384943 1.010614
v 0.628481 2.639060 0.405150
v 1.825653 0.399857 0.411310
v 0.746301 2.634131 0.310151
v 1.933603 0.376559 0.318749
v 1.066474 2.623426 0.318939
v 2.253699 0.365867 0.310151
v 1.183592 2.608405 0.408064
v 2.361090 0.350464 0.409139
v 2.361090 0.350464 0.409139
v 1.172770 2.600479 1.008566
v 1.183592 2.608405 0.408064
v 2.369970 0.359766 1.008239
vt 0.927734 0.334473
vt 0.932617 -0.040039
vt 0.942383 0.334473
vt 0.411377 0.334473
vt 0.402588 -0.040039
vt 0.417480 -0.040039
vt 0.673828 0.818726
vt 0.673828 0.773682
vt 0.687500 0.767700
vt 0.597656 0.839722
vt 0.604004 0.786011
vt 0.620605 0.782227
vt 0.389404 0.818848
vt 0.390869 0.773682
vt 0.406006 0.768311
vt 0.316162 0.839722
vt 0.320312 0.785400
vt 0.337891 0.782227
vt 0.366211 0.334473
vt 0.402588 -0.040039
vt 0.412109 0.334473
vt 0.366211 -0.040039
vt 0.927734 0.334473
vt 0.812988 0.334473
vt 0.934570 -0.040039
vt 0.812988 -0.040039
vt 0.942383 0.334473
vt 0.978516 -0.040039
vt 0.978516 0.334473
vt 0.932129 -0.040039
vt 0.417480 -0.040039
vt 0.531738 0.334473
vt 0.409912 0.334473
vt 0.531738 -0.040039
vt 0.415527 0.770508
vt 0.486572 0.838501
vt 0.387207 0.816406
vt 0.488037 0.786255
vt 0.698730 0.770264
vt 0.771484 0.786865
vt 0.670898 0.816284
vt 0.769043 0.838501
vt 0.344727 0.783813
vt 0.389648 0.816895
vt 0.314941 0.837769
vt 0.381104 0.771484
vt 0.674316 0.816528
vt 0.627441 0.783813
vt 0.663574 0.771484
vt 0.596680 0.837524
vt 0.317871 0.838867
vt 0.219116 0.819458
vt 0.313232 0.784302
vt 0.239990 0.768555
vt 0.599609 0.838989
vt 0.522461 0.767578
vt 0.595215 0.784790
vt 0.501953 0.819458
vt 0.620605 0.668701
vt 0.369629 0.668701
vt 0.620605 0.333984
vt 0.369629 0.333984
vt 0.776855 0.575439
vt 0.458008 0.575195
vt 0.756836 0.540771
vt 0.438232 0.540527
vt 0.784668 0.663818
vt 0.467041 0.588867
vt 0.784180 0.588135
vt 0.465820 0.663818
vt 0.784180 0.590332
vt 0.467041 0.589600
vt 0.776855 0.573242
vt 0.458008 0.573975
vt 0.756836 0.541992
vt 0.438232 0.542480
vt 0.748535 0.525635
vt 0.430420 0.526367
vt 0.430420 0.527344
vt 0.748535 0.452637
vt 0.748535 0.527344
vt 0.430908 0.452637
vt1 0.588379 0.685547
vt1 0.595215 0.158691
vt1 0.608887 0.685547
vt1 0.749023 0.685547
vt1 0.736328 0.158691
vt1 0.757324 0.158691
vt1 0.270752 0.050293
vt1 0.271240 0.113281
vt1 0.251465 0.121582
vt1 0.377441 0.020508
vt1 0.369141 0.096191
vt1 0.345703 0.101562
vt1 0.247437 0.416016
vt1 0.249512 0.352539
vt1 0.270508 0.345215
vt1 0.144531 0.445312
vt1 0.150146 0.369141
vt1 0.174927 0.364746
vt1 0.685059 0.685547
vt1 0.736328 0.158691
vt1 0.750000 0.685547
vt1 0.685059 0.158691
vt1 0.588379 0.685547
vt1 0.427246 0.685547
vt1 0.597656 0.158691
vt1 0.427246 0.158691
vt1 0.608887 0.685547
vt1 0.660156 0.158691
vt1 0.660156 0.685547
vt1 0.594727 0.158691
vt1 0.757324 0.158691
vt1 0.917969 0.685547
vt1 0.746582 0.685547
vt1 0.917969 0.158691
vt1 0.283936 0.348145
vt1 0.383545 0.443848
vt1 0.244141 0.412598
vt1 0.385986 0.370605
vt1 0.235962 0.118164
vt1 0.133911 0.095215
vt1 0.274902 0.053711
vt1 0.136963 0.022461
vt1 0.184692 0.366699
vt1 0.247803 0.413574
vt1 0.142700 0.442871
vt1 0.235718 0.349609
vt1 0.270508 0.053223
vt1 0.335938 0.099121
vt1 0.284912 0.116211
vt1 0.379150 0.023926
vt1 0.146973 0.444336
vt1 0.008064 0.416992
vt1 0.140259 0.367676
vt1 0.037323 0.345215
vt1 0.375000 0.021973
vt1 0.483154 0.122070
vt1 0.381104 0.097656
vt1 0.512695 0.049316
vt1 0.403076 0.991943
vt1 0.008064 0.991943
vt1 0.403076 0.465332
vt1 0.008064 0.465332
vt1 0.908203 0.871948
vt1 0.460449 0.871582
vt1 0.880371 0.823120
vt1 0.432617 0.822754
vt1 0.919434 0.996059
vt1 0.472900 0.890808
vt1 0.918457 0.889771
vt1 0.471191 0.996006
vt1 0.918457 0.892700
vt1 0.472900 0.891724
vt1 0.908203 0.869019
vt1 0.460449 0.869751
vt1 0.880371 0.824829
vt1 0.432617 0.825806
vt1 0.868652 0.802124
vt1 0.421387 0.802856
vt1 0.421387 0.804199
vt1 0.868164 0.698975
vt1 0.868652 0.804443
vt1 0.422119 0.699219
vn -0.708661 -0.000000 -0.708661
vn -0.708661 -0.000000 -0.708661
vn -0.708661 -0.000000 -0.708661
vn 0.708661 -0.000000 -0.708661
vn 0.708661 -0.000000 -0.708661
vn 0.708661 -0.000000 -0.708661
vn -0.629921 -0.330709 -0.708661
vn -0.629921 -0.330709 -0.708661
vn -0.629921 -0.330709 -0.708661
vn 0.629921 0.330709 -0.708661
vn 0.629921 0.330709 -0.708661
vn 0.629921 0.330709 -0.708661
vn 0.629921 0.330709 -0.708661
vn 0.629921 0.330709 -0.708661
vn 0.629921 0.330709 -0.708661
vn -0.629921 -0.330709 -0.708661
vn -0.629921 -0.330709 -0.708661
vn -0.629921 -0.330709 -0.708661
vn 0.000000 -0.000000 -1.000000
vn 0.000000 -0.000000 -1.000000
vn 0.000000 -0.000000 -1.000000
vn 0.000000 -0.000000 -1.000000
vn -1.000000 0.000000 0.000000
vn -1.000000 0.000000 0.000000
vn -1.000000 0.000000 0.000000
vn -1.000000 0.000000 0.000000
vn 0.000000 -0.000000 -1.000000
vn 0.000000 -0.000000 -1.000000
vn 0.000000 -0.000000 -1.000000
vn 0.000000 -0.000000 -1.000000
vn 1.000000 0.000000 0.000000
vn 1.000000 0.000000 0.000000
vn 1.000000 0.000000 0.000000
vn 1.000000 0.000000 0.000000
vn 0.881890 0.464567 -0.000000
vn 0.881890 0.464567 -0.000000
vn 0.881890 0.464567 -0.000000
vn 0.881890 0.464567 -0.000000
vn -0.881890 -0.464567 0.000000
vn -0.881890 -0.464567 0.000000
vn -0.881890 -0.464567 0.000000
vn -0.881890 -0.464567 0.000000
vn 0.000000 -0.000000 -1.000000
vn 0.000000 -0.000000 -1.000000
vn 0.000000 -0.000000 -1.000000
vn 0.000000 -0.000000 -1.000000
vn 0.000000 -0.000000 -1.000000
vn 0.000000 -0.000000 -1.000000
vn 0.000000 -0.000000 -1.000000
vn 0.000000 -0.000000 -1.000000
vn -0.881890 -0.464567 0.000000
vn -0.881890 -0.464567 0.000000
vn -0.881890 -0.464567 0.000000
vn -0.881890 -0.464567 0.000000
vn 0.881890 0.464567 -0.000000
vn 0.881890 0.464567 -0.000000
vn 0.881890 0.464567 -0.000000
vn 0.881890 0.464567 -0.000000
vn 0.000000 -0.000000 -1.000000
vn 0.000000 -0.000000 -1.000000
vn 0.000000 -0.000000 -1.000000
vn 0.000000 -0.000000 -1.000000
vn 0.000000 -0.000000 -1.000000
vn 0.000000 -0.000000 -1.000000
vn 0.000000 -0.000000 -1.000000
vn 0.000000 -0.000000 -1.000000
vn -0.881890 -0.464567 0.000000
vn -0.881890 -0.464567 0.000000
vn -0.881890 -0.464567 0.000000
vn -0.881890 -0.464567 0.000000
vn -0.629921 -0.330709 -0.708661
vn -0.629921 -0.330709 -0.708661
vn -0.629921 -0.330709 -0.708661
vn -0.629921 -0.330709 -0.708661
vn 0.629921 0.330709 -0.708661
vn 0.629921 0.330709 -0.708661
vn 0.629921 0.330709 -0.708661
vn 0.629921 0.330709 -0.708661
vn 0.881890 0.464567 -0.000000
vn 0.881890 0.464567 -0.000000
vn 0.881890 0.464567 -0.000000
vn 0.881890 0.464567 -0.000000
tan 0.000000 -1.004402 0.000000 1.000000
tan 0.000000 -1.004402 0.000000 1.000000
tan 0.000000 -1.004402 0.000000 1.000000
tan 0.000000 -1.004402 0.000000 1.000000
tan 0.000000 -1.004402 0.000000 1.000000
tan 0.000000 -1.004402 0.000000 1.000000
tan -0.389485 0.890942 -0.069564 1.000000
tan -0.389485 0.890942 -0.069564 1.000000
tan -0.418129 0.871102 -0.034844 1.000000
tan -0.389485 0.890942 0.069564 1.000000
tan -0.403621 0.885982 0.054684 1.000000
tan -0.389485 0.890942 0.069564 1.000000
tan 0.389485 -0.890942 -0.069564 1.000000
tan 0.389485 -0.890942 -0.069564 1.000000
tan 0.415153 -0.876062 -0.039804 1.000000
tan 0.392089 -0.895902 0.069564 1.000000
tan 0.403621 -0.885982 0.054684 1.000000
tan 0.389485 -0.890942 0.069564 1.000000
tan 0.000000 -1.000000 0.000000 1.000000
tan 0.000000 -1.000000 0.000000 1.000000
tan 0.000000 -1.000000 0.000000 1.000000
tan 0.000000 -1.000000 0.000000 1.000000
tan 0.000000 -1.000000 0.000000 1.000000
tan 0.000000 -1.000000 0.000000 1.000000
tan 0.000000 -1.000000 0.000000 1.000000
tan 0.000000 -1.000000 0.000000 1.000000
tan 0.000000 -1.000000 0.000000 1.000000
tan 0.000000 -1.000000 0.000000 1.000000
tan 0.000000 -1.000000 0.000000 1.000000
tan 0.000000 -1.000000 0.000000 1.000000
tan 0.000000 -1.000000 0.000000 1.000000
tan 0.000000 -1.000000 0.000000 1.000000
tan 0.000000 -1.000000 0.000000 1.000000
tan 0.000000 -1.000000 0.000000 1.000000
tan 0.460909 -0.874946 -0.107818 1.000000
tan 0.457251 -0.868002 -0.142910 1.000000
tan 0.460909 -0.874946 -0.107818 1.000000
tan 0.460909 -0.874946 -0.107818 1.000000
tan -0.460909 0.874946 -0.107818 1.000000
tan -0.460909 0.874946 -0.107818 1.000000
tan -0.460909 0.874946 -0.107818 1.000000
tan -0.457251 0.868002 -0.142910 1.000000
tan 0.259843 -0.968504 0.000000 1.000000
tan 0.259843 -0.968504 0.000000 1.000000
tan 0.259843 -0.968504 0.000000 1.000000
tan 0.259843 -0.968504 0.000000 1.000000
tan -0.259843 0.968504 -0.000000 1.000000
tan -0.259843 0.968504 -0.000000 1.000000
tan -0.259843 0.968504 -0.000000 1.000000
tan -0.259843 0.968504 -0.000000 1.000000
tan 0.460909 -0.874946 0.107818 1.000000
tan 0.457251 -0.868002 0.142910 1.000000
tan 0.460909 -0.874946 0.107818 1.000000
tan 0.460909 -0.874946 0.107818 1.000000
tan -0.460909 0.874946 0.107818 1.000000
tan -0.460909 0.874946 0.107818 1.000000
tan -0.460909 0.874946 0.107818 1.000000
tan -0.457251 0.868002 0.142910 1.000000
tan 0.000000 -1.000000 0.000000 1.000000
tan 0.000000 -1.000000 0.000000 1.000000
tan 0.000000 -1.000000 0.000000 1.000000
tan 0.000000 -1.000000 0.000000 1.000000
tan 0.881890 0.464567 -0.000000 1.000000
tan 0.881890 0.464567 -0.000000 1.000000
tan 0.881890 0.464567 -0.000000 1.000000
tan 0.881890 0.464567 -0.000000 1.000000
tan 0.000000 -0.000000 -0.900180 1.000000
tan 0.000000 -0.000000 -0.900180 1.000000
tan 0.000000 -0.000000 -0.900180 1.000000
tan 0.000000 -0.000000 -0.900180 1.000000
tan 0.686341 0.172980 -0.690805 1.000000
tan 0.686341 0.167400 -0.688201 1.000000
tan 0.686341 0.167400 -0.688201 1.000000
tan 0.686341 0.167400 -0.688201 1.000000
tan 0.686341 0.167400 0.688201 1.000000
tan 0.686341 0.167400 0.688201 1.000000
tan 0.686341 0.167400 0.688201 1.000000
tan 0.686341 0.167400 0.688201 1.000000
tan 0.000000 0.000000 0.900180 1.000000
tan 0.000000 0.000000 0.900180 1.000000
tan 0.000000 0.000000 0.900180 1.000000
tan 0.000000 0.000000 0.900180 1.000000
f 3/3/3 2/2/2 1/1/1
f 6/6/6 5/5/5 4/4/4
f 9/9/9 8/8/8 7/7/7
f 12/12/12 11/11/11 10/10/10
f 15/15/15 14/14/14 13/13/13
f 18/18/18 17/17/17 16/16/16
f 21/21/21 20/20/20 19/19/19
f 22/22/22 19/19/19 20/20/20
f 25/25/25 24/24/24 23/23/23
f 26/26/26 24/24/24 25/25/25
f 29/29/29 28/28/28 27/27/27
f 30/30/30 27/27/27 28/28/28
f 33/33/33 32/32/32 31/31/31
f 34/34/34 31/31/31 32/32/32
f 37/37/37 36/36/36 35/35/35
f 38/38/38 35/35/35 36/36/36
f 41/41/41 40/40/40 39/39/39
f 42/42/42 40/40/40 41/41/41
f 45/45/45 44/44/44 43/43/43
f 46/46/46 43/43/43 44/44/44
f 49/49/49 48/48/48 47/47/47
f 50/50/50 47/47/47 48/48/48
f 53/53/53 52/52/52 51/51/51
f 54/54/54 52/52/52 53/53/53
f 57/57/57 56/56/56 55/55/55
f 58/58/58 55/55/55 56/56/56
f 61/61/61 60/60/60 59/59/59
f 62/62/62 60/60/60 61/61/61
f 65/65/65 64/64/64 63/63/63
f 66/66/66 64/64/64 65/65/65
f 69/69/69 68/68/68 67/67/67
f 70/70/70 67/67/67 68/68/68
f 73/73/73 72/72/72 71/71/71
f 74/74/74 72/72/72 73/73/73
f 77/77/77 76/76/76 75/75/75
f 78/78/78 76/76/76 77/77/77
f 81/81/81 80/80/80 79/79/79
f 82/82/82 79/79/79 80/80/80
