mtllib SM_FacadeTop_C_LOD3.mtl
g SM_FacadeTop_C_LOD3
#Vertices 22
#Indices 30
#Section 0 Offset 0 NumIndices 15 MaterialIndex 1 MI_Metal_Darkgrey
#Section 1 Offset 15 NumIndices 15 MaterialIndex 0 MI_Brushed_Metal
v 2.960051 0.351199 -0.191175
v 0.000003 0.099785 -0.012585
v 3.000001 0.000000 -0.000000
v 3.000170 1.002133 -0.213503
v 0.008396 0.999489 -0.260651
v -0.003799 0.440452 -0.269618
v 2.960051 0.351199 -0.191175
v 0.000003 0.099785 -0.012585
v -0.000000 0.000000 1.000000
v 3.000001 0.000000 -0.000000
v 3.000000 0.000000 1.000000
v 2.960051 0.351199 -0.191175
v -0.003799 0.440452 -0.269618
v 0.000003 0.099785 -0.012585
v 2.986055 1.741766 -0.293212
v -0.000000 1.741348 0.700000
v -0.000412 1.732568 -0.283145
v 3.000000 1.741348 0.700000
v 0.008396 0.999489 -0.260651
v 2.986055 1.741766 -0.293212
v -0.000412 1.732568 -0.283145
v 3.000170 1.002133 -0.213503
vt 0.202881 0.566406
vt 0.234375 0.196777
vt 0.246826 0.571533
vt 0.375244 0.571777
vt 0.375977 0.198242
vt 0.443848 0.196289
vt 0.455078 0.566650
vt 0.245239 0.196777
vt 0.371826 0.196777
vt 0.246826 0.571533
vt 0.371826 0.571533
vt 0.182861 0.566406
vt 0.171265 0.196289
vt 0.214478 0.196777
vt 0.495361 0.679443
vt 0.122253 0.803589
vt 0.122192 0.680664
vt 0.497070 0.803589
vt 0.123352 0.593018
vt 0.495361 0.685791
vt 0.122192 0.684814
vt 0.497314 0.593506
vt1 0.169312 0.981766
vt1 0.232056 0.242676
vt1 0.257080 0.991943
vt1 0.007801 0.107910
vt1 0.754883 0.109375
vt1 0.758301 0.245117
vt1 0.018005 0.267578
vt1 0.253906 0.242676
vt1 0.506836 0.242676
vt1 0.257080 0.991936
vt1 0.506836 0.991936
vt1 0.129150 0.981766
vt1 0.105957 0.242188
vt1 0.192505 0.242676
vt1 0.771973 0.988457
vt1 0.523926 0.242676
vt1 0.769531 0.242676
vt1 0.523926 0.991936
vt1 0.945312 0.244629
vt1 0.759277 0.988472
vt1 0.761719 0.242676
vt1 0.943848 0.991982
vn 0.000000 -0.000000 -1.000000
vn 0.000000 -0.000000 -1.000000
vn 0.000000 -0.000000 -1.000000
vn 0.000000 -0.000000 -1.000000
vn 0.000000 -0.000000 -1.000000
vn 0.000000 -0.000000 -1.000000
vn 0.000000 -0.000000 -1.000000
vn 0.000000 -1.000000 0.000000
vn 0.000000 -1.000000 0.000000
vn 0.000000 -1.000000 0.000000
vn 0.000000 -1.000000 0.000000
vn 0.000000 -1.000000 -0.031496
vn 0.000000 -1.000000 -0.031496
vn 0.000000 -1.000000 -0.031496
vn 0.000000 1.000000 -0.000000
vn 0.000000 1.000000 -0.000000
vn 0.000000 1.000000 -0.000000
vn 0.000000 1.000000 -0.000000
vn 0.000000 -0.000000 -1.000000
vn 0.000000 -0.000000 -1.000000
vn 0.000000 -0.000000 -1.000000
vn 0.000000 -0.000000 -1.000000
tan -1.000000 0.000000 0.000000 1.000000
tan -1.000000 0.000000 0.000000 1.000000
tan -1.000000 0.000000 0.000000 1.000000
tan -1.000000 0.000000 0.000000 1.000000
tan -1.000000 0.000000 0.000000 1.000000
tan -1.000000 0.000000 0.000000 1.000000
tan -1.000000 0.000000 0.000000 1.000000
tan -1.000000 0.000000 0.000000 1.000000
tan -1.000000 0.000000 0.000000 1.000000
tan -1.000000 0.000000 0.000000 1.000000
tan -1.000000 0.000000 0.000000 1.000000
tan -1.000000 0.000000 0.000000 1.000000
tan -1.000000 0.000000 0.000000 1.000000
tan -1.000000 0.000000 0.000000 1.000000
tan 0.000000 -0.000000 -1.000000 1.000000
tan 0.000000 -0.000000 -1.000000 1.000000
tan 0.000000 -0.000000 -1.000000 1.000000
tan 0.000000 -0.000000 -1.000000 1.000000
tan 0.000000 -1.000000 0.000000 1.000000
tan 0.000000 -1.000000 0.000000 1.000000
tan 0.000000 -1.000000 0.000000 1.000000
tan 0.000000 -1.000000 0.000000 1.000000
f 3/3/3 2/2/2 1/1/1
f 6/6/6 5/5/5 4/4/4
f 7/7/7 6/6/6 4/4/4
f 10/10/10 9/9/9 8/8/8
f 11/11/11 9/9/9 10/10/10
f 14/14/14 13/13/13 12/12/12
f 17/17/17 16/16/16 15/15/15
f 16/16/16 18/18/18 15/15/15
f 21/21/21 20/20/20 19/19/19
f 22/22/22 19/19/19 20/20/20
