mtllib SM_FacadeTop_C.mtl
g SM_FacadeTop_C
#Vertices 100
#Indices 240
#Section 0 Offset 0 NumIndices 72 MaterialIndex 1 MI_Metal_Darkgrey
#Section 1 Offset 72 NumIndices 168 MaterialIndex 0 MI_Brushed_Metal
v -0.000000 0.000000 -0.000000
v -0.000000 0.000000 1.000000
v 0.750000 0.000000 -0.000000
v 0.750000 0.000000 1.000000
v 1.500000 0.000000 -0.000000
v 1.500000 0.000000 1.000000
v 2.250000 0.000000 -0.000000
v 2.250000 0.000000 1.000000
v 3.000000 0.000000 -0.000000
v 3.000000 0.000000 1.000000
v -0.000000 0.000000 -0.000000
v 0.750000 0.250000 0.000000
v -0.000000 0.250000 0.000000
v 0.750000 0.000000 -0.000000
v 1.500000 0.250000 0.000000
v 1.500000 0.000000 -0.000000
v 2.250000 0.250000 0.000000
v 2.250000 0.000000 -0.000000
v 3.000000 0.250000 0.000000
v 3.000000 0.000000 -0.000000
v 0.750000 1.000000 -0.150000
v -0.000000 1.000000 -0.150000
v -0.000000 0.555191 -0.150000
v 0.750000 0.555191 -0.150000
v 1.500000 1.000000 -0.150000
v 1.500000 0.555191 -0.150000
v 2.250000 1.000000 -0.150000
v 2.250000 0.555191 -0.150000
v 3.000000 0.555191 -0.150000
v 3.000000 1.000000 -0.150000
v 3.000000 1.741348 -0.200000
v 3.000000 1.741348 0.700000
v 2.250000 1.741348 -0.200000
v 2.250000 1.741348 0.700000
v 1.500000 1.741348 -0.200000
v 1.500000 1.741348 0.700000
v 0.750000 1.741348 -0.200000
v 0.750000 1.741348 0.700000
v -0.000000 1.741348 -0.200000
v -0.000000 1.741348 0.700000
v 0.750000 0.258652 -0.300000
v -0.000000 0.258652 -0.300000
v -0.000000 0.250000 0.000000
v 0.750000 0.250000 0.000000
v 1.500000 0.258652 -0.300000
v 1.500000 0.250000 0.000000
v 2.250000 0.258652 -0.300000
v 2.250000 0.250000 0.000000
v 3.000000 0.258652 -0.300000
v 3.000000 0.250000 0.000000
v 2.250000 0.555191 -0.300000
v 3.000000 0.258652 -0.300000
v 3.000000 0.555191 -0.300000
v 2.250000 0.258652 -0.300000
v 1.500000 0.555191 -0.300000
v 1.500000 0.258652 -0.300000
v 0.750000 0.555191 -0.300000
v 0.750000 0.258652 -0.300000
v -0.000000 0.258652 -0.300000
v -0.000000 0.555191 -0.300000
v -0.000000 0.555191 -0.300000
v 0.750000 0.555191 -0.150000
v -0.000000 0.555191 -0.150000
v 0.750000 0.555191 -0.300000
v 1.500000 0.555191 -0.150000
v 1.500000 0.555191 -0.300000
v 2.250000 0.555191 -0.150000
v 2.250000 0.555191 -0.300000
v 3.000000 0.555191 -0.150000
v 3.000000 0.555191 -0.300000
v 3.000000 1.000000 -0.300000
v 2.250000 1.000000 -0.150000
v 3.000000 1.000000 -0.150000
v 2.250000 1.000000 -0.300000
v 1.500000 1.000000 -0.150000
v 1.500000 1.000000 -0.300000
v 0.750000 1.000000 -0.150000
v 0.750000 1.000000 -0.300000
v -0.000000 1.000000 -0.300000
v -0.000000 1.000000 -0.150000
v 2.250000 1.641348 -0.300000
v 3.000000 1.000000 -0.300000
v 3.000000 1.641348 -0.300000
v 2.250000 1.000000 -0.300000
v 1.500000 1.641348 -0.300000
v 1.500000 1.000000 -0.300000
v 0.750000 1.641348 -0.300000
v 0.750000 1.000000 -0.300000
v -0.000000 1.000000 -0.300000
v -0.000000 1.641348 -0.300000
v -0.000000 1.641348 -0.300000
v 0.750000 1.741348 -0.200000
v -0.000000 1.741348 -0.200000
v 0.750000 1.641348 -0.300000
v 1.500000 1.741348 -0.200000
v 1.500000 1.641348 -0.300000
v 2.250000 1.741348 -0.200000
v 2.250000 1.641348 -0.300000
v 3.000000 1.741348 -0.200000
v 3.000000 1.641348 -0.300000
vt 0.246826 0.196777
vt 0.371826 0.196777
vt 0.246826 0.290527
vt 0.371826 0.290527
vt 0.246826 0.384277
vt 0.371826 0.384277
vt 0.246826 0.478027
vt 0.371826 0.478027
vt 0.246826 0.571533
vt 0.371826 0.571533
vt 0.246826 0.196777
vt 0.215576 0.290527
vt 0.215576 0.196777
vt 0.246826 0.290527
vt 0.215576 0.384277
vt 0.246826 0.384277
vt 0.215576 0.478027
vt 0.246826 0.478027
vt 0.215576 0.571533
vt 0.246826 0.571533
vt 0.374756 0.290527
vt 0.374756 0.196777
vt 0.430420 0.196777
vt 0.430420 0.290527
vt 0.374756 0.384277
vt 0.430420 0.384277
vt 0.374756 0.478027
vt 0.430420 0.478027
vt 0.430420 0.571533
vt 0.374756 0.571533
vt 0.497070 0.691162
vt 0.497070 0.803589
vt 0.403320 0.691162
vt 0.403320 0.803589
vt 0.309570 0.691162
vt 0.309570 0.803589
vt 0.215942 0.691162
vt 0.215942 0.803589
vt 0.122253 0.691162
vt 0.122253 0.803589
vt 0.177979 0.290527
vt 0.177979 0.196777
vt 0.215576 0.196777
vt 0.215576 0.290527
vt 0.177979 0.384277
vt 0.215576 0.384277
vt 0.177979 0.478027
vt 0.215576 0.478027
vt 0.177979 0.571533
vt 0.215576 0.571533
vt 0.140991 0.478027
vt 0.177979 0.571533
vt 0.140991 0.571533
vt 0.177979 0.478027
vt 0.140991 0.384277
vt 0.177979 0.384277
vt 0.140991 0.290527
vt 0.177979 0.290527
vt 0.177979 0.196777
vt 0.140991 0.196777
vt 0.140991 0.196777
vt 0.122253 0.290527
vt 0.122253 0.196777
vt 0.140991 0.290527
vt 0.122253 0.384277
vt 0.140991 0.384277
vt 0.122253 0.478027
vt 0.140991 0.478027
vt 0.122253 0.571533
vt 0.140991 0.571533
vt 0.497070 0.593262
vt 0.403320 0.574463
vt 0.497070 0.574463
vt 0.403320 0.593262
vt 0.309570 0.574463
vt 0.309570 0.593262
vt 0.215942 0.574463
vt 0.215942 0.593262
vt 0.122253 0.593262
vt 0.122253 0.574463
vt 0.403320 0.673584
vt 0.497070 0.593262
vt 0.497070 0.673584
vt 0.403320 0.593262
vt 0.309570 0.673584
vt 0.309570 0.593262
vt 0.215942 0.673584
vt 0.215942 0.593262
vt 0.122253 0.593262
vt 0.122253 0.673584
vt 0.122253 0.673584
vt 0.215942 0.691162
vt 0.122253 0.691162
vt 0.215942 0.673584
vt 0.309570 0.691162
vt 0.309570 0.673584
vt 0.403320 0.691162
vt 0.403320 0.673584
vt 0.497070 0.691162
vt 0.497070 0.673584
vt1 0.257080 0.242676
vt1 0.506836 0.242676
vt1 0.257080 0.430176
vt1 0.506836 0.430176
vt1 0.257080 0.617188
vt1 0.506836 0.617188
vt1 0.257080 0.804565
vt1 0.506836 0.804565
vt1 0.257080 0.991936
vt1 0.506836 0.991936
vt1 0.257080 0.242676
vt1 0.194580 0.430176
vt1 0.194580 0.242676
vt1 0.257080 0.430176
vt1 0.194580 0.617188
vt1 0.257080 0.617188
vt1 0.194580 0.804565
vt1 0.257080 0.804565
vt1 0.194580 0.991936
vt1 0.257080 0.991936
vt1 0.569824 0.106934
vt1 0.757324 0.106934
vt1 0.757324 0.217773
vt1 0.569824 0.217773
vt1 0.382812 0.106934
vt1 0.382812 0.217773
vt1 0.195435 0.106934
vt1 0.195435 0.217773
vt1 0.008064 0.217773
vt1 0.008064 0.106934
vt1 0.749023 0.991936
vt1 0.523926 0.991936
vt1 0.749023 0.804565
vt1 0.523926 0.804565
vt1 0.749023 0.617188
vt1 0.523926 0.617188
vt1 0.749023 0.430176
vt1 0.523926 0.430176
vt1 0.749023 0.242676
vt1 0.523926 0.242676
vt1 0.119629 0.430176
vt1 0.119629 0.242676
vt1 0.194580 0.242676
vt1 0.194580 0.430176
vt1 0.119629 0.617188
vt1 0.194580 0.617188
vt1 0.119629 0.804565
vt1 0.194580 0.804565
vt1 0.119629 0.991936
vt1 0.194580 0.991936
vt1 0.045532 0.804565
vt1 0.119629 0.991936
vt1 0.045532 0.991936
vt1 0.119629 0.804565
vt1 0.045532 0.617188
vt1 0.119629 0.617188
vt1 0.045532 0.430176
vt1 0.119629 0.430176
vt1 0.119629 0.242676
vt1 0.045532 0.242676
vt1 0.045532 0.242676
vt1 0.008064 0.430176
vt1 0.008064 0.242676
vt1 0.045532 0.430176
vt1 0.008064 0.617188
vt1 0.045532 0.617188
vt1 0.008064 0.804565
vt1 0.045532 0.804565
vt1 0.008064 0.991936
vt1 0.045532 0.991936
vt1 0.944336 0.991936
vt1 0.981934 0.804565
vt1 0.981934 0.991936
vt1 0.944336 0.804565
vt1 0.981934 0.617188
vt1 0.944336 0.617188
vt1 0.981934 0.430176
vt1 0.944336 0.430176
vt1 0.944336 0.242676
vt1 0.981934 0.242676
vt1 0.784180 0.804565
vt1 0.944336 0.991936
vt1 0.784180 0.991936
vt1 0.944336 0.804565
vt1 0.784180 0.617188
vt1 0.944336 0.617188
vt1 0.784180 0.430176
vt1 0.944336 0.430176
vt1 0.944336 0.242676
vt1 0.784180 0.242676
vt1 0.784180 0.242676
vt1 0.749023 0.430176
vt1 0.749023 0.242676
vt1 0.784180 0.430176
vt1 0.749023 0.617188
vt1 0.784180 0.617188
vt1 0.749023 0.804565
vt1 0.784180 0.804565
vt1 0.749023 0.991936
vt1 0.784180 0.991936
vn 0.000000 -1.000000 0.000000
vn 0.000000 -1.000000 0.000000
vn 0.000000 -1.000000 0.000000
vn 0.000000 -1.000000 0.000000
vn 0.000000 -1.000000 0.000000
vn 0.000000 -1.000000 0.000000
vn 0.000000 -1.000000 0.000000
vn 0.000000 -1.000000 0.000000
vn 0.000000 -1.000000 0.000000
vn 0.000000 -1.000000 0.000000
vn 0.000000 -0.000000 -1.000000
vn 0.000000 -0.000000 -1.000000
vn 0.000000 -0.000000 -1.000000
vn 0.000000 -0.000000 -1.000000
vn 0.000000 -0.000000 -1.000000
vn 0.000000 -0.000000 -1.000000
vn 0.000000 -0.000000 -1.000000
vn 0.000000 -0.000000 -1.000000
vn 0.000000 -0.000000 -1.000000
vn 0.000000 -0.000000 -1.000000
vn 0.000000 -0.000000 -1.000000
vn 0.000000 -0.000000 -1.000000
vn 0.000000 -0.000000 -1.000000
vn 0.000000 -0.000000 -1.000000
vn 0.000000 -0.000000 -1.000000
vn 0.000000 -0.000000 -1.000000
vn 0.000000 -0.000000 -1.000000
vn 0.000000 -0.000000 -1.000000
vn 0.000000 -0.000000 -1.000000
vn 0.000000 -0.000000 -1.000000
vn 0.000000 1.000000 -0.000000
vn 0.000000 1.000000 -0.000000
vn 0.000000 1.000000 -0.000000
vn 0.000000 1.000000 -0.000000
vn 0.000000 1.000000 -0.000000
vn 0.000000 1.000000 -0.000000
vn 0.000000 1.000000 -0.000000
vn 0.000000 1.000000 -0.000000
vn 0.000000 1.000000 -0.000000
vn 0.000000 1.000000 -0.000000
vn 0.000000 -1.000000 -0.031496
vn 0.000000 -1.000000 -0.031496
vn 0.000000 -1.000000 -0.031496
vn 0.000000 -1.000000 -0.031496
vn 0.000000 -1.000000 -0.031496
vn 0.000000 -1.000000 -0.031496
vn 0.000000 -1.000000 -0.031496
vn 0.000000 -1.000000 -0.031496
vn 0.000000 -1.000000 -0.031496
vn 0.000000 -1.000000 -0.031496
vn 0.000000 -0.000000 -1.000000
vn 0.000000 -0.000000 -1.000000
vn 0.000000 -0.000000 -1.000000
vn 0.000000 -0.000000 -1.000000
vn 0.000000 -0.000000 -1.000000
vn 0.000000 -0.000000 -1.000000
vn 0.000000 -0.000000 -1.000000
vn 0.000000 -0.000000 -1.000000
vn 0.000000 -0.000000 -1.000000
vn 0.000000 -0.000000 -1.000000
vn 0.000000 1.000000 -0.000000
vn 0.000000 1.000000 -0.000000
vn 0.000000 1.000000 -0.000000
vn 0.000000 1.000000 -0.000000
vn 0.000000 1.000000 -0.000000
vn 0.000000 1.000000 -0.000000
vn 0.000000 1.000000 -0.000000
vn 0.000000 1.000000 -0.000000
vn 0.000000 1.000000 -0.000000
vn 0.000000 1.000000 -0.000000
vn 0.000000 -1.000000 0.000000
vn 0.000000 -1.000000 0.000000
vn 0.000000 -1.000000 0.000000
vn 0.000000 -1.000000 0.000000
vn 0.000000 -1.000000 0.000000
vn 0.000000 -1.000000 0.000000
vn 0.000000 -1.000000 0.000000
vn 0.000000 -1.000000 0.000000
vn 0.000000 -1.000000 0.000000
vn 0.000000 -1.000000 0.000000
vn 0.000000 -0.000000 -1.000000
vn 0.000000 -0.000000 -1.000000
vn 0.000000 -0.000000 -1.000000
vn 0.000000 -0.000000 -1.000000
vn 0.000000 -0.000000 -1.000000
vn 0.000000 -0.000000 -1.000000
vn 0.000000 -0.000000 -1.000000
vn 0.000000 -0.000000 -1.000000
vn 0.000000 -0.000000 -1.000000
vn 0.000000 -0.000000 -1.000000
vn 0.000000 0.708661 -0.708661
vn 0.000000 0.708661 -0.708661
vn 0.000000 0.708661 -0.708661
vn 0.000000 0.708661 -0.708661
vn 0.000000 0.708661 -0.708661
vn 0.000000 0.708661 -0.708661
vn 0.000000 0.708661 -0.708661
vn 0.000000 0.708661 -0.708661
vn 0.000000 0.708661 -0.708661
vn 0.000000 0.708661 -0.708661
tan -1.000000 0.000000 0.000000 1.000000
tan -1.000000 0.000000 0.000000 1.000000
tan -1.000000 0.000000 0.000000 1.000000
tan -1.000000 0.000000 0.000000 1.000000
tan -1.000000 0.000000 0.000000 1.000000
tan -1.000000 0.000000 0.000000 1.000000
tan -1.000000 0.000000 0.000000 1.000000
tan -1.000000 0.000000 0.000000 1.000000
tan -1.000000 0.000000 0.000000 1.000000
tan -1.000000 0.000000 0.000000 1.000000
tan -1.000000 0.000000 0.000000 1.000000
tan -1.000000 0.000000 0.000000 1.000000
tan -1.000000 0.000000 0.000000 1.000000
tan -1.000000 0.000000 0.000000 1.000000
tan -1.000000 0.000000 0.000000 1.000000
tan -1.000000 0.000000 0.000000 1.000000
tan -1.000000 0.000000 0.000000 1.000000
tan -1.000000 0.000000 0.000000 1.000000
tan -1.000000 0.000000 0.000000 1.000000
tan -1.000000 0.000000 0.000000 1.000000
tan -1.000000 0.000000 0.000000 1.000000
tan -1.000000 0.000000 0.000000 1.000000
tan -1.000000 0.000000 0.000000 1.000000
tan -1.000000 0.000000 0.000000 1.000000
tan -1.000000 0.000000 0.000000 1.000000
tan -1.000000 0.000000 0.000000 1.000000
tan -1.000000 0.000000 0.000000 1.000000
tan -1.000000 0.000000 0.000000 1.000000
tan -1.000000 0.000000 0.000000 1.000000
tan -1.000000 0.000000 0.000000 1.000000
tan 0.000000 -0.000000 -1.000000 1.000000
tan 0.000000 -0.000000 -1.000000 1.000000
tan 0.000000 -0.000000 -1.000000 1.000000
tan 0.000000 -0.000000 -1.000000 1.000000
tan 0.000000 -0.000000 -1.000000 1.000000
tan 0.000000 -0.000000 -1.000000 1.000000
tan 0.000000 -0.000000 -1.000000 1.000000
tan 0.000000 -0.000000 -1.000000 1.000000
tan 0.000000 -0.000000 -1.000000 1.000000
tan 0.000000 -0.000000 -1.000000 1.000000
tan -1.000992 0.000000 0.000000 1.000000
tan -1.000992 0.000000 0.000000 1.000000
tan -1.000992 0.000000 0.000000 1.000000
tan -1.000992 0.000000 0.000000 1.000000
tan -1.000992 0.000000 0.000000 1.000000
tan -1.000992 0.000000 0.000000 1.000000
tan -1.000992 0.000000 0.000000 1.000000
tan -1.000992 0.000000 0.000000 1.000000
tan -1.000992 0.000000 0.000000 1.000000
tan -1.000992 0.000000 0.000000 1.000000
tan -1.000000 0.000000 0.000000 1.000000
tan -1.000000 0.000000 0.000000 1.000000
tan -1.000000 0.000000 0.000000 1.000000
tan -1.000000 0.000000 0.000000 1.000000
tan -1.000000 0.000000 0.000000 1.000000
tan -1.000000 0.000000 0.000000 1.000000
tan -1.000000 0.000000 0.000000 1.000000
tan -1.000000 0.000000 0.000000 1.000000
tan -1.000000 0.000000 0.000000 1.000000
tan -1.000000 0.000000 0.000000 1.000000
tan -1.000000 0.000000 0.000000 1.000000
tan -1.000000 0.000000 0.000000 1.000000
tan -1.000000 0.000000 0.000000 1.000000
tan -1.000000 0.000000 0.000000 1.000000
tan -1.000000 0.000000 0.000000 1.000000
tan -1.000000 0.000000 0.000000 1.000000
tan -1.000000 0.000000 0.000000 1.000000
tan -1.000000 0.000000 0.000000 1.000000
tan -1.000000 0.000000 0.000000 1.000000
tan -1.000000 0.000000 0.000000 1.000000
tan 0.000000 0.000000 1.000000 1.000000
tan 0.000000 0.000000 1.000000 1.000000
tan 0.000000 0.000000 1.000000 1.000000
tan 0.000000 0.000000 1.000000 1.000000
tan 0.000000 0.000000 1.000000 1.000000
tan 0.000000 0.000000 1.000000 1.000000
tan 0.000000 0.000000 1.000000 1.000000
tan 0.000000 0.000000 1.000000 1.000000
tan 0.000000 0.000000 1.000000 1.000000
tan 0.000000 0.000000 1.000000 1.000000
tan 0.000000 -1.000000 0.000000 1.000000
tan 0.000000 -1.000000 0.000000 1.000000
tan 0.000000 -1.000000 0.000000 1.000000
tan 0.000000 -1.000000 0.000000 1.000000
tan 0.000000 -1.000000 0.000000 1.000000
tan 0.000000 -1.000000 0.000000 1.000000
tan 0.000000 -1.000000 0.000000 1.000000
tan 0.000000 -1.000000 0.000000 1.000000
tan 0.000000 -1.000000 0.000000 1.000000
tan 0.000000 -1.000000 0.000000 1.000000
tan 0.000000 -0.708661 -0.708661 1.000000
tan 0.000000 -0.708661 -0.708661 1.000000
tan 0.000000 -0.708661 -0.708661 1.000000
tan 0.000000 -0.708661 -0.708661 1.000000
tan 0.000000 -0.708661 -0.708661 1.000000
tan 0.000000 -0.708661 -0.708661 1.000000
tan 0.000000 -0.708661 -0.708661 1.000000
tan 0.000000 -0.708661 -0.708661 1.000000
tan 0.000000 -0.708661 -0.708661 1.000000
tan 0.000000 -0.708661 -0.708661 1.000000
f 3/3/3 2/2/2 1/1/1
f 4/4/4 2/2/2 3/3/3
f 5/5/5 4/4/4 3/3/3
f 6/6/6 4/4/4 5/5/5
f 7/7/7 6/6/6 5/5/5
f 8/8/8 6/6/6 7/7/7
f 9/9/9 8/8/8 7/7/7
f 10/10/10 8/8/8 9/9/9
f 13/13/13 12/12/12 11/11/11
f 14/14/14 11/11/11 12/12/12
f 12/12/12 15/15/15 14/14/14
f 16/16/16 14/14/14 15/15/15
f 15/15/15 17/17/17 16/16/16
f 18/18/18 16/16/16 17/17/17
f 17/17/17 19/19/19 18/18/18
f 20/20/20 18/18/18 19/19/19
f 23/23/23 22/22/22 21/21/21
f 24/24/24 23/23/23 21/21/21
f 25/25/25 24/24/24 21/21/21
f 26/26/26 24/24/24 25/25/25
f 27/27/27 26/26/26 25/25/25
f 28/28/28 26/26/26 27/27/27
f 28/28/28 27/27/27 29/29/29
f 30/30/30 29/29/29 27/27/27
f 33/33/33 32/32/32 31/31/31
f 34/34/34 32/32/32 33/33/33
f 35/35/35 34/34/34 33/33/33
f 36/36/36 34/34/34 35/35/35
f 37/37/37 36/36/36 35/35/35
f 38/38/38 36/36/36 37/37/37
f 39/39/39 38/38/38 37/37/37
f 40/40/40 38/38/38 39/39/39
f 43/43/43 42/42/42 41/41/41
f 44/44/44 43/43/43 41/41/41
f 44/44/44 41/41/41 45/45/45
f 46/46/46 44/44/44 45/45/45
f 46/46/46 45/45/45 47/47/47
f 48/48/48 46/46/46 47/47/47
f 48/48/48 47/47/47 49/49/49
f 50/50/50 48/48/48 49/49/49
f 53/53/53 52/52/52 51/51/51
f 54/54/54 51/51/51 52/52/52
f 51/51/51 54/54/54 55/55/55
f 56/56/56 55/55/55 54/54/54
f 55/55/55 56/56/56 57/57/57
f 58/58/58 57/57/57 56/56/56
f 58/58/58 59/59/59 57/57/57
f 59/59/59 60/60/60 57/57/57
f 63/63/63 62/62/62 61/61/61
f 64/64/64 61/61/61 62/62/62
f 62/62/62 65/65/65 64/64/64
f 66/66/66 64/64/64 65/65/65
f 65/65/65 67/67/67 66/66/66
f 68/68/68 66/66/66 67/67/67
f 67/67/67 69/69/69 68/68/68
f 70/70/70 68/68/68 69/69/69
f 73/73/73 72/72/72 71/71/71
f 72/72/72 74/74/74 71/71/71
f 72/72/72 75/75/75 74/74/74
f 75/75/75 76/76/76 74/74/74
f 75/75/75 77/77/77 76/76/76
f 78/78/78 76/76/76 77/77/77
f 78/78/78 77/77/77 79/79/79
f 80/80/80 79/79/79 77/77/77
f 83/83/83 82/82/82 81/81/81
f 84/84/84 81/81/81 82/82/82
f 81/81/81 84/84/84 85/85/85
f 86/86/86 85/85/85 84/84/84
f 85/85/85 86/86/86 87/87/87
f 88/88/88 87/87/87 86/86/86
f 88/88/88 89/89/89 87/87/87
f 90/90/90 87/87/87 89/89/89
f 93/93/93 92/92/92 91/91/91
f 92/92/92 94/94/94 91/91/91
f 92/92/92 95/95/95 94/94/94
f 96/96/96 94/94/94 95/95/95
f 95/95/95 97/97/97 96/96/96
f 98/98/98 96/96/96 97/97/97
f 97/97/97 99/99/99 98/98/98
f 100/100/100 98/98/98 99/99/99
