mtllib SM_FacadeCornerChamfer_LOD2.mtl
g SM_FacadeCornerChamfer_LOD2
#Vertices 12
#Indices 18
#Section 0 Offset 0 NumIndices 18 MaterialIndex 0 MI_Brick_Wall
v 1.999999 0.000008 -0.000000
v -0.000000 3.000000 -0.000000
v -0.000000 0.000000 0.000000
v 1.999999 3.000000 -0.000000
v 3.000000 3.000000 0.999999
v 1.999999 3.000000 -0.000000
v 2.999999 0.000009 0.999998
v 1.999999 0.000008 -0.000000
v 2.999999 0.000009 0.999998
v 3.000000 3.000000 3.000000
v 3.000000 3.000000 0.999999
v 3.000000 0.000000 3.000000
vt 0.406494 0.333984
vt 0.166992 0.664307
vt 0.167114 0.333984
vt 0.406250 0.664551
vt 0.613770 0.665039
vt 0.406494 0.664062
vt 0.613770 0.333984
vt 0.406494 0.333984
vt 0.613770 0.333984
vt 0.833496 0.664307
vt 0.613770 0.664551
vt 0.833496 0.333984
vt1 0.361816 0.008301
vt1 0.008362 0.983475
vt1 0.008514 0.008301
vt1 0.361572 0.984314
vt1 0.667480 0.985588
vt1 0.361572 0.982758
vt1 0.667480 0.008301
vt1 0.361816 0.008301
vt1 0.667480 0.008301
vt1 0.991699 0.983475
vt1 0.667480 0.984314
vt1 0.991699 0.008301
vn 0.000000 -0.000000 -1.000000
vn 0.000000 -0.000000 -1.000000
vn 0.000000 -0.000000 -1.000000
vn 0.000000 -0.000000 -1.000000
vn 0.708661 -0.000000 -0.708661
vn 0.708661 -0.000000 -0.708661
vn 0.708661 -0.000000 -0.708661
vn 0.708661 -0.000000 -0.708661
vn 1.000000 0.000000 0.000000
vn 1.000000 0.000000 0.000000
vn 1.000000 0.000000 0.000000
vn 1.000000 0.000000 0.000000
tan 0.000000 -1.000000 0.000000 1.000000
tan 0.000000 -1.000000 0.000000 1.000000
tan 0.000000 -1.000000 0.000000 1.000000
tan 0.000000 -1.000000 0.000000 1.000000
tan 0.000000 -1.004402 0.000000 1.000000
tan 0.000000 -1.004402 0.000000 1.000000
tan 0.000000 -1.004402 0.000000 1.000000
tan 0.000000 -1.004402 0.000000 1.000000
tan 0.000000 -1.000000 0.000000 1.000000
tan 0.000000 -1.000000 0.000000 1.000000
tan 0.000000 -1.000000 0.000000 1.000000
tan 0.000000 -1.000000 0.000000 1.000000
f 3/3/3 2/2/2 1/1/1
f 4/4/4 1/1/1 2/2/2
f 7/7/7 6/6/6 5/5/5
f 7/7/7 8/8/8 6/6/6
f 11/11/11 10/10/10 9/9/9
f 10/10/10 12/12/12 9/9/9
