mtllib SM_FacadeStair_LOD2.mtl
g SM_FacadeStair_LOD2
#Vertices 95
#Indices 156
#Section 0 Offset 0 NumIndices 33 MaterialIndex 2 MI_Brick_Wall
#Section 1 Offset 33 NumIndices 111 MaterialIndex 0 MI_Metal_Darkgrey
#Section 2 Offset 144 NumIndices 12 MaterialIndex 1 MI_Metal_Darkgrey
v 0.137481 2.781760 -0.109059
v 0.099650 0.026819 0.003783
v 0.200000 1.500000 -0.000001
v 4.500000 2.999999 -0.000000
v 3.000002 2.624999 -0.000001
v 2.999999 1.499999 -0.000001
v 3.000002 2.624999 -0.000001
v 0.200002 2.625000 1.000000
v 3.000000 2.625000 1.000000
v 0.137481 2.781760 -0.109059
v 3.000000 -0.000000 0.000000
v 6.000000 -0.000000 0.000000
v 4.500000 1.500000 -0.000001
v 6.000000 1.500000 -0.000001
v 3.000002 2.624999 -0.000001
v 2.824875 1.594251 0.929780
v 2.999999 1.499999 -0.000001
v 3.000000 2.625000 1.000000
v 0.200000 1.500000 -0.000001
v 0.200000 1.500000 1.000000
v 0.137481 2.781760 -0.109059
v 0.200002 2.625000 1.000000
v 4.546005 2.999755 -1.062784
v 5.989609 2.250012 -0.990853
v 6.005721 2.978607 -0.955615
v 3.733758 0.745292 -0.991972
v 3.000000 0.750000 -1.000000
v 2.987878 -0.006633 -0.967122
v 2.824875 1.594251 0.929780
v 1.555033 2.179354 0.906003
v 1.493673 1.500000 0.735532
v 4.497317 1.523788 -1.002475
v 3.750000 1.500000 -1.000000
v 3.733758 0.745292 -0.991972
v 3.004895 1.483394 -0.996943
v 4.546005 2.999755 -1.062784
v 4.497317 1.523788 -1.002475
v 5.993882 1.489344 -0.969134
v 5.989609 2.250012 -0.990853
v 3.004895 1.483394 -0.996943
v 3.733758 0.745292 -0.991972
v 3.000000 0.750000 -1.000000
v 2.236153 1.497349 -0.988074
v 0.424214 0.800695 -1.054217
v 2.250000 0.750000 -1.000000
v 0.422543 1.523301 -1.011253
v 4.546005 2.999755 -1.062784
v 6.005721 2.978607 -0.955615
v 5.999999 3.000000 -0.000001
v 4.500000 2.999999 -0.000000
v 3.004895 1.483394 -0.996943
v 4.546005 2.999755 -1.062784
v 2.999999 1.499999 -0.000001
v 4.500000 2.999999 -0.000000
v 5.993882 1.489344 -0.969134
v 4.497317 1.523788 -1.002475
v 4.500000 1.500000 -0.000001
v 6.000000 1.500000 -0.000001
v 2.987878 -0.006633 -0.967122
v 0.158685 0.031780 -0.998559
v 0.099650 0.026819 0.003783
v 3.000000 -0.000000 0.000000
v 0.424214 0.800695 -1.054217
v 0.422543 1.523301 -1.011253
v 0.200000 1.500000 -0.000001
v 0.158685 0.031780 -0.998559
v 0.099650 0.026819 0.003783
v 5.989609 2.250012 -0.990853
v 5.993882 1.489344 -0.969134
v 6.000000 1.500000 -0.000001
v 6.005721 2.978607 -0.955615
v 5.999999 3.000000 -0.000001
v 3.733758 0.745292 -0.991972
v 2.987878 -0.006633 -0.967122
v 3.000000 -0.000000 0.000000
v 4.500000 1.500000 -0.000001
v 4.497317 1.523788 -1.002475
v 2.236153 1.497349 -0.988074
v 3.004895 1.483394 -0.996943
v 2.999999 1.499999 -0.000001
v 0.200000 1.500000 -0.000001
v 0.422543 1.523301 -1.011253
v 2.236153 1.497349 -0.988074
v 3.000000 0.750000 -1.000000
v 3.004895 1.483394 -0.996943
v 2.250000 0.750000 -1.000000
v 2.987878 -0.006633 -0.967122
v 0.158685 0.031780 -0.998559
v 0.424214 0.800695 -1.054217
v 1.555033 2.179354 0.906003
v 0.200000 1.500000 1.000000
v 1.493673 1.500000 0.735532
v 0.200002 2.625000 1.000000
v 3.000000 2.625000 1.000000
v 2.824875 1.594251 0.929780
vt 0.016510 0.971832
vt 0.011818 0.672363
vt 0.023041 0.832520
vt 0.490479 0.994537
vt 0.327637 0.954224
vt 0.327881 0.832520
vt 0.595703 0.683838
vt 0.720703 0.333984
vt 0.720703 0.683838
vt 0.582031 0.326172
vt 0.340576 0.667969
vt 0.666016 0.667969
vt 0.503418 0.830811
vt 0.666016 0.830811
vt 0.384277 0.720703
vt 0.255371 0.836792
vt 0.243774 0.720703
vt 0.384277 0.845581
vt 0.611328 0.820679
vt 0.611328 0.695801
vt 0.771484 0.834229
vt 0.751953 0.695801
vt 0.493896 1.037170
vt 0.673828 0.948456
vt 0.672852 1.039795
vt 0.380127 0.761963
vt 0.288574 0.766968
vt 0.284912 0.677734
vt 0.576172 0.901062
vt 0.528320 0.778198
vt 0.599121 0.757324
vt 0.486084 0.852417
vt 0.388428 0.856079
vt 0.379883 0.761230
vt 0.291016 0.860474
vt 0.496826 1.036285
vt 0.486328 0.852783
vt 0.677246 0.853149
vt 0.673828 0.948486
vt 0.291260 0.860596
vt 0.379883 0.761230
vt 0.288574 0.766968
vt 0.191895 0.859497
vt -0.032654 0.766235
vt 0.195312 0.765991
vt -0.035645 0.856689
vt 0.922852 0.128418
vt 0.935547 -0.054688
vt 1.054688 -0.053711
vt 1.054688 0.133789
vt 0.930176 0.399902
vt 0.922363 0.129395
vt 1.054688 0.398926
vt 1.054688 0.133789
vt 0.809570 0.748047
vt 0.805176 0.560791
vt 0.930664 0.561279
vt 0.930664 0.748779
vt 0.809570 0.294434
vt 0.806152 -0.058594
vt 0.931152 -0.066406
vt 0.930664 0.296387
vt 0.919922 0.832153
vt 0.928223 0.745850
vt 1.054688 0.748779
vt 0.930176 0.932129
vt 1.054688 0.932739
vt 0.806641 0.842407
vt 0.809570 0.747314
vt 0.930664 0.748779
vt 0.811035 0.933411
vt 0.930664 0.936096
vt 0.806641 0.426758
vt 0.809570 0.294434
vt 0.930664 0.296387
vt 0.930664 0.561279
vt 0.805176 0.562988
vt 0.931641 0.494141
vt 0.930176 0.398438
vt 1.054688 0.398926
vt 1.054688 0.748779
vt 0.928711 0.720947
vt 0.192383 0.859497
vt 0.288574 0.766968
vt 0.291016 0.860229
vt 0.195312 0.765991
vt 0.285400 0.677246
vt -0.061401 0.668457
vt -0.032471 0.766113
vt 0.499512 0.503418
vt 0.583496 0.333984
vt 0.583496 0.495605
vt 0.443115 0.333984
vt 0.443115 0.683838
vt 0.566895 0.658203
vt1 0.343750 0.079590
vt1 0.011322 0.074707
vt1 0.189087 0.086914
vt1 0.368896 0.605469
vt1 0.324219 0.424805
vt1 0.189209 0.425293
vt1 0.395020 0.637207
vt1 0.515137 0.300293
vt1 0.515137 0.637207
vt1 0.381836 0.292480
vt1 0.008064 0.556641
vt1 0.008064 0.195312
vt1 0.188599 0.375977
vt1 0.188599 0.195312
vt1 0.675781 0.500732
vt1 0.551270 0.612549
vt1 0.540039 0.500732
vt1 0.675781 0.621094
vt1 0.556152 0.766235
vt1 0.556152 0.645752
vt1 0.710449 0.779297
vt1 0.691895 0.645752
vt1 0.548828 0.982285
vt1 0.722168 0.896667
vt1 0.721680 0.984779
vt1 0.439697 0.716797
vt1 0.351807 0.721436
vt1 0.348145 0.635498
vt1 0.523438 0.269531
vt1 0.477051 0.151367
vt1 0.545410 0.131348
vt1 0.541504 0.803955
vt1 0.447754 0.807373
vt1 0.439453 0.716064
vt1 0.354004 0.811768
vt1 0.551758 0.981415
vt1 0.541992 0.804321
vt1 0.725586 0.804688
vt1 0.722168 0.896667
vt1 0.354248 0.811768
vt1 0.439697 0.716064
vt1 0.351807 0.721436
vt1 0.258789 0.810791
vt1 0.042664 0.720947
vt1 0.261963 0.720459
vt1 0.039764 0.808105
vt1 0.730957 0.213867
vt1 0.743164 0.037598
vt1 0.857910 0.038086
vt1 0.857910 0.218750
vt1 0.738281 0.475098
vt1 0.729980 0.214844
vt1 0.857910 0.474121
vt1 0.857910 0.218750
vt1 0.870605 0.810669
vt1 0.866211 0.630371
vt1 0.987305 0.630859
vt1 0.987305 0.811401
vt1 0.870605 0.374023
vt1 0.867188 0.033203
vt1 0.987793 0.025879
vt1 0.987305 0.375488
vt1 0.728027 0.891785
vt1 0.736328 0.808594
vt1 0.857910 0.811401
vt1 0.737793 0.988144
vt1 0.857910 0.988708
vt1 0.867676 0.901611
vt1 0.870605 0.810059
vt1 0.987305 0.811401
vt1 0.872070 0.989365
vt1 0.987305 0.991936
vt1 0.867676 0.501221
vt1 0.870605 0.374023
vt1 0.987305 0.375488
vt1 0.987305 0.630859
vt1 0.866211 0.632568
vt1 0.739258 0.566162
vt1 0.738281 0.473633
vt1 0.857910 0.474121
vt1 0.857910 0.811401
vt1 0.736328 0.784546
vt1 0.259033 0.810669
vt1 0.351807 0.721436
vt1 0.354004 0.811401
vt1 0.261963 0.720459
vt1 0.348389 0.634766
vt1 0.014999 0.626221
vt1 0.042816 0.720703
vt1 0.181763 0.910889
vt1 0.345215 0.991936
vt1 0.189453 0.991936
vt1 0.345215 0.856445
vt1 0.008064 0.856445
vt1 0.032623 0.976028
vn 0.000000 -0.000000 -1.000000
vn 0.000000 -0.000000 -1.000000
vn 0.000000 -0.000000 -1.000000
vn 0.000000 -0.000000 -1.000000
vn 0.000000 -0.000000 -1.000000
vn 0.000000 -0.000000 -1.000000
vn 0.000000 -1.000000 0.000000
vn 0.000000 -1.000000 0.000000
vn 0.000000 -1.000000 0.000000
vn 0.000000 -1.000000 0.000000
vn 0.000000 -0.000000 -1.000000
vn 0.000000 -0.000000 -1.000000
vn 0.000000 -0.000000 -1.000000
vn 0.000000 -0.000000 -1.000000
vn -1.000000 0.000000 0.000000
vn -1.000000 0.000000 0.000000
vn -1.000000 0.000000 0.000000
vn -1.000000 0.000000 0.000000
vn 1.000000 0.000000 0.000000
vn 1.000000 0.000000 0.000000
vn 1.000000 0.000000 0.000000
vn 1.000000 0.000000 0.000000
vn 0.000000 -0.000000 -1.000000
vn 0.000000 -0.000000 -1.000000
vn 0.000000 -0.000000 -1.000000
vn 0.000000 -0.000000 -1.000000
vn 0.000000 -0.000000 -1.000000
vn 0.000000 -0.000000 -1.000000
vn 0.000000 -0.000000 -1.000000
vn 0.000000 -0.000000 -1.000000
vn 0.000000 -0.000000 -1.000000
vn 0.000000 -0.000000 -1.000000
vn 0.000000 -0.000000 -1.000000
vn 0.000000 -0.000000 -1.000000
vn 0.000000 -0.000000 -1.000000
vn 0.000000 -0.000000 -1.000000
vn 0.000000 -0.000000 -1.000000
vn 0.000000 -0.000000 -1.000000
vn 0.000000 -0.000000 -1.000000
vn 0.000000 -0.000000 -1.000000
vn 0.000000 -0.000000 -1.000000
vn 0.000000 -0.000000 -1.000000
vn 0.000000 -0.000000 -1.000000
vn 0.000000 -0.000000 -1.000000
vn 0.000000 -0.000000 -1.000000
vn 0.000000 -0.000000 -1.000000
vn 0.000000 1.000000 -0.000000
vn 0.000000 1.000000 -0.000000
vn 0.000000 1.000000 -0.000000
vn 0.000000 1.000000 -0.000000
vn -0.708661 0.708661 -0.000000
vn -0.708661 0.708661 -0.000000
vn -0.708661 0.708661 -0.000000
vn -0.708661 0.708661 -0.000000
vn 0.000000 -1.000000 0.000000
vn 0.000000 -1.000000 0.000000
vn 0.000000 -1.000000 0.000000
vn 0.000000 -1.000000 0.000000
vn 0.000000 -1.000000 0.000000
vn 0.000000 -1.000000 0.000000
vn 0.000000 -1.000000 0.000000
vn 0.000000 -1.000000 0.000000
vn -1.000000 0.000000 0.000000
vn -1.000000 0.000000 0.000000
vn -1.000000 0.000000 0.000000
vn -1.000000 0.000000 0.000000
vn -1.000000 0.000000 0.000000
vn 1.000000 0.000000 0.000000
vn 1.000000 0.000000 0.000000
vn 1.000000 0.000000 0.000000
vn 1.000000 0.000000 0.000000
vn 1.000000 0.000000 0.000000
vn 0.708661 -0.708661 0.000000
vn 0.708661 -0.708661 0.000000
vn 0.708661 -0.708661 0.000000
vn 0.708661 -0.708661 0.000000
vn 0.708661 -0.708661 0.000000
vn 0.000000 1.000000 -0.000000
vn 0.000000 1.000000 -0.000000
vn 0.000000 1.000000 -0.000000
vn 0.000000 1.000000 -0.000000
vn 0.000000 1.000000 -0.000000
vn 0.000000 -0.000000 -1.000000
vn 0.000000 -0.000000 -1.000000
vn 0.000000 -0.000000 -1.000000
vn 0.000000 -0.000000 -1.000000
vn 0.000000 -0.000000 -1.000000
vn 0.000000 -0.000000 -1.000000
vn 0.000000 -0.000000 -1.000000
vn 0.000000 -0.000000 -1.000000
vn 0.000000 -0.000000 -1.000000
vn 0.000000 -0.000000 -1.000000
vn 0.000000 -0.000000 -1.000000
vn 0.000000 -0.000000 -1.000000
vn 0.000000 -0.000000 -1.000000
tan 0.000000 -1.000000 0.000000 1.000000
tan 0.000000 -1.000000 0.000000 1.000000
tan 0.000000 -1.000000 0.000000 1.000000
tan 0.000000 -1.000000 0.000000 1.000000
tan 0.000000 -1.000000 0.000000 1.000000
tan -0.007874 -1.000000 0.000000 1.000000
tan -1.000000 0.000000 0.000000 1.000000
tan -1.000000 0.000000 0.000000 1.000000
tan -1.000000 0.000000 0.000000 1.000000
tan -1.000000 0.000000 0.000000 1.000000
tan 0.000000 -1.000000 0.000000 1.000000
tan 0.000000 -1.000000 0.000000 1.000000
tan 0.000000 -1.000000 0.000000 1.000000
tan 0.000000 -1.000000 0.000000 1.000000
tan 0.000000 -0.000000 -1.000000 1.000000
tan 0.000000 -0.000000 -1.000000 1.000000
tan 0.000000 -0.000000 -1.000000 1.000000
tan 0.000000 -0.000000 -1.000000 1.000000
tan 0.000000 0.000000 1.000000 1.000000
tan 0.000000 0.000000 1.000000 1.000000
tan 0.000000 0.000000 1.000000 1.000000
tan 0.000000 0.000000 1.000000 1.000000
tan -0.023622 -1.000000 0.000000 1.000000
tan -0.031496 -1.000000 0.000000 1.000000
tan -0.031496 -1.000000 0.000000 1.000000
tan 0.047244 -1.000000 0.000000 1.000000
tan 0.047244 -1.000000 0.000000 1.000000
tan 0.047244 -1.000000 0.000000 1.000000
tan -1.000000 0.000000 0.000000 1.000000
tan -1.000000 0.000000 0.000000 1.000000
tan -1.000000 0.000000 0.000000 1.000000
tan 0.070866 -1.000000 0.000000 1.000000
tan 0.070866 -1.000000 0.000000 1.000000
tan 0.070866 -1.000000 0.000000 1.000000
tan 0.062992 -1.000000 0.000000 1.000000
tan -0.007874 -1.000000 0.000000 1.000000
tan 0.023622 -1.000000 0.000000 1.000000
tan -0.031496 -1.000000 0.000000 1.000000
tan -0.023622 -1.000000 0.000000 1.000000
tan 0.062992 -1.000000 0.000000 1.000000
tan 0.062992 -1.000000 0.000000 1.000000
tan 0.055118 -1.000000 0.000000 1.000000
tan -0.023622 -1.000000 0.000000 1.000000
tan -0.031496 -1.000000 0.000000 1.000000
tan -0.023622 -1.000000 0.000000 1.000000
tan -0.031496 -1.000000 0.000000 1.000000
tan 1.000000 0.000000 0.000000 1.000000
tan 1.000000 0.000000 0.000000 1.000000
tan 1.000000 0.000000 0.000000 1.000000
tan 1.000000 0.000000 0.000000 1.000000
tan 0.708661 0.708661 -0.000000 1.000000
tan 0.708661 0.708661 -0.000000 1.000000
tan 0.708661 0.708661 -0.000000 1.000000
tan 0.708661 0.708661 -0.000000 1.000000
tan -1.000000 0.000000 0.000000 1.000000
tan -1.000000 0.000000 0.000000 1.000000
tan -1.000000 0.000000 0.000000 1.000000
tan -1.000000 0.000000 0.000000 1.000000
tan -1.000000 0.000000 0.000000 1.000000
tan -1.000000 0.000000 0.000000 1.000000
tan -1.000000 0.000000 0.000000 1.000000
tan -1.000000 0.000000 0.000000 1.000000
tan 0.000000 1.000000 -0.000000 1.000000
tan 0.000000 1.000000 -0.000000 1.000000
tan 0.000000 1.000000 -0.000000 1.000000
tan 0.000000 1.000000 -0.000000 1.000000
tan 0.000000 1.000000 -0.000000 1.000000
tan 0.000000 -1.000000 0.000000 1.000000
tan 0.000000 -1.000000 0.000000 1.000000
tan 0.000000 -1.000000 0.000000 1.000000
tan 0.000000 -1.000000 0.000000 1.000000
tan 0.000000 -1.000000 0.000000 1.000000
tan -0.708661 -0.708661 0.000000 1.000000
tan -0.708661 -0.708661 0.000000 1.000000
tan -0.708661 -0.708661 0.000000 1.000000
tan -0.708661 -0.708661 0.000000 1.000000
tan -0.708661 -0.708661 0.000000 1.000000
tan 1.000000 0.000000 0.000000 1.000000
tan 1.000000 0.000000 0.000000 1.000000
tan 1.000000 0.000000 0.000000 1.000000
tan 1.000000 0.000000 0.000000 1.000000
tan 1.000000 0.000000 0.000000 1.000000
tan -0.015748 -1.000000 0.000000 1.000000
tan -0.015748 -1.000000 0.000000 1.000000
tan -0.023622 -1.000000 0.000000 1.000000
tan -0.023622 -1.000000 0.000000 1.000000
tan -0.031496 -1.000000 0.000000 1.000000
tan -0.039370 -1.000000 0.000000 1.000000
tan -0.031496 -1.000000 0.000000 1.000000
tan -1.000000 0.000000 0.000000 1.000000
tan -1.000000 0.000000 0.000000 1.000000
tan -1.000000 0.000000 0.000000 1.000000
tan -1.000000 0.000000 0.000000 1.000000
tan -1.000000 0.000000 0.000000 1.000000
tan -1.000000 0.000000 0.000000 1.000000
f 3/3/3 2/2/2 1/1/1
f 5/5/5 1/1/1 4/4/4
f 5/5/5 4/4/4 6/6/6
f 9/9/9 8/8/8 7/7/7
f 7/7/7 8/8/8 10/10/10
f 13/13/13 12/12/12 11/11/11
f 12/12/12 13/13/13 14/14/14
f 17/17/17 16/16/16 15/15/15
f 16/16/16 18/18/18 15/15/15
f 21/21/21 20/20/20 19/19/19
f 22/22/22 20/20/20 21/21/21
f 25/25/25 24/24/24 23/23/23
f 28/28/28 27/27/27 26/26/26
f 31/31/31 30/30/30 29/29/29
f 34/34/34 33/33/33 32/32/32
f 36/36/36 33/33/33 35/35/35
f 33/33/33 36/36/36 37/37/37
f 37/37/37 36/36/36 38/38/38
f 39/39/39 38/38/38 36/36/36
f 33/33/33 41/41/41 40/40/40
f 42/42/42 40/40/40 41/41/41
f 45/45/45 44/44/44 43/43/43
f 44/44/44 46/46/46 43/43/43
f 49/49/49 48/48/48 47/47/47
f 50/50/50 49/49/49 47/47/47
f 53/53/53 52/52/52 51/51/51
f 53/53/53 54/54/54 52/52/52
f 57/57/57 56/56/56 55/55/55
f 58/58/58 57/57/57 55/55/55
f 61/61/61 60/60/60 59/59/59
f 62/62/62 61/61/61 59/59/59
f 65/65/65 64/64/64 63/63/63
f 65/65/65 63/63/63 66/66/66
f 67/67/67 65/65/65 66/66/66
f 70/70/70 69/69/69 68/68/68
f 70/70/70 68/68/68 71/71/71
f 72/72/72 70/70/70 71/71/71
f 75/75/75 74/74/74 73/73/73
f 76/76/76 75/75/75 73/73/73
f 76/76/76 73/73/73 77/77/77
f 80/80/80 79/79/79 78/78/78
f 81/81/81 80/80/80 78/78/78
f 81/81/81 78/78/78 82/82/82
f 85/85/85 84/84/84 83/83/83
f 86/86/86 83/83/83 84/84/84
f 84/84/84 87/87/87 86/86/86
f 88/88/88 86/86/86 87/87/87
f 86/86/86 88/88/88 89/89/89
f 92/92/92 91/91/91 90/90/90
f 90/90/90 91/91/91 93/93/93
f 90/90/90 93/93/93 94/94/94
f 95/95/95 90/90/90 94/94/94
