mtllib SM_Facade_cornerBalcony_LOD1.mtl
g SM_Facade_cornerBalcony_LOD1
#Vertices 99
#Indices 168
#Section 0 Offset 0 NumIndices 33 MaterialIndex 3 MI_Brick_Wall
#Section 1 Offset 33 NumIndices 117 MaterialIndex 2 MI_Brushed_Metal
#Section 2 Offset 150 NumIndices 12 MaterialIndex 0 MI_WhiteFillBasic
#Section 3 Offset 162 NumIndices 6 MaterialIndex 1 MI_Windows01
v -0.000000 0.000000 0.000000
v 1.300000 0.000000 0.000000
v 1.300000 1.500000 -0.000000
v -0.000000 3.000000 -0.000000
v 1.300000 2.250000 -0.000000
v 1.299999 2.450000 -0.000000
v 3.000000 2.450000 -0.000000
v 3.000000 3.000000 -0.000000
v 3.000000 0.000000 1.700000
v 3.000000 0.000000 3.000000
v 3.000000 2.450003 1.700000
v 3.000000 3.000000 3.000000
v 3.000000 2.450000 1.500000
v 3.000000 3.000000 -0.000000
v 3.000000 2.450000 -0.000000
v 3.200000 2.270334 1.520334
v 3.199392 2.253813 -0.199614
v 3.179666 2.250000 1.500000
v 3.198575 -0.000065 1.501485
v 3.200000 2.270334 1.520334
v 3.179666 2.250000 1.500000
v 1.506638 2.255998 -0.192030
v 1.479666 1.500000 -0.200000
v 1.500336 -0.000098 -0.196406
v 1.300668 0.000001 -0.195644
v 1.303013 1.499957 -0.199484
v 1.300000 1.500000 -0.000000
v 1.300000 0.000000 0.000000
v 1.506638 2.255998 -0.192030
v 1.500336 -0.000098 -0.196406
v 1.500000 0.000001 0.000000
v 1.500000 2.250000 -0.000000
v 1.301344 2.250354 -0.198130
v 1.300000 1.500000 -0.000000
v 1.303013 1.499957 -0.199484
v 1.300000 2.250000 -0.000000
v 3.198216 2.448657 1.500416
v 3.197963 2.448286 -0.197972
v 3.199392 2.253813 -0.199614
v 3.200000 2.270334 1.520334
v 3.201309 2.454231 1.698212
v 3.197039 0.000002 1.697556
v 3.000000 0.000000 1.700000
v 3.000000 2.450003 1.700000
v 3.000000 2.450000 -0.000000
v 3.198216 2.448657 1.500416
v 3.000000 2.450000 1.500000
v 3.197963 2.448286 -0.197972
v 1.506638 2.255998 -0.192030
v 3.199392 2.253813 -0.199614
v 1.499391 2.448637 -0.198202
v 3.197963 2.448286 -0.197972
v 3.198216 2.448657 1.500416
v 3.000000 2.450003 1.700000
v 3.000000 2.450000 1.500000
v 3.201309 2.454231 1.698212
v 1.299175 2.447413 -0.194743
v 1.506638 2.255998 -0.192030
v 1.499391 2.448637 -0.198202
v 1.301344 2.250354 -0.198130
v 1.301344 2.250354 -0.198130
v 1.479666 1.500000 -0.200000
v 1.506638 2.255998 -0.192030
v 1.303013 1.499957 -0.199484
v 1.303013 1.499957 -0.199484
v 1.500336 -0.000098 -0.196406
v 1.479666 1.500000 -0.200000
v 1.300668 0.000001 -0.195644
v 3.198575 -0.000065 1.501485
v 3.179666 2.250000 1.500000
v 3.000000 2.250000 1.500000
v 3.000000 0.000001 1.500000
v 1.299175 2.447413 -0.194743
v 1.300000 2.250000 -0.000000
v 1.301344 2.250354 -0.198130
v 1.299999 2.450000 -0.000000
v 3.198575 -0.000065 1.501485
v 3.197039 0.000002 1.697556
v 3.201309 2.454231 1.698212
v 3.200000 2.270334 1.520334
v 3.198216 2.448657 1.500416
v 1.299175 2.447413 -0.194743
v 1.499391 2.448637 -0.198202
v 1.299999 2.450000 -0.000000
v 3.000000 2.450000 -0.000000
v 3.197963 2.448286 -0.197972
v 3.000000 2.250000 -0.000000
v 1.506638 2.255998 -0.192030
v 1.500000 2.250000 -0.000000
v 3.199392 2.253813 -0.199614
v 3.179666 2.250000 1.500000
v 3.000000 2.250000 1.500000
v 1.500000 0.000000 1.500000
v 1.500000 2.250000 1.500000
v 1.500000 2.250000 1.500000
v 1.500000 2.250000 1.500000
v 3.000000 0.000001 1.500000
v 3.000000 2.250000 1.500000
v 1.500000 0.000000 1.500000
vt 0.166504 0.333984
vt 0.310547 0.333984
vt 0.310547 0.500977
vt 0.166504 0.667236
vt 0.310547 0.583984
vt 0.310547 0.606201
vt 0.499023 0.606201
vt 0.499023 0.667236
vt 0.687500 0.333984
vt 0.833008 0.333984
vt 0.687500 0.606445
vt 0.833008 0.667480
vt 0.665039 0.606201
vt 0.499023 0.667236
vt 0.499023 0.606201
vt 0.871582 0.246582
vt 0.940918 0.446289
vt 0.869141 0.250000
vt 0.583496 0.248535
vt 0.871582 0.246582
vt 0.869141 0.250000
vt 0.781738 0.576172
vt 0.698730 0.532227
vt 0.538086 0.437988
vt 0.052246 -0.029297
vt 0.226196 0.071777
vt 0.212524 0.095215
vt 0.038940 -0.006836
vt 0.248047 0.158691
vt 0.529785 0.158203
vt 0.529785 0.182617
vt 0.248779 0.182617
vt 0.311035 0.121582
vt 0.212524 0.095215
vt 0.226196 0.071777
vt 0.300781 0.146973
vt 0.687988 0.115723
vt 0.513672 0.019531
vt 0.513672 -0.006836
vt 0.703125 0.098633
vt 0.697754 0.125977
vt 0.948242 -0.031250
vt 0.960938 -0.011719
vt 0.709961 0.146484
vt 0.513672 0.046875
vt 0.688477 0.114258
vt 0.679199 0.138672
vt 0.513184 0.018555
vt 0.329102 0.102051
vt 0.512207 -0.006836
vt 0.343750 0.123047
vt 0.513184 0.020020
vt 0.687500 0.114258
vt 0.706543 0.144043
vt 0.679199 0.138672
vt 0.703613 0.123047
vt 0.326904 0.133301
vt 0.328369 0.102539
vt 0.344482 0.122559
vt 0.310059 0.122559
vt 0.310303 0.122559
vt 0.237549 0.052246
vt 0.327881 0.101562
vt 0.225586 0.072754
vt 0.225586 0.072754
vt 0.065308 -0.051758
vt 0.237549 0.052246
vt 0.051788 -0.028320
vt 0.529785 0.582275
vt 0.248779 0.579834
vt 0.248779 0.557373
vt 0.529785 0.557373
vt 0.327148 0.131836
vt 0.300781 0.146973
vt 0.310791 0.121094
vt 0.329590 0.152832
vt 0.935547 -0.051758
vt 0.948242 -0.031250
vt 0.698730 0.127441
vt 0.703125 0.098633
vt 0.687012 0.115234
vt 0.326660 0.131836
vt 0.343262 0.121582
vt 0.332275 0.155273
vt 0.513672 0.046875
vt 0.513184 0.018555
vt 0.061401 0.557373
vt 0.037384 0.371094
vt 0.061401 0.370117
vt 0.036438 0.582275
vt 0.248779 0.579834
vt 0.248779 0.557373
vt 0.529785 0.370117
vt 0.248779 0.370117
vt 0.248779 0.370117
vt 0.141113 0.985344
vt 0.872070 0.012207
vt 0.872070 0.985344
vt 0.141113 0.012207
vt1 0.008064 0.605225
vt1 0.174927 0.604980
vt1 0.174927 0.798828
vt1 0.008064 0.991936
vt1 0.174927 0.895386
vt1 0.174927 0.921143
vt1 0.393311 0.921143
vt1 0.393311 0.991936
vt1 0.611328 0.604980
vt1 0.780273 0.604980
vt1 0.611328 0.921448
vt1 0.779785 0.992134
vt1 0.585938 0.921143
vt1 0.393311 0.991936
vt1 0.393311 0.921143
vt1 0.384766 0.130859
vt1 0.456055 0.337891
vt1 0.382080 0.134766
vt1 0.088318 0.132812
vt1 0.384766 0.130859
vt1 0.382080 0.134766
vt1 0.291992 0.472168
vt1 0.206543 0.426758
vt1 0.041382 0.329102
vt1 0.021942 0.399414
vt1 0.203247 0.504639
vt1 0.188965 0.528809
vt1 0.008064 0.422852
vt1 0.200806 0.677002
vt1 0.491699 0.676514
vt1 0.491699 0.701904
vt1 0.201538 0.701904
vt1 0.291748 0.555908
vt1 0.188965 0.528809
vt1 0.203247 0.504639
vt1 0.281006 0.582520
vt1 0.684570 0.550049
vt1 0.502441 0.450684
vt1 0.502441 0.422363
vt1 0.700195 0.532227
vt1 0.694336 0.560791
vt1 0.955566 0.396973
vt1 0.968750 0.417969
vt1 0.707031 0.582031
vt1 0.502930 0.478516
vt1 0.685059 0.548828
vt1 0.675293 0.573975
vt1 0.502441 0.449219
vt1 0.310547 0.536133
vt1 0.500977 0.422363
vt1 0.325684 0.557617
vt1 0.502441 0.450684
vt1 0.683594 0.548584
vt1 0.704102 0.579346
vt1 0.675293 0.573975
vt1 0.700684 0.557617
vt1 0.308105 0.568604
vt1 0.309814 0.536133
vt1 0.326416 0.557129
vt1 0.290527 0.557373
vt1 0.290771 0.557373
vt1 0.215088 0.484375
vt1 0.309082 0.535645
vt1 0.202515 0.505615
vt1 0.202515 0.505615
vt1 0.035553 0.375977
vt1 0.215088 0.484375
vt1 0.021439 0.400391
vt1 0.427246 0.127930
vt1 0.717285 0.130371
vt1 0.717285 0.153320
vt1 0.427246 0.153320
vt1 0.308594 0.566650
vt1 0.281006 0.582520
vt1 0.291504 0.555908
vt1 0.311035 0.588867
vt1 0.942383 0.376465
vt1 0.956055 0.397461
vt1 0.695801 0.562256
vt1 0.700195 0.532227
vt1 0.683594 0.549805
vt1 0.308105 0.566650
vt1 0.325195 0.556396
vt1 0.313721 0.591553
vt1 0.502930 0.478516
vt1 0.502441 0.449219
vt1 0.910645 0.153320
vt1 0.935547 0.346191
vt1 0.910645 0.347168
vt1 0.936523 0.127930
vt1 0.717285 0.130371
vt1 0.717285 0.153320
vt1 0.491699 0.895203
vt1 0.201538 0.895203
vt1 0.717285 0.347168
vt1 0.798340 0.991936
vt1 0.991699 0.701904
vt1 0.991699 0.991936
vt1 0.798340 0.701904
vn 0.000000 -0.000000 -1.000000
vn 0.000000 -0.000000 -1.000000
vn 0.000000 -0.000000 -1.000000
vn 0.000000 -0.000000 -1.000000
vn 0.000000 -0.000000 -1.000000
vn 0.000000 -0.000000 -1.000000
vn 0.000000 -0.000000 -1.000000
vn 0.000000 -0.000000 -1.000000
vn 1.000000 0.000000 0.000000
vn 1.000000 0.000000 0.000000
vn 1.000000 0.000000 0.000000
vn 1.000000 0.000000 0.000000
vn 1.000000 0.000000 0.000000
vn 1.000000 0.000000 0.000000
vn 1.000000 0.000000 0.000000
vn 0.708661 -0.708661 0.000000
vn 0.708661 -0.708661 0.000000
vn 0.708661 -0.708661 0.000000
vn 0.708661 -0.000000 -0.708661
vn 0.708661 -0.000000 -0.708661
vn 0.708661 -0.000000 -0.708661
vn 0.708661 -0.000000 -0.708661
vn 0.708661 -0.000000 -0.708661
vn 0.708661 -0.000000 -0.708661
vn -1.000000 0.000000 0.000000
vn -1.000000 0.000000 0.000000
vn -1.000000 0.000000 0.000000
vn -1.000000 0.000000 0.000000
vn 1.000000 0.000000 0.000000
vn 1.000000 0.000000 0.000000
vn 1.000000 0.000000 0.000000
vn 1.000000 0.000000 0.000000
vn -1.000000 0.000000 0.000000
vn -1.000000 0.000000 0.000000
vn -1.000000 0.000000 0.000000
vn -1.000000 0.000000 0.000000
vn 1.000000 0.000000 0.000000
vn 1.000000 0.000000 0.000000
vn 1.000000 0.000000 0.000000
vn 1.000000 0.000000 0.000000
vn 0.000000 0.000000 1.000000
vn 0.000000 0.000000 1.000000
vn 0.000000 0.000000 1.000000
vn 0.000000 0.000000 1.000000
vn 0.000000 1.000000 -0.000000
vn 0.000000 1.000000 -0.000000
vn 0.000000 1.000000 -0.000000
vn 0.000000 1.000000 -0.000000
vn 0.000000 -0.000000 -1.000000
vn 0.000000 -0.000000 -1.000000
vn 0.000000 -0.000000 -1.000000
vn 0.000000 -0.000000 -1.000000
vn 0.000000 1.000000 -0.000000
vn 0.000000 1.000000 -0.000000
vn 0.000000 1.000000 -0.000000
vn 0.000000 1.000000 -0.000000
vn 0.000000 -0.000000 -1.000000
vn 0.000000 -0.000000 -1.000000
vn 0.000000 -0.000000 -1.000000
vn 0.000000 -0.000000 -1.000000
vn 0.000000 -0.000000 -1.000000
vn 0.000000 -0.000000 -1.000000
vn 0.000000 -0.000000 -1.000000
vn 0.000000 -0.000000 -1.000000
vn 0.000000 -0.000000 -1.000000
vn 0.000000 -0.000000 -1.000000
vn 0.000000 -0.000000 -1.000000
vn 0.000000 -0.000000 -1.000000
vn 0.000000 -0.000000 -1.000000
vn 0.000000 -0.000000 -1.000000
vn 0.000000 -0.000000 -1.000000
vn 0.000000 -0.000000 -1.000000
vn -1.000000 0.000000 0.000000
vn -1.000000 0.000000 0.000000
vn -1.000000 0.000000 0.000000
vn -1.000000 0.000000 0.000000
vn 1.000000 0.000000 0.000000
vn 1.000000 0.000000 0.000000
vn 1.000000 0.000000 0.000000
vn 1.000000 0.000000 0.000000
vn 1.000000 0.000000 0.000000
vn 0.000000 1.000000 -0.000000
vn 0.000000 1.000000 -0.000000
vn 0.000000 1.000000 -0.000000
vn 0.000000 1.000000 -0.000000
vn 0.000000 1.000000 -0.000000
vn 0.000000 -1.000000 0.000000
vn 0.000000 -1.000000 0.000000
vn 0.000000 -1.000000 0.000000
vn 0.000000 -1.000000 0.000000
vn 0.000000 -1.000000 0.000000
vn 0.000000 -1.000000 0.000000
vn 1.000000 0.000000 0.000000
vn 1.000000 0.000000 0.000000
vn 0.000000 -1.000000 0.000000
vn 0.000000 -0.000000 -1.000000
vn 0.000000 -0.000000 -1.000000
vn 0.000000 -0.000000 -1.000000
vn 0.000000 -0.000000 -1.000000
tan 0.000000 -1.000000 0.000000 1.000000
tan 0.000000 -1.000000 0.000000 1.000000
tan 0.000000 -1.000000 0.000000 1.000000
tan 0.000000 -1.000000 0.000000 1.000000
tan 0.000000 -1.000000 0.000000 1.000000
tan 0.000000 -1.000000 0.000000 1.000000
tan 0.000000 -1.000000 0.000000 1.000000
tan 0.000000 -1.000000 0.000000 1.000000
tan 0.000000 -1.000000 0.000000 1.000000
tan 0.000000 -1.000000 0.000000 1.000000
tan 0.000000 -1.000000 0.000000 1.000000
tan 0.000000 -1.000000 0.000000 1.000000
tan 0.000000 -1.000000 0.000000 1.000000
tan 0.000000 -1.000000 0.000000 1.000000
tan 0.000000 -1.000000 0.000000 1.000000
tan 0.435241 0.435241 0.792361 1.000000
tan 0.585901 0.585901 0.569161 1.000000
tan 0.435241 0.435241 0.792361 1.000000
tan 0.708661 0.000000 0.708661 1.000000
tan 0.708661 0.000000 0.708661 1.000000
tan 0.708661 0.000000 0.708661 1.000000
tan 0.703081 -0.145080 0.703081 1.000000
tan 0.680761 -0.279000 0.680761 1.000000
tan 0.703081 -0.089280 0.703081 1.000000
tan 0.000000 -0.503937 -0.866142 1.000000
tan 0.000000 -0.503937 -0.866142 1.000000
tan 0.000000 -0.503937 -0.866142 1.000000
tan 0.000000 -0.503937 -0.858268 1.000000
tan 0.000000 -0.000000 -1.000000 1.000000
tan 0.000000 -0.000000 -1.000000 1.000000
tan 0.000000 -0.000000 -1.000000 1.000000
tan 0.000000 -0.000000 -1.000000 1.000000
tan 0.000000 -0.472441 -0.881890 1.000000
tan 0.000000 -0.488189 -0.874016 1.000000
tan 0.000000 -0.496063 -0.874016 1.000000
tan 0.000000 -0.472441 -0.881890 1.000000
tan 0.000000 -0.866142 -0.503937 1.000000
tan 0.000000 -0.929134 -0.370079 1.000000
tan 0.000000 -0.921260 -0.377953 1.000000
tan 0.000000 -0.858268 -0.511811 1.000000
tan 0.866142 -0.496063 0.000000 1.000000
tan 0.842520 -0.535433 0.000000 1.000000
tan 0.842520 -0.535433 0.000000 1.000000
tan 0.881890 -0.480315 0.000000 1.000000
tan 0.842520 -0.000000 -0.543307 1.000000
tan 0.889764 -0.000000 -0.448819 1.000000
tan 0.897638 -0.000000 -0.440945 1.000000
tan 0.834646 -0.000000 -0.551181 1.000000
tan 0.535433 -0.842520 0.000000 1.000000
tan 0.401575 -0.913386 0.000000 1.000000
tan 0.527559 -0.850394 0.000000 1.000000
tan 0.393701 -0.921260 0.000000 1.000000
tan 0.952756 -0.000000 -0.307087 1.000000
tan 0.952756 -0.000000 -0.307087 1.000000
tan 0.976378 -0.000000 -0.204724 1.000000
tan 0.913386 -0.000000 -0.409449 1.000000
tan 0.716535 -0.700787 0.000000 1.000000
tan 0.692913 -0.716535 0.000000 1.000000
tan 0.448819 -0.889764 0.000000 1.000000
tan 0.897638 -0.440945 0.000000 1.000000
tan 0.834646 -0.543307 0.000000 1.000000
tan 0.866142 -0.503937 0.000000 1.000000
tan 0.834646 -0.551181 0.000000 1.000000
tan 0.866142 -0.496063 0.000000 1.000000
tan 0.866142 -0.503937 0.000000 1.000000
tan 0.866142 -0.503937 0.000000 1.000000
tan 0.866142 -0.503937 0.000000 1.000000
tan 0.866142 -0.503937 0.000000 1.000000
tan -1.000000 0.000000 0.000000 1.000000
tan -1.000000 0.000000 0.000000 1.000000
tan -1.000000 0.000000 0.000000 1.000000
tan -1.000000 0.000000 0.000000 1.000000
tan 0.000000 -0.314961 -0.952756 1.000000
tan 0.000000 -0.314961 -0.944882 1.000000
tan 0.000000 -0.362205 -0.929134 1.000000
tan 0.000000 -0.267717 -0.960630 1.000000
tan 0.000000 -0.503937 -0.866142 1.000000
tan 0.000000 -0.535433 -0.842520 1.000000
tan 0.000000 -0.559055 -0.826771 1.000000
tan 0.000000 -0.661417 -0.755905 1.000000
tan 0.000000 -0.913386 -0.409449 1.000000
tan 0.401575 -0.000000 -0.913386 1.000000
tan 0.456693 -0.000000 -0.889764 1.000000
tan 0.425197 -0.000000 -0.905512 1.000000
tan 0.590551 -0.000000 -0.803149 1.000000
tan 0.598425 -0.000000 -0.803149 1.000000
tan -1.000000 0.000000 0.000000 1.000000
tan -1.000000 0.000000 0.000000 1.000000
tan -1.000000 0.000000 0.000000 1.000000
tan -1.000000 0.000000 0.000000 1.000000
tan -1.000000 0.000000 0.000000 1.000000
tan -1.000000 0.000000 0.000000 1.000000
tan 0.000000 -0.000000 -1.000000 1.000000
tan 0.000000 -0.000000 -1.000000 1.000000
tan -1.000000 0.000000 0.000000 1.000000
tan 0.000000 -1.000000 0.000000 1.000000
tan 0.000000 -1.000000 0.000000 1.000000
tan 0.000000 -1.000000 0.000000 1.000000
tan 0.000000 -1.000000 0.000000 1.000000
f 3/3/3 2/2/2 1/1/1
f 1/1/1 4/4/4 3/3/3
f 5/5/5 3/3/3 4/4/4
f 6/6/6 5/5/5 4/4/4
f 4/4/4 7/7/7 6/6/6
f 7/7/7 4/4/4 8/8/8
f 11/11/11 10/10/10 9/9/9
f 12/12/12 10/10/10 11/11/11
f 11/11/11 13/13/13 12/12/12
f 12/12/12 13/13/13 14/14/14
f 15/15/15 14/14/14 13/13/13
f 18/18/18 17/17/17 16/16/16
f 21/21/21 20/20/20 19/19/19
f 24/24/24 23/23/23 22/22/22
f 27/27/27 26/26/26 25/25/25
f 28/28/28 27/27/27 25/25/25
f 31/31/31 30/30/30 29/29/29
f 32/32/32 31/31/31 29/29/29
f 35/35/35 34/34/34 33/33/33
f 36/36/36 33/33/33 34/34/34
f 39/39/39 38/38/38 37/37/37
f 37/37/37 40/40/40 39/39/39
f 43/43/43 42/42/42 41/41/41
f 41/41/41 44/44/44 43/43/43
f 47/47/47 46/46/46 45/45/45
f 48/48/48 45/45/45 46/46/46
f 51/51/51 50/50/50 49/49/49
f 50/50/50 51/51/51 52/52/52
f 55/55/55 54/54/54 53/53/53
f 56/56/56 53/53/53 54/54/54
f 59/59/59 58/58/58 57/57/57
f 60/60/60 57/57/57 58/58/58
f 63/63/63 62/62/62 61/61/61
f 64/64/64 61/61/61 62/62/62
f 67/67/67 66/66/66 65/65/65
f 68/68/68 65/65/65 66/66/66
f 71/71/71 70/70/70 69/69/69
f 69/69/69 72/72/72 71/71/71
f 75/75/75 74/74/74 73/73/73
f 76/76/76 73/73/73 74/74/74
f 79/79/79 78/78/78 77/77/77
f 80/80/80 79/79/79 77/77/77
f 81/81/81 79/79/79 80/80/80
f 84/84/84 83/83/83 82/82/82
f 84/84/84 85/85/85 83/83/83
f 85/85/85 86/86/86 83/83/83
f 89/89/89 88/88/88 87/87/87
f 90/90/90 87/87/87 88/88/88
f 87/87/87 90/90/90 91/91/91
f 91/91/91 92/92/92 87/87/87
f 94/94/94 93/93/93 31/31/31
f 32/32/32 94/94/94 31/31/31
f 92/92/92 95/95/95 87/87/87
f 89/89/89 87/87/87 95/95/95
f 98/98/98 97/97/97 96/96/96
f 99/99/99 96/96/96 97/97/97
