mtllib SM_FacadeWindow_LOD3.mtl
g SM_FacadeWindow_LOD3
#Vertices 62
#Indices 132
#Section 0 Offset 0 NumIndices 78 MaterialIndex 2 MI_Brushed_Metal
#Section 1 Offset 78 NumIndices 24 MaterialIndex 3 MI_Brick_Wall
#Section 2 Offset 102 NumIndices 24 MaterialIndex 0 MI_WhiteFillBasic
#Section 3 Offset 126 NumIndices 6 MaterialIndex 1 MI_Windows01
v 1.876156 1.498153 -0.191264
v 1.841008 1.550627 -0.001254
v 1.148403 1.539067 -0.000313
v 1.127210 1.496130 -0.190550
v 1.876156 1.498153 -0.191264
v 1.876986 2.251657 -0.190708
v 1.846973 2.200843 -0.001151
v 1.841008 1.550627 -0.001254
v 0.934891 2.443288 -0.168801
v 0.935088 1.310372 -0.193946
v 0.964485 2.410655 -0.200000
v 2.061594 2.436139 -0.195160
v 1.876986 2.251657 -0.190708
v 1.147429 2.210996 -0.000413
v 1.846973 2.200843 -0.001151
v 1.120896 2.252692 -0.190228
v 1.127210 1.496130 -0.190550
v 1.148403 1.539067 -0.000313
v 2.068829 1.316479 -0.194015
v 2.072417 2.448000 -0.000295
v 2.061594 2.436139 -0.195160
v 0.934891 2.443288 -0.168801
v 2.071964 1.301482 -0.000032
v 0.926561 2.446934 -0.000140
v 0.935088 1.310372 -0.193946
v 0.926864 1.302905 0.000002
v 1.127210 1.496130 -0.190550
v 1.120896 2.252692 -0.190228
v 0.964485 2.410655 -0.200000
v 1.876986 2.251657 -0.190708
v 0.935088 1.310372 -0.193946
v 2.061594 2.436139 -0.195160
v 1.876156 1.498153 -0.191264
v 2.068829 1.316479 -0.194015
v -0.000000 3.000000 -0.000000
v 0.926561 2.446934 -0.000140
v 2.072417 2.448000 -0.000295
v 0.926864 1.302905 0.000002
v 3.000000 3.000000 -0.000000
v -0.000000 0.000000 -0.000000
v 2.071964 1.301482 -0.000032
v 3.000000 0.000000 -0.000000
v 1.846973 2.200843 -0.001151
v 1.842189 2.184379 0.475481
v 1.841008 1.550627 -0.001254
v 1.842189 1.565620 0.475481
v 1.846973 2.200843 -0.001151
v 1.157809 2.184379 0.475480
v 1.842189 2.184379 0.475481
v 1.147429 2.210996 -0.000413
v 1.841008 1.550627 -0.001254
v 1.157809 1.565622 0.475481
v 1.148403 1.539067 -0.000313
v 1.842189 1.565620 0.475481
v 1.148403 1.539067 -0.000313
v 1.157809 1.565622 0.475481
v 1.147429 2.210996 -0.000413
v 1.157809 2.184379 0.475480
v 1.842189 2.184379 0.475481
v 1.157809 1.565622 0.475481
v 1.842189 1.565620 0.475481
v 1.157809 2.184379 0.475480
vt 0.751953 0.729492
vt 0.720215 0.712646
vt 0.724121 0.632080
vt 0.740723 0.614014
vt 0.732910 0.737061
vt 0.628418 0.731934
vt 0.652832 0.712646
vt 0.714844 0.715820
vt 0.469727 0.197266
vt 0.607422 0.199219
vt 0.475586 0.202148
vt 0.472656 0.332520
vt 0.622070 0.721436
vt 0.649414 0.632324
vt 0.648438 0.711914
vt 0.628418 0.612793
vt 0.736328 0.612061
vt 0.717773 0.633301
vt 0.604004 0.335938
vt 0.455322 0.350586
vt 0.474121 0.331543
vt 0.469482 0.194336
vt 0.622070 0.354004
vt 0.456787 0.179199
vt 0.608887 0.196289
vt 0.625000 0.181641
vt 0.584473 0.222656
vt 0.494141 0.221191
vt 0.474854 0.202148
vt 0.493896 0.311035
vt 0.608398 0.199219
vt 0.472412 0.333008
vt 0.582031 0.312988
vt 0.602539 0.337402
vt 0.000755 0.667725
vt 0.103088 0.605957
vt 0.230469 0.605713
vt 0.102539 0.479980
vt 0.333496 0.666748
vt -0.000273 0.333984
vt 0.230347 0.478516
vt 0.333740 0.333984
vt 0.295898 0.161133
vt 0.336426 0.204590
vt 0.238525 0.218750
vt 0.281738 0.259277
vt 0.378174 0.162109
vt 0.396973 0.265137
vt 0.336426 0.204590
vt 0.439941 0.224121
vt 0.239868 0.301758
vt 0.342285 0.319824
vt 0.301025 0.362793
vt 0.281738 0.259277
vt 0.382080 0.364258
vt 0.342285 0.319824
vt 0.441406 0.305176
vt 0.396973 0.265137
vt 0.855469 0.817749
vt 0.120850 0.146973
vt 0.858887 0.150391
vt 0.117737 0.814209
vt1 0.915039 0.982666
vt1 0.858398 0.950470
vt1 0.865234 0.797241
vt1 0.895020 0.763184
vt1 0.880859 0.997086
vt1 0.694824 0.987175
vt1 0.738281 0.950745
vt1 0.848633 0.956421
vt1 0.944824 0.062500
vt1 0.704102 0.065918
vt1 0.934570 0.070801
vt1 0.939453 0.298828
vt1 0.683105 0.967346
vt1 0.731934 0.798096
vt1 0.730469 0.949005
vt1 0.694824 0.760986
vt1 0.887207 0.759399
vt1 0.854004 0.799927
vt1 0.709961 0.304199
vt1 0.969727 0.330078
vt1 0.936523 0.296875
vt1 0.944824 0.057617
vt1 0.678223 0.335938
vt1 0.966797 0.030273
vt1 0.701660 0.060547
vt1 0.673340 0.034668
vt1 0.744141 0.106445
vt1 0.901855 0.104004
vt1 0.935547 0.070801
vt1 0.902344 0.261230
vt1 0.702148 0.065918
vt1 0.939941 0.298828
vt1 0.748047 0.264648
vt1 0.712402 0.307129
vt1 0.008400 0.994358
vt1 0.208374 0.873413
vt1 0.457275 0.873047
vt1 0.207275 0.626465
vt1 0.658691 0.992470
vt1 0.006393 0.341309
vt1 0.457031 0.624023
vt1 0.658691 0.341797
vt1 0.105225 0.144531
vt1 0.175781 0.219727
vt1 0.005573 0.244141
vt1 0.080933 0.314941
vt1 0.790527 0.555176
vt1 0.758301 0.733887
vt1 0.863281 0.629150
vt1 0.683594 0.662598
vt1 0.233765 0.742432
vt1 0.411621 0.773926
vt1 0.340088 0.848267
vt1 0.306641 0.669189
vt1 0.913086 0.625244
vt1 0.981934 0.548096
vt1 0.810059 0.522217
vt1 0.887207 0.453613
vt1 0.543457 0.314941
vt1 0.395752 0.179688
vt1 0.543945 0.180664
vt1 0.395020 0.313965
vn -0.157480 0.984252 -0.000000
vn -0.149606 0.992126 -0.000000
vn 0.149606 0.992126 -0.000000
vn 0.165354 0.984252 -0.000000
vn -0.976378 0.204724 -0.000000
vn -0.968504 -0.259842 0.000000
vn -0.984252 -0.188976 0.000000
vn -0.968504 0.244094 -0.000000
vn -0.409449 0.417323 -0.811024
vn -0.433071 -0.433071 -0.787401
vn -0.417323 0.417323 -0.811024
vn 0.425197 0.425197 -0.795276
vn -0.165354 -0.984252 0.000000
vn 0.700787 -0.708661 0.000000
vn -0.133858 -0.992126 0.000000
vn 0.708661 -0.708661 0.000000
vn 0.976378 0.204724 -0.000000
vn 0.968504 0.251968 -0.000000
vn 0.897638 -0.440945 -0.047244
vn 0.708661 0.700787 -0.055118
vn 0.700787 0.708661 -0.055118
vn -0.488189 0.866142 -0.055118
vn 0.496063 -0.866142 -0.055118
vn -0.874016 0.488189 -0.055118
vn -0.708661 -0.700787 -0.055118
vn -0.700787 -0.716535 -0.055118
vn 0.000000 -0.000000 -1.000000
vn 0.000000 -0.000000 -1.000000
vn 0.000000 -0.000000 -1.000000
vn 0.000000 -0.000000 -1.000000
vn 0.000000 -0.000000 -1.000000
vn 0.000000 -0.000000 -1.000000
vn 0.000000 -0.000000 -1.000000
vn 0.000000 -0.000000 -1.000000
vn 0.000000 -0.000000 -1.000000
vn 0.000000 -0.000000 -1.000000
vn 0.000000 -0.000000 -1.000000
vn 0.000000 -0.000000 -1.000000
vn 0.000000 -0.000000 -1.000000
vn 0.000000 -0.000000 -1.000000
vn 0.000000 -0.000000 -1.000000
vn 0.000000 -0.000000 -1.000000
vn -1.000000 0.000000 0.000000
vn -1.000000 0.000000 0.000000
vn -1.000000 0.000000 0.000000
vn -1.000000 0.000000 0.000000
vn 0.000000 -1.000000 0.000000
vn 0.000000 -1.000000 0.000000
vn 0.000000 -1.000000 0.000000
vn 0.000000 -1.000000 0.000000
vn 0.000000 1.000000 -0.000000
vn 0.000000 1.000000 -0.000000
vn 0.000000 1.000000 -0.000000
vn 0.000000 1.000000 -0.000000
vn 1.000000 0.000000 0.000000
vn 1.000000 0.000000 0.000000
vn 1.000000 0.000000 0.000000
vn 1.000000 0.000000 0.000000
vn 0.000000 -0.000000 -1.000000
vn 0.000000 -0.000000 -1.000000
vn 0.000000 -0.000000 -1.000000
vn 0.000000 -0.000000 -1.000000
tan -0.798252 -0.127720 0.581251 1.000000
tan -0.828074 -0.124868 0.546841 1.000000
tan -0.789014 0.118978 -0.601525 1.000000
tan -0.813752 0.136710 -0.550251 1.000000
tan -0.096720 -0.461281 0.861058 1.000000
tan -0.180048 0.671089 0.701593 1.000000
tan -0.080352 0.418501 0.891252 1.000000
tan -0.101866 -0.404179 0.884618 1.000000
tan -0.719449 0.392399 0.565131 1.000000
tan -0.664641 -0.426561 0.600161 1.000000
tan -0.671089 0.465621 0.584909 1.000000
tan -0.724781 -0.346023 -0.572509 1.000000
tan -0.883502 0.148428 0.434001 1.000000
tan -0.641701 -0.634571 -0.409945 1.000000
tan -0.820262 0.110670 0.554653 1.000000
tan -0.697501 -0.697501 -0.178560 1.000000
tan -0.112840 0.538161 -0.814930 1.000000
tan -0.105152 0.404179 -0.876992 1.000000
tan -0.339389 -0.621613 -0.646661 1.000000
tan -0.674437 0.654907 -0.344659 1.000000
tan -0.702771 0.678591 -0.210490 1.000000
tan -0.817658 -0.439643 0.333437 1.000000
tan -0.817224 -0.446153 -0.344039 1.000000
tan -0.411867 -0.671399 0.584351 1.000000
tan -0.690433 0.680699 0.222394 1.000000
tan -0.693099 0.652613 0.328291 1.000000
tan -1.000000 0.000000 0.000000 1.000000
tan -1.000000 0.023622 -0.000000 1.000000
tan -1.000000 0.015748 -0.000000 1.000000
tan -1.000000 -0.023622 0.000000 1.000000
tan -1.000000 -0.039370 0.000000 1.000000
tan -1.000000 0.023622 -0.000000 1.000000
tan -1.000000 0.055118 -0.000000 1.000000
tan -1.000000 0.055118 -0.000000 1.000000
tan 0.007874 -1.000000 0.000000 1.000000
tan 0.007874 -1.000000 0.000000 1.000000
tan 0.000000 -1.000000 0.000000 1.000000
tan -0.007874 -1.000000 0.000000 1.000000
tan 0.000000 -1.000000 0.000000 1.000000
tan 0.000000 -1.000000 0.000000 1.000000
tan 0.000000 -1.000000 0.000000 1.000000
tan 0.000000 -1.000000 0.000000 1.000000
tan 0.000000 0.708661 -0.708661 1.000000
tan 0.000000 0.708661 -0.708661 1.000000
tan 0.000000 0.708661 -0.708661 1.000000
tan 0.000000 0.708661 -0.708661 1.000000
tan 0.708661 -0.000000 -0.708661 1.000000
tan 0.708661 -0.000000 -0.708661 1.000000
tan 0.708661 -0.000000 -0.708661 1.000000
tan 0.708661 -0.000000 -0.708661 1.000000
tan 0.708661 0.000000 0.708661 1.000000
tan 0.708661 0.000000 0.708661 1.000000
tan 0.708661 0.000000 0.708661 1.000000
tan 0.708661 0.000000 0.708661 1.000000
tan 0.000000 0.708661 0.708661 1.000000
tan 0.000000 0.708661 0.708661 1.000000
tan 0.000000 0.708661 0.708661 1.000000
tan 0.000000 0.708661 0.708661 1.000000
tan -0.007874 -1.000000 0.000000 1.000000
tan -0.007874 -1.000000 0.000000 1.000000
tan -0.007874 -1.000000 0.000000 1.000000
tan -0.007874 -1.000000 0.000000 1.000000
f 3/3/3 2/2/2 1/1/1
f 3/3/3 1/1/1 4/4/4
f 7/7/7 6/6/6 5/5/5
f 8/8/8 7/7/7 5/5/5
f 11/11/11 10/10/10 9/9/9
f 11/11/11 9/9/9 12/12/12
f 15/15/15 14/14/14 13/13/13
f 14/14/14 16/16/16 13/13/13
f 16/16/16 14/14/14 17/17/17
f 18/18/18 17/17/17 14/14/14
f 21/21/21 20/20/20 19/19/19
f 20/20/20 21/21/21 22/22/22
f 23/23/23 19/19/19 20/20/20
f 24/24/24 20/20/20 22/22/22
f 19/19/19 23/23/23 25/25/25
f 24/24/24 22/22/22 25/25/25
f 26/26/26 25/25/25 23/23/23
f 26/26/26 24/24/24 25/25/25
f 29/29/29 28/28/28 27/27/27
f 29/29/29 30/30/30 28/28/28
f 29/29/29 27/27/27 31/31/31
f 29/29/29 32/32/32 30/30/30
f 27/27/27 33/33/33 31/31/31
f 30/30/30 32/32/32 33/33/33
f 34/34/34 31/31/31 33/33/33
f 34/34/34 33/33/33 32/32/32
f 37/37/37 36/36/36 35/35/35
f 36/36/36 38/38/38 35/35/35
f 35/35/35 39/39/39 37/37/37
f 38/38/38 40/40/40 35/35/35
f 37/37/37 39/39/39 41/41/41
f 41/41/41 40/40/40 38/38/38
f 41/41/41 39/39/39 42/42/42
f 41/41/41 42/42/42 40/40/40
f 45/45/45 44/44/44 43/43/43
f 46/46/46 44/44/44 45/45/45
f 49/49/49 48/48/48 47/47/47
f 47/47/47 48/48/48 50/50/50
f 53/53/53 52/52/52 51/51/51
f 52/52/52 54/54/54 51/51/51
f 57/57/57 56/56/56 55/55/55
f 58/58/58 56/56/56 57/57/57
f 61/61/61 60/60/60 59/59/59
f 62/62/62 59/59/59 60/60/60
