mtllib SM_FacadeTopCornerChamf_b_LOD2.mtl
g SM_FacadeTopCornerChamf_b_LOD2
#Vertices 23
#Indices 33
#Section 0 Offset 0 NumIndices 6 MaterialIndex 1 MI_Metal_Darkgrey
#Section 1 Offset 6 NumIndices 27 MaterialIndex 0 MI_Brushed_Metal
v 3.598743 0.846062 3.005609
v 3.479445 0.845033 0.839111
v 2.938550 0.184070 1.027610
v 2.957170 0.163600 2.999998
v 2.191342 0.508652 -0.461940
v 3.479445 0.845033 0.839111
v 2.155860 0.819900 -0.379164
v 2.155860 0.819900 -0.379164
v -0.006239 0.846820 -0.596236
v 2.191342 0.508652 -0.461940
v 2.938550 0.184070 1.027610
v 2.191342 0.508652 -0.461940
v 1.965367 0.177104 0.050662
v 3.479445 0.845033 0.839111
v -0.006239 0.846820 -0.596236
v 1.965367 0.177104 0.050662
v 2.191342 0.508652 -0.461940
v -0.000000 0.163600 0.042830
v 3.598743 0.846062 3.005609
v 0.159769 0.864453 2.821176
v 3.479445 0.845033 0.839111
v 2.155860 0.819900 -0.379164
v -0.006239 0.846820 -0.596236
vt 0.626465 0.059570
vt 0.621094 0.319824
vt 0.511230 0.335449
vt 0.512207 0.066895
vt 0.595703 0.530518
vt 0.631836 0.331055
vt 0.634277 0.526367
vt 0.634766 0.534424
vt 0.632812 0.791870
vt 0.595703 0.530518
vt 0.511230 0.340332
vt 0.595703 0.530518
vt 0.522461 0.531250
vt 0.616699 0.336426
vt 0.625977 0.797852
vt 0.523438 0.531250
vt 0.595703 0.530518
vt 0.519043 0.788086
vt 0.484619 0.035156
vt 0.461914 0.464844
vt 0.213989 0.050293
vt 0.061829 0.215820
vt 0.034943 0.485840
vt1 0.754395 0.035156
vt1 0.747070 0.375488
vt1 0.602539 0.395996
vt1 0.604004 0.044922
vt1 0.714355 0.651123
vt1 0.761230 0.390625
vt1 0.764160 0.645752
vt1 0.765137 0.656250
vt1 0.762695 0.992882
vt1 0.714355 0.651123
vt1 0.603027 0.402344
vt1 0.714355 0.651123
vt1 0.617676 0.652100
vt1 0.741699 0.397461
vt1 0.753906 1.000654
vt1 0.618652 0.651855
vt1 0.714355 0.651123
vt1 0.612793 0.987892
vt1 0.551758 0.407227
vt1 0.522461 0.965149
vt1 0.200562 0.427246
vt1 0.003016 0.641846
vt1 -0.031860 0.992550
vn 0.472441 -0.881890 -0.007874
vn 0.472441 -0.881890 -0.007874
vn 0.472441 -0.881890 -0.007874
vn 0.472441 -0.881890 -0.007874
vn 0.708661 -0.000000 -0.708661
vn 0.708661 -0.000000 -0.708661
vn 0.708661 -0.000000 -0.708661
vn 0.015748 -0.000000 -1.000000
vn 0.015748 -0.000000 -1.000000
vn 0.015748 -0.000000 -1.000000
vn 0.346457 -0.874016 -0.346457
vn 0.346457 -0.874016 -0.346457
vn 0.346457 -0.874016 -0.346457
vn 0.346457 -0.874016 -0.346457
vn 0.007874 -0.881890 -0.472441
vn 0.007874 -0.881890 -0.472441
vn 0.007874 -0.881890 -0.472441
vn 0.007874 -0.881890 -0.472441
vn 0.000000 1.000000 -0.000000
vn 0.000000 1.000000 -0.000000
vn 0.000000 1.000000 -0.000000
vn 0.000000 1.000000 -0.000000
vn 0.000000 1.000000 -0.000000
tan 0.125426 0.059148 0.900986 1.000000
tan 0.500341 0.261331 0.751441 1.000000
tan 0.458615 0.238763 0.775497 1.000000
tan 0.007316 -0.004154 0.904210 1.000000
tan 0.708661 0.000000 0.708661 1.000000
tan 0.708661 0.000000 0.708661 1.000000
tan 0.708661 0.000000 0.708661 1.000000
tan 1.000000 0.007874 0.015748 1.000000
tan 1.000000 -0.007874 0.015748 1.000000
tan 1.000000 0.007874 0.015748 1.000000
tan 0.488499 -0.103664 0.750015 1.000000
tan 0.767561 0.090024 0.540455 1.000000
tan 0.825718 0.193688 0.337095 1.000000
tan 0.346705 -0.188232 0.821563 1.000000
tan 0.894042 -0.070370 0.146258 1.000000
tan 0.768554 -0.238824 0.458615 1.000000
tan 0.820138 -0.223882 0.431583 1.000000
tan 0.904210 -0.014446 0.042036 1.000000
tan 1.000000 0.000000 0.000000 1.000000
tan 1.000000 0.000000 0.000000 1.000000
tan 1.000000 0.000000 0.000000 1.000000
tan 1.000000 0.000000 0.000000 1.000000
tan 1.000000 0.000000 0.000000 1.000000
f 3/3/3 2/2/2 1/1/1
f 1/1/1 4/4/4 3/3/3
f 7/7/7 6/6/6 5/5/5
f 10/10/10 9/9/9 8/8/8
f 13/13/13 12/12/12 11/11/11
f 14/14/14 11/11/11 12/12/12
f 17/17/17 16/16/16 15/15/15
f 18/18/18 15/15/15 16/16/16
f 21/21/21 20/20/20 19/19/19
f 22/22/22 20/20/20 21/21/21
f 22/22/22 23/23/23 20/20/20
