mtllib SM_FacadeFlat.mtl
g SM_FacadeFlat
#Vertices 25
#Indices 96
#Section 0 Offset 0 NumIndices 96 MaterialIndex 2 MI_Brick_Wall
v 2.250000 3.000000 -0.000000
v 3.000000 2.250000 -0.000000
v 3.000000 3.000000 -0.000000
v 2.250000 2.250000 -0.000000
v 3.000000 1.500000 -0.000000
v 1.500000 3.000000 -0.000000
v 2.250000 1.500000 -0.000000
v 3.000000 0.750000 -0.000000
v 1.500000 2.250000 -0.000000
v 0.750000 3.000000 -0.000000
v 1.500000 1.500000 -0.000000
v 2.250000 0.750000 -0.000000
v 2.250000 0.000000 -0.000000
v 3.000000 0.000000 -0.000000
v 1.500000 0.000000 -0.000000
v 1.500000 0.750000 -0.000000
v 0.750000 0.000000 -0.000000
v 0.750000 1.500000 -0.000000
v 0.750000 0.750000 -0.000000
v -0.000000 0.000000 -0.000000
v -0.000000 0.750000 -0.000000
v -0.000000 1.500000 -0.000000
v -0.000000 2.250000 -0.000000
v 0.750000 2.250000 -0.000000
v -0.000000 3.000000 -0.000000
vt 0.584961 1.000041
vt 0.666504 0.917114
vt 0.666504 1.000041
vt 0.584961 0.917114
vt 0.666504 0.833374
vt 0.500000 1.000041
vt 0.584961 0.833374
vt 0.666504 0.749512
vt 0.500000 0.917114
vt 0.417236 1.000041
vt 0.500000 0.833374
vt 0.584961 0.749512
vt 0.584961 0.666992
vt 0.666504 0.666992
vt 0.500000 0.666992
vt 0.500000 0.749512
vt 0.417236 0.666992
vt 0.417236 0.833374
vt 0.417236 0.749512
vt 0.333740 0.666992
vt 0.333740 0.749512
vt 0.333740 0.833374
vt 0.333740 0.917114
vt 0.417236 0.917114
vt 0.333740 1.000041
vt1 0.750000 0.991936
vt1 0.990234 0.747070
vt1 0.990234 0.991936
vt1 0.750000 0.747070
vt1 0.990234 0.500000
vt1 0.499756 0.991936
vt1 0.750000 0.500000
vt1 0.990234 0.252441
vt1 0.499756 0.747070
vt1 0.255127 0.991936
vt1 0.499756 0.500000
vt1 0.750000 0.252441
vt1 0.750000 0.008301
vt1 0.990234 0.008301
vt1 0.499756 0.008301
vt1 0.499756 0.252441
vt1 0.255127 0.008301
vt1 0.255127 0.500000
vt1 0.255127 0.252441
vt1 0.008064 0.008301
vt1 0.008064 0.252441
vt1 0.008064 0.500000
vt1 0.008064 0.747070
vt1 0.255127 0.747070
vt1 0.008064 0.991936
vn 0.000000 -0.000000 -1.000000
vn 0.000000 -0.000000 -1.000000
vn 0.000000 -0.000000 -1.000000
vn 0.000000 -0.000000 -1.000000
vn 0.000000 -0.000000 -1.000000
vn 0.000000 -0.000000 -1.000000
vn 0.000000 -0.000000 -1.000000
vn 0.000000 -0.000000 -1.000000
vn 0.000000 -0.000000 -1.000000
vn 0.000000 -0.000000 -1.000000
vn 0.000000 -0.000000 -1.000000
vn 0.000000 -0.000000 -1.000000
vn 0.000000 -0.000000 -1.000000
vn 0.000000 -0.000000 -1.000000
vn 0.000000 -0.000000 -1.000000
vn 0.000000 -0.000000 -1.000000
vn 0.000000 -0.000000 -1.000000
vn 0.000000 -0.000000 -1.000000
vn 0.000000 -0.000000 -1.000000
vn 0.000000 -0.000000 -1.000000
vn 0.000000 -0.000000 -1.000000
vn 0.000000 -0.000000 -1.000000
vn 0.000000 -0.000000 -1.000000
vn 0.000000 -0.000000 -1.000000
vn 0.000000 -0.000000 -1.000000
tan 0.000000 -1.000000 0.000000 1.000000
tan 0.000000 -1.000000 0.000000 1.000000
tan 0.000000 -1.000000 0.000000 1.000000
tan 0.000000 -1.000000 0.000000 1.000000
tan 0.000000 -1.000000 0.000000 1.000000
tan 0.000000 -1.000000 0.000000 1.000000
tan 0.000000 -1.000000 0.000000 1.000000
tan 0.000000 -1.000000 0.000000 1.000000
tan 0.000000 -1.000000 0.000000 1.000000
tan 0.000000 -1.000000 0.000000 1.000000
tan 0.000000 -1.000000 0.000000 1.000000
tan 0.000000 -1.000000 0.000000 1.000000
tan 0.000000 -1.000000 0.000000 1.000000
tan 0.000000 -1.000000 0.000000 1.000000
tan 0.000000 -1.000000 0.000000 1.000000
tan 0.000000 -1.000000 0.000000 1.000000
tan 0.000000 -1.000000 0.000000 1.000000
tan 0.000000 -1.000000 0.000000 1.000000
tan 0.000000 -1.000000 0.000000 1.000000
tan 0.000000 -1.000000 0.000000 1.000000
tan 0.000000 -1.000000 0.000000 1.000000
tan 0.000000 -1.000000 0.000000 1.000000
tan 0.000000 -1.000000 0.000000 1.000000
tan 0.000000 -1.000000 0.000000 1.000000
tan 0.000000 -1.000000 0.000000 1.000000
f 3/3/3 2/2/2 1/1/1
f 4/4/4 1/1/1 2/2/2
f 2/2/2 5/5/5 4/4/4
f 1/1/1 4/4/4 6/6/6
f 7/7/7 4/4/4 5/5/5
f 5/5/5 8/8/8 7/7/7
f 9/9/9 6/6/6 4/4/4
f 6/6/6 9/9/9 10/10/10
f 7/7/7 11/11/11 4/4/4
f 9/9/9 4/4/4 11/11/11
f 12/12/12 7/7/7 8/8/8
f 7/7/7 12/12/12 11/11/11
f 14/14/14 13/13/13 8/8/8
f 12/12/12 8/8/8 13/13/13
f 13/13/13 15/15/15 12/12/12
f 16/16/16 12/12/12 15/15/15
f 16/16/16 11/11/11 12/12/12
f 15/15/15 17/17/17 16/16/16
f 11/11/11 16/16/16 18/18/18
f 11/11/11 18/18/18 9/9/9
f 19/19/19 16/16/16 17/17/17
f 19/19/19 18/18/18 16/16/16
f 17/17/17 20/20/20 19/19/19
f 21/21/21 19/19/19 20/20/20
f 21/21/21 22/22/22 19/19/19
f 18/18/18 19/19/19 22/22/22
f 22/22/22 23/23/23 18/18/18
f 24/24/24 9/9/9 18/18/18
f 24/24/24 18/18/18 23/23/23
f 24/24/24 10/10/10 9/9/9
f 23/23/23 25/25/25 24/24/24
f 10/10/10 24/24/24 25/25/25
