mtllib SM_FacadeTopCornerChamf.mtl
g SM_FacadeTopCornerChamf
#Vertices 139
#Indices 207
#Section 0 Offset 0 NumIndices 93 MaterialIndex 0 MI_Metal_Darkgrey
#Section 1 Offset 93 NumIndices 114 MaterialIndex 1 MI_Brushed_Metal
v 2.000000 3.000000 1.000000
v 2.000000 2.250000 -0.000000
v 3.000000 2.250000 1.000000
v 3.000000 0.000000 1.000000
v 3.000000 0.000000 3.000000
v 3.000000 0.250000 1.000000
v 3.000000 0.250000 3.000000
v -0.000000 0.250000 0.000000
v 2.000000 0.000000 -0.000000
v 2.000000 0.250000 0.000000
v -0.000000 0.000000 -0.000000
v 2.000000 0.000000 -0.000000
v 3.000000 0.000000 1.000000
v 2.000000 0.250000 0.000000
v 3.000000 0.250000 1.000000
v 2.000000 3.000000 1.000000
v -0.000000 3.000000 1.000000
v 2.000000 2.250000 -0.000000
v -0.000000 2.250000 -0.000000
v 3.000000 2.250000 1.000000
v 3.500000 1.991348 2.999999
v 3.000000 2.250000 3.000000
v 3.461940 1.991348 0.808658
v -0.000000 1.991348 -0.500000
v 2.191342 1.991348 -0.461940
v 2.000000 2.250000 -0.000000
v -0.000000 2.250000 -0.000000
v 3.000000 2.250000 1.000000
v 2.000000 3.000000 3.000000
v 2.000000 3.000000 1.000000
v 3.000000 2.250000 3.000000
v 3.000000 2.250000 1.000000
v 2.000000 2.250000 -0.000000
v 2.191342 1.991348 -0.461940
v 3.461940 1.991348 0.808658
v -0.002605 0.805191 -0.350023
v 2.132738 0.805191 -0.323861
v -0.002605 1.694808 -0.350023
v 2.132738 1.694808 -0.323861
v 3.323861 1.694809 0.867262
v 3.350023 0.805191 3.002604
v 3.350023 1.694809 3.002604
v 3.323861 0.805191 0.867262
v 3.323861 0.805191 0.867262
v 2.132738 1.694808 -0.323861
v 2.132738 0.805191 -0.323861
v 3.323861 1.694809 0.867262
v 2.000000 3.000000 3.000000
v 1.800000 3.000000 1.199999
v 2.000000 3.000000 1.000000
v 1.800000 3.000000 3.000000
v 1.800000 3.750000 1.199999
v -0.000000 3.750000 1.199999
v -0.000000 3.000000 1.199999
v 1.800000 3.000000 1.199999
v 1.800000 3.750000 1.199999
v 1.800000 3.000000 3.000000
v 1.800000 3.750000 2.999999
v 1.800000 3.000000 1.199999
v -0.000000 3.000000 1.000000
v 2.000000 3.000000 1.000000
v 1.800000 3.000000 1.199999
v -0.000000 3.000000 1.199999
v 3.000000 0.250000 1.000000
v 2.191342 0.508652 -0.461940
v 2.000000 0.250000 0.000000
v 3.461940 0.508652 0.808658
v 3.500000 0.508652 3.000000
v 3.461940 0.508652 0.808658
v 3.000000 0.250000 1.000000
v 3.000000 0.250000 3.000000
v 2.191342 0.508652 -0.461940
v 3.461940 0.508652 0.808658
v 2.191342 0.805191 -0.461940
v 3.461940 0.805191 0.808658
v 3.500000 1.991348 2.999999
v 3.461940 1.991348 0.808658
v 3.461940 1.694809 0.808658
v 3.500000 1.694809 2.999999
v -0.000000 0.508652 -0.500000
v 2.191342 0.805191 -0.461940
v -0.000000 0.805191 -0.500000
v 2.191342 0.508652 -0.461940
v -0.000000 0.508652 -0.500000
v 2.000000 0.250000 0.000000
v 2.191342 0.508652 -0.461940
v -0.000000 0.250000 0.000000
v -0.000000 1.694808 -0.500000
v 2.191342 1.991348 -0.461940
v -0.000000 1.991348 -0.500000
v 2.191342 1.694808 -0.461940
v 3.500000 1.694809 2.999999
v 3.323861 1.694809 0.867262
v 3.350023 1.694809 3.002604
v 3.461940 1.694809 0.808658
v 3.461940 0.805191 0.808658
v 3.500000 0.508652 3.000000
v 3.500000 0.805192 3.000000
v 3.461940 0.508652 0.808658
v 2.132738 0.805191 -0.323861
v 3.461940 0.805191 0.808658
v 3.323861 0.805191 0.867262
v 2.191342 0.805191 -0.461940
v 2.191342 1.694808 -0.461940
v 3.461940 1.991348 0.808658
v 2.191342 1.991348 -0.461940
v 3.461940 1.694809 0.808658
v -0.000000 1.694808 -0.500000
v 2.132738 1.694808 -0.323861
v 2.191342 1.694808 -0.461940
v -0.002605 1.694808 -0.350023
v 2.132738 0.805191 -0.323861
v -0.000000 0.805191 -0.500000
v 2.191342 0.805191 -0.461940
v -0.002605 0.805191 -0.350023
v 2.132738 1.694808 -0.323861
v 3.323861 1.694809 0.867262
v 3.461940 1.694809 0.808658
v 2.191342 1.694808 -0.461940
v 3.323861 0.805191 0.867262
v 3.500000 0.805192 3.000000
v 3.350023 0.805191 3.002604
v 3.461940 0.805191 0.808658
v 2.000000 4.000000 0.999999
v 2.000000 3.750000 2.999999
v 2.000000 4.000000 2.999999
v 2.000000 3.750000 0.999999
v 2.000000 4.000000 0.999999
v -0.000000 4.000000 0.999999
v -0.000000 3.750000 0.999999
v 2.000000 3.750000 0.999999
v 2.000000 3.750000 2.999999
v 2.000000 3.750000 0.999999
v 1.800000 3.750000 1.199999
v 1.800000 3.750000 2.999999
v -0.000000 3.750000 0.999999
v 1.800000 3.750000 1.199999
v 2.000000 3.750000 0.999999
v -0.000000 3.750000 1.199999
vt 0.270508 0.393066
vt 0.154907 0.469238
vt 0.150757 0.315430
vt 0.447510 0.308594
vt 0.447266 0.037109
vt 0.481445 0.307129
vt 0.480957 0.037109
vt 0.487305 0.758911
vt 0.459961 0.500244
vt 0.491943 0.499512
vt 0.457764 0.758545
vt 0.459961 0.500244
vt 0.447510 0.308594
vt 0.491943 0.499512
vt 0.481445 0.307129
vt 0.270508 0.393066
vt 0.418945 0.607178
vt 0.154907 0.469238
vt 0.250977 0.702881
vt 0.150757 0.315430
vt 0.171875 0.053223
vt 0.244995 0.080566
vt 0.094360 0.305176
vt 0.176880 0.730469
vt 0.095764 0.480957
vt 0.154907 0.469238
vt 0.250977 0.702881
vt 0.150757 0.315430
vt 0.417480 0.164062
vt 0.270508 0.393066
vt 0.244995 0.080566
vt 0.150757 0.315430
vt 0.154907 0.469238
vt 0.095764 0.480957
vt 0.094360 0.305176
vt 0.845215 0.780640
vt 0.845215 0.513672
vt 0.956055 0.780640
vt 0.956055 0.513672
vt 0.956055 0.303223
vt 0.845215 0.036133
vt 0.956055 0.036133
vt 0.845215 0.303223
vt 0.845215 0.303223
vt 0.956055 0.513672
vt 0.845215 0.513672
vt 0.956055 0.303223
vt 0.417480 0.164062
vt 0.303467 0.392578
vt 0.270508 0.393066
vt 0.441162 0.179688
vt 0.681152 0.289062
vt 0.750488 0.054688
vt 0.838867 0.077637
vt 0.784180 0.289551
vt 0.681152 0.289062
vt 0.838867 0.482422
vt 0.770508 0.505859
vt 0.784180 0.289551
vt 0.418945 0.607178
vt 0.270508 0.393066
vt 0.303467 0.392578
vt 0.441162 0.591797
vt 0.481445 0.307129
vt 0.554688 0.500977
vt 0.491943 0.499512
vt 0.553223 0.305664
vt 0.551270 0.036133
vt 0.553223 0.305664
vt 0.481445 0.307129
vt 0.480957 0.037109
vt 0.554688 0.500977
vt 0.553223 0.305664
vt 0.589844 0.500732
vt 0.588379 0.305664
vt 0.171875 0.053223
vt 0.094360 0.305176
vt 0.061035 0.300293
vt 0.131104 0.041504
vt 0.553711 0.761475
vt 0.589844 0.500732
vt 0.594727 0.761719
vt 0.554688 0.500977
vt 0.553711 0.761475
vt 0.491943 0.499512
vt 0.554688 0.500977
vt 0.487305 0.758911
vt 0.135498 0.742188
vt 0.095764 0.480957
vt 0.176880 0.730469
vt 0.062561 0.486328
vt 0.131104 0.041504
vt 0.043549 0.298340
vt 0.112793 0.036133
vt 0.061035 0.300293
vt 0.588379 0.305664
vt 0.551270 0.036133
vt 0.594238 0.037109
vt 0.553223 0.305664
vt 0.607422 0.500488
vt 0.588379 0.305664
vt 0.604492 0.305664
vt 0.589844 0.500732
vt 0.062561 0.486328
vt 0.094360 0.305176
vt 0.095764 0.480957
vt 0.061035 0.300293
vt 0.135498 0.742188
vt 0.046661 0.488770
vt 0.062561 0.486328
vt 0.117371 0.747314
vt 0.607422 0.500488
vt 0.594727 0.761719
vt 0.589844 0.500732
vt 0.612793 0.761353
vt 0.046661 0.488770
vt 0.043549 0.298340
vt 0.061035 0.300293
vt 0.062561 0.486328
vt 0.604492 0.305664
vt 0.594238 0.037109
vt 0.612793 0.037598
vt 0.588379 0.305664
vt 0.619141 0.292969
vt 0.751953 0.513916
vt 0.722656 0.526855
vt 0.652344 0.290527
vt 0.619141 0.292969
vt 0.689453 0.036133
vt 0.730469 0.048340
vt 0.652344 0.290527
vt 0.751953 0.513916
vt 0.652344 0.290527
vt 0.681152 0.289062
vt 0.770508 0.505859
vt 0.730469 0.048340
vt 0.681152 0.289062
vt 0.652344 0.290527
vt 0.750488 0.054688
vt1 0.269531 0.584473
vt1 0.136353 0.672119
vt1 0.131592 0.495117
vt1 0.492188 0.469727
vt1 0.491699 0.156738
vt1 0.531250 0.468262
vt1 0.531250 0.156738
vt1 0.538086 0.988777
vt1 0.506836 0.690430
vt1 0.543457 0.689209
vt1 0.503906 0.988289
vt1 0.506836 0.690430
vt1 0.492188 0.469727
vt1 0.543457 0.689209
vt1 0.531250 0.468262
vt1 0.269531 0.584473
vt1 0.440674 0.830811
vt1 0.136353 0.672119
vt1 0.247070 0.940735
vt1 0.131592 0.495117
vt1 0.155884 0.193359
vt1 0.240234 0.225098
vt1 0.066650 0.483398
vt1 0.161743 0.972458
vt1 0.068237 0.685547
vt1 0.136353 0.672119
vt1 0.247070 0.940735
vt1 0.131592 0.495117
vt1 0.438965 0.321289
vt1 0.269531 0.584473
vt1 0.240234 0.225098
vt1 0.131592 0.495117
vt1 0.136353 0.672119
vt1 0.068237 0.685547
vt1 0.066650 0.483398
vt1 0.008064 0.010254
vt1 0.313477 0.010254
vt1 0.008064 0.137207
vt1 0.313477 0.137207
vt1 0.554688 0.137207
vt1 0.860352 0.010254
vt1 0.860352 0.137207
vt1 0.554688 0.010254
vt1 0.554688 0.010254
vt1 0.313477 0.137207
vt1 0.313477 0.010254
vt1 0.554688 0.137207
vt1 0.438965 0.321289
vt1 0.307617 0.583984
vt1 0.269531 0.584473
vt1 0.466309 0.338867
vt1 0.773438 0.713379
vt1 0.854004 0.439453
vt1 0.956055 0.466309
vt1 0.892578 0.714355
vt1 0.773438 0.713379
vt1 0.956055 0.939758
vt1 0.876953 0.967346
vt1 0.892578 0.714355
vt1 0.440674 0.830811
vt1 0.269531 0.584473
vt1 0.307617 0.583984
vt1 0.466309 0.813110
vt1 0.531250 0.468262
vt1 0.616699 0.691406
vt1 0.543457 0.689209
vt1 0.614746 0.465820
vt1 0.612793 0.155762
vt1 0.614746 0.465820
vt1 0.531250 0.468262
vt1 0.531250 0.156738
vt1 0.616699 0.691406
vt1 0.614746 0.465820
vt1 0.657715 0.690918
vt1 0.655762 0.465820
vt1 0.155884 0.193359
vt1 0.066650 0.483398
vt1 0.028229 0.478027
vt1 0.109009 0.179688
vt1 0.615723 0.991676
vt1 0.657715 0.690918
vt1 0.663086 0.991936
vt1 0.616699 0.691406
vt1 0.615723 0.991676
vt1 0.543457 0.689209
vt1 0.616699 0.691406
vt1 0.538086 0.988777
vt1 0.114075 0.986115
vt1 0.068237 0.685547
vt1 0.161743 0.972458
vt1 0.029999 0.691895
vt1 0.109009 0.179688
vt1 0.008064 0.475586
vt1 0.087830 0.173828
vt1 0.028229 0.478027
vt1 0.655762 0.465820
vt1 0.612793 0.155762
vt1 0.662598 0.156738
vt1 0.614746 0.465820
vt1 0.677734 0.690674
vt1 0.655762 0.465820
vt1 0.674316 0.466309
vt1 0.657715 0.690918
vt1 0.029999 0.691895
vt1 0.066650 0.483398
vt1 0.068237 0.685547
vt1 0.028229 0.478027
vt1 0.114075 0.986115
vt1 0.011681 0.694580
vt1 0.029999 0.691895
vt1 0.093140 0.991936
vt1 0.677734 0.690674
vt1 0.663086 0.991936
vt1 0.657715 0.690918
vt1 0.684082 0.991592
vt1 0.011681 0.694580
vt1 0.008064 0.475586
vt1 0.028229 0.478027
vt1 0.029999 0.691895
vt1 0.674316 0.466309
vt1 0.662598 0.156738
vt1 0.684082 0.157227
vt1 0.655762 0.465820
vt1 0.701172 0.718262
vt1 0.854980 0.976776
vt1 0.821289 0.991936
vt1 0.739746 0.715088
vt1 0.701172 0.718262
vt1 0.783203 0.417969
vt1 0.830566 0.432129
vt1 0.739746 0.715088
vt1 0.854980 0.976776
vt1 0.739746 0.715088
vt1 0.773438 0.713379
vt1 0.876953 0.967346
vt1 0.830566 0.432129
vt1 0.773438 0.713379
vt1 0.739746 0.715088
vt1 0.854004 0.439453
vn 0.511811 0.685039 -0.511811
vn 0.511811 0.685039 -0.511811
vn 0.511811 0.685039 -0.511811
vn 1.000000 0.000000 0.000000
vn 1.000000 0.000000 0.000000
vn 1.000000 0.000000 0.000000
vn 1.000000 0.000000 0.000000
vn 0.000000 -0.000000 -1.000000
vn 0.000000 -0.000000 -1.000000
vn 0.000000 -0.000000 -1.000000
vn 0.000000 -0.000000 -1.000000
vn 0.708661 -0.000000 -0.708661
vn 0.708661 -0.000000 -0.708661
vn 0.708661 -0.000000 -0.708661
vn 0.708661 -0.000000 -0.708661
vn 0.000000 0.803149 -0.598425
vn 0.000000 0.803149 -0.598425
vn 0.000000 0.803149 -0.598425
vn 0.000000 0.803149 -0.598425
vn 0.472441 0.881890 -0.007874
vn 0.472441 0.881890 -0.007874
vn 0.472441 0.881890 -0.007874
vn 0.472441 0.881890 -0.007874
vn 0.007874 0.881890 -0.472441
vn 0.007874 0.881890 -0.472441
vn 0.007874 0.881890 -0.472441
vn 0.007874 0.881890 -0.472441
vn 0.598425 0.803149 -0.000000
vn 0.598425 0.803149 -0.000000
vn 0.598425 0.803149 -0.000000
vn 0.598425 0.803149 -0.000000
vn 0.346457 0.874016 -0.346457
vn 0.346457 0.874016 -0.346457
vn 0.346457 0.874016 -0.346457
vn 0.346457 0.874016 -0.346457
vn 0.015748 -0.000000 -1.000000
vn 0.015748 -0.000000 -1.000000
vn 0.015748 -0.000000 -1.000000
vn 0.015748 -0.000000 -1.000000
vn 1.000000 -0.000000 -0.015748
vn 1.000000 -0.000000 -0.015748
vn 1.000000 -0.000000 -0.015748
vn 1.000000 -0.000000 -0.015748
vn 0.708661 -0.000000 -0.708661
vn 0.708661 -0.000000 -0.708661
vn 0.708661 -0.000000 -0.708661
vn 0.708661 -0.000000 -0.708661
vn 0.000000 1.000000 -0.000000
vn 0.000000 1.000000 -0.000000
vn 0.000000 1.000000 -0.000000
vn 0.000000 1.000000 -0.000000
vn 0.000000 -0.000000 -1.000000
vn 0.000000 -0.000000 -1.000000
vn 0.000000 -0.000000 -1.000000
vn 0.000000 -0.000000 -1.000000
vn 1.000000 0.000000 0.000000
vn 1.000000 0.000000 0.000000
vn 1.000000 0.000000 0.000000
vn 1.000000 0.000000 0.000000
vn 0.000000 1.000000 -0.000000
vn 0.000000 1.000000 -0.000000
vn 0.000000 1.000000 -0.000000
vn 0.000000 1.000000 -0.000000
vn 0.346457 -0.874016 -0.346457
vn 0.346457 -0.874016 -0.346457
vn 0.346457 -0.874016 -0.346457
vn 0.346457 -0.874016 -0.346457
vn 0.472441 -0.881890 -0.007874
vn 0.472441 -0.881890 -0.007874
vn 0.472441 -0.881890 -0.007874
vn 0.472441 -0.881890 -0.007874
vn 0.708661 -0.000000 -0.708661
vn 0.708661 -0.000000 -0.708661
vn 0.708661 -0.000000 -0.708661
vn 0.708661 -0.000000 -0.708661
vn 1.000000 -0.000000 -0.015748
vn 1.000000 -0.000000 -0.015748
vn 1.000000 -0.000000 -0.015748
vn 1.000000 -0.000000 -0.015748
vn 0.015748 -0.000000 -1.000000
vn 0.015748 -0.000000 -1.000000
vn 0.015748 -0.000000 -1.000000
vn 0.015748 -0.000000 -1.000000
vn 0.007874 -0.881890 -0.472441
vn 0.007874 -0.881890 -0.472441
vn 0.007874 -0.881890 -0.472441
vn 0.007874 -0.881890 -0.472441
vn 0.015748 -0.000000 -1.000000
vn 0.015748 -0.000000 -1.000000
vn 0.015748 -0.000000 -1.000000
vn 0.015748 -0.000000 -1.000000
vn 0.000000 -1.000000 0.000000
vn 0.000000 -1.000000 0.000000
vn 0.000000 -1.000000 0.000000
vn 0.000000 -1.000000 0.000000
vn 1.000000 -0.000000 -0.015748
vn 1.000000 -0.000000 -0.015748
vn 1.000000 -0.000000 -0.015748
vn 1.000000 -0.000000 -0.015748
vn 0.000000 1.000000 -0.000000
vn 0.000000 1.000000 -0.000000
vn 0.000000 1.000000 -0.000000
vn 0.000000 1.000000 -0.000000
vn 0.708661 -0.000000 -0.708661
vn 0.708661 -0.000000 -0.708661
vn 0.708661 -0.000000 -0.708661
vn 0.708661 -0.000000 -0.708661
vn 0.000000 -1.000000 0.000000
vn 0.000000 -1.000000 0.000000
vn 0.000000 -1.000000 0.000000
vn 0.000000 -1.000000 0.000000
vn 0.000000 1.000000 -0.000000
vn 0.000000 1.000000 -0.000000
vn 0.000000 1.000000 -0.000000
vn 0.000000 1.000000 -0.000000
vn 0.000000 -1.000000 0.000000
vn 0.000000 -1.000000 0.000000
vn 0.000000 -1.000000 0.000000
vn 0.000000 -1.000000 0.000000
vn 0.000000 1.000000 -0.000000
vn 0.000000 1.000000 -0.000000
vn 0.000000 1.000000 -0.000000
vn 0.000000 1.000000 -0.000000
vn 1.000000 0.000000 0.000000
vn 1.000000 0.000000 0.000000
vn 1.000000 0.000000 0.000000
vn 1.000000 0.000000 0.000000
vn 0.000000 -0.000000 -1.000000
vn 0.000000 -0.000000 -1.000000
vn 0.000000 -0.000000 -1.000000
vn 0.000000 -0.000000 -1.000000
vn 0.000000 -1.000000 0.000000
vn 0.000000 -1.000000 0.000000
vn 0.000000 -1.000000 0.000000
vn 0.000000 -1.000000 0.000000
vn 0.000000 -1.000000 0.000000
vn 0.000000 -1.000000 0.000000
vn 0.000000 -1.000000 0.000000
vn 0.000000 -1.000000 0.000000
tan 0.705189 -0.004030 0.699795 1.000000
tan 0.705189 -0.004030 0.699795 1.000000
tan 0.705189 -0.004030 0.699795 1.000000
tan 0.000000 0.039370 1.000000 1.000000
tan 0.000000 0.007874 1.000000 1.000000
tan 0.000000 0.031496 1.000000 1.000000
tan 0.000000 0.000000 1.000000 1.000000
tan 1.000000 -0.007874 0.000000 1.000000
tan 1.000000 0.031496 -0.000000 1.000000
tan 1.000000 0.031496 -0.000000 1.000000
tan 1.000000 -0.015748 0.000000 1.000000
tan 0.708661 0.033480 0.708661 1.000000
tan 0.708661 0.033480 0.708661 1.000000
tan 0.708661 0.033480 0.708661 1.000000
tan 0.708661 0.033480 0.708661 1.000000
tan 0.867506 0.296857 0.398413 1.000000
tan 0.850146 0.315705 0.423709 1.000000
tan 0.856470 0.306281 0.411061 1.000000
tan 0.839110 0.329841 0.442681 1.000000
tan 0.406101 -0.209622 0.888338 1.000000
tan 0.357555 -0.183334 0.919834 1.000000
tan 0.343729 -0.175894 0.923554 1.000000
tan 0.412983 -0.213342 0.884618 1.000000
tan 0.912890 0.183396 0.357555 1.000000
tan 0.877674 0.224564 0.433815 1.000000
tan 0.877674 0.217124 0.419927 1.000000
tan 0.923554 0.175894 0.343729 1.000000
tan 0.385765 -0.287432 0.878542 1.000000
tan 0.392089 -0.292144 0.873830 1.000000
tan 0.385765 -0.287432 0.878542 1.000000
tan 0.398413 -0.296856 0.867506 1.000000
tan 0.637113 0.054560 0.774753 1.000000
tan 0.792672 -0.076384 0.599975 1.000000
tan 0.754107 -0.035464 0.664641 1.000000
tan 0.599975 0.079112 0.799554 1.000000
tan 1.000000 0.000000 0.015748 1.000000
tan 1.000000 0.000000 0.015748 1.000000
tan 1.000000 0.000000 0.015748 1.000000
tan 1.000000 0.000000 0.015748 1.000000
tan 0.015748 0.000000 1.000000 1.000000
tan 0.015748 0.000000 1.000000 1.000000
tan 0.015748 0.000000 1.000000 1.000000
tan 0.015748 0.000000 1.000000 1.000000
tan 0.708661 0.000000 0.708661 1.000000
tan 0.708661 0.000000 0.708661 1.000000
tan 0.708661 0.000000 0.708661 1.000000
tan 0.708661 0.000000 0.708661 1.000000
tan 0.551181 0.000000 0.834646 1.000000
tan 0.692913 0.000000 0.716535 1.000000
tan 0.700787 0.000000 0.716535 1.000000
tan 0.543307 0.000000 0.842520 1.000000
tan -1.000000 0.062992 -0.000000 1.000000
tan -0.976378 0.228346 -0.000000 1.000000
tan -0.984252 0.173228 -0.000000 1.000000
tan -1.000000 0.007874 -0.000000 1.000000
tan 0.000000 -0.055118 -1.000000 1.000000
tan 0.000000 -0.188976 -0.984252 1.000000
tan 0.000000 -0.251969 -0.968504 1.000000
tan 0.000000 0.007874 -1.000000 1.000000
tan 0.818898 0.000000 0.582677 1.000000
tan 0.700787 0.000000 0.716535 1.000000
tan 0.708661 0.000000 0.708661 1.000000
tan 0.818898 0.000000 0.566929 1.000000
tan 0.558683 -0.106392 0.827082 1.000000
tan 0.799554 0.079112 0.599975 1.000000
tan 0.869800 0.155496 0.477525 1.000000
tan 0.477525 -0.155496 0.869800 1.000000
tan 0.066216 0.026536 1.000930 1.000000
tan 0.322897 0.164672 0.930498 1.000000
tan 0.281295 0.142228 0.948106 1.000000
tan 0.017608 0.000496 1.000930 1.000000
tan 0.708661 0.011160 0.708661 1.000000
tan 0.708661 0.000000 0.708661 1.000000
tan 0.708661 0.011160 0.708661 1.000000
tan 0.708661 0.000000 0.708661 1.000000
tan 0.015004 -0.307210 0.952756 1.000000
tan 0.015624 -0.133858 0.992126 1.000000
tan 0.015500 -0.157480 0.984252 1.000000
tan 0.014880 -0.322958 0.944882 1.000000
tan 1.000000 -0.007874 0.015748 1.000000
tan 1.000000 0.007874 0.015748 1.000000
tan 1.000000 -0.007874 0.015748 1.000000
tan 1.000000 0.007874 0.015748 1.000000
tan 0.993986 -0.034038 0.080104 1.000000
tan 0.948106 -0.142228 0.281295 1.000000
tan 0.930498 -0.164672 0.322897 1.000000
tan 1.000930 -0.007936 0.031496 1.000000
tan 0.944882 0.315085 0.014880 1.000000
tan 0.984252 0.173228 0.015500 1.000000
tan 0.944882 0.330833 0.014880 1.000000
tan 0.984252 0.157480 0.015500 1.000000
tan -0.220472 0.000000 0.976378 1.000000
tan 0.259843 0.000000 0.968504 1.000000
tan -0.244094 0.000000 0.968504 1.000000
tan 0.275591 0.000000 0.960630 1.000000
tan 0.015748 0.000000 1.000000 1.000000
tan 0.015748 -0.023622 1.000000 1.000000
tan 0.015748 -0.023622 1.000000 1.000000
tan 0.015748 0.000000 1.000000 1.000000
tan 0.905512 0.000000 0.433071 1.000000
tan 0.440945 0.000000 0.897638 1.000000
tan 0.401575 0.000000 0.913386 1.000000
tan 0.913386 0.000000 0.401575 1.000000
tan 0.703081 0.145080 0.703081 1.000000
tan 0.703081 -0.122760 0.703081 1.000000
tan 0.697501 0.189720 0.697501 1.000000
tan 0.703081 -0.156240 0.703081 1.000000
tan 0.976378 -0.000000 -0.228346 1.000000
tan 0.968504 0.000000 0.251968 1.000000
tan 0.960630 0.000000 0.275591 1.000000
tan 0.968504 -0.000000 -0.251968 1.000000
tan 0.921260 0.000000 0.393701 1.000000
tan 1.000000 0.000000 0.047244 1.000000
tan 0.913386 0.000000 0.401575 1.000000
tan 1.000000 0.000000 0.031496 1.000000
tan 0.952756 0.000000 0.307087 1.000000
tan 0.283465 0.000000 0.960630 1.000000
tan 0.338583 0.000000 0.944882 1.000000
tan 0.960630 0.000000 0.267716 1.000000
tan 0.385827 0.000000 0.921260 1.000000
tan 0.055118 0.000000 1.000000 1.000000
tan 0.047244 0.000000 1.000000 1.000000
tan 0.401575 0.000000 0.913386 1.000000
tan 0.000000 -0.125984 -0.992126 1.000000
tan 0.000000 -0.385827 -0.921260 1.000000
tan 0.000000 -0.401575 -0.913386 1.000000
tan 0.000000 -0.102362 -0.992126 1.000000
tan -1.000000 -0.055118 0.000000 1.000000
tan -0.937008 0.354331 -0.000000 1.000000
tan -0.944882 0.322835 -0.000000 1.000000
tan -0.992126 -0.094488 0.000000 1.000000
tan -0.346457 -0.000000 -0.937008 1.000000
tan -0.732283 -0.000000 -0.685039 1.000000
tan -0.716535 -0.000000 -0.700787 1.000000
tan -0.314961 -0.000000 -0.944882 1.000000
tan -0.960630 -0.000000 -0.267716 1.000000
tan -0.740157 -0.000000 -0.669291 1.000000
tan -0.724409 -0.000000 -0.685039 1.000000
tan -0.968504 -0.000000 -0.236220 1.000000
f 3/3/3 2/2/2 1/1/1
f 6/6/6 5/5/5 4/4/4
f 7/7/7 5/5/5 6/6/6
f 10/10/10 9/9/9 8/8/8
f 11/11/11 8/8/8 9/9/9
f 14/14/14 13/13/13 12/12/12
f 13/13/13 14/14/14 15/15/15
f 18/18/18 17/17/17 16/16/16
f 17/17/17 18/18/18 19/19/19
f 22/22/22 21/21/21 20/20/20
f 23/23/23 20/20/20 21/21/21
f 26/26/26 25/25/25 24/24/24
f 27/27/27 26/26/26 24/24/24
f 30/30/30 29/29/29 28/28/28
f 31/31/31 28/28/28 29/29/29
f 34/34/34 33/33/33 32/32/32
f 35/35/35 34/34/34 32/32/32
f 38/38/38 37/37/37 36/36/36
f 37/37/37 38/38/38 39/39/39
f 42/42/42 41/41/41 40/40/40
f 43/43/43 40/40/40 41/41/41
f 46/46/46 45/45/45 44/44/44
f 47/47/47 44/44/44 45/45/45
f 50/50/50 49/49/49 48/48/48
f 51/51/51 48/48/48 49/49/49
f 54/54/54 53/53/53 52/52/52
f 55/55/55 54/54/54 52/52/52
f 58/58/58 57/57/57 56/56/56
f 59/59/59 56/56/56 57/57/57
f 62/62/62 61/61/61 60/60/60
f 63/63/63 62/62/62 60/60/60
f 66/66/66 65/65/65 64/64/64
f 67/67/67 64/64/64 65/65/65
f 70/70/70 69/69/69 68/68/68
f 68/68/68 71/71/71 70/70/70
f 74/74/74 73/73/73 72/72/72
f 75/75/75 73/73/73 74/74/74
f 78/78/78 77/77/77 76/76/76
f 76/76/76 79/79/79 78/78/78
f 82/82/82 81/81/81 80/80/80
f 83/83/83 80/80/80 81/81/81
f 86/86/86 85/85/85 84/84/84
f 87/87/87 84/84/84 85/85/85
f 90/90/90 89/89/89 88/88/88
f 91/91/91 88/88/88 89/89/89
f 94/94/94 93/93/93 92/92/92
f 95/95/95 92/92/92 93/93/93
f 98/98/98 97/97/97 96/96/96
f 99/99/99 96/96/96 97/97/97
f 102/102/102 101/101/101 100/100/100
f 103/103/103 100/100/100 101/101/101
f 106/106/106 105/105/105 104/104/104
f 107/107/107 104/104/104 105/105/105
f 110/110/110 109/109/109 108/108/108
f 111/111/111 108/108/108 109/109/109
f 114/114/114 113/113/113 112/112/112
f 115/115/115 112/112/112 113/113/113
f 118/118/118 117/117/117 116/116/116
f 116/116/116 119/119/119 118/118/118
f 122/122/122 121/121/121 120/120/120
f 123/123/123 120/120/120 121/121/121
f 126/126/126 125/125/125 124/124/124
f 127/127/127 124/124/124 125/125/125
f 130/130/130 129/129/129 128/128/128
f 131/131/131 130/130/130 128/128/128
f 134/134/134 133/133/133 132/132/132
f 135/135/135 134/134/134 132/132/132
f 138/138/138 137/137/137 136/136/136
f 139/139/139 136/136/136 137/137/137
