mtllib SM_FacadeTop_b_LOD2.mtl
g SM_FacadeTop_b_LOD2
#Vertices 32
#Indices 48
#Section 0 Offset 0 NumIndices 24 MaterialIndex 0 MI_Metal_Darkgrey
#Section 1 Offset 24 NumIndices 24 MaterialIndex 1 MI_Brushed_Metal
v -0.000000 0.000000 -0.000000
v 3.000001 0.250000 0.000000
v -0.000000 0.250000 0.000000
v 3.000000 0.000000 -0.000000
v 3.000000 0.805191 -0.350000
v -0.000000 0.805191 -0.500000
v 3.000000 0.805191 -0.500000
v -0.000000 0.805191 -0.350000
v -0.000000 3.749999 2.499999
v -0.000000 0.805192 2.500000
v 2.999999 0.805194 2.500001
v 3.000000 3.749999 2.500000
v 3.000000 0.805191 -0.350000
v 2.999999 0.805194 2.500001
v -0.000000 0.805191 -0.350000
v -0.000000 0.805192 2.500000
v 3.000000 0.805191 -0.500000
v -0.000000 0.805191 -0.500000
v -0.000000 0.508652 -0.500000
v 3.000000 0.508652 -0.500000
v 3.000000 0.508652 -0.500000
v -0.000000 0.508652 -0.500000
v -0.000000 0.250000 0.000000
v 3.000001 0.250000 0.000000
v 3.000000 3.999999 2.299999
v -0.000000 3.999999 2.299999
v -0.000001 3.749999 2.299999
v 3.000000 3.749999 2.299999
v 3.000000 3.749999 2.299999
v -0.000001 3.749999 2.299999
v -0.000000 3.749999 2.499999
v 3.000000 3.749999 2.500000
vt 0.648926 0.493164
vt 0.617676 0.867676
vt 0.617676 0.493164
vt 0.648926 0.867676
vt 0.491455 0.867676
vt 0.510254 0.493164
vt 0.510254 0.867676
vt 0.491455 0.493164
vt 0.113159 0.482910
vt 0.113159 0.114746
vt 0.488037 0.114746
vt 0.488037 0.482910
vt 0.847168 0.489746
vt 0.490967 0.489746
vt 0.847168 0.115234
vt 0.490967 0.115234
vt 0.510254 0.867676
vt 0.510254 0.493164
vt 0.546875 0.493164
vt 0.546875 0.867676
vt 0.546875 0.867676
vt 0.546875 0.493164
vt 0.617676 0.493164
vt 0.617676 0.867676
vt 0.488037 0.539062
vt 0.113159 0.539062
vt 0.113159 0.507812
vt 0.488037 0.507812
vt 0.488037 0.507812
vt 0.113159 0.507812
vt 0.113159 0.482910
vt 0.488037 0.482910
vt1 0.498535 0.411621
vt1 0.008064 0.370605
vt1 0.498535 0.370605
vt1 0.008064 0.411621
vt1 0.008064 0.205566
vt1 0.498535 0.229980
vt1 0.008064 0.229980
vt1 0.498535 0.205566
vt1 0.008064 0.918396
vt1 0.008064 0.437012
vt1 0.498535 0.437012
vt1 0.498535 0.918396
vt1 0.989746 0.991936
vt1 0.523926 0.991936
vt1 0.989746 0.501465
vt1 0.523926 0.501465
vt1 0.008064 0.229980
vt1 0.498535 0.229980
vt1 0.498535 0.278809
vt1 0.008064 0.278809
vt1 0.008064 0.278809
vt1 0.498535 0.278809
vt1 0.498535 0.370605
vt1 0.008064 0.370605
vt1 0.498535 0.991936
vt1 0.008064 0.991936
vt1 0.008064 0.951080
vt1 0.498535 0.951080
vt1 0.498535 0.951080
vt1 0.008064 0.951080
vt1 0.008064 0.918396
vt1 0.498535 0.918396
vn 0.000000 -0.000000 -1.000000
vn 0.000000 -0.000000 -1.000000
vn 0.000000 -0.000000 -1.000000
vn 0.000000 -0.000000 -1.000000
vn 0.000000 1.000000 -0.000000
vn 0.000000 1.000000 -0.000000
vn 0.000000 1.000000 -0.000000
vn 0.000000 1.000000 -0.000000
vn 0.000000 -0.000000 -1.000000
vn 0.000000 -0.000000 -1.000000
vn 0.000000 -0.000000 -1.000000
vn 0.000000 -0.000000 -1.000000
vn 0.000000 1.000000 -0.000000
vn 0.000000 1.000000 -0.000000
vn 0.000000 1.000000 -0.000000
vn 0.000000 1.000000 -0.000000
vn 0.000000 -0.000000 -1.000000
vn 0.000000 -0.000000 -1.000000
vn 0.000000 -0.000000 -1.000000
vn 0.000000 -0.000000 -1.000000
vn 0.000000 -0.889764 -0.456693
vn 0.000000 -0.889764 -0.456693
vn 0.000000 -0.889764 -0.456693
vn 0.000000 -0.889764 -0.456693
vn 0.000000 -0.000000 -1.000000
vn 0.000000 -0.000000 -1.000000
vn 0.000000 -0.000000 -1.000000
vn 0.000000 -0.000000 -1.000000
vn 0.000000 -1.000000 0.000000
vn 0.000000 -1.000000 0.000000
vn 0.000000 -1.000000 0.000000
vn 0.000000 -1.000000 0.000000
tan -1.000000 0.000000 0.000000 1.000000
tan -1.000000 0.000000 0.000000 1.000000
tan -1.000000 0.000000 0.000000 1.000000
tan -1.000000 0.000000 0.000000 1.000000
tan -1.000000 0.000000 0.000000 1.000000
tan -1.000000 0.000000 0.000000 1.000000
tan -1.000000 0.000000 0.000000 1.000000
tan -1.000000 0.000000 0.000000 1.000000
tan 0.000000 -1.000000 0.000000 1.000000
tan 0.000000 -1.000000 0.000000 1.000000
tan 0.000000 -1.000000 0.000000 1.000000
tan 0.000000 -1.000000 0.000000 1.000000
tan -1.000000 0.000000 0.000000 1.000000
tan -1.000000 0.000000 0.000000 1.000000
tan -1.000000 0.000000 0.000000 1.000000
tan -1.000000 0.000000 0.000000 1.000000
tan -1.000000 0.000000 0.000000 1.000000
tan -1.000000 0.000000 0.000000 1.000000
tan -1.000000 0.000000 0.000000 1.000000
tan -1.000000 0.000000 0.000000 1.000000
tan -0.893360 0.000000 0.000000 1.000000
tan -0.943890 0.000000 0.000000 1.000000
tan -0.943890 0.000000 0.000000 1.000000
tan -0.893360 0.000000 0.000000 1.000000
tan 0.000000 -1.000000 0.000000 1.000000
tan 0.000000 -1.000000 0.000000 1.000000
tan 0.000000 -1.000000 0.000000 1.000000
tan 0.000000 -1.000000 0.000000 1.000000
tan 0.000000 0.000000 1.000000 1.000000
tan 0.000000 0.000000 1.000000 1.000000
tan 0.000000 0.000000 1.000000 1.000000
tan 0.000000 0.000000 1.000000 1.000000
f 3/3/3 2/2/2 1/1/1
f 4/4/4 1/1/1 2/2/2
f 7/7/7 6/6/6 5/5/5
f 8/8/8 5/5/5 6/6/6
f 11/11/11 10/10/10 9/9/9
f 12/12/12 11/11/11 9/9/9
f 15/15/15 14/14/14 13/13/13
f 16/16/16 14/14/14 15/15/15
f 19/19/19 18/18/18 17/17/17
f 20/20/20 19/19/19 17/17/17
f 23/23/23 22/22/22 21/21/21
f 24/24/24 23/23/23 21/21/21
f 27/27/27 26/26/26 25/25/25
f 28/28/28 27/27/27 25/25/25
f 31/31/31 30/30/30 29/29/29
f 32/32/32 31/31/31 29/29/29
