mtllib SM_FacadeTop_a_LOD1.mtl
g SM_FacadeTop_a_LOD1
#Vertices 78
#Indices 156
#Section 0 Offset 0 NumIndices 84 MaterialIndex 0 MI_Metal_Darkgrey
#Section 1 Offset 84 NumIndices 72 MaterialIndex 1 MI_Brushed_Metal
v 0.000000 1.694809 -0.350000
v 3.000000 0.805192 -0.350000
v 3.000000 1.694808 -0.350000
v -0.000000 0.805191 -0.350000
v 3.000001 3.750000 1.199999
v -0.000000 3.750000 1.199999
v -0.000000 3.000000 1.199999
v 2.999999 3.000000 1.199999
v 3.000000 2.250000 -0.000000
v 3.000000 3.000000 1.000000
v 2.250000 3.000000 1.000000
v 2.250000 2.250000 -0.000000
v 1.500000 3.000000 1.000000
v 1.500000 2.250000 -0.000000
v 0.750000 3.000000 1.000000
v 0.750000 2.250000 -0.000000
v -0.000000 3.000000 1.000000
v -0.000000 2.250000 -0.000000
v -0.000000 0.000000 -0.000000
v 0.750000 0.250000 0.000000
v -0.000000 0.250000 0.000000
v 3.000001 0.250000 -0.000000
v 3.000000 0.000000 -0.000000
v 2.250000 1.991348 -0.500000
v 3.000000 1.991348 -0.500000
v 3.000000 2.250000 -0.000000
v 2.250000 2.250000 -0.000000
v 1.500000 1.991348 -0.500000
v 1.500000 2.250000 -0.000000
v 0.750000 1.991348 -0.500000
v 0.750000 2.250000 -0.000000
v -0.000000 1.991348 -0.500000
v -0.000000 2.250000 -0.000000
v -0.000000 3.000000 1.000000
v 2.999999 3.000000 1.199999
v -0.000000 3.000000 1.199999
v 0.750000 3.000000 1.000000
v 1.500000 3.000000 1.000000
v 2.250000 3.000000 1.000000
v 3.000000 3.000000 1.000000
v 3.000000 0.805192 -0.350000
v -0.000000 0.805191 -0.500000
v 3.000002 0.805191 -0.500000
v -0.000000 0.805191 -0.350000
v 3.000000 1.694808 -0.500000
v -0.000002 1.694808 -0.500000
v 0.000000 1.694809 -0.350000
v 3.000000 1.694808 -0.350000
v 3.000000 4.000000 0.999999
v -0.000000 4.000000 0.999999
v 3.000002 3.750000 1.000000
v -0.000000 3.750000 0.999999
v 3.000002 3.750000 1.000000
v -0.000000 3.750000 0.999999
v -0.000000 3.750000 1.199999
v 3.000001 3.750000 1.199999
v 3.000000 0.508652 -0.500000
v 2.250000 0.508652 -0.500000
v 3.000001 0.250000 -0.000000
v 1.500000 0.508652 -0.500000
v 0.750000 0.250000 0.000000
v 0.750000 0.508652 -0.500000
v -0.000000 0.250000 0.000000
v -0.000000 0.508652 -0.500000
v 2.250000 1.991348 -0.500000
v 3.000000 1.694808 -0.500000
v 3.000000 1.991348 -0.500000
v -0.000002 1.694808 -0.500000
v 1.500000 1.991348 -0.500000
v 0.750000 1.991348 -0.500000
v -0.000000 1.991348 -0.500000
v 3.000002 0.805191 -0.500000
v -0.000000 0.805191 -0.500000
v -0.000000 0.508652 -0.500000
v 0.750000 0.508652 -0.500000
v 1.500000 0.508652 -0.500000
v 2.250000 0.508652 -0.500000
v 3.000000 0.508652 -0.500000
vt 0.188354 0.639404
vt 0.562988 0.528320
vt 0.562988 0.639404
vt 0.188354 0.528320
vt 0.717773 0.524170
vt 0.717773 0.149414
vt 0.811523 0.149414
vt 0.811523 0.524170
vt 0.314453 0.149414
vt 0.470703 0.149414
vt 0.470703 0.243164
vt 0.314453 0.243164
vt 0.470703 0.336914
vt 0.314453 0.336914
vt 0.470703 0.430664
vt 0.314453 0.430664
vt 0.470703 0.524170
vt 0.314453 0.524170
vt 0.657227 0.149414
vt 0.625977 0.243164
vt 0.625977 0.149414
vt 0.625977 0.524170
vt 0.657227 0.524170
vt 0.244263 0.243164
vt 0.244263 0.149414
vt 0.314453 0.149414
vt 0.314453 0.243164
vt 0.244263 0.336914
vt 0.314453 0.336914
vt 0.244263 0.430664
vt 0.314453 0.430664
vt 0.244263 0.524170
vt 0.314453 0.524170
vt 0.470703 0.524170
vt 0.495850 0.149414
vt 0.495850 0.524170
vt 0.470703 0.430664
vt 0.470703 0.336914
vt 0.470703 0.243164
vt 0.470703 0.149414
vt 0.500000 0.524170
vt 0.518555 0.149414
vt 0.518555 0.524170
vt 0.500000 0.149414
vt 0.207153 0.149414
vt 0.207153 0.524170
vt 0.188354 0.524170
vt 0.188354 0.149414
vt 0.661133 0.524170
vt 0.661133 0.149414
vt 0.692383 0.524170
vt 0.692383 0.149414
vt 0.692383 0.524170
vt 0.692383 0.149414
vt 0.717773 0.149414
vt 0.717773 0.524170
vt 0.555664 0.524170
vt 0.555664 0.430664
vt 0.625977 0.524170
vt 0.555664 0.336914
vt 0.625977 0.243164
vt 0.555664 0.243164
vt 0.625977 0.149414
vt 0.555664 0.149414
vt 0.244263 0.243164
vt 0.207153 0.149414
vt 0.244263 0.149414
vt 0.207153 0.524170
vt 0.244263 0.336914
vt 0.244263 0.430664
vt 0.244263 0.524170
vt 0.518555 0.524170
vt 0.518555 0.149414
vt 0.555664 0.149414
vt 0.555664 0.243164
vt 0.555664 0.336914
vt 0.555664 0.430664
vt 0.555664 0.524170
vt1 0.798340 0.381836
vt1 0.979004 0.991936
vt1 0.798340 0.991936
vt1 0.979004 0.381836
vt1 0.008064 0.210449
vt1 0.618164 0.210449
vt1 0.618164 0.363281
vt1 0.008064 0.363281
vt1 0.213257 0.381836
vt1 0.467529 0.381836
vt1 0.467529 0.534424
vt1 0.213257 0.534424
vt1 0.467529 0.687012
vt1 0.213257 0.687012
vt1 0.467529 0.839478
vt1 0.213257 0.839478
vt1 0.467529 0.991936
vt1 0.213257 0.991936
vt1 0.780273 0.381836
vt1 0.729492 0.534424
vt1 0.729492 0.381836
vt1 0.729492 0.991943
vt1 0.780273 0.991936
vt1 0.098877 0.534424
vt1 0.098877 0.381836
vt1 0.213257 0.381836
vt1 0.213257 0.534424
vt1 0.098877 0.687012
vt1 0.213257 0.687012
vt1 0.098877 0.839478
vt1 0.213257 0.839478
vt1 0.098877 0.991936
vt1 0.213257 0.991936
vt1 0.467529 0.991936
vt1 0.507812 0.381836
vt1 0.507812 0.991936
vt1 0.467529 0.839478
vt1 0.467529 0.687012
vt1 0.467529 0.534424
vt1 0.467529 0.381836
vt1 0.523926 0.991936
vt1 0.554688 0.381836
vt1 0.554688 0.991943
vt1 0.523926 0.381836
vt1 0.038544 0.381836
vt1 0.038544 0.991943
vt1 0.008064 0.991936
vt1 0.008064 0.381836
vt1 0.008064 0.119141
vt1 0.618164 0.119141
vt1 0.008057 0.169922
vt1 0.618164 0.169922
vt1 0.008057 0.169922
vt1 0.618164 0.169922
vt1 0.618164 0.210449
vt1 0.008057 0.210449
vt1 0.614746 0.991936
vt1 0.614746 0.839478
vt1 0.729492 0.991943
vt1 0.614746 0.687012
vt1 0.729492 0.534424
vt1 0.614746 0.534424
vt1 0.729492 0.381836
vt1 0.614746 0.381836
vt1 0.098877 0.534424
vt1 0.038544 0.381836
vt1 0.098877 0.381836
vt1 0.038544 0.991943
vt1 0.098877 0.687012
vt1 0.098877 0.839478
vt1 0.098877 0.991936
vt1 0.554688 0.991943
vt1 0.554688 0.381836
vt1 0.614746 0.381836
vt1 0.614746 0.534424
vt1 0.614746 0.687012
vt1 0.614746 0.839478
vt1 0.614746 0.991936
vn 0.000000 -0.000000 -1.000000
vn 0.000000 -0.000000 -1.000000
vn 0.000000 -0.000000 -1.000000
vn 0.000000 -0.000000 -1.000000
vn 0.000000 -0.000000 -1.000000
vn 0.000000 -0.000000 -1.000000
vn 0.000000 -0.000000 -1.000000
vn 0.000000 -0.000000 -1.000000
vn 0.000000 0.803149 -0.598425
vn 0.000000 0.803149 -0.598425
vn 0.000000 0.803149 -0.598425
vn 0.000000 0.803149 -0.598425
vn 0.000000 0.803149 -0.598425
vn 0.000000 0.803149 -0.598425
vn 0.000000 0.803149 -0.598425
vn 0.000000 0.803149 -0.598425
vn 0.000000 0.803149 -0.598425
vn 0.000000 0.803149 -0.598425
vn 0.000000 -0.000000 -1.000000
vn 0.000000 -0.000000 -1.000000
vn 0.000000 -0.000000 -1.000000
vn 0.000000 -0.000000 -1.000000
vn 0.000000 -0.000000 -1.000000
vn 0.000000 0.889764 -0.456693
vn 0.000000 0.889764 -0.456693
vn 0.000000 0.889764 -0.456693
vn 0.000000 0.889764 -0.456693
vn 0.000000 0.889764 -0.456693
vn 0.000000 0.889764 -0.456693
vn 0.000000 0.889764 -0.456693
vn 0.000000 0.889764 -0.456693
vn 0.000000 0.889764 -0.456693
vn 0.000000 0.889764 -0.456693
vn 0.000000 1.000000 -0.000000
vn 0.000000 1.000000 -0.000000
vn 0.000000 1.000000 -0.000000
vn 0.000000 1.000000 -0.000000
vn 0.000000 1.000000 -0.000000
vn 0.000000 1.000000 -0.000000
vn 0.000000 1.000000 -0.000000
vn 0.000000 1.000000 -0.000000
vn 0.000000 1.000000 -0.000000
vn 0.000000 1.000000 -0.000000
vn 0.000000 1.000000 -0.000000
vn 0.000000 -1.000000 0.000000
vn 0.000000 -1.000000 0.000000
vn 0.000000 -1.000000 0.000000
vn 0.000000 -1.000000 0.000000
vn 0.000000 -0.000000 -1.000000
vn 0.000000 -0.000000 -1.000000
vn 0.000000 -0.000000 -1.000000
vn 0.000000 -0.000000 -1.000000
vn 0.000000 -1.000000 0.000000
vn 0.000000 -1.000000 0.000000
vn 0.000000 -1.000000 0.000000
vn 0.000000 -1.000000 0.000000
vn 0.000000 -0.889764 -0.456693
vn 0.000000 -0.889764 -0.456693
vn 0.000000 -0.889764 -0.456693
vn 0.000000 -0.889764 -0.456693
vn 0.000000 -0.889764 -0.456693
vn 0.000000 -0.889764 -0.456693
vn 0.000000 -0.889764 -0.456693
vn 0.000000 -0.889764 -0.456693
vn 0.000000 -0.000000 -1.000000
vn 0.000000 -0.000000 -1.000000
vn 0.000000 -0.000000 -1.000000
vn 0.000000 -0.000000 -1.000000
vn 0.000000 -0.000000 -1.000000
vn 0.000000 -0.000000 -1.000000
vn 0.000000 -0.000000 -1.000000
vn 0.000000 -0.000000 -1.000000
vn 0.000000 -0.000000 -1.000000
vn 0.000000 -0.000000 -1.000000
vn 0.000000 -0.000000 -1.000000
vn 0.000000 -0.000000 -1.000000
vn 0.000000 -0.000000 -1.000000
vn 0.000000 -0.000000 -1.000000
tan 0.000000 -1.000000 0.000000 1.000000
tan 0.000000 -1.000000 0.000000 1.000000
tan 0.000000 -1.000000 0.000000 1.000000
tan 0.000000 -1.000000 0.000000 1.000000
tan -1.000000 0.000000 0.000000 1.000000
tan -1.000000 0.000000 0.000000 1.000000
tan -1.000000 0.000000 0.000000 1.000000
tan -1.000000 0.000000 0.000000 1.000000
tan 0.970798 0.000000 0.000000 1.000000
tan 0.970798 0.000000 0.000000 1.000000
tan 0.970798 0.000000 0.000000 1.000000
tan 0.970798 0.000000 0.000000 1.000000
tan 0.970798 0.000000 0.000000 1.000000
tan 0.970798 0.000000 0.000000 1.000000
tan 0.970798 0.000000 0.000000 1.000000
tan 0.970798 0.000000 0.000000 1.000000
tan 0.970798 0.000000 0.000000 1.000000
tan 0.970798 0.000000 0.000000 1.000000
tan -1.000000 0.000000 0.000000 1.000000
tan -1.000000 0.000000 0.000000 1.000000
tan -1.000000 0.000000 0.000000 1.000000
tan -1.000000 0.000000 0.000000 1.000000
tan -1.000000 0.000000 0.000000 1.000000
tan 0.943890 0.000000 0.000000 1.000000
tan 0.943890 0.000000 0.000000 1.000000
tan 0.943890 0.000000 0.000000 1.000000
tan 0.943890 0.000000 0.000000 1.000000
tan 0.943890 0.000000 0.000000 1.000000
tan 0.943890 0.000000 0.000000 1.000000
tan 0.943890 0.000000 0.000000 1.000000
tan 0.943890 0.000000 0.000000 1.000000
tan 0.943890 0.000000 0.000000 1.000000
tan 0.943890 0.000000 0.000000 1.000000
tan 1.000000 0.000000 0.000000 1.000000
tan 1.000000 0.000000 0.000000 1.000000
tan 1.000000 0.000000 0.000000 1.000000
tan 1.000000 0.000000 0.000000 1.000000
tan 1.000000 0.000000 0.000000 1.000000
tan 1.000000 0.000000 0.000000 1.000000
tan 1.000000 0.000000 0.000000 1.000000
tan -1.000000 0.000000 0.000000 1.000000
tan -1.000000 0.000000 0.000000 1.000000
tan -1.000000 0.000000 0.000000 1.000000
tan -1.000000 0.000000 0.000000 1.000000
tan 1.000000 0.000000 0.000000 1.000000
tan 1.000000 0.000000 0.000000 1.000000
tan 1.000000 0.000000 0.000000 1.000000
tan 1.000000 0.000000 0.000000 1.000000
tan -1.000000 0.000000 0.000000 1.000000
tan -1.000000 0.000000 0.000000 1.000000
tan -1.000000 0.000000 0.000000 1.000000
tan -1.000000 0.000000 0.000000 1.000000
tan -1.000000 0.000000 0.000000 1.000000
tan -1.000000 0.000000 0.000000 1.000000
tan -1.000000 0.000000 0.000000 1.000000
tan -1.000000 0.000000 0.000000 1.000000
tan -0.943890 0.000000 0.000000 1.000000
tan -0.943890 0.000000 0.000000 1.000000
tan -0.896956 0.000000 0.000000 1.000000
tan -0.943890 0.000000 0.000000 1.000000
tan -0.943890 0.000000 0.000000 1.000000
tan -0.943890 0.000000 0.000000 1.000000
tan -0.943890 0.000000 0.000000 1.000000
tan -0.943890 0.000000 0.000000 1.000000
tan 1.000000 0.000000 0.000000 1.000000
tan 1.000000 0.000000 0.000000 1.000000
tan 1.000000 0.000000 0.000000 1.000000
tan 1.000000 0.000000 0.000000 1.000000
tan 1.000000 0.000000 0.000000 1.000000
tan 1.000000 0.000000 0.000000 1.000000
tan 1.000000 0.000000 0.000000 1.000000
tan -1.000000 0.000000 0.000000 1.000000
tan -1.000000 0.000000 0.000000 1.000000
tan -1.000000 0.000000 0.000000 1.000000
tan -1.000000 0.000000 0.000000 1.000000
tan -1.000000 0.000000 0.000000 1.000000
tan -1.000000 0.000000 0.000000 1.000000
tan -1.000000 0.000000 0.000000 1.000000
f 3/3/3 2/2/2 1/1/1
f 2/2/2 4/4/4 1/1/1
f 7/7/7 6/6/6 5/5/5
f 8/8/8 7/7/7 5/5/5
f 11/11/11 10/10/10 9/9/9
f 11/11/11 9/9/9 12/12/12
f 13/13/13 11/11/11 12/12/12
f 13/13/13 12/12/12 14/14/14
f 15/15/15 13/13/13 14/14/14
f 15/15/15 14/14/14 16/16/16
f 17/17/17 15/15/15 16/16/16
f 17/17/17 16/16/16 18/18/18
f 21/21/21 20/20/20 19/19/19
f 20/20/20 22/22/22 19/19/19
f 23/23/23 19/19/19 22/22/22
f 26/26/26 25/25/25 24/24/24
f 27/27/27 26/26/26 24/24/24
f 27/27/27 24/24/24 28/28/28
f 29/29/29 27/27/27 28/28/28
f 29/29/29 28/28/28 30/30/30
f 31/31/31 29/29/29 30/30/30
f 31/31/31 30/30/30 32/32/32
f 33/33/33 31/31/31 32/32/32
f 36/36/36 35/35/35 34/34/34
f 37/37/37 34/34/34 35/35/35
f 38/38/38 37/37/37 35/35/35
f 35/35/35 39/39/39 38/38/38
f 40/40/40 39/39/39 35/35/35
f 43/43/43 42/42/42 41/41/41
f 44/44/44 41/41/41 42/42/42
f 47/47/47 46/46/46 45/45/45
f 48/48/48 47/47/47 45/45/45
f 51/51/51 50/50/50 49/49/49
f 51/51/51 52/52/52 50/50/50
f 55/55/55 54/54/54 53/53/53
f 56/56/56 55/55/55 53/53/53
f 59/59/59 58/58/58 57/57/57
f 59/59/59 60/60/60 58/58/58
f 59/59/59 61/61/61 60/60/60
f 61/61/61 62/62/62 60/60/60
f 61/61/61 63/63/63 62/62/62
f 63/63/63 64/64/64 62/62/62
f 67/67/67 66/66/66 65/65/65
f 68/68/68 65/65/65 66/66/66
f 65/65/65 68/68/68 69/69/69
f 69/69/69 68/68/68 70/70/70
f 68/68/68 71/71/71 70/70/70
f 74/74/74 73/73/73 72/72/72
f 75/75/75 74/74/74 72/72/72
f 75/75/75 72/72/72 76/76/76
f 76/76/76 72/72/72 77/77/77
f 77/77/77 72/72/72 78/78/78
