mtllib SM_Handrail_LOD5.mtl
g SM_Handrail_LOD5
#Vertices 31
#Indices 60
#Section 0 Offset 0 NumIndices 21 MaterialIndex 3 MI_Rubber08
#Section 1 Offset 21 NumIndices 39 MaterialIndex 0 MI_Metal_Darkgrey
v 0.998982 1.036902 0.034154
v 1.000000 0.927236 0.112668
v -1.000222 0.924371 0.117946
v -1.000955 1.003728 -0.146605
v 1.000209 0.924469 -0.118881
v 1.000000 0.927236 0.112668
v 0.459214 0.788641 -0.017775
v -1.000222 0.924371 0.117946
v 1.000209 0.924469 -0.118881
v -1.000955 1.003728 -0.146605
v 1.000953 -0.125412 -0.046534
v -0.999379 -0.693710 -0.084258
v 1.000343 -0.703883 -0.062685
v -1.000198 -0.045470 0.000711
v -0.460317 0.039815 -0.165131
v -0.616927 -0.353918 -0.091001
v -0.449950 0.013273 0.152107
v -0.364890 -0.360780 -0.001293
v -0.460317 0.039815 -0.165131
v -0.616927 -0.353918 -0.091001
v 0.463441 0.038060 -0.166943
v 0.308077 -0.353500 -0.092763
v 0.472195 0.012577 0.152728
v 0.554329 -0.360835 -0.010847
v 0.463441 0.038060 -0.166943
v 0.308077 -0.353500 -0.092763
v -1.000198 -0.045470 0.000711
v 1.000953 -0.125412 -0.046534
v -1.000176 -0.490277 0.174997
v 0.999428 -0.696232 0.579064
v -0.999410 -0.684293 0.698808
vt 0.109375 0.375000
vt 0.091370 0.375000
vt 0.091309 0.125000
vt 0.128540 0.125000
vt 0.134155 0.375488
vt 0.091370 0.375000
vt 0.077209 0.307129
vt 0.091919 0.125000
vt 0.062500 0.375488
vt 0.057983 0.125000
vt 0.342529 0.225098
vt 0.424316 0.016602
vt 0.428711 0.225098
vt 0.320312 0.016602
vt 0.424561 0.217285
vt 0.477783 0.229980
vt 0.429932 0.253906
vt 0.477051 0.272461
vt 0.426270 0.291992
vt 0.476807 0.309082
vt 0.402588 0.095703
vt 0.455322 0.109863
vt 0.407715 0.132812
vt 0.454590 0.151855
vt 0.403809 0.170898
vt 0.454346 0.187988
vt 0.320801 0.016602
vt 0.309082 0.225098
vt 0.247681 0.016602
vt 0.175293 0.225098
vt 0.162109 0.017090
vt1 0.726562 0.991470
vt1 0.679199 0.991936
vt1 0.678711 0.331543
vt1 0.777344 0.331055
vt1 0.791992 0.992012
vt1 0.679199 0.991936
vt1 0.641602 0.812622
vt1 0.680664 0.331543
vt1 0.602539 0.992012
vt1 0.590820 0.331055
vt1 0.396240 0.991951
vt1 0.576660 0.331543
vt1 0.585938 0.991936
vt1 0.347656 0.331543
vt1 0.617188 0.103027
vt1 0.757324 0.136230
vt1 0.630859 0.199219
vt1 0.755371 0.247559
vt1 0.621094 0.299316
vt1 0.754883 0.345215
vt1 0.472656 0.106445
vt1 0.611816 0.143066
vt1 0.486328 0.203613
vt1 0.610352 0.254883
vt1 0.476562 0.304199
vt1 0.609375 0.349121
vt1 0.348389 0.331543
vt1 0.322754 0.992588
vt1 0.187500 0.331055
vt1 0.028183 0.991745
vt1 -0.000732 0.332031
vn 0.000000 0.992126 0.102362
vn 0.000000 0.000000 1.000000
vn 0.000000 -0.133858 0.992126
vn 0.000000 0.740157 -0.669291
vn 0.000000 -0.125984 -0.992126
vn 0.000000 -1.000000 0.000000
vn 0.000000 -1.000000 0.000000
vn 0.000000 -1.000000 0.000000
vn 0.000000 -1.000000 0.000000
vn 0.000000 -1.000000 0.000000
vn 0.000000 0.023622 -1.000000
vn 0.000000 -0.023622 -1.000000
vn 0.000000 -0.000000 -1.000000
vn 0.000000 0.968504 0.236220
vn 0.937008 -0.110236 0.338583
vn 1.000000 0.015748 0.062992
vn -0.110236 -0.188976 -0.976378
vn -0.992126 -0.000000 -0.118110
vn -0.314961 -0.149606 0.937008
vn 0.598425 0.000000 0.795275
vn 0.905512 -0.118110 0.409449
vn 0.992126 0.015748 0.118110
vn -0.094488 -0.196850 -0.976378
vn -1.000000 -0.000000 -0.062992
vn -0.346457 -0.149606 0.929134
vn 0.496063 0.007874 0.866142
vn 0.000000 0.220473 0.976378
vn 0.000000 0.362205 0.929134
vn 0.000000 0.826772 0.559055
vn 0.000000 0.787401 0.622047
vn 0.000000 0.346457 0.937008
tan -0.992126 0.000000 0.000000 1.000000
tan -1.000000 0.000000 0.000000 1.000000
tan -0.992126 0.000000 0.000000 1.000000
tan -0.973092 0.000000 0.000000 1.000000
tan -0.992126 0.000000 0.000000 1.000000
tan -1.000000 0.000000 0.000000 1.000000
tan -1.000000 0.000000 0.000000 1.000000
tan -1.000000 0.000000 0.000000 1.000000
tan -1.000000 0.000000 0.000000 1.000000
tan -1.000000 0.000000 0.000000 1.000000
tan -1.000000 0.000000 0.000000 1.000000
tan -1.000000 0.000000 0.000000 1.000000
tan -1.000000 0.000000 0.000000 1.000000
tan -0.968504 0.000000 0.000000 1.000000
tan 0.341187 0.022134 -0.937008 1.000000
tan 0.062868 0.007874 -1.000000 1.000000
tan -0.976378 0.000000 0.110236 1.000000
tan -0.118110 0.000000 0.992126 1.000000
tan 0.937008 0.000000 0.314961 1.000000
tan 0.795276 -0.006262 -0.598425 1.000000
tan 0.412239 0.021390 -0.905512 1.000000
tan 0.117986 0.007812 -0.992126 1.000000
tan -0.976378 0.000000 0.094488 1.000000
tan -0.062992 0.000000 1.000000 1.000000
tan 0.929134 0.000000 0.346457 1.000000
tan 0.866142 -0.006820 -0.496001 1.000000
tan -0.976378 0.000000 0.000000 1.000000
tan -0.926282 0.000000 0.000000 1.000000
tan -0.923802 0.000000 0.000000 1.000000
tan -0.897452 0.000000 0.000000 1.000000
tan -0.958832 0.000000 0.000000 1.000000
f 3/3/3 2/2/2 1/1/1
f 4/4/4 3/3/3 1/1/1
f 5/5/5 4/4/4 1/1/1
f 8/8/8 7/7/7 6/6/6
f 6/6/6 7/7/7 9/9/9
f 10/10/10 7/7/7 8/8/8
f 9/9/9 7/7/7 10/10/10
f 13/13/13 12/12/12 11/11/11
f 12/12/12 14/14/14 11/11/11
f 17/17/17 16/16/16 15/15/15
f 18/18/18 16/16/16 17/17/17
f 17/17/17 19/19/19 18/18/18
f 18/18/18 19/19/19 20/20/20
f 23/23/23 22/22/22 21/21/21
f 24/24/24 22/22/22 23/23/23
f 23/23/23 25/25/25 24/24/24
f 24/24/24 25/25/25 26/26/26
f 29/29/29 28/28/28 27/27/27
f 30/30/30 28/28/28 29/29/29
f 29/29/29 31/31/31 30/30/30
