mtllib SM_Handrail_LOD4.mtl
g SM_Handrail_LOD4
#Vertices 66
#Indices 114
#Section 0 Offset 0 NumIndices 33 MaterialIndex 3 MI_Rubber08
#Section 1 Offset 33 NumIndices 42 MaterialIndex 0 MI_Metal_Darkgrey
#Section 2 Offset 75 NumIndices 39 MaterialIndex 1 MI_Brushed_Metal
v 0.998982 1.036902 0.034154
v 1.000000 0.927236 0.112668
v -1.000222 0.924371 0.117946
v -1.000955 1.003728 -0.146605
v 1.000209 0.924469 -0.118881
v -1.000955 1.003728 -0.146605
v -0.461663 0.911577 -0.054328
v 1.000209 0.924469 -0.118881
v -1.000222 0.924371 0.117946
v 0.467625 0.883741 -0.055608
v -0.468227 0.795360 0.068760
v 1.000000 0.927236 0.112668
v 0.442791 0.879639 0.063046
v 1.000268 -0.025336 -0.071534
v -0.999379 -0.693710 -0.084258
v 1.000343 -0.703883 -0.062685
v -1.000198 -0.045470 0.000711
v -0.460317 0.039815 -0.165131
v -0.616927 -0.353918 -0.091001
v -0.449950 0.013273 0.152107
v -0.364890 -0.360780 -0.001293
v -0.460317 0.039815 -0.165131
v -0.616927 -0.353918 -0.091001
v 0.463441 0.038060 -0.166943
v 0.308077 -0.353500 -0.092763
v 0.472195 0.012577 0.152728
v 0.554329 -0.360835 -0.010847
v 0.463441 0.038060 -0.166943
v 0.308077 -0.353500 -0.092763
v -1.000198 -0.045470 0.000711
v 1.000268 -0.025336 -0.071534
v 0.999428 -0.257205 0.005026
v -1.000176 -0.490277 0.174997
v 0.999428 -0.696232 0.579064
v -0.999410 -0.684293 0.698808
v 0.409491 0.004840 -0.006934
v 0.442791 0.879639 0.063046
v 0.551625 0.011070 0.005124
v -0.430885 0.009057 -0.038921
v -0.461663 0.911577 -0.054328
v -0.500189 0.009223 -0.059718
v 0.442791 0.879639 0.063046
v 0.409491 0.004840 -0.006934
v 0.467625 0.883741 -0.055608
v 0.551625 0.011070 0.005124
v 0.467625 0.883741 -0.055608
v 0.409491 0.004840 -0.006934
v 0.467625 0.883741 -0.055608
v 0.551625 0.011070 0.005124
v 0.442791 0.879639 0.063046
v -0.994398 0.326725 0.066567
v 0.994677 0.326276 -0.066889
v 1.000176 0.315441 0.068533
v -1.000173 0.315441 -0.068505
v -1.000074 0.624701 -0.069788
v 0.994419 0.635515 -0.067266
v -0.994684 0.634992 0.067673
v 1.000054 0.624622 0.069742
v -0.468227 0.795360 0.068760
v -0.500189 0.009223 -0.059718
v -0.461663 0.911577 -0.054328
v -0.458775 0.011231 0.090965
v -0.461663 0.911577 -0.054328
v -0.430885 0.009057 -0.038921
v -0.468227 0.795360 0.068760
v -0.458775 0.011231 0.090965
vt 0.109375 0.375000
vt 0.091370 0.375000
vt 0.091309 0.125000
vt 0.128540 0.125000
vt 0.134155 0.375488
vt 0.057983 0.125000
vt 0.070374 0.192383
vt 0.062500 0.375488
vt 0.091919 0.125000
vt 0.070068 0.308594
vt 0.086243 0.191895
vt 0.091370 0.375000
vt 0.083740 0.305664
vt 0.327393 0.225098
vt 0.424316 0.016602
vt 0.428711 0.225098
vt 0.320312 0.016602
vt 0.424561 0.217285
vt 0.477783 0.229980
vt 0.429932 0.253906
vt 0.477051 0.272461
vt 0.426270 0.291992
vt 0.476807 0.309082
vt 0.402588 0.095703
vt 0.455322 0.109863
vt 0.407715 0.132812
vt 0.454590 0.151855
vt 0.403809 0.170898
vt 0.454346 0.187988
vt 0.320801 0.016602
vt 0.323975 0.225098
vt 0.289062 0.225098
vt 0.247681 0.016602
vt 0.175293 0.225098
vt 0.162109 0.017090
vt 0.348633 0.341797
vt 0.239136 0.336426
vt 0.348145 0.328125
vt 0.399658 0.300293
vt 0.395752 0.413086
vt 0.391113 0.300293
vt 0.239136 0.341797
vt 0.348633 0.350098
vt 0.238647 0.356445
vt 0.347900 0.316406
vt 0.238647 0.311035
vt 0.348389 0.302734
vt 0.238647 0.315430
vt 0.347900 0.322754
vt 0.239136 0.328125
vt 0.139038 0.646240
vt 0.387695 0.628418
vt 0.388428 0.646484
vt 0.138306 0.628174
vt 0.412842 0.625000
vt 0.412354 0.874390
vt 0.394531 0.625732
vt 0.394287 0.875000
vt 0.375488 0.398926
vt 0.391357 0.300293
vt 0.390625 0.413086
vt 0.372559 0.300781
vt 0.349609 0.413086
vt 0.351562 0.300293
vt 0.364990 0.398926
vt 0.367432 0.300781
vt1 0.726562 0.991470
vt1 0.679199 0.991936
vt1 0.678711 0.331543
vt1 0.777344 0.331055
vt1 0.791992 0.992012
vt1 0.590820 0.331055
vt1 0.623535 0.509277
vt1 0.602539 0.992012
vt1 0.680664 0.331543
vt1 0.622559 0.816040
vt1 0.665527 0.507812
vt1 0.679199 0.991936
vt1 0.659180 0.807983
vt1 0.363037 0.991913
vt1 0.576660 0.331543
vt1 0.585938 0.991936
vt1 0.347656 0.331543
vt1 0.617188 0.103027
vt1 0.757324 0.136230
vt1 0.630859 0.199219
vt1 0.755371 0.247559
vt1 0.621094 0.299316
vt1 0.754883 0.345215
vt1 0.472656 0.106445
vt1 0.611816 0.143066
vt1 0.486328 0.203613
vt1 0.610352 0.254883
vt1 0.476562 0.304199
vt1 0.609375 0.349121
vt1 0.348389 0.331543
vt1 0.355469 0.991913
vt1 0.278564 0.991638
vt1 0.187500 0.331055
vt1 0.028183 0.991745
vt1 -0.000732 0.332031
vt1 0.312744 0.278809
vt1 0.023773 0.265137
vt1 0.311523 0.243652
vt1 0.459473 0.011719
vt1 0.448975 0.309570
vt1 0.436768 0.011719
vt1 0.023773 0.279297
vt1 0.312744 0.301270
vt1 0.022339 0.318359
vt1 0.311035 0.211914
vt1 0.022446 0.197754
vt1 0.312500 0.176758
vt1 0.022400 0.208984
vt1 0.311279 0.229004
vt1 0.023758 0.243652
vt1 0.903320 0.333496
vt1 0.948730 0.990181
vt1 0.902832 0.991997
vt1 0.949219 0.331543
vt1 0.869141 0.331543
vt1 0.868164 0.990097
vt1 0.822266 0.333496
vt1 0.821777 0.991959
vt1 0.395508 0.271484
vt1 0.437500 0.011719
vt1 0.435791 0.309570
vt1 0.387695 0.012207
vt1 0.327393 0.309570
vt1 0.332764 0.011230
vt1 0.367676 0.270996
vt1 0.374756 0.012207
vn 0.000000 0.992126 0.102362
vn 0.000000 0.000000 1.000000
vn 0.000000 -0.133858 0.992126
vn 0.000000 0.740157 -0.669291
vn 0.000000 -0.125984 -0.992126
vn 0.000000 -1.000000 0.000000
vn 0.000000 -1.000000 0.000000
vn 0.000000 -1.000000 0.000000
vn 0.000000 -1.000000 0.000000
vn 0.000000 -1.000000 0.000000
vn 0.000000 -1.000000 0.000000
vn 0.000000 -1.000000 0.000000
vn 0.000000 -1.000000 0.000000
vn 0.000000 0.110236 -0.992126
vn 0.000000 -0.023622 -1.000000
vn 0.000000 -0.000000 -1.000000
vn 0.000000 0.968504 0.236220
vn 0.937008 -0.110236 0.338583
vn 1.000000 0.015748 0.062992
vn -0.110236 -0.188976 -0.976378
vn -0.992126 -0.000000 -0.118110
vn -0.314961 -0.149606 0.937008
vn 0.598425 0.000000 0.795275
vn 0.905512 -0.118110 0.409449
vn 0.992126 0.015748 0.118110
vn -0.094488 -0.196850 -0.976378
vn -1.000000 -0.000000 -0.062992
vn -0.346457 -0.149606 0.929134
vn 0.496063 0.007874 0.866142
vn 0.000000 0.220473 0.976378
vn 0.000000 0.204724 0.976378
vn 0.000000 0.488189 0.874016
vn 0.000000 0.826772 0.559055
vn 0.000000 0.787401 0.622047
vn 0.000000 0.346457 0.937008
vn -0.094488 0.000000 0.992126
vn 0.039370 0.000000 1.000000
vn 0.370079 0.000000 0.929134
vn -0.031496 -0.000000 -1.000000
vn -0.110236 -0.000000 -0.992126
vn -0.338583 -0.000000 -0.937008
vn -1.000000 0.000000 0.000000
vn -1.000000 0.000000 0.000000
vn -1.000000 0.000000 0.000000
vn 0.275591 -0.000000 -0.960630
vn 0.165354 -0.000000 -0.984252
vn -0.062992 -0.000000 -1.000000
vn 0.992126 -0.000000 -0.149606
vn 1.000000 0.000000 0.007874
vn 0.992126 0.000000 0.133858
vn 0.000000 0.976378 0.204724
vn 0.000000 0.976378 -0.204724
vn 0.000000 0.976378 0.220472
vn 0.000000 0.976378 -0.220473
vn 0.000000 0.937008 -0.354331
vn 0.000000 0.960630 -0.283465
vn 0.000000 0.960630 0.283464
vn 0.000000 0.929134 0.362205
vn -0.984252 0.000000 0.181102
vn -0.984252 -0.000000 -0.157480
vn -0.992126 -0.000000 -0.149606
vn -0.968504 0.000000 0.251968
vn 1.000000 0.000000 0.000000
vn 1.000000 0.000000 0.000000
vn 1.000000 0.000000 0.000000
vn 1.000000 0.000000 0.000000
tan -0.992126 0.000000 0.000000 1.000000
tan -1.000000 0.000000 0.000000 1.000000
tan -0.992126 0.000000 0.000000 1.000000
tan -0.973092 0.000000 0.000000 1.000000
tan -0.992126 0.000000 0.000000 1.000000
tan -1.000000 0.000000 0.000000 1.000000
tan -1.000000 0.000000 0.000000 1.000000
tan -1.000000 0.000000 0.000000 1.000000
tan -1.000000 0.000000 0.000000 1.000000
tan -1.000000 0.000000 0.000000 1.000000
tan -1.000000 0.000000 0.000000 1.000000
tan -1.000000 0.000000 0.000000 1.000000
tan -1.000000 0.000000 0.000000 1.000000
tan -0.992126 0.000000 0.000000 1.000000
tan -1.000000 0.000000 0.000000 1.000000
tan -1.000000 0.000000 0.000000 1.000000
tan -0.968504 0.000000 0.000000 1.000000
tan 0.341187 0.022134 -0.937008 1.000000
tan 0.062868 0.007874 -1.000000 1.000000
tan -0.976378 0.000000 0.110236 1.000000
tan -0.118110 0.000000 0.992126 1.000000
tan 0.937008 0.000000 0.314961 1.000000
tan 0.795276 -0.006262 -0.598425 1.000000
tan 0.412239 0.021390 -0.905512 1.000000
tan 0.117986 0.007812 -0.992126 1.000000
tan -0.976378 0.000000 0.094488 1.000000
tan -0.062992 0.000000 1.000000 1.000000
tan 0.929134 0.000000 0.346457 1.000000
tan 0.866142 -0.006820 -0.496001 1.000000
tan -0.976378 0.000000 0.000000 1.000000
tan -0.976378 0.000000 0.000000 1.000000
tan -0.920950 0.000000 0.000000 1.000000
tan -0.923802 0.000000 0.000000 1.000000
tan -0.897452 0.000000 0.000000 1.000000
tan -0.958832 0.000000 0.000000 1.000000
tan 0.992126 0.000000 0.094488 1.000000
tan 1.000000 -0.000000 -0.039370 1.000000
tan 0.929134 -0.000000 -0.370079 1.000000
tan 0.000000 -1.000000 0.000000 1.000000
tan 0.000000 -0.992126 0.000000 1.000000
tan 0.000000 -0.947672 0.000000 1.000000
tan 0.000000 0.000000 1.000000 1.000000
tan 0.000000 0.000000 1.000000 1.000000
tan 0.000000 0.000000 1.000000 1.000000
tan -0.960630 -0.000000 -0.275591 1.000000
tan -0.984252 -0.000000 -0.165354 1.000000
tan -1.000000 0.000000 0.062992 1.000000
tan -0.149606 -0.000000 -0.992126 1.000000
tan 0.007874 -0.000000 -1.000000 1.000000
tan 0.133858 -0.000000 -0.992126 1.000000
tan 0.000000 0.204724 -0.976378 1.000000
tan 0.000000 -0.204724 -0.976378 1.000000
tan 0.000000 0.220472 -0.976378 1.000000
tan 0.000000 -0.220473 -0.976378 1.000000
tan -0.937008 0.000000 0.000000 1.000000
tan -0.960630 0.000000 0.000000 1.000000
tan -0.960630 0.000000 0.000000 1.000000
tan -0.929134 0.000000 0.000000 1.000000
tan 0.000000 -0.984252 0.000000 1.000000
tan 0.000000 -0.984252 0.000000 1.000000
tan 0.000000 -0.992126 0.000000 1.000000
tan 0.000000 -0.968504 0.000000 1.000000
tan 0.000000 -1.000000 0.000000 1.000000
tan 0.000000 -1.000000 0.000000 1.000000
tan 0.000000 -1.000000 0.000000 1.000000
tan 0.000000 -1.000000 0.000000 1.000000
f 3/3/3 2/2/2 1/1/1
f 4/4/4 3/3/3 1/1/1
f 5/5/5 4/4/4 1/1/1
f 8/8/8 7/7/7 6/6/6
f 6/6/6 7/7/7 9/9/9
f 10/10/10 7/7/7 8/8/8
f 11/11/11 9/9/9 7/7/7
f 12/12/12 10/10/10 8/8/8
f 9/9/9 11/11/11 13/13/13
f 10/10/10 12/12/12 13/13/13
f 9/9/9 13/13/13 12/12/12
f 16/16/16 15/15/15 14/14/14
f 15/15/15 17/17/17 14/14/14
f 20/20/20 19/19/19 18/18/18
f 21/21/21 19/19/19 20/20/20
f 20/20/20 22/22/22 21/21/21
f 21/21/21 22/22/22 23/23/23
f 26/26/26 25/25/25 24/24/24
f 27/27/27 25/25/25 26/26/26
f 26/26/26 28/28/28 27/27/27
f 27/27/27 28/28/28 29/29/29
f 32/32/32 31/31/31 30/30/30
f 33/33/33 32/32/32 30/30/30
f 34/34/34 32/32/32 33/33/33
f 33/33/33 35/35/35 34/34/34
f 38/38/38 37/37/37 36/36/36
f 41/41/41 40/40/40 39/39/39
f 44/44/44 43/43/43 42/42/42
f 47/47/47 46/46/46 45/45/45
f 50/50/50 49/49/49 48/48/48
f 53/53/53 52/52/52 51/51/51
f 54/54/54 51/51/51 52/52/52
f 57/57/57 56/56/56 55/55/55
f 56/56/56 57/57/57 58/58/58
f 61/61/61 60/60/60 59/59/59
f 62/62/62 59/59/59 60/60/60
f 65/65/65 64/64/64 63/63/63
f 66/66/66 64/64/64 65/65/65
