mtllib SM_House_1_LOD3.mtl
g SM_House_1_LOD3
#Vertices 131
#Indices 189
#Section 0 Offset 0 NumIndices 21 MaterialIndex 4 MI_Brick_Wallsmall
#Section 1 Offset 21 NumIndices 66 MaterialIndex 6 MI_Brushed_Metal
#Section 2 Offset 87 NumIndices 12 MaterialIndex 5 MI_Windows01
#Section 3 Offset 99 NumIndices 90 MaterialIndex 7 MI_Rubber08
v 12.000000 9.999997 -0.000000
v 12.000000 0.000000 11.999998
v 12.000000 9.999999 11.999998
v 12.000000 0.000000 0.000000
v 0.000000 9.999997 -0.000000
v 0.000000 0.000000 11.999998
v 0.000000 0.000000 0.000000
v 0.000000 9.999999 11.999998
v 12.000000 0.000000 0.000000
v 0.000000 9.999997 -0.000000
v 0.000000 0.000000 0.000000
v 6.000000 11.999997 0.000000
v 12.000000 9.999997 -0.000000
v 3.939873 8.915182 -0.303670
v 2.086746 8.925137 -0.278199
v 2.999011 8.872814 -0.200089
v 3.921821 8.070275 -0.276197
v 2.998107 8.124796 -0.201275
v 2.054336 8.093711 -0.303809
v 4.302665 9.409009 -0.000266
v 4.355731 9.342224 -0.350294
v 4.301973 9.261353 -0.000257
v 1.667734 9.444466 -0.151759
v 1.665091 9.232067 -0.143855
v 4.355731 9.342224 -0.350294
v 1.665091 9.232067 -0.143855
v 4.301973 9.261353 -0.000257
v 4.355731 9.342224 -0.350294
v 4.302665 9.409009 -0.000266
v 1.667734 9.444466 -0.151759
v 4.355731 9.342224 -0.350294
v 0.909461 9.256802 -0.175130
v 0.972711 3.909048 -0.110227
v 0.918303 9.259003 0.013176
v 0.396688 3.951681 0.013257
v 0.972711 3.909048 -0.110227
v 0.405564 3.945618 -0.175460
v 2.000000 8.999999 -0.000001
v 2.054336 8.093711 -0.303809
v 2.086746 8.925137 -0.278199
v 2.000000 7.999999 -0.000001
v 4.000000 8.999999 -0.000001
v 2.000000 8.999999 -0.000001
v 2.086746 8.925137 -0.278199
v 3.939873 8.915182 -0.303670
v 3.939873 8.915182 -0.303670
v 4.000000 7.999999 -0.000001
v 4.000000 8.999999 -0.000001
v 3.921821 8.070275 -0.276197
v 3.921821 8.070275 -0.276197
v 2.054336 8.093711 -0.303809
v 2.000000 7.999999 -0.000001
v 4.000000 7.999999 -0.000001
v 0.909461 9.256802 -0.175130
v 0.399306 9.265263 -0.174221
v 0.405564 3.945618 -0.175460
v 0.972711 3.909048 -0.110227
v 0.396387 9.258230 0.013258
v 0.396688 3.951681 0.013257
v 0.399306 9.265263 -0.174221
v 0.405564 3.945618 -0.175460
v 0.918303 9.259003 0.013176
v 0.396387 9.258230 0.013258
v 0.399306 9.265263 -0.174221
v 0.909461 9.256802 -0.175130
v 2.086746 8.925137 -0.278199
v 2.998107 8.124796 -0.201275
v 2.999011 8.872814 -0.200089
v 2.054336 8.093711 -0.303809
v 3.939873 8.915182 -0.303670
v 2.999011 8.872814 -0.200089
v 3.921821 8.070275 -0.276197
v 2.998107 8.124796 -0.201275
v -0.559886 9.814179 12.000139
v -0.524352 9.822187 -0.672555
v -0.585455 9.858999 -0.000002
v 12.559924 9.814188 12.000141
v 12.585455 9.858998 -0.000002
v 12.524355 9.822176 -0.672558
v 6.000000 12.299998 -0.000002
v -0.643351 10.102256 0.000019
v -0.650749 10.099606 -0.685565
v 6.000000 12.298997 -0.696626
v 12.650749 10.099606 -0.685565
v 12.585455 9.858998 -0.000002
v 12.643353 10.102254 0.000019
v 12.524355 9.822176 -0.672558
v 6.000000 12.299998 -0.000002
v 12.650749 10.099606 -0.685565
v 12.643353 10.102254 0.000019
v 6.000000 12.298997 -0.696626
v -0.585455 9.858999 -0.000002
v -0.650749 10.099606 -0.685565
v -0.643351 10.102256 0.000019
v -0.524352 9.822187 -0.672555
v 6.000000 12.299999 11.999996
v 12.643353 10.102254 0.000019
v 12.641632 10.102359 11.999998
v 6.000000 12.299998 -0.000002
v 12.643353 10.102254 0.000019
v 12.559924 9.814188 12.000141
v 12.641632 10.102359 11.999998
v 12.585455 9.858998 -0.000002
v -0.643351 10.102256 0.000019
v -0.641631 10.102360 11.999998
v -0.559886 9.814179 12.000139
v -0.585455 9.858999 -0.000002
v 12.650749 10.099606 -0.685565
v 6.000000 12.298997 -0.696626
v 12.524355 9.822176 -0.672558
v 6.000000 12.000707 -0.688055
v 6.000000 12.298997 -0.696626
v -0.650749 10.099606 -0.685565
v -0.524352 9.822187 -0.672555
v 6.000000 12.000707 -0.688055
v -0.643351 10.102256 0.000019
v 6.000000 12.299999 11.999996
v -0.641631 10.102360 11.999998
v 6.000000 12.299998 -0.000002
v 12.524355 9.822176 -0.672558
v 11.624025 10.125324 11.999997
v 12.559924 9.814188 12.000141
v 11.623944 10.125350 -0.000002
v 6.000000 11.999998 -0.000002
v 6.000000 12.000707 -0.688055
v -0.524352 9.822187 -0.672555
v 6.000000 11.999998 -0.000002
v 6.000000 12.000707 -0.688055
v 0.380127 10.126708 -0.000002
v 0.380046 10.126682 11.999997
v -0.559886 9.814179 12.000139
vt 0.926270 -0.125000
vt -0.573730 1.125122
vt -0.573730 -0.125000
vt 0.926270 1.125122
vt 0.676270 1.174316
vt -0.573730 2.673828
vt -0.573730 1.174316
vt 0.676270 2.673828
vt 0.926270 -0.173828
vt -0.323975 -1.673828
vt 0.926270 -1.673828
vt -0.573730 -0.923828
vt -0.323975 -0.173828
vt -0.034027 0.074707
vt -0.035522 0.306152
vt -0.046082 0.192383
vt -0.035187 -0.017578
vt -0.045685 -0.132812
vt -0.033752 -0.250977
vt 0.261230 -0.082031
vt 0.269531 -0.125000
vt 0.279297 -0.082031
vt -0.107788 -0.071289
vt -0.088684 -0.071289
vt -0.103210 0.237305
vt -0.048706 0.451172
vt 0.280762 0.433105
vt 0.287354 0.477051
vt 0.280762 0.384277
vt -0.048401 0.365723
vt 0.287354 0.340332
vt 1.234375 -0.341797
vt 1.226562 0.326660
vt 1.210938 -0.341797
vt 0.181763 0.264160
vt 0.109802 0.249023
vt 0.180664 0.240723
vt -0.030594 1.262207
vt -0.143677 1.224365
vt -0.040436 1.227295
vt -0.155518 1.262207
vt 0.004894 0.976913
vt 0.004894 1.226807
vt -0.031143 1.215698
vt -0.033234 0.984390
vt -0.041473 0.980179
vt -0.155518 0.941437
vt -0.030594 0.941437
vt -0.146729 0.975937
vt -0.156494 0.986702
vt -0.152832 1.219604
vt -0.191040 1.226807
vt -0.191040 0.976913
vt -0.186279 0.337402
vt -0.114319 0.331543
vt -0.115295 0.885254
vt -0.195435 0.891663
vt 1.162109 -0.341797
vt 1.162109 0.321289
vt 1.138672 -0.342773
vt 1.138672 0.322266
vt -0.183105 0.094727
vt -0.183105 0.029297
vt -0.159668 0.029785
vt -0.159668 0.093750
vt 0.115845 -0.076172
vt 0.016357 -0.190430
vt 0.109802 -0.191406
vt 0.012276 -0.072266
vt 0.011559 -0.229492
vt 0.016647 -0.347656
vt 0.116577 -0.232422
vt 0.110107 -0.347656
vt -0.383789 -1.320312
vt 1.001953 -1.359375
vt 0.929688 -1.343750
vt -0.625977 2.218750
vt 0.692383 2.261719
vt 0.765625 2.279297
vt 0.951660 -0.326172
vt 0.931152 -1.304688
vt 1.047852 -1.310547
vt 1.048828 -0.326172
vt 0.812500 2.226562
vt 0.692383 2.261719
vt 0.694336 2.228516
vt 0.811523 2.277344
vt 0.716309 1.242554
vt 0.812012 2.226562
vt 0.694824 2.224609
vt 0.813965 1.242798
vt 0.929688 -1.343750
vt 1.048828 -1.308594
vt 0.931152 -1.308594
vt 1.045898 -1.359375
vt -0.689941 1.296631
vt 0.694824 2.224609
vt -0.623535 2.161133
vt 0.716309 1.242554
vt 0.694336 2.228516
vt -0.625977 2.209961
vt -0.624023 2.174805
vt 0.692383 2.261719
vt 0.930664 -1.310547
vt -0.382568 -1.277344
vt -0.383545 -1.312500
vt 0.929688 -1.343750
vt 0.939453 -0.273438
vt 0.937012 0.493164
vt 0.901855 -0.236328
vt 0.906738 0.485840
vt 1.035156 -0.276367
vt 1.037109 0.490723
vt 1.000000 0.453125
vt 1.004883 -0.269531
vt 0.931152 -1.304688
vt -0.461182 -0.397461
vt -0.381836 -1.263672
vt 0.951660 -0.326172
vt 1.947266 1.843750
vt 1.829102 0.261230
vt 1.952148 0.261230
vt 1.829102 1.759766
vt 1.088867 1.759766
vt 1.088867 1.845703
vt 1.947266 -1.365234
vt 1.088867 -1.281250
vt 1.088867 -1.367188
vt 1.828125 -1.281250
vt 1.828125 0.216309
vt 1.952148 0.216309
vt1 0.824707 0.660889
vt1 0.427246 0.991936
vt1 0.427246 0.660889
vt1 0.824707 0.991936
vt1 0.339111 0.175293
vt1 0.008064 0.572754
vt1 0.008064 0.175293
vt1 0.339111 0.572754
vt1 0.405518 0.991936
vt1 0.074280 0.594482
vt1 0.405518 0.594482
vt1 0.008064 0.793213
vt1 0.074280 0.991936
vt1 0.133545 0.056641
vt1 0.072144 0.056152
vt1 0.102356 0.053223
vt1 0.157959 0.056152
vt1 0.188477 0.053223
vt1 0.219849 0.056641
vt1 0.911621 0.733887
vt1 0.913574 0.722412
vt1 0.916504 0.733887
vt1 0.966797 0.875000
vt1 0.966797 0.879639
vt1 0.878418 0.876038
vt1 0.876953 0.940125
vt1 0.964355 0.935364
vt1 0.966309 0.946960
vt1 0.964355 0.911316
vt1 0.876953 0.906311
vt1 0.966309 0.899719
vt1 0.265381 0.089844
vt1 0.088257 0.087402
vt1 0.265381 0.083496
vt1 0.943359 0.766235
vt1 0.924316 0.762085
vt1 0.942871 0.760010
vt1 0.050598 0.153320
vt1 0.020584 0.143555
vt1 0.047974 0.144043
vt1 0.017471 0.153320
vt1 0.059998 0.077637
vt1 0.059998 0.144043
vt1 0.050446 0.141113
vt1 0.049896 0.079590
vt1 0.047699 0.078613
vt1 0.017471 0.068359
vt1 0.050598 0.068359
vt1 0.019775 0.077637
vt1 0.017212 0.080566
vt1 0.018173 0.142090
vt1 0.008064 0.144043
vt1 0.008064 0.077637
vt1 0.363770 0.397461
vt1 0.380127 0.395508
vt1 0.379883 0.570312
vt1 0.361816 0.572510
vt1 0.265381 0.121094
vt1 0.089661 0.121094
vt1 0.265625 0.115234
vt1 0.089478 0.114746
vt1 0.959473 0.783447
vt1 0.959473 0.766235
vt1 0.965820 0.766357
vt1 0.965820 0.783203
vt1 0.985840 0.993172
vt1 0.959473 0.962860
vt1 0.984375 0.962830
vt1 0.958496 0.994183
vt1 0.006958 0.994011
vt1 0.008308 0.962769
vt1 0.034790 0.993374
vt1 0.033081 0.962738
vt1 0.433350 0.626709
vt1 0.830078 0.636230
vt1 0.809570 0.632080
vt1 0.381104 0.347656
vt1 0.758789 0.358398
vt1 0.779785 0.362793
vt1 0.815918 0.381836
vt1 0.809570 0.623047
vt1 0.843262 0.624023
vt1 0.843750 0.381836
vt1 0.793457 0.349609
vt1 0.758789 0.358398
vt1 0.759277 0.350098
vt1 0.792969 0.362305
vt1 0.765625 0.107422
vt1 0.792969 0.349609
vt1 0.759277 0.349121
vt1 0.793457 0.107422
vt1 0.809570 0.632080
vt1 0.843750 0.624023
vt1 0.809570 0.624023
vt1 0.842773 0.636475
vt1 0.362793 0.120605
vt1 0.759277 0.349121
vt1 0.381836 0.333496
vt1 0.765625 0.107422
vt1 0.759277 0.350098
vt1 0.381104 0.345703
vt1 0.381592 0.336914
vt1 0.758789 0.358398
vt1 0.809570 0.624023
vt1 0.433594 0.615723
vt1 0.433350 0.624512
vt1 0.809570 0.632080
vt1 0.319580 0.151855
vt1 0.089966 0.150879
vt1 0.308594 0.141113
vt1 0.092102 0.142578
vt1 0.859375 0.760132
vt1 0.859863 0.989861
vt1 0.849121 0.978729
vt1 0.850586 0.762329
vt1 0.810059 0.622803
vt1 0.411133 0.399414
vt1 0.433838 0.612549
vt1 0.815918 0.381836
vt1 0.880859 0.007812
vt1 0.849609 0.427734
vt1 0.881836 0.427734
vt1 0.849609 0.030273
vt1 0.652832 0.030273
vt1 0.652832 0.007324
vt1 0.847168 0.070801
vt1 0.824707 0.298828
vt1 0.847656 0.298828
vt1 0.824707 0.102539
vt1 0.427246 0.102539
vt1 0.427246 0.069336
vn 1.000000 0.000000 0.000000
vn 1.000000 0.000000 0.000000
vn 1.000000 0.000000 0.000000
vn 1.000000 0.000000 0.000000
vn -1.000000 0.000000 0.000000
vn -1.000000 0.000000 0.000000
vn -1.000000 0.000000 0.000000
vn -1.000000 0.000000 0.000000
vn 0.000000 -0.000000 -1.000000
vn 0.000000 -0.000000 -1.000000
vn 0.000000 -0.000000 -1.000000
vn 0.000000 -0.000000 -1.000000
vn 0.000000 -0.000000 -1.000000
vn 0.000000 -1.000000 0.000000
vn 0.000000 -1.000000 0.000000
vn 0.000000 -1.000000 0.000000
vn 0.000000 1.000000 -0.000000
vn 0.000000 1.000000 -0.000000
vn 0.000000 1.000000 -0.000000
vn 1.000000 0.000000 0.000000
vn 1.000000 0.000000 0.000000
vn 1.000000 0.000000 0.000000
vn 0.000000 -0.000000 -1.000000
vn 0.000000 -0.000000 -1.000000
vn 0.000000 -0.000000 -1.000000
vn 0.000000 -1.000000 0.000000
vn 0.000000 -1.000000 0.000000
vn 0.000000 -1.000000 0.000000
vn 0.000000 1.000000 -0.000000
vn 0.000000 1.000000 -0.000000
vn 0.000000 1.000000 -0.000000
vn 1.000000 0.000000 0.000000
vn 1.000000 0.000000 0.000000
vn 1.000000 0.000000 0.000000
vn 0.000000 -1.000000 0.000000
vn 0.000000 -1.000000 0.000000
vn 0.000000 -1.000000 0.000000
vn -1.000000 0.000000 0.000000
vn -1.000000 0.000000 0.000000
vn -1.000000 0.000000 0.000000
vn -1.000000 0.000000 0.000000
vn 0.000000 1.000000 -0.000000
vn 0.000000 1.000000 -0.000000
vn 0.000000 1.000000 -0.000000
vn 0.000000 1.000000 -0.000000
vn 1.000000 0.000000 0.000000
vn 1.000000 0.000000 0.000000
vn 1.000000 0.000000 0.000000
vn 1.000000 0.000000 0.000000
vn 0.000000 -1.000000 0.000000
vn 0.000000 -1.000000 0.000000
vn 0.000000 -1.000000 0.000000
vn 0.000000 -1.000000 0.000000
vn 0.000000 -0.000000 -1.000000
vn 0.000000 -0.000000 -1.000000
vn 0.000000 -0.000000 -1.000000
vn 0.000000 -0.000000 -1.000000
vn -1.000000 0.000000 0.000000
vn -1.000000 0.000000 0.000000
vn -1.000000 0.000000 0.000000
vn -1.000000 0.000000 0.000000
vn 0.000000 1.000000 -0.000000
vn 0.000000 1.000000 -0.000000
vn 0.000000 1.000000 -0.000000
vn 0.000000 1.000000 -0.000000
vn 0.000000 -0.000000 -1.000000
vn 0.000000 -0.000000 -1.000000
vn 0.000000 -0.000000 -1.000000
vn 0.000000 -0.000000 -1.000000
vn 0.000000 -0.000000 -1.000000
vn 0.000000 -0.000000 -1.000000
vn 0.000000 -0.000000 -1.000000
vn 0.000000 -0.000000 -1.000000
vn -0.448819 -0.897638 0.000000
vn -0.448819 -0.897638 0.000000
vn -0.448819 -0.897638 0.000000
vn 0.448819 -0.897638 0.000000
vn 0.448819 -0.897638 0.000000
vn 0.448819 -0.897638 0.000000
vn -0.314961 0.952756 -0.000000
vn -0.314961 0.952756 -0.000000
vn -0.314961 0.952756 -0.000000
vn -0.314961 0.952756 -0.000000
vn 0.944882 -0.314961 0.000000
vn 0.944882 -0.314961 0.000000
vn 0.944882 -0.314961 0.000000
vn 0.944882 -0.314961 0.000000
vn 0.314961 0.952756 -0.000000
vn 0.314961 0.952756 -0.000000
vn 0.314961 0.952756 -0.000000
vn 0.314961 0.952756 -0.000000
vn -0.944882 -0.314961 0.000000
vn -0.944882 -0.314961 0.000000
vn -0.944882 -0.314961 0.000000
vn -0.944882 -0.314961 0.000000
vn 0.314961 0.952756 -0.000000
vn 0.314961 0.952756 -0.000000
vn 0.314961 0.952756 -0.000000
vn 0.314961 0.952756 -0.000000
vn 0.944882 -0.314961 0.000000
vn 0.944882 -0.314961 0.000000
vn 0.944882 -0.314961 0.000000
vn 0.944882 -0.314961 0.000000
vn -0.944882 -0.314961 0.000000
vn -0.944882 -0.314961 0.000000
vn -0.944882 -0.314961 0.000000
vn -0.944882 -0.314961 0.000000
vn 0.000000 -0.000000 -1.000000
vn 0.000000 -0.000000 -1.000000
vn 0.000000 -0.000000 -1.000000
vn 0.000000 -0.000000 -1.000000
vn 0.000000 -0.000000 -1.000000
vn 0.000000 -0.000000 -1.000000
vn 0.000000 -0.000000 -1.000000
vn 0.000000 -0.000000 -1.000000
vn -0.314961 0.952756 -0.000000
vn -0.314961 0.952756 -0.000000
vn -0.314961 0.952756 -0.000000
vn -0.314961 0.952756 -0.000000
vn -0.314961 -0.944882 0.000000
vn -0.314961 -0.944882 0.000000
vn -0.314961 -0.944882 0.000000
vn -0.314961 -0.944882 0.000000
vn -0.314961 -0.944882 0.000000
vn -0.314961 -0.944882 0.000000
vn 0.314961 -0.944882 0.000000
vn 0.314961 -0.944882 0.000000
vn 0.314961 -0.944882 0.000000
vn 0.314961 -0.944882 0.000000
vn 0.314961 -0.944882 0.000000
vn 0.314961 -0.944882 0.000000
tan 0.000000 1.000000 -0.000000 1.000000
tan 0.000000 1.000000 -0.000000 1.000000
tan 0.000000 1.000000 -0.000000 1.000000
tan 0.000000 1.000000 -0.000000 1.000000
tan 0.000000 -0.000000 -1.000000 1.000000
tan 0.000000 -0.000000 -1.000000 1.000000
tan 0.000000 -0.000000 -1.000000 1.000000
tan 0.000000 -0.000000 -1.000000 1.000000
tan -1.000000 0.000000 0.000000 1.000000
tan -1.000000 0.000000 0.000000 1.000000
tan -1.000000 0.000000 0.000000 1.000000
tan -1.000000 0.000000 0.000000 1.000000
tan -1.000000 0.000000 0.000000 1.000000
tan 1.000000 0.000000 0.000000 1.000000
tan 1.000000 0.000000 0.000000 1.000000
tan 1.000000 0.000000 0.000000 1.000000
tan -1.000000 0.000000 0.000000 1.000000
tan -1.000000 0.000000 0.000000 1.000000
tan -1.000000 0.000000 0.000000 1.000000
tan 0.000000 -0.000000 -1.000000 1.000000
tan 0.000000 -0.000000 -1.000000 1.000000
tan 0.000000 -0.000000 -1.000000 1.000000
tan -1.000000 0.023622 -0.000000 1.000000
tan -1.000000 0.023622 -0.000000 1.000000
tan -1.000000 0.000000 0.000000 1.000000
tan 0.000000 0.000000 1.000000 1.000000
tan 0.000000 0.000000 1.000000 1.000000
tan 0.000000 0.000000 1.000000 1.000000
tan 0.000000 -0.000000 -1.000000 1.000000
tan 0.000000 -0.000000 -1.000000 1.000000
tan 0.000000 -0.000000 -1.000000 1.000000
tan 0.000000 1.000000 -0.000000 1.000000
tan 0.000000 1.000000 -0.000000 1.000000
tan 0.000000 1.000000 -0.000000 1.000000
tan 0.000000 -0.000000 -1.000000 1.000000
tan 0.000000 -0.000000 -1.000000 1.000000
tan 0.000000 -0.000000 -1.000000 1.000000
tan 0.000000 -0.000000 -1.000000 1.000000
tan 0.000000 -0.000000 -1.000000 1.000000
tan 0.000000 -0.000000 -1.000000 1.000000
tan 0.000000 -0.000000 -1.000000 1.000000
tan 1.000000 0.000000 0.000000 1.000000
tan 1.000000 0.000000 0.000000 1.000000
tan 1.000000 0.000000 0.000000 1.000000
tan 1.000000 0.000000 0.000000 1.000000
tan 0.000000 0.000000 1.000000 1.000000
tan 0.000000 0.000000 1.000000 1.000000
tan 0.000000 0.000000 1.000000 1.000000
tan 0.000000 0.000000 1.000000 1.000000
tan 1.000000 0.000000 0.000000 1.000000
tan 1.000000 0.000000 0.000000 1.000000
tan 1.000000 0.000000 0.000000 1.000000
tan 1.000000 0.000000 0.000000 1.000000
tan -0.078740 1.000000 -0.000000 1.000000
tan -0.078740 1.000000 -0.000000 1.000000
tan -0.039370 1.000000 -0.000000 1.000000
tan -0.039370 1.000000 -0.000000 1.000000
tan 0.000000 1.000000 -0.000000 1.000000
tan 0.000000 1.000000 -0.000000 1.000000
tan 0.000000 1.000000 -0.000000 1.000000
tan 0.000000 1.000000 -0.000000 1.000000
tan -1.000000 0.000000 0.000000 1.000000
tan -1.000000 0.000000 0.000000 1.000000
tan -1.000000 0.000000 0.000000 1.000000
tan -1.000000 0.000000 0.000000 1.000000
tan 1.000000 0.000000 0.000000 1.000000
tan 1.000000 0.000000 0.000000 1.000000
tan 1.000000 0.000000 0.000000 1.000000
tan 1.000000 0.000000 0.000000 1.000000
tan -1.000000 0.000000 0.000000 1.000000
tan -1.000000 0.000000 0.000000 1.000000
tan -1.000000 0.000000 0.000000 1.000000
tan -1.000000 0.000000 0.000000 1.000000
tan 0.897638 -0.448819 -0.007068 1.000000
tan 0.897638 -0.448819 -0.007068 1.000000
tan 0.897638 -0.448819 -0.007068 1.000000
tan 0.897638 0.448819 0.007068 1.000000
tan 0.897638 0.448819 0.014136 1.000000
tan 0.897638 0.448819 0.007068 1.000000
tan -0.952756 -0.314961 0.000000 1.000000
tan -0.952756 -0.314961 -0.022506 1.000000
tan -0.952756 -0.314961 -0.022506 1.000000
tan -0.952756 -0.314961 0.000000 1.000000
tan 0.314961 0.944882 0.029760 1.000000
tan 0.314961 0.944882 -0.000000 1.000000
tan 0.314961 0.944882 -0.014880 1.000000
tan 0.314961 0.944882 0.037200 1.000000
tan -0.952756 0.314961 -0.000000 1.000000
tan -0.952756 0.314961 0.007502 1.000000
tan -0.952756 0.314961 0.007502 1.000000
tan -0.952756 0.314961 -0.000000 1.000000
tan 0.314961 -0.944882 -0.014880 1.000000
tan 0.314961 -0.944882 -0.037200 1.000000
tan 0.314961 -0.944882 -0.007440 1.000000
tan 0.314961 -0.944882 -0.052080 1.000000
tan -0.952756 0.314961 0.015004 1.000000
tan -0.952756 0.314961 -0.007502 1.000000
tan -0.952756 0.314961 0.030008 1.000000
tan -0.952756 0.314961 -0.022506 1.000000
tan 0.314961 0.944882 0.029760 1.000000
tan 0.314961 0.944882 0.029760 1.000000
tan 0.314961 0.944882 0.029760 1.000000
tan 0.314961 0.944882 0.029760 1.000000
tan 0.314961 -0.944882 -0.014880 1.000000
tan 0.314961 -0.944882 -0.014880 1.000000
tan 0.314961 -0.944882 -0.014880 1.000000
tan 0.314961 -0.944882 -0.022320 1.000000
tan 0.889764 -0.456693 0.000000 1.000000
tan 0.937008 -0.354331 0.000000 1.000000
tan 0.874016 0.480315 -0.000000 1.000000
tan 0.944882 -0.322835 0.000000 1.000000
tan 0.937008 0.354331 -0.000000 1.000000
tan 0.889764 0.456693 -0.000000 1.000000
tan 0.874016 -0.480315 0.000000 1.000000
tan 0.944882 0.322835 -0.000000 1.000000
tan -0.952756 -0.314961 0.015004 1.000000
tan -0.952756 -0.314961 0.000000 1.000000
tan -0.952756 -0.314961 -0.022506 1.000000
tan -0.952756 -0.314961 0.037510 1.000000
tan 0.000000 0.000000 0.944882 1.000000
tan 0.000000 0.000000 0.957282 1.000000
tan 0.000000 0.000000 0.947362 1.000000
tan 0.000000 0.000000 0.957282 1.000000
tan 0.000000 0.000000 0.957282 1.000000
tan 0.000000 0.000000 0.947362 1.000000
tan 0.000000 -0.000000 -0.944882 1.000000
tan 0.000000 -0.000000 -0.957282 1.000000
tan 0.000000 -0.000000 -0.947362 1.000000
tan 0.000000 -0.000000 -0.957282 1.000000
tan 0.000000 -0.000000 -0.957282 1.000000
tan 0.000000 -0.000000 -0.947362 1.000000
f 3/3/3 2/2/2 1/1/1
f 4/4/4 1/1/1 2/2/2
f 7/7/7 6/6/6 5/5/5
f 8/8/8 5/5/5 6/6/6
f 11/11/11 10/10/10 9/9/9
f 12/12/12 9/9/9 10/10/10
f 12/12/12 13/13/13 9/9/9
f 16/16/16 15/15/15 14/14/14
f 19/19/19 18/18/18 17/17/17
f 22/22/22 21/21/21 20/20/20
f 25/25/25 24/24/24 23/23/23
f 28/28/28 27/27/27 26/26/26
f 31/31/31 30/30/30 29/29/29
f 34/34/34 33/33/33 32/32/32
f 37/37/37 36/36/36 35/35/35
f 40/40/40 39/39/39 38/38/38
f 41/41/41 38/38/38 39/39/39
f 44/44/44 43/43/43 42/42/42
f 42/42/42 45/45/45 44/44/44
f 48/48/48 47/47/47 46/46/46
f 49/49/49 46/46/46 47/47/47
f 52/52/52 51/51/51 50/50/50
f 53/53/53 52/52/52 50/50/50
f 56/56/56 55/55/55 54/54/54
f 57/57/57 56/56/56 54/54/54
f 60/60/60 59/59/59 58/58/58
f 61/61/61 59/59/59 60/60/60
f 64/64/64 63/63/63 62/62/62
f 65/65/65 64/64/64 62/62/62
f 68/68/68 67/67/67 66/66/66
f 69/69/69 66/66/66 67/67/67
f 72/72/72 71/71/71 70/70/70
f 72/72/72 73/73/73 71/71/71
f 76/76/76 75/75/75 74/74/74
f 79/79/79 78/78/78 77/77/77
f 82/82/82 81/81/81 80/80/80
f 83/83/83 82/82/82 80/80/80
f 86/86/86 85/85/85 84/84/84
f 87/87/87 84/84/84 85/85/85
f 90/90/90 89/89/89 88/88/88
f 91/91/91 88/88/88 89/89/89
f 94/94/94 93/93/93 92/92/92
f 95/95/95 92/92/92 93/93/93
f 98/98/98 97/97/97 96/96/96
f 99/99/99 96/96/96 97/97/97
f 102/102/102 101/101/101 100/100/100
f 103/103/103 100/100/100 101/101/101
f 106/106/106 105/105/105 104/104/104
f 107/107/107 106/106/106 104/104/104
f 110/110/110 109/109/109 108/108/108
f 111/111/111 109/109/109 110/110/110
f 114/114/114 113/113/113 112/112/112
f 115/115/115 114/114/114 112/112/112
f 118/118/118 117/117/117 116/116/116
f 119/119/119 116/116/116 117/117/117
f 122/122/122 121/121/121 120/120/120
f 120/120/120 121/121/121 123/123/123
f 123/123/123 124/124/124 120/120/120
f 124/124/124 125/125/125 120/120/120
f 128/128/128 127/127/127 126/126/126
f 129/129/129 126/126/126 127/127/127
f 129/129/129 130/130/130 126/126/126
f 131/131/131 126/126/126 130/130/130
