mtllib SM_Lamp_tubes_LOD5.mtl
g SM_Lamp_tubes_LOD5
#Vertices 38
#Indices 42
#Section 0 Offset 0 NumIndices 30 MaterialIndex 0 MI_Metal_Darkgrey
#Section 1 Offset 30 NumIndices 12 MaterialIndex 2 MI_TubeLamp03
v 0.976129 0.094110 -0.533367
v -0.911152 0.259554 -0.444631
v -0.972701 0.150312 -0.506387
v -1.049670 0.074523 0.073538
v 0.912830 0.277185 -0.077447
v 1.000687 -0.020676 0.014874
v -1.049670 0.074523 0.073538
v -0.972701 0.150312 -0.506387
v -0.911152 0.259554 -0.444631
v 0.976129 0.094110 -0.533367
v 1.000687 -0.020676 0.014874
v 0.912830 0.277185 -0.077447
v 0.944904 0.160323 -0.051050
v -1.049670 0.074523 0.073538
v 1.000687 -0.020676 0.014874
v 0.976129 0.094110 -0.533367
v 0.944904 0.160323 -0.051050
v 1.000687 -0.020676 0.014874
v 0.912830 0.277185 -0.077447
v -0.911152 0.259554 -0.444631
v 0.976129 0.094110 -0.533367
v -1.049670 0.074523 0.073538
v 0.944904 0.160323 -0.051050
v 0.976129 0.094110 -0.533367
v -1.049670 0.074523 0.073538
v -0.972701 0.150312 -0.506387
v -0.937238 0.049605 -0.185744
v 0.936744 0.077597 -0.148062
v -0.939748 0.020838 -0.088692
v 1.034582 -0.062972 -0.150796
v -0.939748 0.020838 -0.088692
v 0.936744 0.077597 -0.148062
v 1.034582 -0.062972 -0.150796
v 0.936744 0.077597 -0.148062
v -0.937238 0.049605 -0.185744
v 1.034582 -0.062972 -0.150796
v -0.937238 0.049605 -0.185744
v -0.939748 0.020838 -0.088692
vt 0.230591 0.503174
vt 0.209595 0.267578
vt 0.224243 0.260254
vt 0.233643 0.817627
vt 0.206787 0.572510
vt 0.244751 0.561523
vt 0.231567 0.191895
vt 0.225464 0.260254
vt 0.211792 0.254395
vt 0.227783 0.498535
vt 0.243896 0.565674
vt 0.207275 0.552734
vt 0.144165 0.234375
vt 0.130371 0.443359
vt 0.123840 0.208496
vt 0.211548 0.221680
vt 0.142090 0.233887
vt 0.117126 0.205078
vt 0.391602 0.426270
vt 0.437744 0.207520
vt 0.448975 0.431641
vt 0.375732 0.189453
vt 0.495850 0.434082
vt 0.435547 0.437988
vt 0.510742 0.184570
vt 0.439453 0.194336
vt 0.693848 0.403809
vt 0.275879 0.395508
vt 0.687988 0.383301
vt 0.239136 0.424316
vt 0.705566 0.435059
vt 0.261963 0.448242
vt 0.254883 0.421387
vt 0.272217 0.394531
vt 0.692871 0.404785
vt 0.255859 0.427734
vt 0.691406 0.405762
vt 0.697754 0.421387
vt1 0.868652 0.505127
vt1 0.834473 0.125000
vt1 0.858398 0.112793
vt1 0.873535 1.011993
vt1 0.830078 0.616699
vt1 0.891602 0.599121
vt1 0.870117 0.002930
vt1 0.860352 0.113770
vt1 0.838379 0.104004
vt1 0.864258 0.497070
vt1 0.890137 0.605957
vt1 0.830566 0.584717
vt1 0.064758 0.485352
vt1 0.023346 0.958069
vt1 0.003471 0.427246
vt1 0.267822 0.457031
vt1 0.058533 0.484863
vt1 -0.016846 0.419922
vt1 0.029465 0.280273
vt1 0.527832 0.385742
vt1 0.016647 0.411621
vt1 0.569336 0.243652
vt1 0.733398 0.990501
vt1 0.597168 0.999337
vt1 0.767578 0.426758
vt1 0.605957 0.448730
vt1 0.803711 0.980270
vt1 0.814453 0.459473
vt1 0.830078 0.973358
vt1 0.777344 0.413574
vt1 0.763672 0.995411
vt1 0.746094 0.441895
vt1 0.781250 0.433105
vt1 0.815918 0.455078
vt1 0.802246 0.979507
vt1 0.772949 0.434570
vt1 0.800781 0.977661
vt1 0.781250 0.985458
vn 0.000000 -0.094488 -0.992126
vn 0.000000 0.047244 -1.000000
vn 0.000000 -0.047244 -1.000000
vn 0.000000 -0.062992 1.000000
vn 0.000000 0.047244 1.000000
vn 0.000000 -0.125984 0.992126
vn -1.000000 -0.039370 0.000000
vn -1.000000 -0.062992 0.000000
vn -1.000000 0.047244 -0.000000
vn 1.000000 -0.055118 0.000000
vn 0.984252 -0.165354 0.000000
vn 0.992126 0.118110 -0.000000
vn 0.000000 -0.000000 -1.000000
vn 0.000000 -0.000000 -1.000000
vn 0.000000 -0.000000 -1.000000
vn -1.000000 0.000000 0.000000
vn -1.000000 0.000000 0.000000
vn -1.000000 0.000000 0.000000
vn 0.000000 1.000000 -0.000000
vn 0.000000 1.000000 -0.000000
vn 0.000000 1.000000 -0.000000
vn 0.000000 1.000000 -0.000000
vn 0.000000 -1.000000 0.000000
vn 0.000000 -1.000000 0.000000
vn 0.000000 -1.000000 0.000000
vn 0.000000 -1.000000 0.000000
vn 0.000000 1.000000 -0.000000
vn 0.000000 1.000000 -0.000000
vn 0.000000 1.000000 -0.000000
vn 0.000000 0.496063 0.866142
vn 0.000000 0.496063 0.866142
vn 0.000000 0.496063 0.866142
vn 0.000000 0.503937 -0.866142
vn 0.000000 0.503937 -0.866142
vn 0.000000 0.503937 -0.866142
vn 0.000000 -0.496063 -0.866142
vn 0.000000 -0.496063 -0.866142
vn 0.000000 -0.496063 -0.866142
tan -0.992126 0.000000 0.000000 1.000000
tan -1.000000 0.000000 0.000000 1.000000
tan -1.000000 0.000000 0.000000 1.000000
tan 1.000000 0.000000 0.000000 1.000000
tan 1.000000 0.000000 0.000000 1.000000
tan 0.992126 0.000000 0.000000 1.000000
tan 0.000000 0.000000 1.000000 1.000000
tan 0.000000 0.000000 1.000000 1.000000
tan 0.000000 0.000000 1.000000 1.000000
tan 0.000000 -0.000000 -1.000000 1.000000
tan 0.000000 -0.000000 -0.984252 1.000000
tan 0.000000 -0.000000 -0.992126 1.000000
tan 0.787402 -0.614173 0.000000 1.000000
tan 0.590551 0.811023 -0.000000 1.000000
tan 0.732283 -0.685039 0.000000 1.000000
tan 0.000000 -0.960630 0.283465 1.000000
tan 0.000000 -0.992126 -0.141732 1.000000
tan 0.000000 -0.897638 -0.440945 1.000000
tan -1.000000 0.000000 0.031496 1.000000
tan -0.992126 0.000000 0.118110 1.000000
tan -0.968504 -0.000000 -0.259842 1.000000
tan -0.952756 -0.000000 -0.299213 1.000000
tan -1.000000 0.000000 0.000000 1.000000
tan -1.000000 0.000000 0.000000 1.000000
tan -1.000000 0.000000 0.000000 1.000000
tan -1.000000 0.000000 0.000000 1.000000
tan 0.000000 0.000000 1.000000 1.000000
tan 0.000000 0.000000 1.000000 1.000000
tan 0.000000 0.000000 1.000000 1.000000
tan 0.006820 -0.866142 0.496063 1.000000
tan 0.000000 -0.866142 0.496063 1.000000
tan 0.000000 -0.866142 0.496063 1.000000
tan 0.000000 0.866142 0.503937 1.000000
tan 0.000000 0.866142 0.503937 1.000000
tan 0.000000 0.866142 0.503937 1.000000
tan 0.000000 0.866142 -0.496063 1.000000
tan 0.000000 0.866142 -0.496063 1.000000
tan 0.000000 0.866142 -0.496063 1.000000
f 3/3/3 2/2/2 1/1/1
f 6/6/6 5/5/5 4/4/4
f 9/9/9 8/8/8 7/7/7
f 12/12/12 11/11/11 10/10/10
f 15/15/15 14/14/14 13/13/13
f 18/18/18 17/17/17 16/16/16
f 21/21/21 20/20/20 19/19/19
f 19/19/19 20/20/20 22/22/22
f 25/25/25 24/24/24 23/23/23
f 24/24/24 25/25/25 26/26/26
f 29/29/29 28/28/28 27/27/27
f 32/32/32 31/31/31 30/30/30
f 35/35/35 34/34/34 33/33/33
f 38/38/38 37/37/37 36/36/36
