mtllib SM_StationBeam_LOD3.mtl
g SM_StationBeam_LOD3
#Vertices 52
#Indices 72
#Section 0 Offset 0 NumIndices 72 MaterialIndex 1 MI_Brushed_Metal
v 0.370002 -0.077249 -0.604148
v 0.543705 -4.006996 -0.665704
v 0.552160 0.116263 -0.596344
v 0.574374 0.865314 -3.707924
v 0.488838 0.623997 -1.358052
v 0.586905 0.872907 -0.086167
v 0.005710 0.581034 -1.341980
v -0.108979 0.816457 -3.734817
v -0.060147 0.898479 -0.082446
v 0.488838 0.623997 -1.358052
v 0.370002 -0.077249 -0.604148
v 0.552160 0.116263 -0.596344
v -0.011565 0.059558 -0.031282
v -0.045707 -4.004607 -0.663656
v 0.184507 0.117289 -0.774929
v 0.000000 -3.999378 0.000001
v 0.552160 0.116263 -0.596344
v 0.543705 -4.006996 -0.665704
v 0.516751 0.026748 -0.036815
v 0.500002 -3.999378 0.000001
v 0.586905 0.872907 -0.086167
v -0.060147 0.898479 -0.082446
v 0.516751 0.026748 -0.036815
v -0.011565 0.059558 -0.031282
v 0.552160 0.116263 -0.596344
v 0.005710 0.581034 -1.341980
v 0.488838 0.623997 -1.358052
v 0.184507 0.117289 -0.774929
v 0.516751 0.026748 -0.036815
v -0.011565 0.059558 -0.031282
v 0.552160 0.116263 -0.596344
v 0.184507 0.117289 -0.774929
v 0.370002 -0.077249 -0.604148
v 0.488838 0.623997 -1.358052
v 0.005710 0.581034 -1.341980
v 0.184507 0.117289 -0.774929
v 0.586905 0.872907 -0.086167
v 0.488838 0.623997 -1.358052
v 0.005710 0.581034 -1.341980
v -0.060147 0.898479 -0.082446
v 0.184507 0.117289 -0.774929
v 0.126245 -3.999378 -0.126245
v 0.126245 -0.111498 0.000001
v -0.045707 -4.004607 -0.663656
v 0.373757 -0.111498 0.000001
v 0.373757 -3.999378 -0.126245
v 0.370002 -0.077249 -0.604148
v 0.543705 -4.006996 -0.665704
v 0.488838 0.623997 -1.358052
v 0.574374 0.865314 -3.707924
v -0.108979 0.816457 -3.734817
v 0.005710 0.581034 -1.341980
vt 1.016602 0.441406
vt 1.041016 -0.039062
vt 1.041016 0.463867
vt 0.451904 0.554932
vt 0.755371 0.510742
vt 0.921387 0.539307
vt 0.267822 0.035156
vt -0.041107 -0.009766
vt 0.432373 0.000488
vt 0.448975 0.916870
vt 0.465332 1.044739
vt 0.440430 1.030518
vt 0.438232 0.105469
vt 0.364502 0.580566
vt 0.342773 0.100586
vt 0.442627 0.579834
vt 0.854980 0.440918
vt 0.854004 -0.039062
vt 0.927246 0.431641
vt 0.932617 -0.038086
vt 0.585449 0.711426
vt 0.508789 0.714355
vt 0.579102 0.607178
vt 0.514648 0.612793
vt 0.583496 0.926880
vt 0.516602 0.818237
vt 0.577148 0.813354
vt 0.538086 0.908936
vt 0.578125 0.640625
vt 0.514648 0.641357
vt 0.584961 0.571777
vt 0.539551 0.550781
vt 0.098572 0.635742
vt -0.025375 0.657715
vt -0.022202 0.594971
vt 0.066772 0.615234
vt 0.585938 0.675781
vt 0.577148 0.838013
vt 0.517578 0.836304
vt 0.508789 0.676514
vt 1.034180 0.455566
vt 0.959473 0.958557
vt 0.941406 0.484375
vt 1.024414 0.958862
vt 0.941406 0.436035
vt 0.959961 -0.038086
vt 1.014648 0.440430
vt 1.025391 -0.038086
vt 0.449951 0.916321
vt 0.438477 0.622070
vt 0.520508 0.617920
vt 0.509277 0.918335
vt1 0.111145 0.971298
vt1 0.145020 0.282715
vt1 0.144531 1.003933
vt1 0.298828 0.044434
vt1 0.715332 0.107422
vt1 0.943359 0.066406
vt1 0.427490 0.210938
vt1 0.003801 0.146484
vt1 0.653320 0.161133
vt1 0.293945 0.821655
vt1 0.316895 1.000995
vt1 0.281982 0.981064
vt1 0.661621 0.311523
vt1 0.560059 0.992729
vt1 0.530762 0.304688
vt1 0.667480 0.991661
vt1 0.852051 0.208008
vt1 0.851074 0.896362
vt1 0.951172 0.221191
vt1 0.958496 0.894836
vt1 0.492432 0.674316
vt1 0.384766 0.678223
vt1 0.483154 0.527832
vt1 0.393066 0.535889
vt1 0.489258 0.976501
vt1 0.395508 0.824097
vt1 0.480713 0.817261
vt1 0.425537 0.951385
vt1 0.482422 0.575195
vt1 0.393066 0.576172
vt1 0.491699 0.478516
vt1 0.427734 0.449219
vt1 0.711426 0.949982
vt1 0.680176 0.775269
vt1 0.768555 0.779785
vt1 0.740234 0.905151
vt1 0.492920 0.624023
vt1 0.480713 0.851807
vt1 0.396973 0.849487
vt1 0.384521 0.625244
vt1 0.280273 0.270996
vt1 0.177734 0.991936
vt1 0.153198 0.312012
vt1 0.267822 0.992374
vt1 0.008064 0.963715
vt1 0.033508 0.284180
vt1 0.109009 0.970413
vt1 0.123840 0.283203
vt1 0.295166 0.820801
vt1 0.279297 0.408203
vt1 0.394531 0.402344
vt1 0.378906 0.823730
vn 0.000000 -0.000000 -1.000000
vn 0.000000 -0.000000 -1.000000
vn 0.000000 -0.000000 -1.000000
vn 1.000000 0.000000 0.000000
vn 1.000000 0.000000 0.000000
vn 1.000000 0.000000 0.000000
vn -1.000000 0.000000 0.000000
vn -1.000000 0.000000 0.000000
vn -1.000000 0.000000 0.000000
vn 0.000000 -0.795276 -0.614173
vn 0.000000 -0.795276 -0.614173
vn 0.000000 -0.795276 -0.614173
vn -1.000000 0.000000 0.000000
vn -1.000000 0.000000 0.000000
vn -1.000000 0.000000 0.000000
vn -1.000000 0.000000 0.000000
vn 1.000000 0.000000 0.000000
vn 1.000000 0.000000 0.000000
vn 1.000000 0.000000 0.000000
vn 1.000000 0.000000 0.000000
vn 0.000000 -0.000000 -1.000000
vn 0.000000 -0.000000 -1.000000
vn 0.000000 -0.000000 -1.000000
vn 0.000000 -0.000000 -1.000000
vn 0.000000 0.818898 0.582677
vn 0.000000 0.818898 0.582677
vn 0.000000 0.818898 0.582677
vn 0.000000 0.818898 0.582677
vn 0.000000 1.000000 -0.000000
vn 0.000000 1.000000 -0.000000
vn 0.000000 1.000000 -0.000000
vn 0.000000 1.000000 -0.000000
vn 0.000000 -0.795276 -0.614173
vn 0.000000 -0.795276 -0.614173
vn 0.000000 -0.795276 -0.614173
vn 0.000000 -0.795276 -0.614173
vn 0.000000 -1.000000 0.000000
vn 0.000000 -1.000000 0.000000
vn 0.000000 -1.000000 0.000000
vn 0.000000 -1.000000 0.000000
vn 1.000000 0.000000 0.000000
vn 1.000000 0.000000 0.000000
vn 1.000000 0.000000 0.000000
vn 1.000000 0.000000 0.000000
vn -1.000000 0.000000 0.000000
vn -1.000000 0.000000 0.000000
vn -1.000000 0.000000 0.000000
vn -1.000000 0.000000 0.000000
vn 0.000000 -1.000000 0.000000
vn 0.000000 -1.000000 0.000000
vn 0.000000 -1.000000 0.000000
vn 0.000000 -1.000000 0.000000
tan 0.039370 -1.000000 0.000000 1.000000
tan -0.015748 -1.000000 0.000000 1.000000
tan 0.015748 -1.000000 0.000000 1.000000
tan 0.000000 -1.000000 0.031496 1.000000
tan 0.000000 -1.000000 0.031496 1.000000
tan 0.000000 -1.000000 0.007874 1.000000
tan 0.000000 1.000000 -0.039370 1.000000
tan 0.000000 1.000000 -0.039370 1.000000
tan 0.000000 1.000000 -0.031496 1.000000
tan 0.000000 0.614173 -0.795276 1.000000
tan 0.000000 0.614173 -0.795276 1.000000
tan 0.000000 0.614173 -0.795276 1.000000
tan 0.000000 1.000000 0.023622 1.000000
tan 0.000000 1.000000 -0.000000 1.000000
tan 0.000000 1.000000 0.007874 1.000000
tan 0.000000 1.000000 -0.000000 1.000000
tan 0.000000 -1.000000 -0.015748 1.000000
tan 0.000000 -1.000000 0.000000 1.000000
tan 0.000000 -1.000000 -0.015748 1.000000
tan 0.000000 -1.000000 0.000000 1.000000
tan 0.000000 -1.000000 0.000000 1.000000
tan 0.000000 -1.000000 0.000000 1.000000
tan 0.000000 -1.000000 0.000000 1.000000
tan 0.000000 -1.000000 0.000000 1.000000
tan 0.000000 0.582677 -0.818898 1.000000
tan 0.000000 0.582677 -0.818898 1.000000
tan 0.000000 0.582677 -0.818898 1.000000
tan 0.000000 0.582677 -0.818898 1.000000
tan 0.000000 -0.000000 -1.000000 1.000000
tan 0.000000 -0.000000 -1.000000 1.000000
tan 0.000000 -0.000000 -1.000000 1.000000
tan 0.000000 -0.000000 -1.000000 1.000000
tan -0.884308 0.009672 -0.012524 1.000000
tan -0.728935 -0.294997 0.381983 1.000000
tan -0.802654 -0.159588 0.206646 1.000000
tan -0.837374 -0.043524 0.056358 1.000000
tan 0.000000 0.000000 1.000000 1.000000
tan 0.000000 0.000000 1.000000 1.000000
tan 0.000000 0.000000 1.000000 1.000000
tan 0.000000 0.000000 1.000000 1.000000
tan 0.000000 1.000000 -0.007874 1.000000
tan 0.000000 1.000000 -0.007874 1.000000
tan 0.000000 1.000000 -0.007874 1.000000
tan 0.000000 1.000000 -0.007874 1.000000
tan 0.000000 -1.000000 0.007874 1.000000
tan 0.000000 -1.000000 0.007874 1.000000
tan 0.000000 -1.000000 0.007874 1.000000
tan 0.000000 -1.000000 0.007874 1.000000
tan 0.000000 -0.000000 -1.000000 1.000000
tan 0.000000 -0.000000 -1.000000 1.000000
tan 0.000000 -0.000000 -1.000000 1.000000
tan 0.000000 -0.000000 -1.000000 1.000000
f 3/3/3 2/2/2 1/1/1
f 6/6/6 5/5/5 4/4/4
f 9/9/9 8/8/8 7/7/7
f 12/12/12 11/11/11 10/10/10
f 15/15/15 14/14/14 13/13/13
f 16/16/16 13/13/13 14/14/14
f 19/19/19 18/18/18 17/17/17
f 20/20/20 18/18/18 19/19/19
f 23/23/23 22/22/22 21/21/21
f 23/23/23 24/24/24 22/22/22
f 27/27/27 26/26/26 25/25/25
f 28/28/28 25/25/25 26/26/26
f 31/31/31 30/30/30 29/29/29
f 31/31/31 32/32/32 30/30/30
f 35/35/35 34/34/34 33/33/33
f 33/33/33 36/36/36 35/35/35
f 39/39/39 38/38/38 37/37/37
f 37/37/37 40/40/40 39/39/39
f 43/43/43 42/42/42 41/41/41
f 44/44/44 41/41/41 42/42/42
f 47/47/47 46/46/46 45/45/45
f 48/48/48 46/46/46 47/47/47
f 51/51/51 50/50/50 49/49/49
f 49/49/49 52/52/52 51/51/51
