mtllib SM_StationChairs_LOD5.mtl
g SM_StationChairs_LOD5
#Vertices 20
#Indices 30
#Section 0 Offset 0 NumIndices 30 MaterialIndex 1 MI_Rubber02
v 0.523821 0.725687 0.383821
v -0.023862 0.722471 0.372470
v -0.023609 0.706673 0.035936
v 0.514694 0.698421 0.032205
v 0.521338 1.151101 0.458908
v -0.019057 1.153616 0.469142
v -0.023862 0.722471 0.372470
v 0.523821 0.725687 0.383821
v 1.071338 1.151101 0.458908
v 0.530944 1.153617 0.469142
v 0.546507 0.647119 0.252977
v 1.026996 0.650159 0.261049
v 1.621338 1.151101 0.458908
v 1.080943 1.153617 0.469142
v 1.096507 0.647119 0.252977
v 1.576996 0.650159 0.261049
v 2.171338 1.151101 0.458909
v 1.630943 1.153617 0.469142
v 1.646506 0.647119 0.252977
v 2.126996 0.650159 0.261049
vt 0.264160 0.342773
vt 0.260498 0.263184
vt 0.305420 0.270508
vt 0.306641 0.331055
vt 0.211914 0.333496
vt 0.211670 0.278809
vt 0.263184 0.265137
vt 0.267334 0.344238
vt 0.211914 0.520996
vt 0.211670 0.466309
vt 0.275391 0.454590
vt 0.279053 0.523682
vt 0.333008 0.333496
vt 0.332764 0.278809
vt 0.396484 0.267090
vt 0.400146 0.336426
vt 0.454102 0.333496
vt 0.453857 0.278809
vt 0.517578 0.267090
vt 0.520996 0.336426
vt1 0.458496 0.510254
vt1 0.668457 0.500732
vt1 0.648438 0.619385
vt1 0.489746 0.622803
vt1 0.482666 0.373047
vt1 0.626953 0.372070
vt1 0.662598 0.508057
vt1 0.455322 0.519287
vt1 0.288574 0.356445
vt1 0.289307 0.211426
vt1 0.121277 0.180664
vt1 0.111328 0.362793
vt1 0.498779 0.711426
vt1 0.643066 0.710693
vt1 0.673828 0.878723
vt1 0.492188 0.888672
vt1 0.035004 0.839966
vt1 0.034393 0.695312
vt1 0.202393 0.664551
vt1 0.212280 0.846436
vn 0.000000 1.000000 -0.000000
vn 0.000000 1.000000 -0.000000
vn 0.000000 1.000000 -0.000000
vn 0.000000 1.000000 -0.000000
vn 0.000000 0.188976 -0.984252
vn 0.000000 0.188976 -0.984252
vn 0.000000 0.188976 -0.984252
vn 0.000000 0.188976 -0.984252
vn 0.000000 0.188976 -0.984252
vn 0.000000 0.188976 -0.984252
vn 0.000000 0.188976 -0.984252
vn 0.000000 0.188976 -0.984252
vn 0.000000 0.188976 -0.984252
vn 0.000000 0.188976 -0.984252
vn 0.000000 0.188976 -0.984252
vn 0.000000 0.188976 -0.984252
vn 0.000000 0.188976 -0.984252
vn 0.000000 0.188976 -0.984252
vn 0.000000 0.188976 -0.984252
vn 0.000000 0.188976 -0.984252
tan -0.992126 -0.000000 -0.133858 1.000000
tan -0.976378 0.000000 0.204724 1.000000
tan -1.000000 0.000000 0.023622 1.000000
tan -0.944882 -0.000000 -0.314961 1.000000
tan -0.984252 -0.031000 -0.005952 1.000000
tan -0.922252 -0.348751 -0.066960 1.000000
tan -0.976502 -0.116250 -0.022320 1.000000
tan -0.961002 0.224750 0.043152 1.000000
tan -0.984252 -0.031000 -0.005952 1.000000
tan -0.922252 -0.348751 -0.066960 1.000000
tan -0.984252 -0.046500 -0.008928 1.000000
tan -0.953252 0.248000 0.047616 1.000000
tan -0.984252 -0.031000 -0.005952 1.000000
tan -0.922252 -0.348751 -0.066960 1.000000
tan -0.984252 -0.046500 -0.008928 1.000000
tan -0.953252 0.248000 0.047616 1.000000
tan -0.984252 -0.031000 -0.005952 1.000000
tan -0.922252 -0.348751 -0.066960 1.000000
tan -0.984252 -0.046500 -0.008928 1.000000
tan -0.953252 0.248000 0.047616 1.000000
f 3/3/3 2/2/2 1/1/1
f 4/4/4 3/3/3 1/1/1
f 7/7/7 6/6/6 5/5/5
f 8/8/8 7/7/7 5/5/5
f 11/11/11 10/10/10 9/9/9
f 12/12/12 11/11/11 9/9/9
f 15/15/15 14/14/14 13/13/13
f 16/16/16 15/15/15 13/13/13
f 19/19/19 18/18/18 17/17/17
f 20/20/20 19/19/19 17/17/17
