mtllib SM_StationSign_LOD4.mtl
g SM_StationSign_LOD4
#Vertices 93
#Indices 156
#Section 0 Offset 0 NumIndices 120 MaterialIndex 0 MM_BasicFill
#Section 1 Offset 120 NumIndices 6 MaterialIndex 1 MI_WhiteFillBasic
#Section 2 Offset 126 NumIndices 30 MaterialIndex 2 MI_Brushed_Metal
v 0.297815 -1.542699 -1.836697
v 0.126391 -1.451670 -0.601208
v 0.441487 -1.487105 -0.594327
v 0.333147 -1.439353 -0.644338
v 0.296110 -0.976864 -1.608096
v 0.359371 -0.944699 -1.573990
v 0.424305 -0.938310 -0.617517
v 0.380622 -0.889381 -1.807948
v 0.382543 -0.987788 -1.806207
v 0.253439 -0.937901 -1.812307
v 0.284444 -0.875788 -0.577066
v 0.277955 -0.993522 -0.576329
v 0.441487 -1.487105 -0.594327
v 0.380622 -1.432324 -1.807947
v 0.297815 -1.542699 -1.836697
v 0.296110 -0.976864 -1.608096
v 0.333147 -1.439353 -0.644338
v 0.336487 -1.552431 -0.721626
v 0.021839 -1.535431 -2.608057
v 0.631123 -1.645622 -1.728038
v 0.626927 -1.632371 -2.687714
v 0.047444 -1.503174 -1.803273
v 0.022674 -0.831079 -1.818474
v 0.607766 -0.728636 -2.680086
v 0.622452 -0.747129 -1.727878
v 0.044205 -0.859376 -2.590656
v 0.622452 -0.747129 -1.727878
v 0.047444 -1.503174 -1.803273
v 0.022674 -0.831079 -1.818474
v 0.631123 -1.645622 -1.728038
v 0.359371 -0.944699 -1.573990
v 0.336487 -1.552431 -0.721626
v 0.333147 -1.439353 -0.644338
v 0.296110 -0.976864 -1.608096
v 0.253439 -0.937901 -1.812307
v 0.277955 -0.993522 -0.576329
v 0.382543 -0.987788 -1.806207
v 0.424305 -0.938310 -0.617517
v 0.380622 -1.432324 -1.807947
v 0.441487 -1.487105 -0.594327
v 0.126391 -1.451670 -0.601208
v 0.297815 -1.542699 -1.836697
v 0.380622 -0.889381 -1.807948
v 0.424305 -0.938310 -0.617517
v 0.284444 -0.875788 -0.577066
v 0.253439 -0.937901 -1.812307
v 0.044205 -0.859376 -2.590656
v 0.626927 -1.632371 -2.687714
v 0.607766 -0.728636 -2.680086
v 0.021839 -1.535431 -2.608057
v 0.022674 -0.831079 -1.818474
v 0.047444 -1.503174 -1.803273
v 0.099914 -1.327397 -0.067246
v 0.066663 -0.206065 -0.574559
v 0.088017 -0.281287 -0.069202
v 0.062855 -1.744718 -0.536551
v 0.565453 -0.284800 -0.532554
v 0.575163 -1.740178 -0.514992
v 0.541587 -1.341202 -0.066083
v 0.545601 -0.280318 -0.071839
v 0.685283 -0.170910 0.090291
v 0.565453 -0.284800 -0.532554
v 0.545601 -0.280318 -0.071839
v 0.701227 -0.176968 -0.687371
v 0.066663 -0.206065 -0.574559
v -0.058427 -0.175986 0.063253
v 0.088017 -0.281287 -0.069202
v 0.545601 -0.280318 -0.071839
v 0.685283 -0.170910 0.090291
v 0.062855 -1.744718 -0.536551
v 0.541587 -1.341202 -0.066083
v 0.575163 -1.740178 -0.514992
v 0.099914 -1.327397 -0.067246
v 0.545601 -0.280318 -0.071839
v 0.088017 -0.281287 -0.069202
v 0.607766 -0.728636 -2.680086
v 0.626927 -1.632371 -2.687714
v 0.631123 -1.645622 -1.728038
v 0.622452 -0.747129 -1.727878
v -0.073699 -0.129175 -0.724045
v -0.058427 -0.175986 0.063253
v 0.066663 -0.206065 -0.574559
v 0.701227 -0.176968 -0.687371
v 0.698341 0.327057 0.118656
v 0.701227 -0.176968 -0.687371
v 0.685283 -0.170910 0.090291
v 0.704125 0.327297 -0.725787
v -0.073699 -0.129175 -0.724045
v -0.073250 0.327397 -0.722063
v -0.073269 0.325934 0.099917
v -0.058427 -0.175986 0.063253
v 0.685283 -0.170910 0.090291
v 0.698341 0.327057 0.118656
vt 0.571289 0.425293
vt 0.591797 0.576904
vt 0.556641 0.577393
vt 0.380859 0.672119
vt 0.506836 0.667480
vt 0.505371 0.675049
vt 0.408203 0.701904
vt 0.262207 0.708008
vt 0.262207 0.696045
vt 0.236572 0.672363
vt 0.399902 0.677490
vt 0.386475 0.679932
vt 0.557617 0.577637
vt 0.550293 0.428711
vt 0.563477 0.424805
vt 0.506836 0.689697
vt 0.380859 0.696289
vt 0.382324 0.681152
vt 0.298584 0.477051
vt 0.385986 0.370117
vt 0.390137 0.470215
vt 0.313721 0.356445
vt 0.565918 0.352539
vt 0.488037 0.466309
vt 0.478516 0.363770
vt 0.562012 0.466309
vt 0.483154 0.362305
vt 0.387939 0.294434
vt 0.475342 0.283691
vt 0.375977 0.372070
vt 0.505371 0.675293
vt 0.382324 0.688477
vt 0.380859 0.673340
vt 0.506836 0.682617
vt 0.261475 0.680420
vt 0.413086 0.683350
vt 0.262207 0.696289
vt 0.407959 0.700928
vt 0.550293 0.428711
vt 0.558105 0.577637
vt 0.521973 0.576904
vt 0.537109 0.424805
vt 0.236450 0.699463
vt 0.406494 0.692383
vt 0.412354 0.713135
vt 0.235718 0.717773
vt 0.481445 0.539307
vt 0.384521 0.470215
vt 0.492676 0.466797
vt 0.400879 0.543213
vt 0.492676 0.633301
vt 0.408936 0.640625
vt 0.245483 0.619385
vt 0.153320 0.663330
vt 0.158936 0.619629
vt 0.278809 0.661133
vt 0.162109 0.706787
vt 0.279541 0.699951
vt 0.251465 0.742188
vt 0.164185 0.748047
vt 0.750977 0.137695
vt 0.730957 0.223145
vt 0.730957 0.162109
vt 0.750977 0.219727
vt 0.739258 0.295410
vt 0.750000 0.366699
vt 0.730957 0.366699
vt 0.729980 0.428223
vt 0.751953 0.446777
vt 0.269287 0.610596
vt 0.389160 0.704346
vt 0.272949 0.711182
vt 0.391113 0.617432
vt 0.596680 0.705322
vt 0.596680 0.615234
vt 0.561035 0.400879
vt 0.561035 0.290527
vt 0.680176 0.286621
vt 0.679199 0.397461
vt 0.546875 0.327637
vt 0.584473 0.249512
vt 0.568848 0.326172
vt 0.589844 0.394043
vt 0.676270 0.465820
vt 0.589844 0.392578
vt 0.672363 0.406250
vt 0.554199 0.438965
vt 0.546875 0.327637
vt 0.491943 0.332031
vt 0.540039 0.204590
vt 0.585938 0.250488
vt 0.680176 0.230957
vt 0.654297 0.152344
vt1 0.064087 0.714355
vt1 0.101074 0.997252
vt1 0.037659 0.998268
vt1 0.459717 0.229492
vt1 0.704102 0.221680
vt1 0.700684 0.234863
vt1 0.871094 0.703125
vt1 0.860352 0.430664
vt1 0.881836 0.431152
vt1 0.037567 0.114258
vt1 0.014641 0.388184
vt1 0.002510 0.365723
vt1 0.039429 0.998644
vt1 0.026855 0.720947
vt1 0.050812 0.713379
vt1 0.703613 0.260254
vt1 0.459717 0.271484
vt1 0.462646 0.245117
vt1 -0.001106 0.693359
vt1 0.159668 0.497070
vt1 0.167358 0.680908
vt1 0.026733 0.471680
vt1 0.491211 0.464844
vt1 0.347900 0.673096
vt1 0.330078 0.484863
vt1 0.484375 0.673584
vt1 0.338623 0.483398
vt1 0.163330 0.358398
vt1 0.324219 0.338867
vt1 0.141235 0.500977
vt1 0.700684 0.235352
vt1 0.462402 0.257812
vt1 0.459717 0.231445
vt1 0.704102 0.247559
vt1 0.910156 0.429688
vt1 0.904297 0.712402
vt1 0.881348 0.431152
vt1 0.873047 0.702881
vt1 0.026871 0.720947
vt1 0.040314 0.998435
vt1 -0.024490 0.997284
vt1 0.002876 0.713135
vt1 0.459473 0.177246
vt1 0.733398 0.162598
vt1 0.742676 0.205078
vt1 0.458496 0.214355
vt1 0.335693 0.807251
vt1 0.157104 0.680908
vt1 0.356445 0.673828
vt1 0.187012 0.814331
vt1 0.356201 0.979568
vt1 0.201904 0.992882
vt1 0.746094 0.294922
vt1 0.489746 0.406250
vt1 0.505371 0.295410
vt1 0.838867 0.400879
vt1 0.514160 0.515625
vt1 0.841309 0.498535
vt1 0.762695 0.605713
vt1 0.520020 0.620117
vt1 0.979004 0.273438
vt1 0.942383 0.429688
vt1 0.942871 0.317871
vt1 0.979004 0.423340
vt1 0.957520 0.561768
vt1 0.977051 0.692383
vt1 0.942383 0.692627
vt1 0.940430 0.805298
vt1 0.980957 0.839478
vt1 0.450928 0.049316
vt1 0.342041 0.188477
vt1 0.333984 0.053223
vt1 0.442871 0.190918
vt1 0.340820 0.430176
vt1 0.445557 0.430176
vt1 0.760742 0.283691
vt1 0.760742 0.081543
vt1 0.979004 0.073730
vt1 0.977051 0.277832
vt1 0.651855 0.750854
vt1 0.797363 0.821411
vt1 0.653809 0.792114
vt1 0.527344 0.831543
vt1 0.392822 0.992603
vt1 0.530273 0.830688
vt1 0.503906 0.985237
vt1 0.442871 0.764771
vt1 0.651855 0.750244
vt1 0.643066 0.647705
vt1 0.882324 0.737305
vt1 0.795898 0.824219
vt1 0.832031 0.999874
vt1 0.979492 0.952026
vn 0.000000 -1.000000 0.000000
vn 0.000000 -1.000000 0.000000
vn 0.000000 -1.000000 0.000000
vn 0.000000 0.874016 0.480315
vn 0.000000 0.874016 0.480315
vn 0.000000 0.874016 0.480315
vn 1.000000 0.000000 0.000000
vn 1.000000 0.000000 0.000000
vn 1.000000 0.000000 0.000000
vn -1.000000 0.000000 0.000000
vn -1.000000 0.000000 0.000000
vn -1.000000 0.000000 0.000000
vn 1.000000 0.000000 0.000000
vn 1.000000 0.000000 0.000000
vn 1.000000 0.000000 0.000000
vn -1.000000 0.000000 0.000000
vn -1.000000 0.000000 0.000000
vn -1.000000 0.000000 0.000000
vn -0.448819 -0.834646 -0.322835
vn -0.070866 -0.960630 0.283465
vn -0.062992 -0.913386 -0.393701
vn -0.464567 -0.677165 0.574803
vn -0.440945 0.842520 0.307086
vn -0.086614 0.944882 -0.322835
vn -0.070866 0.921260 0.385827
vn -0.456693 0.771653 -0.440945
vn -0.062992 0.173228 0.984252
vn -0.409449 -0.125984 0.905512
vn -0.440945 0.220473 0.874016
vn -0.039370 -0.118110 0.992126
vn 1.000000 0.000000 0.000000
vn 1.000000 0.000000 0.000000
vn 1.000000 0.000000 0.000000
vn 1.000000 0.000000 0.000000
vn 0.000000 -1.000000 0.000000
vn 0.000000 -1.000000 0.000000
vn 0.000000 -1.000000 0.000000
vn 0.000000 -1.000000 0.000000
vn 0.000000 1.000000 -0.000000
vn 0.000000 1.000000 -0.000000
vn 0.000000 1.000000 -0.000000
vn 0.000000 1.000000 -0.000000
vn 0.000000 1.000000 -0.000000
vn 0.000000 1.000000 -0.000000
vn 0.000000 1.000000 -0.000000
vn 0.000000 1.000000 -0.000000
vn -0.606299 0.251968 -0.755905
vn -0.031496 -0.149606 -0.984252
vn -0.062992 0.196850 -0.976378
vn -0.834646 -0.291339 -0.472441
vn -0.921260 0.236220 0.307087
vn -0.905512 -0.220472 0.354331
vn -0.866142 -0.157480 0.480315
vn -0.787402 0.007874 -0.614173
vn -0.897638 0.000000 0.433071
vn -0.582677 -0.039370 -0.811023
vn 0.708661 -0.007874 -0.700787
vn 0.803150 -0.259843 -0.535433
vn 0.866142 -0.157480 0.480315
vn 0.905512 0.000000 0.425197
vn 0.929134 0.000000 0.377953
vn 0.866142 -0.000000 -0.503937
vn 0.968504 0.000000 0.259842
vn 0.519685 -0.000000 -0.858268
vn -0.700787 -0.000000 -0.708661
vn -0.692913 0.000000 0.716535
vn -0.700787 0.000000 0.716535
vn 0.110236 0.000000 0.992126
vn 0.330709 0.000000 0.944882
vn -0.212598 -0.913386 0.346457
vn 0.204724 -0.291338 0.937008
vn 0.220472 -0.929134 0.291339
vn -0.204724 -0.236220 0.952756
vn 0.228346 0.000000 0.976378
vn -0.228346 0.000000 0.976378
vn 1.000000 0.000000 0.000000
vn 1.000000 0.000000 0.000000
vn 1.000000 0.000000 0.000000
vn 1.000000 0.000000 0.000000
vn -0.535433 -0.748031 -0.385827
vn -0.480315 -0.748031 0.456693
vn -0.133858 -0.771653 -0.622047
vn 0.480315 -0.755905 -0.448819
vn 0.968504 0.000000 0.259842
vn 0.881890 -0.000000 -0.472441
vn 0.952756 0.000000 0.307087
vn 0.574803 -0.000000 -0.818897
vn -0.724409 -0.000000 -0.685039
vn -0.724409 -0.000000 -0.692913
vn -0.724409 0.000000 0.692913
vn -0.732283 0.000000 0.685039
vn 0.196850 0.000000 0.984252
vn 0.204724 0.000000 0.976378
tan 0.000000 -0.000000 -1.000000 1.000000
tan 0.000000 -0.000000 -1.000000 1.000000
tan 0.000000 -0.000000 -1.000000 1.000000
tan -0.881580 0.000000 0.000000 1.000000
tan -0.881580 0.000000 0.000000 1.000000
tan -0.900490 0.000000 0.000000 1.000000
tan 0.000000 -1.000000 0.000000 1.000000
tan 0.000000 -1.000000 0.000000 1.000000
tan 0.000000 -1.000000 0.000000 1.000000
tan 0.000000 1.000000 -0.015748 1.000000
tan 0.000000 0.921260 -0.385827 1.000000
tan 0.000000 0.929134 -0.362205 1.000000
tan 0.000000 -0.000000 -1.000000 1.000000
tan 0.000000 -0.000000 -1.000000 1.000000
tan 0.000000 -0.000000 -1.000000 1.000000
tan 0.000000 -0.874016 -0.480315 1.000000
tan 0.000000 -0.874016 -0.480315 1.000000
tan 0.000000 -0.874016 -0.480315 1.000000
tan 0.310373 -0.469589 0.782566 1.000000
tan -0.173972 0.291835 0.945502 1.000000
tan 0.064728 -0.398165 0.913386 1.000000
tan -0.229586 0.708785 0.649451 1.000000
tan -0.402257 -0.480191 0.739848 1.000000
tan 0.089280 0.328477 0.937442 1.000000
tan -0.087048 -0.389485 0.914006 1.000000
tan 0.289045 0.586149 0.726393 1.000000
tan -0.984252 0.007750 -0.064356 1.000000
tan -0.905512 0.014260 -0.407465 1.000000
tan -0.874016 0.041292 -0.451361 1.000000
tan -0.992126 0.078120 -0.030070 1.000000
tan 0.000000 0.874016 0.480315 1.000000
tan 0.000000 0.874016 0.480315 1.000000
tan 0.000000 0.874016 0.480315 1.000000
tan 0.000000 0.874016 0.480315 1.000000
tan -1.000000 0.000000 0.000000 1.000000
tan -1.000000 0.000000 0.000000 1.000000
tan -1.000000 0.000000 0.000000 1.000000
tan -1.000000 0.000000 0.000000 1.000000
tan 0.000000 -0.000000 -1.000000 1.000000
tan 0.000000 -0.000000 -1.000000 1.000000
tan 0.000000 -0.000000 -1.000000 1.000000
tan 0.000000 -0.000000 -1.000000 1.000000
tan 1.000000 0.000000 0.000000 1.000000
tan 1.000000 0.000000 0.000000 1.000000
tan 1.000000 0.000000 0.000000 1.000000
tan 1.000000 0.000000 0.000000 1.000000
tan 0.775746 0.029884 -0.612251 1.000000
tan 0.984252 0.031000 -0.036208 1.000000
tan 0.961002 0.161448 -0.029450 1.000000
tan 0.486205 -0.031992 -0.839234 1.000000
tan -0.295927 0.045942 -0.923120 1.000000
tan -0.381735 0.124310 -0.898196 1.000000
tan 0.484035 -0.016678 0.867382 1.000000
tan -0.614173 0.000000 0.787401 1.000000
tan 0.433071 0.000000 0.897638 1.000000
tan -0.811334 -0.020956 0.583917 1.000000
tan -0.700911 -0.011160 -0.708661 1.000000
tan -0.551677 -0.037944 -0.809102 1.000000
tan 0.479075 -0.010602 -0.867382 1.000000
tan 0.425197 -0.028520 -0.905512 1.000000
tan -0.377953 0.000000 0.929134 1.000000
tan 0.503937 0.000000 0.866142 1.000000
tan -0.259843 0.000000 0.968504 1.000000
tan 0.858268 0.000000 0.519685 1.000000
tan 0.708661 -0.000000 -0.700787 1.000000
tan -0.716535 -0.000000 -0.692913 1.000000
tan -0.716535 -0.000000 -0.700787 1.000000
tan -0.992126 0.000000 0.110236 1.000000
tan -0.944882 0.000000 0.330709 1.000000
tan -0.907930 0.212598 0.003348 1.000000
tan -0.934714 0.001612 0.204724 1.000000
tan -0.924546 -0.220472 -0.003472 1.000000
tan -0.952756 -0.000000 -0.204724 1.000000
tan -0.976378 0.000000 0.228346 1.000000
tan -0.976378 -0.000000 -0.228346 1.000000
tan 0.000000 -1.000000 0.031496 1.000000
tan 0.000000 -1.000000 -0.023622 1.000000
tan 0.000000 -1.000000 0.015748 1.000000
tan 0.000000 -1.000000 -0.023622 1.000000
tan -0.642135 0.141794 0.616219 1.000000
tan -0.269019 0.613987 0.722735 1.000000
tan -0.002356 -0.619939 0.769545 1.000000
tan -0.717589 -0.615661 0.268957 1.000000
tan 0.022506 -0.968504 -0.083886 1.000000
tan -0.375721 -0.542129 -0.701345 1.000000
tan -0.004836 -0.952756 0.015004 1.000000
tan -0.747969 -0.386447 -0.525017 1.000000
tan -0.685039 -0.021266 0.724409 1.000000
tan -0.692913 -0.028024 0.724409 1.000000
tan 0.660177 0.306033 0.690185 1.000000
tan 0.668857 0.200508 0.714985 1.000000
tan 0.395251 0.899002 -0.079050 1.000000
tan 0.422841 0.876434 -0.088660 1.000000
f 3/3/3 2/2/2 1/1/1
f 6/6/6 5/5/5 4/4/4
f 9/9/9 8/8/8 7/7/7
f 12/12/12 11/11/11 10/10/10
f 15/15/15 14/14/14 13/13/13
f 18/18/18 17/17/17 16/16/16
f 21/21/21 20/20/20 19/19/19
f 22/22/22 19/19/19 20/20/20
f 25/25/25 24/24/24 23/23/23
f 26/26/26 23/23/23 24/24/24
f 29/29/29 28/28/28 27/27/27
f 30/30/30 27/27/27 28/28/28
f 33/33/33 32/32/32 31/31/31
f 34/34/34 31/31/31 32/32/32
f 37/37/37 36/36/36 35/35/35
f 38/38/38 36/36/36 37/37/37
f 41/41/41 40/40/40 39/39/39
f 39/39/39 42/42/42 41/41/41
f 45/45/45 44/44/44 43/43/43
f 43/43/43 46/46/46 45/45/45
f 49/49/49 48/48/48 47/47/47
f 50/50/50 47/47/47 48/48/48
f 50/50/50 51/51/51 47/47/47
f 51/51/51 50/50/50 52/52/52
f 55/55/55 54/54/54 53/53/53
f 54/54/54 56/56/56 53/53/53
f 57/57/57 56/56/56 54/54/54
f 58/58/58 56/56/56 57/57/57
f 57/57/57 59/59/59 58/58/58
f 60/60/60 59/59/59 57/57/57
f 63/63/63 62/62/62 61/61/61
f 62/62/62 64/64/64 61/61/61
f 62/62/62 65/65/65 64/64/64
f 67/67/67 66/66/66 65/65/65
f 67/67/67 68/68/68 66/66/66
f 68/68/68 69/69/69 66/66/66
f 72/72/72 71/71/71 70/70/70
f 73/73/73 70/70/70 71/71/71
f 71/71/71 74/74/74 73/73/73
f 75/75/75 73/73/73 74/74/74
f 78/78/78 77/77/77 76/76/76
f 79/79/79 78/78/78 76/76/76
f 82/82/82 81/81/81 80/80/80
f 82/82/82 80/80/80 83/83/83
f 86/86/86 85/85/85 84/84/84
f 85/85/85 87/87/87 84/84/84
f 85/85/85 88/88/88 87/87/87
f 88/88/88 89/89/89 87/87/87
f 89/89/89 88/88/88 90/90/90
f 91/91/91 90/90/90 88/88/88
f 91/91/91 92/92/92 90/90/90
f 92/92/92 93/93/93 90/90/90
