mtllib SM_StationChairs_LOD3.mtl
g SM_StationChairs_LOD3
#Vertices 77
#Indices 111
#Section 0 Offset 0 NumIndices 90 MaterialIndex 1 MI_Rubber02
#Section 1 Offset 90 NumIndices 21 MaterialIndex 2 MI_Metal_Darkgrey
v 0.521338 1.151101 0.458908
v 0.488858 0.729967 0.358269
v 0.500000 0.612394 0.491444
v 0.514694 0.698421 0.032205
v 0.013212 0.730701 0.360594
v -0.019057 1.153616 0.469142
v 0.000000 0.612394 0.491444
v -0.023609 0.706673 0.035936
v 0.488858 0.729967 0.358269
v 0.013212 0.730701 0.360594
v -0.023609 0.706673 0.035936
v 0.514694 0.698421 0.032205
v 0.521338 1.151101 0.458908
v -0.019057 1.153616 0.469142
v 0.013212 0.730701 0.360594
v 0.488858 0.729967 0.358269
v 0.563212 0.730701 0.360594
v 0.530944 1.153617 0.469142
v 0.550000 0.612394 0.491444
v 0.526391 0.706673 0.035936
v 1.073821 0.725687 0.383821
v 0.563212 0.730701 0.360594
v 0.526391 0.706673 0.035936
v 1.064694 0.698421 0.032205
v 1.071338 1.151101 0.458908
v 0.530944 1.153617 0.469142
v 0.563212 0.730701 0.360594
v 1.073821 0.725687 0.383821
v 1.621338 1.151101 0.458908
v 1.588858 0.729967 0.358269
v 1.600000 0.612394 0.491444
v 1.614694 0.698421 0.032205
v 1.113212 0.730701 0.360594
v 1.080943 1.153617 0.469142
v 1.100000 0.612394 0.491444
v 1.076391 0.706673 0.035936
v 1.588858 0.729967 0.358269
v 1.113212 0.730701 0.360594
v 1.076391 0.706673 0.035936
v 1.614694 0.698421 0.032205
v 1.621338 1.151101 0.458908
v 1.080943 1.153617 0.469142
v 1.113212 0.730701 0.360594
v 1.588858 0.729967 0.358269
v 2.171338 1.151101 0.458909
v 2.138858 0.729967 0.358269
v 2.150000 0.612394 0.491444
v 2.164694 0.698421 0.032205
v 1.663212 0.730701 0.360594
v 1.630943 1.153617 0.469142
v 1.650000 0.612394 0.491444
v 1.626391 0.706673 0.035936
v 2.138858 0.729967 0.358269
v 1.663212 0.730701 0.360594
v 1.626391 0.706673 0.035936
v 2.164694 0.698421 0.032205
v 2.171338 1.151101 0.458909
v 1.630943 1.153617 0.469142
v 1.663212 0.730701 0.360594
v 2.138858 0.729967 0.358269
v 2.152328 0.551665 0.183805
v 0.000000 0.599522 0.184776
v 0.000002 0.477548 0.203449
v 0.639107 0.085420 0.198257
v 0.506182 0.149683 0.300221
v 0.434335 0.062446 -0.007975
v 1.641645 0.126173 0.309332
v 1.506045 0.082076 0.201674
v 1.714173 0.059995 -0.011271
v 1.506045 0.082076 0.201674
v 0.506182 0.149683 0.300221
v 0.639107 0.085420 0.198257
v 1.641645 0.126173 0.309332
v 0.434335 0.062446 -0.007975
v 1.506045 0.082076 0.201674
v 0.639107 0.085420 0.198257
v 1.714173 0.059995 -0.011271
vt 0.239014 0.372070
vt 0.293701 0.370605
vt 0.304688 0.390625
vt 0.306885 0.331543
vt 0.289795 0.230957
vt 0.230347 0.230957
vt 0.301025 0.209473
vt 0.304932 0.272949
vt 0.267090 0.338379
vt 0.262207 0.268555
vt 0.305420 0.270508
vt 0.306641 0.331055
vt 0.211914 0.333496
vt 0.211670 0.278809
vt 0.262695 0.270020
vt 0.267334 0.338867
vt 0.289795 0.418457
vt 0.230347 0.418457
vt 0.301025 0.396973
vt 0.304932 0.460449
vt 0.264160 0.530273
vt 0.262207 0.456055
vt 0.305420 0.458008
vt 0.306641 0.518311
vt 0.211914 0.520996
vt 0.211670 0.466309
vt 0.262695 0.457520
vt 0.267334 0.531494
vt 0.360107 0.372070
vt 0.414795 0.370605
vt 0.425781 0.390625
vt 0.427979 0.331543
vt 0.410889 0.230957
vt 0.351318 0.230957
vt 0.422119 0.209473
vt 0.426025 0.272949
vt 0.388184 0.338379
vt 0.383301 0.268555
vt 0.426514 0.270508
vt 0.427734 0.331055
vt 0.333008 0.333496
vt 0.332764 0.278809
vt 0.383789 0.270020
vt 0.388428 0.338867
vt 0.481201 0.372070
vt 0.535645 0.370605
vt 0.546875 0.390625
vt 0.548828 0.331543
vt 0.531738 0.230957
vt 0.472412 0.230957
vt 0.542969 0.209473
vt 0.546875 0.272949
vt 0.509277 0.338379
vt 0.504395 0.268555
vt 0.547363 0.270508
vt 0.548828 0.331055
vt 0.454102 0.333496
vt 0.453857 0.278809
vt 0.504883 0.270020
vt 0.509277 0.338867
vt 0.833008 0.531494
vt 0.838867 0.262695
vt 0.823730 0.262695
vt 0.779785 0.414062
vt 0.768066 0.437012
vt 0.807617 0.432617
vt 0.767578 0.276855
vt 0.777344 0.301758
vt 0.808105 0.284180
vt 0.693359 0.420898
vt 0.677734 0.534424
vt 0.691895 0.517578
vt 0.681641 0.404785
vt 0.807617 0.432617
vt 0.777832 0.302734
vt 0.780273 0.414551
vt 0.808105 0.284180
vt1 0.382324 0.444336
vt1 0.385254 0.588623
vt1 0.333252 0.617188
vt1 0.488770 0.623291
vt1 0.752930 0.578369
vt1 0.752930 0.421387
vt1 0.809570 0.607422
vt1 0.643066 0.618164
vt1 0.470703 0.518311
vt1 0.653809 0.505615
vt1 0.648438 0.619385
vt1 0.489746 0.622803
vt1 0.482666 0.373047
vt1 0.626953 0.372070
vt1 0.650879 0.506592
vt1 0.468506 0.519043
vt1 0.083008 0.085449
vt1 0.239990 0.085938
vt1 0.053894 0.029297
vt1 0.043335 0.195801
vt1 0.151001 0.380371
vt1 0.155762 0.185059
vt1 0.041992 0.189941
vt1 0.038605 0.349121
vt1 0.288574 0.356445
vt1 0.289307 0.211426
vt1 0.154663 0.187988
vt1 0.142090 0.383301
vt1 0.398438 0.782837
vt1 0.401367 0.927124
vt1 0.349365 0.955750
vt1 0.504883 0.961975
vt1 0.769043 0.916992
vt1 0.769043 0.760010
vt1 0.825684 0.946106
vt1 0.659180 0.956665
vt1 0.486816 0.856934
vt1 0.669922 0.844238
vt1 0.664551 0.958008
vt1 0.505859 0.961395
vt1 0.498779 0.711426
vt1 0.643066 0.710693
vt1 0.666992 0.845337
vt1 0.484619 0.857544
vt1 0.106445 0.940186
vt1 0.250732 0.937195
vt1 0.279297 0.989120
vt1 0.285645 0.833740
vt1 0.240601 0.569336
vt1 0.083618 0.569580
vt1 0.269775 0.512939
vt1 0.280273 0.679688
vt1 0.180542 0.851807
vt1 0.167847 0.668945
vt1 0.281738 0.673828
vt1 0.284912 0.832886
vt1 0.035004 0.839966
vt1 0.034393 0.695312
vt1 0.168945 0.671631
vt1 0.181274 0.854004
vt1 0.938477 0.992695
vt1 0.954102 0.287109
vt1 0.914062 0.287109
vt1 0.458252 0.319336
vt1 0.398193 0.350586
vt1 0.410400 0.244629
vt1 0.819336 0.353027
vt1 0.752930 0.326172
vt1 0.798828 0.243652
vt1 0.371094 0.190430
vt1 0.680176 0.148926
vt1 0.634277 0.186035
vt1 0.326416 0.158691
vt1 0.409424 0.244629
vt1 0.751465 0.325195
vt1 0.457764 0.317871
vt1 0.799316 0.243164
vn 1.000000 0.000000 0.000000
vn 1.000000 0.000000 0.000000
vn 1.000000 0.000000 0.000000
vn 1.000000 0.000000 0.000000
vn -1.000000 0.000000 0.000000
vn -1.000000 0.000000 0.000000
vn -1.000000 0.000000 0.000000
vn -1.000000 0.000000 0.000000
vn 0.000000 1.000000 -0.000000
vn 0.000000 1.000000 -0.000000
vn 0.000000 1.000000 -0.000000
vn 0.000000 1.000000 -0.000000
vn 0.000000 0.188976 -0.984252
vn 0.000000 0.188976 -0.984252
vn 0.000000 0.188976 -0.984252
vn 0.000000 0.188976 -0.984252
vn -1.000000 0.000000 0.000000
vn -1.000000 0.000000 0.000000
vn -1.000000 0.000000 0.000000
vn -1.000000 0.000000 0.000000
vn 0.000000 1.000000 -0.000000
vn 0.000000 1.000000 -0.000000
vn 0.000000 1.000000 -0.000000
vn 0.000000 1.000000 -0.000000
vn 0.000000 0.188976 -0.984252
vn 0.000000 0.188976 -0.984252
vn 0.000000 0.188976 -0.984252
vn 0.000000 0.188976 -0.984252
vn 1.000000 0.000000 0.000000
vn 1.000000 0.000000 0.000000
vn 1.000000 0.000000 0.000000
vn 1.000000 0.000000 0.000000
vn -1.000000 0.000000 0.000000
vn -1.000000 0.000000 0.000000
vn -1.000000 0.000000 0.000000
vn -1.000000 0.000000 0.000000
vn 0.000000 1.000000 -0.000000
vn 0.000000 1.000000 -0.000000
vn 0.000000 1.000000 -0.000000
vn 0.000000 1.000000 -0.000000
vn 0.000000 0.188976 -0.984252
vn 0.000000 0.188976 -0.984252
vn 0.000000 0.188976 -0.984252
vn 0.000000 0.188976 -0.984252
vn 1.000000 0.000000 0.000000
vn 1.000000 0.000000 0.000000
vn 1.000000 0.000000 0.000000
vn 1.000000 0.000000 0.000000
vn -1.000000 0.000000 0.000000
vn -1.000000 0.000000 0.000000
vn -1.000000 0.000000 0.000000
vn -1.000000 0.000000 0.000000
vn 0.000000 1.000000 -0.000000
vn 0.000000 1.000000 -0.000000
vn 0.000000 1.000000 -0.000000
vn 0.000000 1.000000 -0.000000
vn 0.000000 0.188976 -0.984252
vn 0.000000 0.188976 -0.984252
vn 0.000000 0.188976 -0.984252
vn 0.000000 0.188976 -0.984252
vn 0.000000 -0.000000 -1.000000
vn 0.000000 -0.000000 -1.000000
vn 0.000000 -0.000000 -1.000000
vn 0.000000 1.000000 -0.000000
vn 0.000000 1.000000 -0.000000
vn 0.000000 1.000000 -0.000000
vn 0.000000 1.000000 -0.000000
vn 0.000000 1.000000 -0.000000
vn 0.000000 1.000000 -0.000000
vn 0.000000 0.779527 -0.629921
vn 0.000000 0.779527 -0.629921
vn 0.000000 0.779527 -0.629921
vn 0.000000 0.779527 -0.629921
vn 0.000000 1.000000 -0.000000
vn 0.000000 1.000000 -0.000000
vn 0.000000 1.000000 -0.000000
vn 0.000000 1.000000 -0.000000
tan 0.000000 0.220472 -0.976378 1.000000
tan 0.000000 0.220472 -0.976378 1.000000
tan 0.000000 0.220472 -0.976378 1.000000
tan 0.000000 0.220472 -0.976378 1.000000
tan 0.000000 -0.259842 0.968504 1.000000
tan 0.000000 -0.259842 0.968504 1.000000
tan 0.000000 -0.259842 0.968504 1.000000
tan 0.000000 -0.259842 0.968504 1.000000
tan -0.992126 -0.000000 -0.125984 1.000000
tan -0.984252 0.000000 0.181102 1.000000
tan -1.000000 0.000000 0.023622 1.000000
tan -0.944882 -0.000000 -0.314961 1.000000
tan -0.984252 -0.031000 -0.005952 1.000000
tan -0.922252 -0.348751 -0.066960 1.000000
tan -0.976502 -0.093000 -0.017856 1.000000
tan -0.961002 0.193750 0.037200 1.000000
tan 0.000000 -0.259842 0.968504 1.000000
tan 0.000000 -0.259842 0.968504 1.000000
tan 0.000000 -0.259842 0.968504 1.000000
tan 0.000000 -0.259842 0.968504 1.000000
tan -0.992126 -0.000000 -0.133858 1.000000
tan -0.984252 0.000000 0.181102 1.000000
tan -1.000000 0.000000 0.023622 1.000000
tan -0.944882 -0.000000 -0.314961 1.000000
tan -0.984252 -0.031000 -0.005952 1.000000
tan -0.922252 -0.348751 -0.066960 1.000000
tan -0.976502 -0.093000 -0.017856 1.000000
tan -0.961002 0.224750 0.043152 1.000000
tan 0.000000 0.220472 -0.976378 1.000000
tan 0.000000 0.220472 -0.976378 1.000000
tan 0.000000 0.220472 -0.976378 1.000000
tan 0.000000 0.220472 -0.976378 1.000000
tan 0.000000 -0.259842 0.968504 1.000000
tan 0.000000 -0.259842 0.968504 1.000000
tan 0.000000 -0.259842 0.968504 1.000000
tan 0.000000 -0.259842 0.968504 1.000000
tan -0.992126 -0.000000 -0.125984 1.000000
tan -0.984252 0.000000 0.181102 1.000000
tan -1.000000 0.000000 0.023622 1.000000
tan -0.944882 -0.000000 -0.314961 1.000000
tan -0.984252 -0.031000 -0.005952 1.000000
tan -0.922252 -0.348751 -0.066960 1.000000
tan -0.976502 -0.093000 -0.017856 1.000000
tan -0.961002 0.193750 0.037200 1.000000
tan 0.000000 0.220472 -0.976378 1.000000
tan 0.000000 0.220472 -0.976378 1.000000
tan 0.000000 0.220472 -0.976378 1.000000
tan 0.000000 0.220472 -0.976378 1.000000
tan 0.000000 -0.259842 0.968504 1.000000
tan 0.000000 -0.259842 0.968504 1.000000
tan 0.000000 -0.259842 0.968504 1.000000
tan 0.000000 -0.259842 0.968504 1.000000
tan -0.992126 -0.000000 -0.125984 1.000000
tan -0.984252 0.000000 0.181102 1.000000
tan -1.000000 0.000000 0.023622 1.000000
tan -0.944882 -0.000000 -0.314961 1.000000
tan -0.984252 -0.031000 -0.005952 1.000000
tan -0.922252 -0.348751 -0.066960 1.000000
tan -0.976502 -0.093000 -0.017856 1.000000
tan -0.961002 0.193750 0.037200 1.000000
tan -1.000000 0.000000 0.000000 1.000000
tan -1.000000 0.000000 0.000000 1.000000
tan -1.000000 0.000000 0.000000 1.000000
tan 0.937008 -0.000000 -0.346457 1.000000
tan 0.944882 -0.000000 -0.338583 1.000000
tan 0.929134 -0.000000 -0.362205 1.000000
tan 0.929134 0.000000 0.377953 1.000000
tan 0.921260 0.000000 0.377953 1.000000
tan 0.921260 0.000000 0.385827 1.000000
tan 0.911588 0.148800 0.184140 1.000000
tan 0.596379 -0.471201 -0.583111 1.000000
tan 0.816914 -0.312481 -0.386695 1.000000
tan 0.815736 0.322401 0.398971 1.000000
tan 0.984252 -0.000000 -0.181102 1.000000
tan 0.976378 0.000000 0.212598 1.000000
tan 0.952756 -0.000000 -0.307087 1.000000
tan 0.960630 0.000000 0.267716 1.000000
f 3/3/3 2/2/2 1/1/1
f 3/3/3 4/4/4 2/2/2
f 7/7/7 6/6/6 5/5/5
f 5/5/5 8/8/8 7/7/7
f 11/11/11 10/10/10 9/9/9
f 12/12/12 11/11/11 9/9/9
f 15/15/15 14/14/14 13/13/13
f 16/16/16 15/15/15 13/13/13
f 19/19/19 18/18/18 17/17/17
f 17/17/17 20/20/20 19/19/19
f 23/23/23 22/22/22 21/21/21
f 24/24/24 23/23/23 21/21/21
f 27/27/27 26/26/26 25/25/25
f 28/28/28 27/27/27 25/25/25
f 31/31/31 30/30/30 29/29/29
f 31/31/31 32/32/32 30/30/30
f 35/35/35 34/34/34 33/33/33
f 33/33/33 36/36/36 35/35/35
f 39/39/39 38/38/38 37/37/37
f 40/40/40 39/39/39 37/37/37
f 43/43/43 42/42/42 41/41/41
f 44/44/44 43/43/43 41/41/41
f 47/47/47 46/46/46 45/45/45
f 47/47/47 48/48/48 46/46/46
f 51/51/51 50/50/50 49/49/49
f 49/49/49 52/52/52 51/51/51
f 55/55/55 54/54/54 53/53/53
f 56/56/56 55/55/55 53/53/53
f 59/59/59 58/58/58 57/57/57
f 60/60/60 59/59/59 57/57/57
f 63/63/63 62/62/62 61/61/61
f 66/66/66 65/65/65 64/64/64
f 69/69/69 68/68/68 67/67/67
f 72/72/72 71/71/71 70/70/70
f 73/73/73 70/70/70 71/71/71
f 76/76/76 75/75/75 74/74/74
f 77/77/77 74/74/74 75/75/75
