mtllib SM_StationMachine_LOD4.mtl
g SM_StationMachine_LOD4
#Vertices 44
#Indices 60
#Section 0 Offset 0 NumIndices 48 MaterialIndex 0 MM_BasicFill
#Section 1 Offset 48 NumIndices 6 MaterialIndex 2 MI_Brushed_Metal
#Section 2 Offset 54 NumIndices 6 MaterialIndex 1 MI_EmissiveB02
v -0.356161 1.190543 0.814726
v -0.614714 0.316740 0.977455
v -0.797385 1.157013 0.795350
v -0.614714 0.316740 0.977455
v -0.297975 0.189599 0.086823
v -0.013556 -0.109052 1.024350
v -0.827321 1.803776 0.150547
v -0.793149 1.185327 0.141804
v -0.392194 1.178659 0.137116
v -0.399498 2.150829 0.127082
v -0.392194 1.178659 0.137116
v -0.781419 0.071560 0.134577
v -0.297975 0.189599 0.086823
v -0.793149 1.185327 0.141804
v -0.822742 1.805205 0.832783
v -0.399498 2.150829 0.127082
v -0.410387 2.077817 0.814343
v -0.827321 1.803776 0.150547
v -0.356161 1.190543 0.814726
v -0.797385 1.157013 0.795350
v -0.822742 1.805205 0.832783
v -0.410387 2.077817 0.814343
v -0.827321 1.803776 0.150547
v -0.822742 1.805205 0.832783
v -0.797385 1.157013 0.795350
v -0.793149 1.185327 0.141804
v -0.356161 1.190543 0.814726
v -0.297975 0.189599 0.086823
v -0.614714 0.316740 0.977455
v -0.392194 1.178659 0.137116
v -0.793149 1.185327 0.141804
v -0.797385 1.157013 0.795350
v -0.781419 0.071560 0.134577
v -0.614714 0.316740 0.977455
v -0.013556 -0.109052 1.024350
v -1.070164 -0.188754 0.977145
v -0.614714 0.316740 0.977455
v -0.781419 0.071560 0.134577
v -0.614714 0.316740 0.977455
v -1.070164 -0.188754 0.977145
v -0.410387 2.077817 0.814343
v -0.399498 2.150829 0.127082
v -0.392194 1.178659 0.137116
v -0.356161 1.190543 0.814726
vt 0.585449 0.744873
vt 0.616699 0.634766
vt 0.639648 0.740723
vt 0.494629 0.515137
vt 0.454590 0.632568
vt 0.406006 0.521729
vt 0.364746 0.421387
vt 0.284424 0.417969
vt 0.286377 0.366211
vt 0.407471 0.366211
vt 0.691406 0.294434
vt 0.553711 0.343750
vt 0.568848 0.284180
vt 0.692383 0.343750
vt 0.362793 0.499023
vt 0.428223 0.416504
vt 0.421875 0.497070
vt 0.360840 0.418945
vt 0.287354 0.562500
vt 0.281982 0.503906
vt 0.366455 0.496582
vt 0.405762 0.549561
vt 0.361328 0.418945
vt 0.363037 0.498535
vt 0.284668 0.496582
vt 0.288574 0.416992
vt 0.582520 0.546387
vt 0.453125 0.642578
vt 0.470215 0.516846
vt 0.581055 0.624512
vt 0.692871 0.334961
vt 0.689453 0.416016
vt 0.554688 0.333008
vt 0.583496 0.438965
vt 0.561523 0.570801
vt 0.692871 0.560547
vt 0.634766 0.618164
vt 0.500488 0.399902
vt 0.577637 0.480469
vt 0.496826 0.506836
vt 0.558594 0.515137
vt 0.549805 0.429688
vt 0.670898 0.430664
vt 0.669434 0.515381
vt1 0.625000 0.386230
vt1 0.889160 0.311523
vt1 0.635742 0.256348
vt1 0.779297 0.729248
vt1 0.684082 0.445312
vt1 0.568359 0.713135
vt1 0.231445 0.684570
vt1 0.038971 0.675537
vt1 0.043701 0.552002
vt1 0.333984 0.551758
vt1 0.654297 0.670410
vt1 0.771973 0.999513
vt1 0.629883 0.963684
vt1 0.771973 0.667969
vt1 0.226807 0.869995
vt1 0.383545 0.672607
vt1 0.368164 0.866211
vt1 0.222168 0.678223
vt1 0.045593 1.022766
vt1 0.032959 0.882446
vt1 0.235596 0.864014
vt1 0.329590 0.992111
vt1 0.223145 0.678711
vt1 0.227173 0.869141
vt1 0.039459 0.864746
vt1 0.048462 0.673828
vt1 0.988281 0.653809
vt1 0.680664 0.421387
vt1 0.721680 0.724609
vt1 0.984863 0.464844
vt1 0.750488 0.666992
vt1 0.944824 0.675293
vt1 0.746094 0.997211
vt1 0.999512 0.928833
vt1 0.586914 -0.007812
vt1 0.611328 0.306641
vt1 0.474121 0.167480
vt1 0.518555 0.555176
vt1 0.703125 0.359863
vt1 0.510254 0.294922
vt1 0.226318 0.310547
vt1 0.430664 0.331543
vt1 0.427734 0.042480
vt1 0.225708 0.045410
vn 0.000000 0.000000 1.000000
vn 0.000000 0.000000 1.000000
vn 0.000000 0.000000 1.000000
vn 0.535433 0.842520 -0.000000
vn 0.535433 0.842520 -0.000000
vn 0.535433 0.842520 -0.000000
vn 0.000000 -0.000000 -1.000000
vn 0.000000 -0.000000 -1.000000
vn 0.000000 -0.000000 -1.000000
vn 0.000000 -0.000000 -1.000000
vn 0.000000 -0.000000 -1.000000
vn 0.000000 -0.000000 -1.000000
vn 0.000000 -0.000000 -1.000000
vn 0.000000 -0.000000 -1.000000
vn -0.708661 0.708661 -0.000000
vn -0.708661 0.708661 -0.000000
vn -0.708661 0.708661 -0.000000
vn -0.708661 0.708661 -0.000000
vn 0.000000 0.000000 1.000000
vn 0.000000 0.000000 1.000000
vn 0.000000 0.000000 1.000000
vn 0.000000 0.000000 1.000000
vn -1.000000 0.000000 0.000000
vn -1.000000 0.000000 0.000000
vn -1.000000 0.000000 0.000000
vn -1.000000 0.000000 0.000000
vn 1.000000 0.000000 0.000000
vn 1.000000 0.000000 0.000000
vn 1.000000 0.000000 0.000000
vn 1.000000 0.000000 0.000000
vn -1.000000 -0.015748 0.000000
vn -1.000000 -0.015748 0.000000
vn -1.000000 -0.015748 0.000000
vn -1.000000 -0.015748 0.000000
vn 0.000000 0.354331 0.937008
vn 0.000000 0.354331 0.937008
vn 0.000000 0.354331 0.937008
vn -0.614173 0.787401 -0.000000
vn -0.614173 0.787401 -0.000000
vn -0.614173 0.787401 -0.000000
vn 1.000000 0.000000 0.000000
vn 1.000000 0.000000 0.000000
vn 1.000000 0.000000 0.000000
vn 1.000000 0.000000 0.000000
tan 0.007874 -1.000000 0.000000 1.000000
tan 0.007874 -1.000000 0.000000 1.000000
tan 0.007874 -1.000000 0.000000 1.000000
tan -0.683303 0.434249 0.507781 1.000000
tan 0.630231 -0.400521 0.569905 1.000000
tan -0.510819 0.324633 0.670035 1.000000
tan 1.000000 0.000000 0.000000 1.000000
tan 1.000000 0.015748 -0.000000 1.000000
tan 1.000000 0.007874 -0.000000 1.000000
tan 1.000000 0.015748 -0.000000 1.000000
tan 1.000000 0.007874 -0.000000 1.000000
tan 1.000000 0.007874 -0.000000 1.000000
tan 1.000000 0.007874 -0.000000 1.000000
tan 1.000000 0.007874 -0.000000 1.000000
tan -0.044640 -0.044640 -1.004402 1.000000
tan -0.027900 -0.027900 -1.004402 1.000000
tan -0.055800 -0.055800 -1.004402 1.000000
tan -0.005580 -0.005580 -1.004402 1.000000
tan -1.000000 0.047244 -0.000000 1.000000
tan -1.000000 0.047244 -0.000000 1.000000
tan -1.000000 0.047244 -0.000000 1.000000
tan -1.000000 0.047244 -0.000000 1.000000
tan 0.000000 0.007874 -1.000000 1.000000
tan 0.000000 0.047244 -1.000000 1.000000
tan 0.000000 0.007874 -1.000000 1.000000
tan 0.000000 -0.023622 -1.000000 1.000000
tan 0.000000 0.031496 1.000000 1.000000
tan 0.000000 0.000000 1.000000 1.000000
tan 0.000000 -0.102362 0.992126 1.000000
tan 0.000000 0.118110 0.992126 1.000000
tan 0.000000 -0.000000 -1.000000 1.000000
tan 0.000000 -0.000000 -1.000000 1.000000
tan 0.000000 -0.000000 -1.000000 1.000000
tan 0.000000 -0.000000 -1.000000 1.000000
tan -0.007378 -0.937008 0.354331 1.000000
tan -0.007378 -0.937008 0.354331 1.000000
tan 0.000000 -0.937008 0.354331 1.000000
tan 0.781202 0.609337 -0.122636 1.000000
tan 0.775002 0.604501 -0.136400 1.000000
tan 0.694401 0.541633 -0.425197 1.000000
tan 0.000000 -0.000000 -1.000000 1.000000
tan 0.000000 -0.000000 -1.000000 1.000000
tan 0.000000 -0.000000 -1.000000 1.000000
tan 0.000000 -0.000000 -1.000000 1.000000
f 3/3/3 2/2/2 1/1/1
f 6/6/6 5/5/5 4/4/4
f 9/9/9 8/8/8 7/7/7
f 10/10/10 9/9/9 7/7/7
f 13/13/13 12/12/12 11/11/11
f 14/14/14 11/11/11 12/12/12
f 17/17/17 16/16/16 15/15/15
f 18/18/18 15/15/15 16/16/16
f 21/21/21 20/20/20 19/19/19
f 22/22/22 21/21/21 19/19/19
f 25/25/25 24/24/24 23/23/23
f 26/26/26 25/25/25 23/23/23
f 29/29/29 28/28/28 27/27/27
f 30/30/30 27/27/27 28/28/28
f 33/33/33 32/32/32 31/31/31
f 33/33/33 34/34/34 32/32/32
f 37/37/37 36/36/36 35/35/35
f 40/40/40 39/39/39 38/38/38
f 43/43/43 42/42/42 41/41/41
f 44/44/44 43/43/43 41/41/41
