mtllib SM_SignBigSquare_LOD2.mtl
g SM_SignBigSquare_LOD2
#Vertices 40
#Indices 54
#Section 0 Offset 0 NumIndices 24 MaterialIndex 0 MI_Brushed_Metal
#Section 1 Offset 24 NumIndices 30 MaterialIndex 1 MI_WhiteFillBasic
v 0.008818 0.434719 0.401985
v -0.414210 -0.248255 -0.130053
v 0.308042 0.148723 -0.610157
v 0.008818 0.434719 0.401985
v 0.308042 0.148723 -0.610157
v -0.414210 -0.248255 -0.130053
v 1.496100 0.237120 0.582003
v -1.499784 0.386624 0.821402
v 1.500039 0.531008 0.575398
v -1.500051 0.238419 -0.133176
v 1.502346 0.402136 -0.391512
v -1.496253 0.532249 -0.138317
v 1.502346 0.402136 -0.391512
v -1.500051 0.238419 -0.133176
v 1.496100 0.237120 0.582003
v -1.499784 0.386624 0.821402
v -1.496253 0.532249 -0.138317
v 1.500039 0.531008 0.575398
v -1.499784 0.386624 0.821402
v 1.502346 0.402136 -0.391512
v -1.517297 3.478487 -0.314175
v 1.508206 0.519048 -0.317986
v 1.529114 3.467478 -0.301432
v -1.521821 0.525426 -0.310476
v 1.500000 3.499999 0.684012
v -1.500000 3.499999 0.684012
v -1.517297 3.478487 -0.314175
v 1.529114 3.467478 -0.301432
v -1.517297 3.478487 -0.314175
v -1.500000 3.499999 0.684012
v -1.500000 0.500000 0.684012
v -1.521821 0.525426 -0.310476
v 1.529114 3.467478 -0.301432
v 1.500000 0.500000 0.684012
v 1.500000 3.499999 0.684012
v 1.508206 0.519048 -0.317986
v 1.508206 0.519048 -0.317986
v -1.521821 0.525426 -0.310476
v -1.500000 0.500000 0.684012
v 1.500000 0.500000 0.684012
vt 0.095459 0.484375
vt 0.189941 0.511719
vt 0.164551 0.600098
vt 0.073181 0.699951
vt 0.187500 0.628174
vt 0.165894 0.720947
vt 0.640137 0.895081
vt 0.658691 0.520752
vt 0.676758 0.895569
vt 0.167358 0.904541
vt 0.542480 0.924500
vt 0.167847 0.941254
vt 0.578125 0.520264
vt 0.545410 0.895569
vt 0.456299 0.520996
vt 0.426270 0.895569
vt 0.635254 0.520996
vt 0.545898 0.895569
vt 0.515137 0.520752
vt 0.666992 0.895874
vt 0.204590 0.083008
vt 0.574219 0.461426
vt 0.205933 0.463867
vt 0.573730 0.082520
vt 0.083618 0.460449
vt 0.083618 0.085449
vt 0.208374 0.083008
vt 0.206787 0.463867
vt 0.826660 0.457520
vt 0.702148 0.460449
vt 0.702148 0.085449
vt 0.826172 0.088379
vt 0.336670 0.838257
vt 0.459961 0.467285
vt 0.459961 0.842285
vt 0.334717 0.469727
vt 0.569824 0.461426
vt 0.570801 0.082520
vt 0.694824 0.085449
vt 0.694824 0.460449
vt1 0.023285 0.172852
vt1 0.144409 0.208008
vt1 0.111877 0.321289
vt1 -0.005280 0.449219
vt1 0.141235 0.357422
vt1 0.113586 0.476074
vt1 0.833008 0.491699
vt1 0.856934 0.011719
vt1 0.879883 0.492188
vt1 0.960449 0.011719
vt1 0.935059 0.492676
vt1 0.913574 0.012207
vt1 0.852051 0.011230
vt1 0.810547 0.492188
vt1 0.696289 0.012207
vt1 0.657715 0.492188
vt1 0.924316 0.512207
vt1 0.810059 0.991943
vt1 0.770508 0.511475
vt1 0.964844 0.992332
vt1 0.162964 0.508789
vt1 0.636719 0.993252
vt1 0.164795 0.996599
vt1 0.635742 0.508057
vt1 0.008064 0.991936
vt1 0.008064 0.511475
vt1 0.167969 0.508789
vt1 0.165894 0.996599
vt1 0.684082 0.488770
vt1 0.523926 0.492188
vt1 0.523926 0.011719
vt1 0.683105 0.015625
vt1 0.348877 0.486816
vt1 0.506836 0.011719
vt1 0.506836 0.492188
vt1 0.346436 0.014648
vt1 0.630859 0.993240
vt1 0.632324 0.508057
vt1 0.791504 0.511475
vt1 0.791504 0.991936
vn 0.000000 1.000000 -0.000000
vn 0.000000 1.000000 -0.000000
vn 0.000000 1.000000 -0.000000
vn 1.000000 0.000000 0.000000
vn 1.000000 0.000000 0.000000
vn 1.000000 0.000000 0.000000
vn 0.000000 0.000000 1.000000
vn 0.000000 0.000000 1.000000
vn 0.000000 0.000000 1.000000
vn 0.000000 -0.000000 -1.000000
vn 0.000000 -0.000000 -1.000000
vn 0.000000 -0.000000 -1.000000
vn 0.000000 -1.000000 0.000000
vn 0.000000 -1.000000 0.000000
vn 0.000000 -1.000000 0.000000
vn 0.000000 -1.000000 0.000000
vn 0.000000 1.000000 -0.000000
vn 0.000000 1.000000 -0.000000
vn 0.000000 1.000000 -0.000000
vn 0.000000 1.000000 -0.000000
vn 0.000000 -0.000000 -1.000000
vn 0.000000 -0.000000 -1.000000
vn 0.000000 -0.000000 -1.000000
vn 0.000000 -0.000000 -1.000000
vn 0.000000 1.000000 -0.000000
vn 0.000000 1.000000 -0.000000
vn 0.000000 1.000000 -0.000000
vn 0.000000 1.000000 -0.000000
vn -1.000000 0.000000 0.000000
vn -1.000000 0.000000 0.000000
vn -1.000000 0.000000 0.000000
vn -1.000000 0.000000 0.000000
vn 1.000000 0.000000 0.000000
vn 1.000000 0.000000 0.000000
vn 1.000000 0.000000 0.000000
vn 1.000000 0.000000 0.000000
vn 0.000000 -1.000000 0.000000
vn 0.000000 -1.000000 0.000000
vn 0.000000 -1.000000 0.000000
vn 0.000000 -1.000000 0.000000
tan -0.685039 0.000000 0.732283 1.000000
tan -0.685039 0.000000 0.732283 1.000000
tan -0.685039 0.000000 0.732283 1.000000
tan 0.000000 0.708661 -0.700787 1.000000
tan 0.000000 0.708661 -0.708661 1.000000
tan 0.000000 0.708661 -0.700787 1.000000
tan -1.000000 0.000000 0.000000 1.000000
tan -1.000000 0.000000 0.000000 1.000000
tan -1.000000 0.000000 0.000000 1.000000
tan 0.000000 -1.000000 0.000000 1.000000
tan 0.000000 -1.000000 0.000000 1.000000
tan 0.000000 -1.000000 0.000000 1.000000
tan 1.000000 0.000000 0.000000 1.000000
tan 1.000000 0.000000 0.000000 1.000000
tan 1.000000 0.000000 0.000000 1.000000
tan 1.000000 0.000000 0.000000 1.000000
tan -1.000000 0.000000 0.000000 1.000000
tan -1.000000 0.000000 0.000000 1.000000
tan -1.000000 0.000000 0.000000 1.000000
tan -1.000000 0.000000 0.000000 1.000000
tan -1.000000 0.000000 0.000000 1.000000
tan -1.000000 0.000000 0.000000 1.000000
tan -1.000000 0.000000 0.000000 1.000000
tan -1.000000 0.000000 0.000000 1.000000
tan -1.000000 0.000000 0.000000 1.000000
tan -1.000000 0.000000 0.000000 1.000000
tan -1.000000 0.000000 0.000000 1.000000
tan -1.000000 0.000000 0.000000 1.000000
tan 0.000000 -1.000000 0.000000 1.000000
tan 0.000000 -1.000000 0.000000 1.000000
tan 0.000000 -1.000000 0.000000 1.000000
tan 0.000000 -1.000000 0.000000 1.000000
tan 0.000000 -1.000000 0.000000 1.000000
tan 0.000000 -1.000000 0.000000 1.000000
tan 0.000000 -1.000000 0.000000 1.000000
tan 0.000000 -1.000000 0.000000 1.000000
tan -1.000000 0.000000 0.000000 1.000000
tan -1.000000 0.000000 0.000000 1.000000
tan -1.000000 0.000000 0.000000 1.000000
tan -1.000000 0.000000 0.000000 1.000000
f 3/3/3 2/2/2 1/1/1
f 6/6/6 5/5/5 4/4/4
f 9/9/9 8/8/8 7/7/7
f 12/12/12 11/11/11 10/10/10
f 15/15/15 14/14/14 13/13/13
f 16/16/16 14/14/14 15/15/15
f 19/19/19 18/18/18 17/17/17
f 20/20/20 17/17/17 18/18/18
f 23/23/23 22/22/22 21/21/21
f 24/24/24 21/21/21 22/22/22
f 27/27/27 26/26/26 25/25/25
f 28/28/28 27/27/27 25/25/25
f 31/31/31 30/30/30 29/29/29
f 32/32/32 31/31/31 29/29/29
f 35/35/35 34/34/34 33/33/33
f 33/33/33 34/34/34 36/36/36
f 39/39/39 38/38/38 37/37/37
f 40/40/40 39/39/39 37/37/37
