mtllib SM_StationBeam_LOD5.mtl
g SM_StationBeam_LOD5
#Vertices 16
#Indices 18
#Section 0 Offset 0 NumIndices 18 MaterialIndex 1 MI_Brushed_Metal
v 0.137814 0.474833 -0.080487
v 0.230460 -4.063128 -0.408144
v 0.357649 0.094550 -0.679227
v 0.357649 0.094550 -0.679227
v 0.582115 -3.971758 -0.419780
v 0.492157 0.516108 -0.157641
v 0.492157 0.516108 -0.157641
v 0.137814 0.474833 -0.080487
v 0.357649 0.094550 -0.679227
v 0.357649 0.094550 -0.679227
v 0.230460 -4.063128 -0.408144
v 0.126245 -0.111498 0.000001
v 0.373757 -0.111498 0.000001
v 0.373757 -3.999378 -0.126245
v 0.357649 0.094550 -0.679227
v 0.582115 -3.971758 -0.419780
vt 0.430176 0.056641
vt 0.379150 0.584717
vt 0.355957 0.103027
vt 0.846680 0.437988
vt 0.883301 -0.035156
vt 0.912109 0.488281
vt 0.573242 0.610107
vt 0.555176 0.624756
vt 0.569336 0.570312
vt 1.019531 0.458008
vt 0.986816 0.964569
vt 0.941406 0.484375
vt 0.941406 0.436035
vt 0.959961 -0.038086
vt 1.023438 0.461914
vt 1.000000 -0.035156
vt1 0.650391 0.241699
vt1 0.580078 0.998590
vt1 0.548828 0.307617
vt1 0.840332 0.211914
vt1 0.890625 0.890137
vt1 0.930664 0.139648
vt1 0.474854 0.531982
vt1 0.449707 0.552734
vt1 0.469971 0.476562
vt1 0.260986 0.274902
vt1 0.215454 1.000544
vt1 0.153198 0.312012
vt1 0.008064 0.963715
vt1 0.033508 0.284180
vt1 0.120728 1.000617
vt1 0.088196 0.288574
vn -1.000000 0.000000 0.000000
vn -1.000000 0.000000 0.000000
vn -1.000000 0.000000 0.000000
vn 1.000000 0.000000 0.000000
vn 1.000000 0.000000 0.000000
vn 1.000000 0.000000 0.000000
vn 0.000000 1.000000 -0.000000
vn 0.000000 1.000000 -0.000000
vn 0.000000 1.000000 -0.000000
vn 1.000000 0.000000 0.000000
vn 1.000000 0.000000 0.000000
vn 1.000000 0.000000 0.000000
vn -1.000000 0.000000 0.000000
vn -1.000000 0.000000 0.000000
vn -1.000000 0.000000 0.000000
vn -1.000000 0.000000 0.000000
tan 0.000000 1.000000 0.023622 1.000000
tan 0.000000 1.000000 -0.000000 1.000000
tan 0.000000 1.000000 0.015748 1.000000
tan 0.000000 -1.000000 -0.015748 1.000000
tan 0.000000 -1.000000 0.000000 1.000000
tan 0.000000 -1.000000 -0.015748 1.000000
tan 0.000000 -0.000000 -1.000000 1.000000
tan 0.000000 -0.000000 -1.000000 1.000000
tan 0.000000 -0.000000 -1.000000 1.000000
tan 0.000000 1.000000 -0.007874 1.000000
tan 0.000000 1.000000 -0.007874 1.000000
tan 0.000000 1.000000 -0.007874 1.000000
tan 0.000000 -1.000000 0.007874 1.000000
tan 0.000000 -1.000000 0.007874 1.000000
tan 0.000000 -1.000000 0.007874 1.000000
tan 0.000000 -1.000000 0.007874 1.000000
f 3/3/3 2/2/2 1/1/1
f 6/6/6 5/5/5 4/4/4
f 9/9/9 8/8/8 7/7/7
f 12/12/12 11/11/11 10/10/10
f 15/15/15 14/14/14 13/13/13
f 16/16/16 14/14/14 15/15/15
