mtllib SM_StationBeam_LOD4.mtl
g SM_StationBeam_LOD4
#Vertices 25
#Indices 33
#Section 0 Offset 0 NumIndices 33 MaterialIndex 1 MI_Brushed_Metal
v 0.492157 0.516108 -0.157641
v 0.080699 0.735066 -0.060322
v 0.357649 0.094550 -0.679227
v 0.492157 0.516108 -0.157641
v 0.574374 0.865314 -3.707924
v -0.108979 0.816457 -3.734817
v 0.492157 0.516108 -0.157641
v -0.108979 0.816457 -3.734817
v 0.080699 0.735066 -0.060322
v 0.080699 0.735066 -0.060322
v -0.045707 -4.004607 -0.663656
v 0.357649 0.094550 -0.679227
v 0.000000 -3.999378 0.000001
v 0.357649 0.094550 -0.679227
v 0.543705 -4.006996 -0.665704
v 0.492157 0.516108 -0.157641
v 0.500002 -3.999378 0.000001
v 0.357649 0.094550 -0.679227
v 0.126245 -3.999378 -0.126245
v 0.126245 -0.111498 0.000001
v -0.045707 -4.004607 -0.663656
v 0.373757 -0.111498 0.000001
v 0.373757 -3.999378 -0.126245
v 0.357649 0.094550 -0.679227
v 0.543705 -4.006996 -0.665704
vt 0.573242 0.610107
vt 0.548828 0.641113
vt 0.569336 0.570312
vt 0.450684 1.066284
vt 0.438477 0.622070
vt 0.520508 0.617920
vt 0.421143 0.074707
vt -0.041107 -0.009766
vt 0.434570 0.024902
vt 0.434082 0.026855
vt 0.364502 0.580566
vt 0.355957 0.103027
vt 0.442627 0.579834
vt 0.846680 0.437988
vt 0.854004 -0.039062
vt 0.912109 0.488281
vt 0.932617 -0.038086
vt 1.019531 0.458008
vt 0.959473 0.958557
vt 0.941406 0.484375
vt 1.024414 0.958862
vt 0.941406 0.436035
vt 0.959961 -0.038086
vt 1.023438 0.461914
vt 1.025391 -0.038086
vt1 0.474854 0.531982
vt1 0.440674 0.575684
vt1 0.469971 0.476562
vt1 0.296387 1.031281
vt1 0.279297 0.408203
vt1 0.394531 0.402344
vt1 0.638184 0.267578
vt1 0.003801 0.146484
vt1 0.656738 0.196289
vt1 0.655762 0.198730
vt1 0.560059 0.992729
vt1 0.548828 0.307617
vt1 0.667480 0.991661
vt1 0.840332 0.211914
vt1 0.851074 0.896362
vt1 0.930664 0.139648
vt1 0.958496 0.894836
vt1 0.260986 0.274902
vt1 0.177734 0.991936
vt1 0.153198 0.312012
vt1 0.267822 0.992374
vt1 0.008064 0.963715
vt1 0.033508 0.284180
vt1 0.120728 1.000617
vt1 0.123840 0.283203
vn 0.000000 1.000000 -0.000000
vn 0.000000 1.000000 -0.000000
vn 0.000000 1.000000 -0.000000
vn 0.000000 -1.000000 0.000000
vn 0.000000 -1.000000 0.000000
vn 0.000000 -1.000000 0.000000
vn -1.000000 0.000000 0.000000
vn -1.000000 0.000000 0.000000
vn -1.000000 0.000000 0.000000
vn -1.000000 0.000000 0.000000
vn -1.000000 0.000000 0.000000
vn -1.000000 0.000000 0.000000
vn -1.000000 0.000000 0.000000
vn 1.000000 0.000000 0.000000
vn 1.000000 0.000000 0.000000
vn 1.000000 0.000000 0.000000
vn 1.000000 0.000000 0.000000
vn 1.000000 0.000000 0.000000
vn 1.000000 0.000000 0.000000
vn 1.000000 0.000000 0.000000
vn 1.000000 0.000000 0.000000
vn -1.000000 0.000000 0.000000
vn -1.000000 0.000000 0.000000
vn -1.000000 0.000000 0.000000
vn -1.000000 0.000000 0.000000
tan 0.000000 -0.000000 -1.000000 1.000000
tan 0.000000 -0.000000 -1.000000 1.000000
tan 0.000000 -0.000000 -1.000000 1.000000
tan 0.000000 -0.000000 -1.000000 1.000000
tan 0.000000 -0.000000 -1.000000 1.000000
tan 0.000000 -0.000000 -1.000000 1.000000
tan 0.000000 1.000000 -0.039370 1.000000
tan 0.000000 1.000000 -0.039370 1.000000
tan 0.000000 1.000000 -0.031496 1.000000
tan 0.000000 1.000000 0.023622 1.000000
tan 0.000000 1.000000 -0.000000 1.000000
tan 0.000000 1.000000 0.015748 1.000000
tan 0.000000 1.000000 -0.000000 1.000000
tan 0.000000 -1.000000 -0.015748 1.000000
tan 0.000000 -1.000000 0.000000 1.000000
tan 0.000000 -1.000000 -0.015748 1.000000
tan 0.000000 -1.000000 0.000000 1.000000
tan 0.000000 1.000000 -0.007874 1.000000
tan 0.000000 1.000000 -0.007874 1.000000
tan 0.000000 1.000000 -0.007874 1.000000
tan 0.000000 1.000000 -0.007874 1.000000
tan 0.000000 -1.000000 0.007874 1.000000
tan 0.000000 -1.000000 0.007874 1.000000
tan 0.000000 -1.000000 0.007874 1.000000
tan 0.000000 -1.000000 0.007874 1.000000
f 3/3/3 2/2/2 1/1/1
f 6/6/6 5/5/5 4/4/4
f 9/9/9 8/8/8 7/7/7
f 12/12/12 11/11/11 10/10/10
f 13/13/13 10/10/10 11/11/11
f 16/16/16 15/15/15 14/14/14
f 17/17/17 15/15/15 16/16/16
f 20/20/20 19/19/19 18/18/18
f 21/21/21 18/18/18 19/19/19
f 24/24/24 23/23/23 22/22/22
f 25/25/25 23/23/23 24/24/24
