mtllib SM_Train_cart_roof_LOD3.mtl
g SM_Train_cart_roof_LOD3
#Vertices 134
#Indices 354
#Section 0 Offset 0 NumIndices 276 MaterialIndex 1 MI_Metal_Darkgrey
#Section 1 Offset 276 NumIndices 78 MaterialIndex 2 MI_Brushed_Metal
v 0.000013 -0.250145 -0.097286
v -5.000000 -0.250000 0.000000
v 0.000000 -0.249999 0.000000
v -4.999996 -0.248875 -0.091345
v -5.000000 -0.299999 3.750001
v -0.000001 -0.300000 0.249996
v -5.000000 -0.300000 0.250000
v 0.000000 -0.299998 3.750000
v 0.000013 -0.250144 4.097286
v -5.000000 -0.249999 4.000000
v -4.999996 -0.248874 4.091344
v 0.000000 -0.249998 4.000000
v -4.999996 -0.248875 -0.091345
v 0.000013 -0.250145 -0.097286
v -4.999999 -0.228959 -0.100263
v -0.000031 0.001221 -0.095120
v -4.999995 0.001019 -0.094787
v -3.811007 -0.224915 4.421061
v -2.889748 -0.459345 4.055397
v -3.810007 -0.458797 4.055035
v -2.889759 -0.214282 4.434185
v -3.814212 -0.170787 4.441321
v -2.867843 0.021687 4.467444
v -3.811834 0.037098 4.444560
v -2.890835 0.040721 4.437584
v -3.088390 0.557986 3.501637
v -3.051958 0.544179 3.493845
v -3.610802 0.568333 3.478153
v -3.647854 0.546296 3.494622
v -3.089673 0.567609 3.463385
v -3.610735 0.568168 0.523638
v -2.867843 0.021687 4.467444
v -2.890835 0.040721 4.437584
v -2.889748 -0.459345 4.055397
v -2.889759 -0.214282 4.434185
v -2.849382 -0.387909 4.019509
v -2.850713 0.002247 4.034659
v -3.050940 0.546108 0.507594
v -2.850854 0.002960 -0.034938
v -3.090432 0.568702 0.520580
v -2.883060 0.040843 -0.443832
v -2.883060 0.040843 -0.443832
v -2.849912 -0.182551 -0.373300
v -2.850001 -0.401236 -0.019685
v -2.890525 0.016350 -0.450903
v -2.888180 -0.219490 -0.430204
v -2.890157 -0.459330 -0.055550
v -2.850001 -0.401236 -0.019685
v -3.808986 0.041289 -0.437921
v -3.808897 0.017573 -0.449893
v -2.890525 0.016350 -0.450903
v -3.649867 0.543777 0.503451
v -3.811373 -0.222771 -0.429788
v -2.888180 -0.219490 -0.430204
v -2.890157 -0.459330 -0.055550
v -3.808717 -0.458194 -0.054716
v -3.849270 0.002265 4.034875
v -3.848845 0.002131 4.367230
v -3.811834 0.037098 4.444560
v -3.814212 -0.170787 4.441321
v -3.850338 -0.172137 4.355820
v -3.850338 -0.172137 4.355820
v -3.811007 -0.224915 4.421061
v -3.850517 -0.388787 4.019556
v -3.810007 -0.458797 4.055035
v -3.849148 0.002960 -0.034944
v -3.849864 -0.181637 -0.375440
v -3.850001 -0.401236 -0.019685
v -3.850551 -0.001610 -0.364991
v -3.808986 0.041289 -0.437921
v -3.808897 0.017573 -0.449893
v -3.849864 -0.181637 -0.375440
v -3.811373 -0.222771 -0.429788
v -3.808717 -0.458194 -0.054716
v -3.850001 -0.401236 -0.019685
v -0.000031 0.001222 4.095119
v -4.999999 -0.228958 4.100263
v -4.999995 0.001020 4.094787
v 0.000013 -0.250144 4.097286
v -4.999996 -0.248874 4.091344
v -0.000031 0.001221 -0.095120
v -4.999975 -0.000126 0.646210
v -4.999995 0.001019 -0.094787
v 0.000003 -0.000071 0.646950
v -0.000002 0.015062 0.684885
v -5.000000 0.016046 0.684637
v -0.000002 0.234582 0.846658
v -5.000000 0.233954 0.846769
v -5.000000 0.250033 0.878600
v 0.000000 0.250001 0.878708
v 0.000000 0.250002 3.121240
v -5.000000 0.250065 3.121433
v -0.000002 0.234578 3.153344
v -5.000000 0.233955 3.153230
v -5.000000 0.016047 3.315362
v -0.000002 0.015062 3.315115
v -4.999975 -0.000125 3.353790
v 0.000003 -0.000070 3.353049
v -0.000031 0.001222 4.095119
v -4.999995 0.001020 4.094787
v -5.000000 -0.300000 0.250000
v -0.000001 -0.300000 0.249996
v -5.000000 -0.580000 0.250000
v -0.000001 -0.579021 0.250370
v -4.999981 -0.599390 0.242241
v -0.000004 -0.599080 0.241444
v -4.999981 -0.599390 0.242241
v -0.000004 -0.599080 0.241444
v 0.000000 -0.600000 0.120000
v -5.000002 -0.598300 0.101297
v -0.000002 -0.586992 0.085893
v -5.000000 -0.514143 0.014142
v -0.000002 -0.514168 0.012484
v -5.000000 -0.480407 -0.000414
v 0.000000 -0.480000 0.000000
v -5.000000 -0.250000 0.000000
v 0.000000 -0.249999 0.000000
v -4.999986 -0.599396 3.757754
v -0.000004 -0.599054 3.758570
v -0.000001 -0.579020 3.749629
v -5.000000 -0.579999 3.750000
v 0.000000 -0.299998 3.750000
v -5.000000 -0.299999 3.750001
v -0.000004 -0.599054 3.758570
v -4.999986 -0.599396 3.757754
v 0.000000 -0.600413 3.880590
v -5.000003 -0.598742 3.898353
v 0.000000 -0.585856 3.914142
v -5.000000 -0.514141 3.985857
v -0.000002 -0.514168 3.987516
v -5.000000 -0.480406 4.000413
v 0.000000 -0.479998 4.000000
v -5.000000 -0.249999 4.000000
v 0.000000 -0.249998 4.000000
vt 0.540527 0.021973
vt -0.083984 0.009766
vt 0.540527 0.009766
vt -0.083984 0.021484
vt 0.547852 0.531250
vt 0.985352 -0.093750
vt 0.985352 0.531250
vt 0.547852 -0.093750
vt 0.540527 0.635254
vt -0.084045 0.647461
vt -0.084045 0.635986
vt 0.540527 0.647217
vt -0.083984 0.020996
vt 0.540527 0.020996
vt -0.083984 0.023926
vt 0.540527 0.052734
vt -0.083984 0.052734
vt 0.682129 0.983612
vt 0.736328 0.868042
vt 0.736328 0.983475
vt 0.679688 0.868042
vt 0.674805 0.983994
vt 0.650391 0.865356
vt 0.648438 0.983719
vt 0.647461 0.868164
vt 0.513184 0.893005
vt 0.512695 0.887939
vt 0.510254 0.958405
vt 0.512695 0.963379
vt 0.508789 0.893372
vt 0.142212 0.958984
vt 0.633301 0.818726
vt 0.630371 0.821777
vt 0.584473 0.758179
vt 0.630371 0.789673
vt 0.579102 0.767700
vt 0.580078 0.815796
vt 0.139771 0.888733
vt 0.071716 0.816528
vt 0.141846 0.893982
vt 0.020737 0.822388
vt 0.003866 0.868286
vt 0.029312 0.794189
vt 0.072571 0.766357
vt 0.019287 0.819458
vt 0.021149 0.789062
vt 0.067322 0.758179
vt 0.072571 0.766357
vt 0.004925 0.984497
vt 0.001726 0.984467
vt 0.001156 0.869263
vt 0.139404 0.964508
vt -0.028366 0.984879
vt -0.028473 0.869141
vt -0.084229 0.869507
vt -0.083801 0.984756
vt 0.580566 1.035553
vt 0.621582 1.035187
vt 0.631348 1.030090
vt 0.630859 1.055847
vt 0.619629 1.055817
vt 0.620605 1.056122
vt 0.628906 1.062744
vt 0.579590 1.083679
vt 0.584961 1.093140
vt 0.072205 1.036560
vt 0.029617 1.058838
vt 0.073242 1.086792
vt 0.031097 1.036926
vt 0.021698 1.030548
vt 0.019836 1.033783
vt 0.029648 1.058990
vt 0.021790 1.064636
vt 0.067993 1.094910
vt 0.073242 1.086792
vt 0.540527 0.604492
vt -0.084045 0.633301
vt -0.084045 0.604736
vt 0.540527 0.635986
vt -0.084045 0.636230
vt 0.540527 0.051758
vt -0.083984 0.144531
vt -0.083984 0.051758
vt 0.540527 0.144531
vt 0.540527 0.149902
vt -0.083984 0.149902
vt 0.540527 0.184082
vt -0.083984 0.184082
vt -0.083984 0.188477
vt 0.540527 0.188477
vt 0.540527 0.468750
vt -0.084045 0.468750
vt 0.540527 0.473145
vt -0.084045 0.473633
vt -0.084045 0.507324
vt 0.540527 0.507324
vt -0.084045 0.512695
vt 0.540527 0.512451
vt 0.540527 0.605225
vt -0.084045 0.605225
vt -0.084045 -0.092773
vt 0.540527 -0.093750
vt -0.084045 -0.058594
vt 0.540527 -0.058594
vt -0.084045 -0.055664
vt 0.540527 -0.055664
vt -0.084045 -0.055664
vt 0.540527 -0.055664
vt 0.540527 -0.041016
vt -0.084045 -0.038086
vt 0.540527 -0.036133
vt -0.084045 -0.023438
vt 0.540527 -0.023438
vt -0.083984 -0.018555
vt 0.540527 -0.018555
vt -0.083984 0.009766
vt 0.540527 0.009766
vt -0.084045 0.713135
vt 0.540527 0.713135
vt 0.540527 0.715820
vt -0.084045 0.715820
vt 0.540527 0.750610
vt -0.083984 0.750854
vt 0.540527 0.713379
vt -0.084045 0.713623
vt 0.540527 0.697998
vt -0.084045 0.696045
vt 0.540527 0.693359
vt -0.084045 0.680908
vt 0.540527 0.680664
vt -0.084045 0.676270
vt 0.540527 0.676025
vt -0.084045 0.647461
vt 0.540527 0.647217
vt1 0.491699 0.426758
vt1 0.001987 0.417480
vt1 0.491699 0.417480
vt1 0.001989 0.426270
vt1 0.497803 0.005859
vt1 0.987305 0.348633
vt1 0.497803 0.348633
vt1 0.987305 0.005859
vt1 0.491455 0.907349
vt1 0.001972 0.916992
vt1 0.001970 0.908020
vt1 0.491455 0.916931
vt1 0.001989 0.426270
vt1 0.491699 0.426270
vt1 0.001989 0.428223
vt1 0.491699 0.450684
vt1 0.001991 0.451172
vt1 0.584473 0.955261
vt1 0.675293 0.998030
vt1 0.584473 0.998028
vt1 0.675293 0.953705
vt1 0.584473 0.949554
vt1 0.677246 0.930542
vt1 0.584473 0.929138
vt1 0.675293 0.928406
vt1 0.655762 0.822998
vt1 0.659668 0.822510
vt1 0.604492 0.820801
vt1 0.600586 0.822632
vt1 0.655273 0.819336
vt1 0.604004 0.531982
vt1 0.713867 0.917236
vt1 0.711426 0.914734
vt1 0.761230 0.878906
vt1 0.736816 0.914917
vt1 0.753906 0.874756
vt1 0.716309 0.875488
vt1 0.659180 0.530029
vt1 0.715820 0.476562
vt1 0.654785 0.531738
vt1 0.710938 0.436523
vt1 0.675293 0.423340
vt1 0.732910 0.443359
vt1 0.754883 0.477539
vt1 0.713379 0.435547
vt1 0.737305 0.437012
vt1 0.761230 0.473145
vt1 0.754883 0.477539
vt1 0.583984 0.424316
vt1 0.583984 0.421875
vt1 0.674316 0.421387
vt1 0.599609 0.529785
vt1 0.583496 0.398438
vt1 0.674316 0.397949
vt1 0.674316 0.354492
vt1 0.583496 0.354492
vt1 0.543945 0.875732
vt1 0.543945 0.907837
vt1 0.548340 0.915710
vt1 0.527832 0.915344
vt1 0.527832 0.906616
vt1 0.527832 0.906982
vt1 0.522461 0.913757
vt1 0.505859 0.875122
vt1 0.498779 0.879333
vt1 0.542969 0.477051
vt1 0.525391 0.443848
vt1 0.503906 0.478027
vt1 0.542969 0.444824
vt1 0.547852 0.437500
vt1 0.545410 0.436035
vt1 0.525391 0.443848
vt1 0.520996 0.437500
vt1 0.497314 0.473633
vt1 0.503906 0.478027
vt1 0.491455 0.883423
vt1 0.001970 0.906006
vt1 0.001968 0.883423
vt1 0.491455 0.908020
vt1 0.001970 0.908203
vt1 0.491699 0.450195
vt1 0.001993 0.522949
vt1 0.001991 0.450195
vt1 0.491699 0.522949
vt1 0.491699 0.527100
vt1 0.001991 0.527100
vt1 0.491699 0.553711
vt1 0.001989 0.553711
vt1 0.001989 0.557373
vt1 0.491699 0.557373
vt1 0.491455 0.776978
vt1 0.001968 0.776978
vt1 0.491455 0.780518
vt1 0.001968 0.780518
vt1 0.001968 0.807129
vt1 0.491455 0.807251
vt1 0.001970 0.811401
vt1 0.491455 0.811279
vt1 0.491455 0.883972
vt1 0.001968 0.883911
vt1 0.001970 0.336426
vt1 0.491455 0.336426
vt1 0.001978 0.363770
vt1 0.491699 0.363770
vt1 0.001980 0.365723
vt1 0.491699 0.365723
vt1 0.001980 0.365723
vt1 0.491699 0.365723
vt1 0.491699 0.377441
vt1 0.001980 0.379395
vt1 0.491699 0.381348
vt1 0.001982 0.391113
vt1 0.491699 0.391113
vt1 0.001984 0.395020
vt1 0.491699 0.395020
vt1 0.001987 0.417480
vt1 0.491699 0.417480
vt1 0.001982 0.968567
vt1 0.491699 0.968414
vt1 0.491699 0.970581
vt1 0.001982 0.970612
vt1 0.491699 0.997910
vt1 0.001987 0.998032
vt1 0.491699 0.968597
vt1 0.001982 0.968765
vt1 0.491699 0.956635
vt1 0.001978 0.955048
vt1 0.491699 0.953033
vt1 0.001976 0.943207
vt1 0.491455 0.942993
vt1 0.001974 0.939545
vt1 0.491455 0.939423
vt1 0.001972 0.916992
vt1 0.491455 0.916931
vn 0.000000 -0.984252 -0.173228
vn 0.000000 -1.000000 0.000000
vn 0.000000 -1.000000 0.000000
vn 0.000000 -0.984252 -0.181102
vn 0.000000 -1.000000 0.000000
vn 0.000000 -1.000000 0.000000
vn 0.000000 -1.000000 0.000000
vn 0.000000 -1.000000 0.000000
vn 0.000000 -0.984252 0.173228
vn 0.000000 -1.000000 0.000000
vn 0.000000 -0.984252 0.181102
vn 0.000000 -1.000000 0.000000
vn 0.000000 -0.724409 -0.692913
vn 0.000000 -0.291339 -0.960630
vn 0.000000 -0.133858 -0.992126
vn 0.000000 0.220472 -0.976378
vn 0.000000 0.314960 -0.944882
vn -0.125984 -0.779527 0.614173
vn 0.125984 -0.834646 0.535433
vn -0.165354 -0.826771 0.535433
vn 0.133858 -0.598425 0.795276
vn -0.125984 -0.086614 0.992126
vn 0.141732 0.055118 0.992126
vn -0.149606 0.771653 0.622047
vn 0.173228 0.811024 0.551181
vn 0.102362 0.897638 0.425197
vn 0.897638 0.448819 0.031496
vn -0.110236 0.984252 0.149606
vn -0.897638 0.440945 0.023622
vn 0.102362 0.992126 0.055118
vn -0.110236 0.984252 -0.110236
vn 0.952756 0.259843 0.165354
vn 0.606299 0.716535 0.354331
vn 0.653543 -0.637795 0.409449
vn 0.677165 -0.448819 0.582677
vn 0.984252 -0.149606 0.094488
vn 0.944882 0.322835 -0.000000
vn 0.913386 0.409449 -0.015748
vn 0.952756 0.299213 -0.000000
vn 0.102362 0.968504 -0.236221
vn 0.858268 0.464567 -0.220472
vn 0.181102 0.811023 -0.559055
vn 1.000000 -0.015748 -0.070866
vn 1.000000 0.000000 0.000000
vn 0.598425 0.062992 -0.795275
vn 0.685039 -0.456693 -0.566929
vn 0.669291 -0.629921 -0.401575
vn 0.748031 -0.559055 -0.354331
vn -0.149606 0.818897 -0.551181
vn -0.157480 0.070866 -0.984252
vn 0.133858 0.055118 -0.992126
vn -0.913386 0.409449 -0.015748
vn -0.118110 -0.614173 -0.779527
vn 0.133858 -0.606299 -0.787401
vn 0.125984 -0.834646 -0.535433
vn -0.157480 -0.826772 -0.535433
vn -0.944882 0.322835 -0.000000
vn -0.937008 0.330709 0.094488
vn -0.700787 0.543307 0.464567
vn -0.519685 -0.094488 0.850394
vn -0.992126 -0.007874 0.094488
vn -1.000000 -0.062992 0.047244
vn -0.543307 -0.669291 0.511811
vn -0.984252 -0.157480 0.094488
vn -0.653543 -0.637795 0.409449
vn -0.952756 0.299213 -0.000000
vn -1.000000 0.000000 0.000000
vn -1.000000 0.000000 0.000000
vn -0.968504 0.251968 -0.047244
vn -0.598425 0.716535 -0.354331
vn -0.606299 0.086614 -0.787401
vn -0.803150 -0.401575 -0.448819
vn -0.700787 -0.440945 -0.559055
vn -0.685039 -0.614173 -0.393701
vn -0.748031 -0.559055 -0.354331
vn 0.000000 0.220473 0.976378
vn 0.000000 -0.133858 0.992126
vn 0.000000 0.314961 0.944882
vn 0.000000 -0.291338 0.960630
vn 0.000000 -0.724409 0.692913
vn 0.000000 0.992126 -0.141732
vn 0.000000 1.000000 0.007874
vn 0.000000 0.992126 -0.141732
vn 0.000000 1.000000 -0.031496
vn 0.000000 0.677165 -0.740157
vn 0.000000 0.669291 -0.748031
vn 0.000000 0.669291 -0.740157
vn 0.000000 0.669291 -0.748031
vn 0.000000 0.992126 -0.094488
vn 0.000000 0.992126 -0.094488
vn 0.000000 0.992126 0.094488
vn 0.000000 0.992126 0.094488
vn 0.000000 0.669291 0.740157
vn 0.000000 0.669291 0.748031
vn 0.000000 0.669291 0.748031
vn 0.000000 0.677165 0.740157
vn 0.000000 1.000000 -0.007874
vn 0.000000 1.000000 0.031496
vn 0.000000 0.992126 0.141732
vn 0.000000 0.992126 0.141732
vn 0.000000 0.000000 1.000000
vn 0.000000 0.000000 1.000000
vn 0.000000 -0.133858 0.992126
vn 0.000000 -0.133858 0.992126
vn 0.000000 -0.732283 0.685039
vn 0.000000 -0.724409 0.692913
vn 0.000000 -0.984252 0.165354
vn 0.000000 -0.984252 0.181102
vn 0.000000 -1.000000 -0.078740
vn 0.000000 -0.929134 -0.370079
vn 0.000000 -0.763779 -0.645669
vn 0.000000 -0.645669 -0.763779
vn 0.000000 -0.637795 -0.771653
vn 0.000000 -0.086614 -1.000000
vn 0.000000 -0.078740 -1.000000
vn 0.000000 -0.000000 -1.000000
vn 0.000000 -0.000000 -1.000000
vn 0.000000 -0.732283 -0.685039
vn 0.000000 -0.724409 -0.692913
vn 0.000000 -0.133858 -0.992126
vn 0.000000 -0.133858 -0.992126
vn 0.000000 -0.000000 -1.000000
vn 0.000000 -0.000000 -1.000000
vn 0.000000 -0.984252 -0.181102
vn 0.000000 -0.984252 -0.165354
vn 0.000000 -1.000000 0.086614
vn 0.000000 -0.937008 0.362205
vn 0.000000 -0.763779 0.645669
vn 0.000000 -0.645669 0.763779
vn 0.000000 -0.637795 0.771653
vn 0.000000 -0.086614 1.000000
vn 0.000000 -0.078740 1.000000
vn 0.000000 0.000000 1.000000
vn 0.000000 0.000000 1.000000
tan 0.000000 -0.173228 0.984252 1.000000
tan 0.000000 0.000000 1.000000 1.000000
tan 0.000000 0.000000 1.000000 1.000000
tan 0.000000 -0.181102 0.984252 1.000000
tan 1.000000 0.000000 0.000000 1.000000
tan 1.000000 0.000000 0.000000 1.000000
tan 1.000000 0.000000 0.000000 1.000000
tan 1.000000 0.000000 0.000000 1.000000
tan 0.000000 0.173228 0.984252 1.000000
tan 0.000000 0.000000 1.000000 1.000000
tan 0.000000 0.181102 0.984252 1.000000
tan 0.000000 0.000000 1.000000 1.000000
tan 0.000000 -0.692913 0.724409 1.000000
tan 0.000000 -0.960630 0.291339 1.000000
tan 0.000000 -0.992126 0.133858 1.000000
tan 0.000000 -0.976378 -0.220472 1.000000
tan 0.000000 -0.944882 -0.314960 1.000000
tan 0.877178 -0.079484 0.079050 1.000000
tan 0.864158 0.121768 -0.013516 1.000000
tan 0.860500 -0.165354 0.010416 1.000000
tan 0.985678 0.016306 -0.153636 1.000000
tan 0.992126 -0.007812 0.125302 1.000000
tan 0.992126 -0.015624 -0.140864 1.000000
tan 0.867258 0.117862 0.062372 1.000000
tan 0.848038 -0.141484 -0.058342 1.000000
tan 0.900986 -0.129146 0.055738 1.000000
tan 0.449067 -0.897638 -0.007068 1.000000
tan 0.984252 0.113770 -0.023250 1.000000
tan 0.441131 0.897638 0.007068 1.000000
tan 0.992126 -0.103230 0.015624 1.000000
tan 0.984252 0.111972 0.015500 1.000000
tan 0.271561 -0.954058 -0.065472 1.000000
tan 0.722115 -0.620249 0.018662 1.000000
tan -0.654969 -0.721929 -0.079112 1.000000
tan -0.568417 -0.785169 0.055800 1.000000
tan -0.148862 -0.984252 -0.007750 1.000000
tan 0.322835 -0.944882 -0.007440 1.000000
tan 0.409573 -0.913386 0.007192 1.000000
tan 0.299213 -0.952756 0.007502 1.000000
tan 0.968504 -0.109802 -0.030504 1.000000
tan 0.473247 -0.861740 0.026474 1.000000
tan 0.831050 -0.122450 0.091574 1.000000
tan -0.020212 -1.000000 -0.062992 1.000000
tan 0.000000 -1.000000 0.015748 1.000000
tan 0.619319 -0.601525 0.418377 1.000000
tan -0.512741 -0.824911 0.044950 1.000000
tan -0.646661 -0.729369 0.066340 1.000000
tan -0.573749 -0.797321 0.046748 1.000000
tan 0.862298 0.127906 -0.044020 1.000000
tan 0.984252 0.015500 -0.156364 1.000000
tan 0.992126 -0.007812 0.133424 1.000000
tan 0.409573 0.913386 -0.007192 1.000000
tan 0.982268 0.029946 -0.172422 1.000000
tan 0.989460 0.045818 0.132928 1.000000
tan 0.864158 0.130200 0.000372 1.000000
tan 0.864716 -0.153264 -0.017670 1.000000
tan 0.322835 0.944882 0.007440 1.000000
tan 0.331453 0.937008 0.007378 1.000000
tan 0.593279 0.748279 0.019840 1.000000
tan 0.025296 0.918842 0.117552 1.000000
tan -0.018972 0.984314 -0.117180 1.000000
tan -0.062248 1.000000 0.015748 1.000000
tan -0.681691 0.631223 0.101804 1.000000
tan -0.156736 0.984252 0.007750 1.000000
tan -0.651745 0.721929 0.084258 1.000000
tan 0.299213 0.952756 -0.000000 1.000000
tan 0.000000 1.000000 -0.000000 1.000000
tan 0.000000 1.000000 -0.015748 1.000000
tan 0.252340 0.968504 -0.007626 1.000000
tan 0.722115 0.612375 0.018786 1.000000
tan 0.624651 0.596751 -0.415339 1.000000
tan -0.509827 0.797011 0.199206 1.000000
tan -0.500279 0.829438 -0.027094 1.000000
tan -0.632401 0.742451 -0.057846 1.000000
tan -0.576539 0.797321 -0.040858 1.000000
tan 0.000000 0.976378 -0.220473 1.000000
tan 0.000000 0.992126 0.133858 1.000000
tan 0.000000 0.944882 -0.314961 1.000000
tan 0.000000 0.960630 0.291338 1.000000
tan 0.000000 0.692913 0.724409 1.000000
tan 0.000000 -0.141732 -0.992126 1.000000
tan 0.000000 0.007874 -1.000000 1.000000
tan 0.000000 -0.141732 -0.992126 1.000000
tan 0.000000 -0.031496 -1.000000 1.000000
tan 0.000000 -0.740157 -0.677165 1.000000
tan 0.000000 -0.748031 -0.669291 1.000000
tan 0.000000 -0.740157 -0.669291 1.000000
tan 0.000000 -0.748031 -0.669291 1.000000
tan 0.000000 -0.094488 -0.992126 1.000000
tan 0.000000 -0.094488 -0.992126 1.000000
tan 0.000000 0.094488 -0.992126 1.000000
tan 0.000000 0.094488 -0.992126 1.000000
tan 0.000000 0.740157 -0.669291 1.000000
tan 0.000000 0.748031 -0.669291 1.000000
tan 0.000000 0.748031 -0.669291 1.000000
tan 0.000000 0.740157 -0.677165 1.000000
tan 0.000000 -0.007874 -1.000000 1.000000
tan 0.000000 0.031496 -1.000000 1.000000
tan 0.000000 0.141732 -0.992126 1.000000
tan 0.000000 0.141732 -0.992126 1.000000
tan 0.000000 1.000000 -0.000000 1.000000
tan 0.000000 1.000000 -0.000000 1.000000
tan 0.000000 0.992126 0.133858 1.000000
tan 0.000000 0.992126 0.133858 1.000000
tan 0.000000 0.685039 0.732283 1.000000
tan 0.000000 0.692913 0.724409 1.000000
tan 0.000000 0.165354 0.984252 1.000000
tan 0.000000 0.181102 0.984252 1.000000
tan 0.000000 -0.078740 1.000000 1.000000
tan 0.000000 -0.370079 0.929134 1.000000
tan 0.000000 -0.645669 0.763779 1.000000
tan 0.000000 -0.763779 0.645669 1.000000
tan 0.000000 -0.771653 0.637795 1.000000
tan 0.000000 -1.000000 0.086614 1.000000
tan 0.000000 -1.000000 0.078740 1.000000
tan 0.000000 -1.000000 0.000000 1.000000
tan 0.000000 -1.000000 0.000000 1.000000
tan 0.000000 -0.685039 0.732283 1.000000
tan 0.000000 -0.692913 0.724409 1.000000
tan 0.000000 -0.992126 0.133858 1.000000
tan 0.000000 -0.992126 0.133858 1.000000
tan 0.000000 -1.000000 0.000000 1.000000
tan 0.000000 -1.000000 0.000000 1.000000
tan 0.000000 -0.181102 0.984252 1.000000
tan 0.000000 -0.165354 0.984252 1.000000
tan 0.000000 0.086614 1.000000 1.000000
tan 0.000000 0.362205 0.937008 1.000000
tan 0.000000 0.645669 0.763779 1.000000
tan 0.000000 0.763779 0.645669 1.000000
tan 0.000000 0.771653 0.637795 1.000000
tan 0.000000 1.000000 0.086614 1.000000
tan 0.000000 1.000000 0.078740 1.000000
tan 0.000000 1.000000 -0.000000 1.000000
tan 0.000000 1.000000 -0.000000 1.000000
f 3/3/3 2/2/2 1/1/1
f 4/4/4 1/1/1 2/2/2
f 7/7/7 6/6/6 5/5/5
f 6/6/6 8/8/8 5/5/5
f 11/11/11 10/10/10 9/9/9
f 12/12/12 9/9/9 10/10/10
f 15/15/15 14/14/14 13/13/13
f 14/14/14 15/15/15 16/16/16
f 17/17/17 16/16/16 15/15/15
f 20/20/20 19/19/19 18/18/18
f 21/21/21 18/18/18 19/19/19
f 18/18/18 21/21/21 22/22/22
f 21/21/21 23/23/23 22/22/22
f 24/24/24 22/22/22 23/23/23
f 25/25/25 24/24/24 23/23/23
f 25/25/25 26/26/26 24/24/24
f 27/27/27 26/26/26 25/25/25
f 28/28/28 24/24/24 26/26/26
f 29/29/29 24/24/24 28/28/28
f 26/26/26 30/30/30 28/28/28
f 27/27/27 30/30/30 26/26/26
f 28/28/28 31/31/31 29/29/29
f 28/28/28 30/30/30 31/31/31
f 33/33/33 32/32/32 27/27/27
f 32/32/32 35/35/35 34/34/34
f 34/34/34 36/36/36 32/32/32
f 32/32/32 36/36/36 37/37/37
f 37/37/37 27/27/27 32/32/32
f 37/37/37 38/38/38 27/27/27
f 27/27/27 38/38/38 30/30/30
f 38/38/38 37/37/37 39/39/39
f 38/38/38 40/40/40 30/30/30
f 30/30/30 40/40/40 31/31/31
f 39/39/39 41/41/41 38/38/38
f 38/38/38 42/42/42 40/40/40
f 41/41/41 39/39/39 43/43/43
f 39/39/39 44/44/44 43/43/43
f 45/45/45 41/41/41 43/43/43
f 46/46/46 45/45/45 43/43/43
f 43/43/43 47/47/47 46/46/46
f 48/48/48 47/47/47 43/43/43
f 42/42/42 49/49/49 40/40/40
f 31/31/31 40/40/40 49/49/49
f 49/49/49 42/42/42 50/50/50
f 42/42/42 51/51/51 50/50/50
f 52/52/52 31/31/31 49/49/49
f 50/50/50 51/51/51 53/53/53
f 51/51/51 54/54/54 53/53/53
f 54/54/54 55/55/55 53/53/53
f 56/56/56 53/53/53 55/55/55
f 29/29/29 31/31/31 52/52/52
f 29/29/29 52/52/52 57/57/57
f 57/57/57 58/58/58 29/29/29
f 58/58/58 59/59/59 29/29/29
f 59/59/59 58/58/58 60/60/60
f 61/61/61 60/60/60 58/58/58
f 58/58/58 57/57/57 62/62/62
f 62/62/62 63/63/63 60/60/60
f 64/64/64 62/62/62 57/57/57
f 63/63/63 62/62/62 64/64/64
f 64/64/64 65/65/65 63/63/63
f 66/66/66 57/57/57 52/52/52
f 68/68/68 66/66/66 67/67/67
f 66/66/66 69/69/69 67/67/67
f 66/66/66 52/52/52 69/69/69
f 70/70/70 69/69/69 52/52/52
f 69/69/69 70/70/70 71/71/71
f 69/69/69 71/71/71 72/72/72
f 72/72/72 71/71/71 73/73/73
f 73/73/73 74/74/74 72/72/72
f 75/75/75 72/72/72 74/74/74
f 78/78/78 77/77/77 76/76/76
f 79/79/79 76/76/76 77/77/77
f 80/80/80 79/79/79 77/77/77
f 83/83/83 82/82/82 81/81/81
f 84/84/84 81/81/81 82/82/82
f 85/85/85 84/84/84 82/82/82
f 82/82/82 86/86/86 85/85/85
f 87/87/87 85/85/85 86/86/86
f 88/88/88 87/87/87 86/86/86
f 89/89/89 87/87/87 88/88/88
f 90/90/90 87/87/87 89/89/89
f 90/90/90 89/89/89 91/91/91
f 89/89/89 92/92/92 91/91/91
f 93/93/93 91/91/91 92/92/92
f 92/92/92 94/94/94 93/93/93
f 95/95/95 93/93/93 94/94/94
f 93/93/93 95/95/95 96/96/96
f 97/97/97 96/96/96 95/95/95
f 96/96/96 97/97/97 98/98/98
f 99/99/99 98/98/98 97/97/97
f 100/100/100 99/99/99 97/97/97
f 103/103/103 102/102/102 101/101/101
f 102/102/102 103/103/103 104/104/104
f 103/103/103 105/105/105 104/104/104
f 104/104/104 105/105/105 106/106/106
f 109/109/109 108/108/108 107/107/107
f 110/110/110 109/109/109 107/107/107
f 111/111/111 109/109/109 110/110/110
f 110/110/110 112/112/112 111/111/111
f 113/113/113 111/111/111 112/112/112
f 114/114/114 113/113/113 112/112/112
f 115/115/115 113/113/113 114/114/114
f 114/114/114 116/116/116 115/115/115
f 117/117/117 115/115/115 116/116/116
f 120/120/120 119/119/119 118/118/118
f 118/118/118 121/121/121 120/120/120
f 122/122/122 120/120/120 121/121/121
f 123/123/123 122/122/122 121/121/121
f 126/126/126 125/125/125 124/124/124
f 125/125/125 126/126/126 127/127/127
f 128/128/128 127/127/127 126/126/126
f 127/127/127 128/128/128 129/129/129
f 128/128/128 130/130/130 129/129/129
f 129/129/129 130/130/130 131/131/131
f 132/132/132 131/131/131 130/130/130
f 133/133/133 131/131/131 132/132/132
f 134/134/134 133/133/133 132/132/132
