mtllib SM_WallFence_LOD2.mtl
g SM_WallFence_LOD2
#Vertices 24
#Indices 36
#Section 0 Offset 0 NumIndices 36 MaterialIndex 0 MM_BasicFill
v 4.000000 3.999999 0.616495
v 0.000000 -0.000000 0.616495
v 0.000000 3.999999 0.616495
v 4.000000 -0.000000 0.616495
v 0.000000 1.248569 -0.331048
v 4.000000 0.000000 -0.331048
v 4.000000 1.248569 -0.331048
v 0.000000 0.000000 -0.331048
v 0.000000 3.630389 0.000000
v 3.991490 1.455303 0.016949
v 4.000000 3.630389 0.000000
v -0.000000 1.458333 0.021663
v 0.000000 1.248569 -0.331048
v 3.991490 1.455303 0.016949
v -0.000000 1.458333 0.021663
v 4.000000 1.248569 -0.331048
v 4.000000 3.999999 0.369610
v 0.000000 3.999999 0.369610
v 0.000000 3.630389 0.000000
v 4.000000 3.630389 0.000000
v 4.000000 3.999999 0.616495
v 0.000000 3.999999 0.616495
v 0.000000 3.999999 0.369610
v 4.000000 3.999999 0.369610
vt -0.021301 0.451660
vt 0.478516 -0.047852
vt 0.478516 0.451660
vt -0.021301 -0.047852
vt 0.478516 0.892578
vt -0.021301 1.048584
vt -0.021301 0.892578
vt 0.478516 1.048584
vt 0.478516 0.547607
vt -0.020233 0.819458
vt -0.021301 0.547607
vt 0.478516 0.819092
vt 0.478516 0.892578
vt -0.020126 0.842041
vt 0.478516 0.842407
vt -0.021301 0.892578
vt -0.021301 0.482422
vt 0.478516 0.482422
vt 0.478516 0.547607
vt -0.021301 0.547607
vt -0.021301 0.451660
vt 0.478516 0.451660
vt 0.478516 0.482422
vt -0.021301 0.482422
vt1 0.008064 0.456543
vt1 0.570312 0.008301
vt1 0.570312 0.456543
vt1 0.008064 0.008301
vt1 0.570312 0.852051
vt1 0.008064 0.991936
vt1 0.008064 0.852051
vt1 0.570312 0.991936
vt1 0.570312 0.542725
vt1 0.009262 0.786499
vt1 0.008064 0.542725
vt1 0.570312 0.786133
vt1 0.570312 0.852051
vt1 0.009377 0.806763
vt1 0.570312 0.807007
vt1 0.008064 0.852051
vt1 0.008064 0.484375
vt1 0.570312 0.484375
vt1 0.570312 0.542725
vt1 0.008064 0.542725
vt1 0.008064 0.456543
vt1 0.570312 0.456543
vt1 0.570312 0.484375
vt1 0.008064 0.484375
vn 0.000000 0.000000 1.000000
vn 0.000000 0.000000 1.000000
vn 0.000000 0.000000 1.000000
vn 0.000000 0.000000 1.000000
vn 0.000000 -0.000000 -1.000000
vn 0.000000 -0.000000 -1.000000
vn 0.000000 -0.000000 -1.000000
vn 0.000000 -0.000000 -1.000000
vn 0.000000 -0.000000 -1.000000
vn 0.000000 -0.000000 -1.000000
vn 0.000000 -0.000000 -1.000000
vn 0.000000 -0.000000 -1.000000
vn 0.000000 0.929134 -0.362205
vn 0.000000 0.929134 -0.362205
vn 0.000000 0.929134 -0.362205
vn 0.000000 0.929134 -0.362205
vn 0.000000 0.708661 -0.708661
vn 0.000000 0.708661 -0.708661
vn 0.000000 0.708661 -0.708661
vn 0.000000 0.708661 -0.708661
vn 0.000000 1.000000 -0.000000
vn 0.000000 1.000000 -0.000000
vn 0.000000 1.000000 -0.000000
vn 0.000000 1.000000 -0.000000
tan 0.000000 -1.000000 0.000000 1.000000
tan 0.000000 -1.000000 0.000000 1.000000
tan 0.000000 -1.000000 0.000000 1.000000
tan 0.000000 -1.000000 0.000000 1.000000
tan 0.000000 1.000000 -0.000000 1.000000
tan 0.000000 1.000000 -0.000000 1.000000
tan 0.000000 1.000000 -0.000000 1.000000
tan 0.000000 1.000000 -0.000000 1.000000
tan 0.000000 1.000000 -0.000000 1.000000
tan 0.000000 1.000000 -0.000000 1.000000
tan 0.000000 1.000000 -0.000000 1.000000
tan 0.000000 1.000000 -0.000000 1.000000
tan 0.000000 0.362205 0.929134 1.000000
tan 0.000000 0.362205 0.929134 1.000000
tan 0.000000 0.362205 0.929134 1.000000
tan 0.000000 0.362205 0.929134 1.000000
tan 0.000000 0.708661 0.708661 1.000000
tan 0.000000 0.708661 0.708661 1.000000
tan 0.000000 0.708661 0.708661 1.000000
tan 0.000000 0.708661 0.708661 1.000000
tan 0.000000 0.000000 1.000000 1.000000
tan 0.000000 0.000000 1.000000 1.000000
tan 0.000000 0.000000 1.000000 1.000000
tan 0.000000 0.000000 1.000000 1.000000
f 3/3/3 2/2/2 1/1/1
f 4/4/4 1/1/1 2/2/2
f 7/7/7 6/6/6 5/5/5
f 8/8/8 5/5/5 6/6/6
f 11/11/11 10/10/10 9/9/9
f 12/12/12 9/9/9 10/10/10
f 15/15/15 14/14/14 13/13/13
f 16/16/16 13/13/13 14/14/14
f 19/19/19 18/18/18 17/17/17
f 20/20/20 19/19/19 17/17/17
f 23/23/23 22/22/22 21/21/21
f 24/24/24 23/23/23 21/21/21
