mtllib SM_WallFence_LOD1.mtl
g SM_WallFence_LOD1
#Vertices 49
#Indices 69
#Section 0 Offset 0 NumIndices 48 MaterialIndex 0 MM_BasicFill
#Section 1 Offset 48 NumIndices 6 MaterialIndex 1 MI_EmissiveB02
#Section 2 Offset 54 NumIndices 15 MaterialIndex 2 MI_Brushed_Metal
v 4.000000 3.999999 0.616495
v 0.000000 -0.000000 0.616495
v 0.000000 3.999999 0.616495
v 4.000000 -0.000000 0.616495
v 0.000000 1.248569 -0.331048
v 4.000000 0.000000 -0.331048
v 4.000000 1.248569 -0.331048
v 0.000000 0.000000 -0.331048
v 0.000000 3.630389 0.000000
v 4.000000 1.500500 0.000000
v 4.000000 3.630389 0.000000
v 0.000000 1.500500 0.000000
v 0.000000 1.248569 -0.331048
v 4.000000 1.376411 0.000000
v 0.000000 1.376411 0.000000
v 4.000000 1.248569 -0.331048
v 4.000000 1.376411 0.075833
v 0.000000 1.376411 0.075833
v 0.000000 1.376411 0.000000
v 4.000000 1.376411 0.000000
v 4.000000 1.500500 0.000000
v 0.000000 1.500500 0.000000
v 0.000000 1.500500 0.075833
v 4.000000 1.500500 0.075833
v 4.000000 3.999999 0.369610
v 0.000000 3.999999 0.369610
v 0.000000 3.630389 0.000000
v 4.000000 3.630389 0.000000
v 4.000000 3.999999 0.616495
v 0.000000 3.999999 0.616495
v 0.000000 3.999999 0.369610
v 4.000000 3.999999 0.369610
v 0.000000 1.500500 0.075833
v 4.000000 1.376411 0.075833
v 4.000000 1.500500 0.075833
v 0.000000 1.376411 0.075833
v 0.998778 4.927278 -0.099461
v 0.941386 4.477711 0.315471
v 1.058174 4.487838 0.310845
v 0.941386 4.477711 0.315471
v 1.001176 3.875510 0.314889
v 1.058174 4.487838 0.310845
v 2.998703 4.927204 -0.099527
v 2.941384 4.477711 0.315472
v 3.058091 4.489081 0.310512
v 2.941384 4.477711 0.315472
v 2.939907 3.874144 0.313399
v 3.058091 4.489081 0.310512
v 3.061098 3.874773 0.320065
vt -0.021301 0.451660
vt 0.478516 -0.047852
vt 0.478516 0.451660
vt -0.021301 -0.047852
vt 0.478516 0.892578
vt -0.021301 1.048584
vt -0.021301 0.892578
vt 0.478516 1.048584
vt 0.478516 0.547607
vt -0.021301 0.813843
vt -0.021301 0.547607
vt 0.478516 0.813843
vt 0.478516 0.892578
vt -0.021301 0.848267
vt 0.478516 0.848267
vt -0.021301 0.892578
vt -0.021301 0.838745
vt 0.478516 0.838745
vt 0.478516 0.848267
vt -0.021301 0.848267
vt -0.021301 0.813843
vt 0.478516 0.813843
vt 0.478516 0.823242
vt -0.021301 0.823242
vt -0.021301 0.482422
vt 0.478516 0.482422
vt 0.478516 0.547607
vt -0.021301 0.547607
vt -0.021301 0.451660
vt 0.478516 0.451660
vt 0.478516 0.482422
vt -0.021301 0.482422
vt 0.478516 0.823242
vt -0.021301 0.838745
vt -0.021301 0.823242
vt 0.478516 0.838745
vt 0.449219 0.008789
vt 0.518555 0.000488
vt 0.518066 0.018066
vt 0.518555 0.000000
vt 0.600098 0.009766
vt 0.517578 0.018066
vt 0.449219 0.035645
vt 0.518555 0.027832
vt 0.517578 0.045410
vt 0.518555 0.027344
vt 0.600098 0.029297
vt 0.517090 0.045410
vt 0.600098 0.043457
vt1 0.008064 0.456543
vt1 0.570312 0.008301
vt1 0.570312 0.456543
vt1 0.008064 0.008301
vt1 0.570312 0.852051
vt1 0.008064 0.991936
vt1 0.008064 0.852051
vt1 0.570312 0.991936
vt1 0.570312 0.542725
vt1 0.008064 0.781372
vt1 0.008064 0.542725
vt1 0.570312 0.781372
vt1 0.570312 0.852051
vt1 0.008064 0.812256
vt1 0.570312 0.812256
vt1 0.008064 0.852051
vt1 0.008064 0.803833
vt1 0.570312 0.803833
vt1 0.570312 0.812256
vt1 0.008064 0.812256
vt1 0.008064 0.781372
vt1 0.570312 0.781372
vt1 0.570312 0.789917
vt1 0.008064 0.789917
vt1 0.008064 0.484375
vt1 0.570312 0.484375
vt1 0.570312 0.542725
vt1 0.008064 0.542725
vt1 0.008064 0.456543
vt1 0.570312 0.456543
vt1 0.570312 0.484375
vt1 0.008064 0.484375
vt1 0.570312 0.789917
vt1 0.008064 0.803833
vt1 0.008064 0.789917
vt1 0.570312 0.803833
vt1 0.687012 0.031250
vt1 0.752441 0.473633
vt1 0.610352 0.468750
vt1 0.754883 0.471680
vt1 0.676758 0.990845
vt1 0.611328 0.465820
vt1 0.896973 0.031250
vt1 0.962402 0.473633
vt1 0.819824 0.467773
vt1 0.964844 0.471680
vt1 0.949219 0.991547
vt1 0.820801 0.464844
vt1 0.836426 0.991013
vn 0.000000 0.000000 1.000000
vn 0.000000 0.000000 1.000000
vn 0.000000 0.000000 1.000000
vn 0.000000 0.000000 1.000000
vn 0.000000 -0.000000 -1.000000
vn 0.000000 -0.000000 -1.000000
vn 0.000000 -0.000000 -1.000000
vn 0.000000 -0.000000 -1.000000
vn 0.000000 -0.000000 -1.000000
vn 0.000000 -0.000000 -1.000000
vn 0.000000 -0.000000 -1.000000
vn 0.000000 -0.000000 -1.000000
vn 0.000000 0.929134 -0.362205
vn 0.000000 0.929134 -0.362205
vn 0.000000 0.929134 -0.362205
vn 0.000000 0.929134 -0.362205
vn 0.000000 1.000000 -0.000000
vn 0.000000 1.000000 -0.000000
vn 0.000000 1.000000 -0.000000
vn 0.000000 1.000000 -0.000000
vn 0.000000 -1.000000 0.000000
vn 0.000000 -1.000000 0.000000
vn 0.000000 -1.000000 0.000000
vn 0.000000 -1.000000 0.000000
vn 0.000000 0.708661 -0.708661
vn 0.000000 0.708661 -0.708661
vn 0.000000 0.708661 -0.708661
vn 0.000000 0.708661 -0.708661
vn 0.000000 1.000000 -0.000000
vn 0.000000 1.000000 -0.000000
vn 0.000000 1.000000 -0.000000
vn 0.000000 1.000000 -0.000000
vn 0.000000 -0.000000 -1.000000
vn 0.000000 -0.000000 -1.000000
vn 0.000000 -0.000000 -1.000000
vn 0.000000 -0.000000 -1.000000
vn 0.000000 -0.685039 -0.732283
vn 0.000000 -0.685039 -0.732283
vn 0.000000 -0.685039 -0.732283
vn 0.000000 -0.000000 -1.000000
vn 0.000000 -0.000000 -1.000000
vn 0.000000 -0.000000 -1.000000
vn 0.000000 -0.685039 -0.732283
vn 0.000000 -0.685039 -0.732283
vn 0.000000 -0.685039 -0.732283
vn 0.000000 -0.000000 -1.000000
vn 0.000000 -0.000000 -1.000000
vn 0.000000 -0.000000 -1.000000
vn 0.000000 -0.000000 -1.000000
tan 0.000000 -1.000000 0.000000 1.000000
tan 0.000000 -1.000000 0.000000 1.000000
tan 0.000000 -1.000000 0.000000 1.000000
tan 0.000000 -1.000000 0.000000 1.000000
tan 0.000000 1.000000 -0.000000 1.000000
tan 0.000000 1.000000 -0.000000 1.000000
tan 0.000000 1.000000 -0.000000 1.000000
tan 0.000000 1.000000 -0.000000 1.000000
tan 0.000000 1.000000 -0.000000 1.000000
tan 0.000000 1.000000 -0.000000 1.000000
tan 0.000000 1.000000 -0.000000 1.000000
tan 0.000000 1.000000 -0.000000 1.000000
tan 0.000000 0.362205 0.929134 1.000000
tan 0.000000 0.362205 0.929134 1.000000
tan 0.000000 0.362205 0.929134 1.000000
tan 0.000000 0.362205 0.929134 1.000000
tan 0.000000 0.000000 1.000000 1.000000
tan 0.000000 0.000000 1.000000 1.000000
tan 0.000000 0.000000 1.000000 1.000000
tan 0.000000 0.000000 1.000000 1.000000
tan 0.000000 -0.000000 -1.000000 1.000000
tan 0.000000 -0.000000 -1.000000 1.000000
tan 0.000000 -0.000000 -1.000000 1.000000
tan 0.000000 -0.000000 -1.000000 1.000000
tan 0.000000 0.708661 0.708661 1.000000
tan 0.000000 0.708661 0.708661 1.000000
tan 0.000000 0.708661 0.708661 1.000000
tan 0.000000 0.708661 0.708661 1.000000
tan 0.000000 0.000000 1.000000 1.000000
tan 0.000000 0.000000 1.000000 1.000000
tan 0.000000 0.000000 1.000000 1.000000
tan 0.000000 0.000000 1.000000 1.000000
tan 0.000000 1.000000 -0.000000 1.000000
tan 0.000000 1.000000 -0.000000 1.000000
tan 0.000000 1.000000 -0.000000 1.000000
tan 0.000000 1.000000 -0.000000 1.000000
tan -0.832166 -0.397855 0.372187 1.000000
tan -0.993056 0.057660 -0.053940 1.000000
tan -0.987290 0.092256 -0.086304 1.000000
tan -1.000000 0.023622 -0.000000 1.000000
tan -1.000000 -0.031496 0.000000 1.000000
tan -1.000000 0.015748 -0.000000 1.000000
tan -0.832166 -0.397855 0.372187 1.000000
tan -0.993056 0.057660 -0.053940 1.000000
tan -0.987290 0.092256 -0.086304 1.000000
tan -1.000000 0.023622 -0.000000 1.000000
tan -1.000000 -0.023622 0.000000 1.000000
tan -1.000000 0.015748 -0.000000 1.000000
tan -1.000000 -0.031496 0.000000 1.000000
f 3/3/3 2/2/2 1/1/1
f 4/4/4 1/1/1 2/2/2
f 7/7/7 6/6/6 5/5/5
f 8/8/8 5/5/5 6/6/6
f 11/11/11 10/10/10 9/9/9
f 12/12/12 9/9/9 10/10/10
f 15/15/15 14/14/14 13/13/13
f 16/16/16 13/13/13 14/14/14
f 19/19/19 18/18/18 17/17/17
f 20/20/20 19/19/19 17/17/17
f 23/23/23 22/22/22 21/21/21
f 24/24/24 23/23/23 21/21/21
f 27/27/27 26/26/26 25/25/25
f 28/28/28 27/27/27 25/25/25
f 31/31/31 30/30/30 29/29/29
f 32/32/32 31/31/31 29/29/29
f 35/35/35 34/34/34 33/33/33
f 36/36/36 33/33/33 34/34/34
f 39/39/39 38/38/38 37/37/37
f 42/42/42 41/41/41 40/40/40
f 45/45/45 44/44/44 43/43/43
f 48/48/48 47/47/47 46/46/46
f 47/47/47 48/48/48 49/49/49
