mtllib SM_WallFence_LOD3.mtl
g SM_WallFence_LOD3
#Vertices 12
#Indices 18
#Section 0 Offset 0 NumIndices 18 MaterialIndex 0 MM_BasicFill
v 3.973852 4.016449 0.638680
v 0.000000 -0.000000 0.616495
v 0.000001 4.011888 0.637995
v 4.000000 -0.000000 0.616495
v 0.000000 3.630389 0.000000
v 3.747811 0.883661 -0.122286
v 4.000000 3.630389 0.000000
v 0.004441 0.901009 -0.219226
v 3.973852 4.016449 0.638680
v 0.000001 4.011888 0.637995
v 0.000000 3.630389 0.000000
v 4.000000 3.630389 0.000000
vt -0.018021 0.453613
vt 0.478516 -0.047852
vt 0.478516 0.453125
vt -0.021301 -0.047852
vt 0.478516 0.547607
vt 0.010468 0.891296
vt -0.021301 0.547607
vt 0.478027 0.888611
vt -0.017746 0.455078
vt 0.478516 0.457520
vt 0.478516 0.547607
vt -0.021301 0.547607
vt1 0.011742 0.458496
vt1 0.570312 0.008301
vt1 0.570312 0.458008
vt1 0.008064 0.008301
vt1 0.570312 0.542725
vt1 0.043793 0.850952
vt1 0.008064 0.542725
vt1 0.569336 0.848511
vt1 0.012062 0.459473
vt1 0.570312 0.461914
vt1 0.570312 0.542725
vt1 0.008064 0.542725
vn 0.000000 0.000000 1.000000
vn 0.000000 0.000000 1.000000
vn 0.000000 0.000000 1.000000
vn 0.000000 0.000000 1.000000
vn 0.000000 -0.000000 -1.000000
vn 0.000000 -0.000000 -1.000000
vn 0.000000 -0.000000 -1.000000
vn 0.000000 -0.000000 -1.000000
vn 0.000000 0.708661 -0.708661
vn 0.000000 0.708661 -0.708661
vn 0.000000 0.708661 -0.708661
vn 0.000000 0.708661 -0.708661
tan 0.000000 -1.000000 0.000000 1.000000
tan 0.000000 -1.000000 0.000000 1.000000
tan 0.000000 -1.000000 0.000000 1.000000
tan 0.000000 -1.000000 0.000000 1.000000
tan 0.000000 1.000000 -0.000000 1.000000
tan 0.000000 1.000000 -0.000000 1.000000
tan 0.000000 1.000000 -0.000000 1.000000
tan 0.000000 1.000000 -0.000000 1.000000
tan 0.000000 0.708661 0.708661 1.000000
tan 0.000000 0.708661 0.708661 1.000000
tan 0.000000 0.708661 0.708661 1.000000
tan 0.000000 0.708661 0.708661 1.000000
f 3/3/3 2/2/2 1/1/1
f 4/4/4 1/1/1 2/2/2
f 7/7/7 6/6/6 5/5/5
f 8/8/8 5/5/5 6/6/6
f 11/11/11 10/10/10 9/9/9
f 12/12/12 11/11/11 9/9/9
