mtllib SM_WallFence.mtl
g SM_WallFence
#Vertices 90
#Indices 138
#Section 0 Offset 0 NumIndices 48 MaterialIndex 0 MM_BasicFill
#Section 1 Offset 48 NumIndices 6 MaterialIndex 1 MI_EmissiveB02
#Section 2 Offset 54 NumIndices 84 MaterialIndex 2 MI_Brushed_Metal
v 4.000000 3.999999 0.616495
v 0.000000 -0.000000 0.616495
v 0.000000 3.999999 0.616495
v 4.000000 -0.000000 0.616495
v 0.000000 1.248569 -0.331048
v 4.000000 0.000000 -0.331048
v 4.000000 1.248569 -0.331048
v 0.000000 0.000000 -0.331048
v 0.000000 3.630389 0.000000
v 4.000000 1.500500 0.000000
v 4.000000 3.630389 0.000000
v 0.000000 1.500500 0.000000
v 0.000000 1.248569 -0.331048
v 4.000000 1.376411 0.000000
v 0.000000 1.376411 0.000000
v 4.000000 1.248569 -0.331048
v 4.000000 1.376411 0.075833
v 0.000000 1.376411 0.075833
v 0.000000 1.376411 0.000000
v 4.000000 1.376411 0.000000
v 4.000000 1.500500 0.000000
v 0.000000 1.500500 0.000000
v 0.000000 1.500500 0.075833
v 4.000000 1.500500 0.075833
v 4.000000 3.999999 0.369610
v 0.000000 3.999999 0.369610
v 0.000000 3.630389 0.000000
v 4.000000 3.630389 0.000000
v 4.000000 3.999999 0.616495
v 0.000000 3.999999 0.616495
v 0.000000 3.999999 0.369610
v 4.000000 3.999999 0.369610
v 0.000000 1.500500 0.075833
v 4.000000 1.376411 0.075833
v 4.000000 1.500500 0.075833
v 0.000000 1.376411 0.075833
v 1.050000 4.918872 -0.100002
v 0.950000 4.481125 0.309257
v 1.050000 4.481125 0.309258
v 0.950000 4.918872 -0.100002
v 0.950000 4.481125 0.309257
v 0.950000 3.874465 0.309258
v 1.050000 4.481125 0.309258
v 1.050000 3.874465 0.309258
v 3.049998 4.918872 -0.100001
v 2.949998 4.481125 0.309258
v 3.049998 4.481125 0.309258
v 2.949998 4.918872 -0.100001
v 2.949998 4.481125 0.309258
v 2.949998 3.874465 0.309258
v 3.049998 4.481125 0.309258
v 3.049998 3.874465 0.309258
v 0.950000 4.941409 -0.075897
v 0.950000 4.481125 0.309257
v 0.950000 4.918872 -0.100002
v 0.950000 4.493238 0.339953
v 1.050000 4.941409 -0.075897
v 1.050000 4.481125 0.309258
v 1.050000 4.493238 0.339953
v 1.050000 4.918872 -0.100002
v 1.050000 4.941409 -0.075897
v 0.950000 4.918872 -0.100002
v 1.050000 4.918872 -0.100002
v 0.950000 4.941409 -0.075897
v 1.050000 4.481125 0.309258
v 1.050000 3.874465 0.309258
v 1.050000 3.874465 0.342258
v 1.050000 4.493238 0.339953
v 0.950000 3.874465 0.342258
v 0.950000 4.481125 0.309257
v 0.950000 4.493238 0.339953
v 0.950000 3.874465 0.309258
v 2.949998 4.941409 -0.075896
v 2.949998 4.481125 0.309258
v 2.949998 4.918872 -0.100001
v 2.949998 4.493239 0.339954
v 3.049998 4.941409 -0.075896
v 2.949998 4.918872 -0.100001
v 3.049998 4.918872 -0.100001
v 2.949998 4.941409 -0.075896
v 2.949998 3.874465 0.342258
v 2.949998 4.481125 0.309258
v 2.949998 4.493239 0.339954
v 2.949998 3.874465 0.309258
v 3.049998 4.481125 0.309258
v 3.049998 4.941409 -0.075896
v 3.049998 4.918872 -0.100001
v 3.049998 4.493239 0.339954
v 3.049998 3.874465 0.342258
v 3.049998 3.874465 0.309258
vt -0.021301 0.451660
vt 0.478516 -0.047852
vt 0.478516 0.451660
vt -0.021301 -0.047852
vt 0.478516 0.892578
vt -0.021301 1.048584
vt -0.021301 0.892578
vt 0.478516 1.048584
vt 0.478516 0.547607
vt -0.021301 0.813843
vt -0.021301 0.547607
vt 0.478516 0.813843
vt 0.478516 0.892578
vt -0.021301 0.848267
vt 0.478516 0.848267
vt -0.021301 0.892578
vt -0.021301 0.838745
vt 0.478516 0.838745
vt 0.478516 0.848267
vt -0.021301 0.848267
vt -0.021301 0.813843
vt 0.478516 0.813843
vt 0.478516 0.823242
vt -0.021301 0.823242
vt -0.021301 0.482422
vt 0.478516 0.482422
vt 0.478516 0.547607
vt -0.021301 0.547607
vt -0.021301 0.451660
vt 0.478516 0.451660
vt 0.478516 0.482422
vt -0.021301 0.482422
vt 0.478516 0.823242
vt -0.021301 0.838745
vt -0.021301 0.823242
vt 0.478516 0.838745
vt 0.449707 0.014160
vt 0.518066 0.001465
vt 0.518555 0.017090
vt 0.450195 0.005859
vt 0.518066 0.001465
vt 0.600098 0.003418
vt 0.518555 0.017090
vt 0.600098 0.015137
vt 0.449707 0.041016
vt 0.518066 0.028809
vt 0.518555 0.044434
vt 0.450195 0.033203
vt 0.518066 0.028809
vt 0.600098 0.030762
vt 0.518555 0.044434
vt 0.600098 0.041992
vt 0.445557 0.002441
vt 0.518066 0.001465
vt 0.450195 0.005859
vt 0.518066 -0.001953
vt 0.446289 0.017090
vt 0.518555 0.017090
vt 0.518066 0.020996
vt 0.449707 0.014160
vt 0.446289 0.017090
vt 0.450195 0.005859
vt 0.449707 0.014160
vt 0.445557 0.002441
vt 0.518555 0.017090
vt 0.600098 0.015137
vt 0.600586 0.019043
vt 0.518066 0.020996
vt 0.600586 0.000000
vt 0.518066 0.001465
vt 0.518066 -0.001953
vt 0.600098 0.003418
vt 0.445557 0.029785
vt 0.518066 0.028809
vt 0.450195 0.033203
vt 0.518066 0.024902
vt 0.446289 0.044434
vt 0.450195 0.033203
vt 0.449707 0.041016
vt 0.445557 0.029785
vt 0.600586 0.026855
vt 0.518066 0.028809
vt 0.518066 0.024902
vt 0.600098 0.030762
vt 0.518555 0.044434
vt 0.446289 0.044434
vt 0.449707 0.041016
vt 0.518066 0.048340
vt 0.600586 0.045898
vt 0.600098 0.041992
vt1 0.008064 0.456543
vt1 0.570312 0.008301
vt1 0.570312 0.456543
vt1 0.008064 0.008301
vt1 0.570312 0.852051
vt1 0.008064 0.991936
vt1 0.008064 0.852051
vt1 0.570312 0.991936
vt1 0.570312 0.542725
vt1 0.008064 0.781372
vt1 0.008064 0.542725
vt1 0.570312 0.781372
vt1 0.570312 0.852051
vt1 0.008064 0.812256
vt1 0.570312 0.812256
vt1 0.008064 0.852051
vt1 0.008064 0.803833
vt1 0.570312 0.803833
vt1 0.570312 0.812256
vt1 0.008064 0.812256
vt1 0.008064 0.781372
vt1 0.570312 0.781372
vt1 0.570312 0.789917
vt1 0.008064 0.789917
vt1 0.008064 0.484375
vt1 0.570312 0.484375
vt1 0.570312 0.542725
vt1 0.008064 0.542725
vt1 0.008064 0.456543
vt1 0.570312 0.456543
vt1 0.570312 0.484375
vt1 0.008064 0.484375
vt1 0.570312 0.789917
vt1 0.008064 0.803833
vt1 0.008064 0.789917
vt1 0.570312 0.803833
vt1 0.645020 0.034668
vt1 0.744629 0.468750
vt1 0.620117 0.471680
vt1 0.708984 0.038086
vt1 0.744629 0.468750
vt1 0.729004 0.991356
vt1 0.620117 0.471680
vt1 0.636719 0.991287
vt1 0.854492 0.034668
vt1 0.954102 0.468750
vt1 0.829590 0.471680
vt1 0.918945 0.038086
vt1 0.954102 0.468750
vt1 0.938965 0.991356
vt1 0.829590 0.471680
vt1 0.846680 0.991287
vt1 0.735840 0.008301
vt1 0.744629 0.468750
vt1 0.708984 0.038086
vt1 0.775879 0.468262
vt1 0.619629 0.013184
vt1 0.620117 0.471680
vt1 0.588379 0.471191
vt1 0.645020 0.034668
vt1 0.619629 0.013184
vt1 0.708984 0.038086
vt1 0.645020 0.034668
vt1 0.735840 0.008301
vt1 0.620117 0.471680
vt1 0.636719 0.991287
vt1 0.605957 0.991936
vt1 0.588379 0.471191
vt1 0.760254 0.991936
vt1 0.744629 0.468750
vt1 0.775879 0.468262
vt1 0.729004 0.991356
vt1 0.945312 0.008301
vt1 0.954102 0.468750
vt1 0.918945 0.038086
vt1 0.985840 0.468262
vt1 0.829102 0.013184
vt1 0.918945 0.038086
vt1 0.854492 0.034668
vt1 0.945312 0.008301
vt1 0.970215 0.991936
vt1 0.954102 0.468750
vt1 0.985840 0.468262
vt1 0.938965 0.991356
vt1 0.829590 0.471680
vt1 0.829102 0.013184
vt1 0.854492 0.034668
vt1 0.798340 0.471191
vt1 0.815430 0.991936
vt1 0.846680 0.991287
vn 0.000000 0.000000 1.000000
vn 0.000000 0.000000 1.000000
vn 0.000000 0.000000 1.000000
vn 0.000000 0.000000 1.000000
vn 0.000000 -0.000000 -1.000000
vn 0.000000 -0.000000 -1.000000
vn 0.000000 -0.000000 -1.000000
vn 0.000000 -0.000000 -1.000000
vn 0.000000 -0.000000 -1.000000
vn 0.000000 -0.000000 -1.000000
vn 0.000000 -0.000000 -1.000000
vn 0.000000 -0.000000 -1.000000
vn 0.000000 0.929134 -0.362205
vn 0.000000 0.929134 -0.362205
vn 0.000000 0.929134 -0.362205
vn 0.000000 0.929134 -0.362205
vn 0.000000 1.000000 -0.000000
vn 0.000000 1.000000 -0.000000
vn 0.000000 1.000000 -0.000000
vn 0.000000 1.000000 -0.000000
vn 0.000000 -1.000000 0.000000
vn 0.000000 -1.000000 0.000000
vn 0.000000 -1.000000 0.000000
vn 0.000000 -1.000000 0.000000
vn 0.000000 0.708661 -0.708661
vn 0.000000 0.708661 -0.708661
vn 0.000000 0.708661 -0.708661
vn 0.000000 0.708661 -0.708661
vn 0.000000 1.000000 -0.000000
vn 0.000000 1.000000 -0.000000
vn 0.000000 1.000000 -0.000000
vn 0.000000 1.000000 -0.000000
vn 0.000000 -0.000000 -1.000000
vn 0.000000 -0.000000 -1.000000
vn 0.000000 -0.000000 -1.000000
vn 0.000000 -0.000000 -1.000000
vn 0.000000 -0.685039 -0.732283
vn 0.000000 -0.685039 -0.732283
vn 0.000000 -0.685039 -0.732283
vn 0.000000 -0.685039 -0.732283
vn 0.000000 -0.000000 -1.000000
vn 0.000000 -0.000000 -1.000000
vn 0.000000 -0.000000 -1.000000
vn 0.000000 -0.000000 -1.000000
vn 0.000000 -0.685039 -0.732283
vn 0.000000 -0.685039 -0.732283
vn 0.000000 -0.685039 -0.732283
vn 0.000000 -0.685039 -0.732283
vn 0.000000 -0.000000 -1.000000
vn 0.000000 -0.000000 -1.000000
vn 0.000000 -0.000000 -1.000000
vn 0.000000 -0.000000 -1.000000
vn -1.000000 0.000000 0.000000
vn -1.000000 0.000000 0.000000
vn -1.000000 0.000000 0.000000
vn -1.000000 0.000000 0.000000
vn 1.000000 0.000000 0.000000
vn 1.000000 0.000000 0.000000
vn 1.000000 0.000000 0.000000
vn 1.000000 0.000000 0.000000
vn 0.000000 0.732283 -0.685039
vn 0.000000 0.732283 -0.685039
vn 0.000000 0.732283 -0.685039
vn 0.000000 0.732283 -0.685039
vn 1.000000 0.000000 0.000000
vn 1.000000 0.000000 0.000000
vn 1.000000 0.000000 0.000000
vn 1.000000 0.000000 0.000000
vn -1.000000 0.000000 0.000000
vn -1.000000 0.000000 0.000000
vn -1.000000 0.000000 0.000000
vn -1.000000 0.000000 0.000000
vn -1.000000 0.000000 0.000000
vn -1.000000 0.000000 0.000000
vn -1.000000 0.000000 0.000000
vn -1.000000 0.000000 0.000000
vn 0.000000 0.732283 -0.685039
vn 0.000000 0.732283 -0.685039
vn 0.000000 0.732283 -0.685039
vn 0.000000 0.732283 -0.685039
vn -1.000000 0.000000 0.000000
vn -1.000000 0.000000 0.000000
vn -1.000000 0.000000 0.000000
vn -1.000000 0.000000 0.000000
vn 1.000000 0.000000 0.000000
vn 1.000000 0.000000 0.000000
vn 1.000000 0.000000 0.000000
vn 1.000000 0.000000 0.000000
vn 1.000000 0.000000 0.000000
vn 1.000000 0.000000 0.000000
tan 0.000000 -1.000000 0.000000 1.000000
tan 0.000000 -1.000000 0.000000 1.000000
tan 0.000000 -1.000000 0.000000 1.000000
tan 0.000000 -1.000000 0.000000 1.000000
tan 0.000000 1.000000 -0.000000 1.000000
tan 0.000000 1.000000 -0.000000 1.000000
tan 0.000000 1.000000 -0.000000 1.000000
tan 0.000000 1.000000 -0.000000 1.000000
tan 0.000000 1.000000 -0.000000 1.000000
tan 0.000000 1.000000 -0.000000 1.000000
tan 0.000000 1.000000 -0.000000 1.000000
tan 0.000000 1.000000 -0.000000 1.000000
tan 0.000000 0.362205 0.929134 1.000000
tan 0.000000 0.362205 0.929134 1.000000
tan 0.000000 0.362205 0.929134 1.000000
tan 0.000000 0.362205 0.929134 1.000000
tan 0.000000 0.000000 1.000000 1.000000
tan 0.000000 0.000000 1.000000 1.000000
tan 0.000000 0.000000 1.000000 1.000000
tan 0.000000 0.000000 1.000000 1.000000
tan 0.000000 -0.000000 -1.000000 1.000000
tan 0.000000 -0.000000 -1.000000 1.000000
tan 0.000000 -0.000000 -1.000000 1.000000
tan 0.000000 -0.000000 -1.000000 1.000000
tan 0.000000 0.708661 0.708661 1.000000
tan 0.000000 0.708661 0.708661 1.000000
tan 0.000000 0.708661 0.708661 1.000000
tan 0.000000 0.708661 0.708661 1.000000
tan 0.000000 0.000000 1.000000 1.000000
tan 0.000000 0.000000 1.000000 1.000000
tan 0.000000 0.000000 1.000000 1.000000
tan 0.000000 0.000000 1.000000 1.000000
tan 0.000000 1.000000 -0.000000 1.000000
tan 0.000000 1.000000 -0.000000 1.000000
tan 0.000000 1.000000 -0.000000 1.000000
tan 0.000000 1.000000 -0.000000 1.000000
tan -0.994358 -0.057660 0.053940 1.000000
tan -1.005518 0.017298 -0.016182 1.000000
tan -1.005518 0.023064 -0.021576 1.000000
tan -0.994358 -0.069192 0.064728 1.000000
tan -1.000000 0.023622 -0.000000 1.000000
tan -1.000000 -0.023622 0.000000 1.000000
tan -1.000000 0.015748 -0.000000 1.000000
tan -1.000000 -0.031496 0.000000 1.000000
tan -0.994358 -0.057660 0.053940 1.000000
tan -1.005518 0.017298 -0.016182 1.000000
tan -1.005518 0.023064 -0.021576 1.000000
tan -0.994358 -0.069192 0.064728 1.000000
tan -1.000000 0.023622 -0.000000 1.000000
tan -1.000000 -0.023622 0.000000 1.000000
tan -1.000000 0.015748 -0.000000 1.000000
tan -1.000000 -0.031496 0.000000 1.000000
tan 0.000000 0.629921 0.779527 1.000000
tan 0.000000 0.629921 0.779527 1.000000
tan 0.000000 0.629921 0.779527 1.000000
tan 0.000000 0.629921 0.779527 1.000000
tan 0.000000 -0.645669 -0.763779 1.000000
tan 0.000000 -0.645669 -0.763779 1.000000
tan 0.000000 -0.645669 -0.763779 1.000000
tan 0.000000 -0.645669 -0.763779 1.000000
tan -0.810032 -0.404551 -0.432451 1.000000
tan -0.938558 0.242730 0.259470 1.000000
tan -0.648025 -0.523219 -0.559303 1.000000
tan -0.821192 0.388369 0.415153 1.000000
tan 0.000000 -0.031496 -1.000000 1.000000
tan 0.000000 -0.031496 -1.000000 1.000000
tan 0.000000 -0.031496 -1.000000 1.000000
tan 0.000000 -0.031496 -1.000000 1.000000
tan 0.000000 0.023622 1.000000 1.000000
tan 0.000000 0.031496 1.000000 1.000000
tan 0.000000 0.031496 1.000000 1.000000
tan 0.000000 0.023622 1.000000 1.000000
tan 0.000000 0.629921 0.779527 1.000000
tan 0.000000 0.629921 0.779527 1.000000
tan 0.000000 0.629921 0.779527 1.000000
tan 0.000000 0.629921 0.779527 1.000000
tan -0.810032 -0.404551 -0.432451 1.000000
tan -0.938558 0.242730 0.259470 1.000000
tan -0.648025 -0.523219 -0.559303 1.000000
tan -0.821192 0.388369 0.415153 1.000000
tan 0.000000 0.023622 1.000000 1.000000
tan 0.000000 0.031496 1.000000 1.000000
tan 0.000000 0.031496 1.000000 1.000000
tan 0.000000 0.023622 1.000000 1.000000
tan 0.000000 -0.354331 -0.937008 1.000000
tan 0.000000 -0.645669 -0.763779 1.000000
tan 0.000000 -0.645669 -0.763779 1.000000
tan 0.000000 -0.354331 -0.937008 1.000000
tan 0.000000 -0.031496 -1.000000 1.000000
tan 0.000000 -0.031496 -1.000000 1.000000
f 3/3/3 2/2/2 1/1/1
f 4/4/4 1/1/1 2/2/2
f 7/7/7 6/6/6 5/5/5
f 8/8/8 5/5/5 6/6/6
f 11/11/11 10/10/10 9/9/9
f 12/12/12 9/9/9 10/10/10
f 15/15/15 14/14/14 13/13/13
f 16/16/16 13/13/13 14/14/14
f 19/19/19 18/18/18 17/17/17
f 20/20/20 19/19/19 17/17/17
f 23/23/23 22/22/22 21/21/21
f 24/24/24 23/23/23 21/21/21
f 27/27/27 26/26/26 25/25/25
f 28/28/28 27/27/27 25/25/25
f 31/31/31 30/30/30 29/29/29
f 32/32/32 31/31/31 29/29/29
f 35/35/35 34/34/34 33/33/33
f 36/36/36 33/33/33 34/34/34
f 39/39/39 38/38/38 37/37/37
f 40/40/40 37/37/37 38/38/38
f 43/43/43 42/42/42 41/41/41
f 42/42/42 43/43/43 44/44/44
f 47/47/47 46/46/46 45/45/45
f 48/48/48 45/45/45 46/46/46
f 51/51/51 50/50/50 49/49/49
f 50/50/50 51/51/51 52/52/52
f 55/55/55 54/54/54 53/53/53
f 56/56/56 53/53/53 54/54/54
f 59/59/59 58/58/58 57/57/57
f 60/60/60 57/57/57 58/58/58
f 63/63/63 62/62/62 61/61/61
f 64/64/64 61/61/61 62/62/62
f 67/67/67 66/66/66 65/65/65
f 68/68/68 67/67/67 65/65/65
f 71/71/71 70/70/70 69/69/69
f 72/72/72 69/69/69 70/70/70
f 75/75/75 74/74/74 73/73/73
f 76/76/76 73/73/73 74/74/74
f 79/79/79 78/78/78 77/77/77
f 80/80/80 77/77/77 78/78/78
f 83/83/83 82/82/82 81/81/81
f 84/84/84 81/81/81 82/82/82
f 87/87/87 86/86/86 85/85/85
f 88/88/88 85/85/85 86/86/86
f 88/88/88 89/89/89 85/85/85
f 89/89/89 90/90/90 85/85/85
